# Tiled2Unity generated file. Do not modify by hand.
# Wavefront file for 'House_mesh_0008.obj'

# Vertices (Count = 512)
v 0 -1 0
v -1 -1 0
v -1 0 0
v 0 0 0
v -1 -1 0
v -2 -1 0
v -2 0 0
v -1 0 0
v -2 -1 0
v -3 -1 0
v -3 0 0
v -2 0 0
v -3 -1 0
v -4 -1 0
v -4 0 0
v -3 0 0
v -4 -1 0
v -5 -1 0
v -5 0 0
v -4 0 0
v -5 -1 0
v -6 -1 0
v -6 0 0
v -5 0 0
v -6 -1 0
v -7 -1 0
v -7 0 0
v -6 0 0
v -7 -1 0
v -8 -1 0
v -8 0 0
v -7 0 0
v -8 -1 0
v -9 -1 0
v -9 0 0
v -8 0 0
v -9 -1 0
v -10 -1 0
v -10 0 0
v -9 0 0
v -10 -1 0
v -11 -1 0
v -11 0 0
v -10 0 0
v -11 -1 0
v -12 -1 0
v -12 0 0
v -11 0 0
v -12 -1 0
v -13 -1 0
v -13 0 0
v -12 0 0
v -13 -1 0
v -14 -1 0
v -14 0 0
v -13 0 0
v -14 -1 0
v -15 -1 0
v -15 0 0
v -14 0 0
v -15 -1 0
v -16 -1 0
v -16 0 0
v -15 0 0
v 0 -2 0
v -1 -2 0
v -1 -1 0
v 0 -1 0
v -1 -2 0
v -2 -2 0
v -2 -1 0
v -1 -1 0
v -2 -2 0
v -3 -2 0
v -3 -1 0
v -2 -1 0
v -3 -2 0
v -4 -2 0
v -4 -1 0
v -3 -1 0
v -4 -2 0
v -5 -2 0
v -5 -1 0
v -4 -1 0
v -5 -2 0
v -6 -2 0
v -6 -1 0
v -5 -1 0
v -6 -2 0
v -7 -2 0
v -7 -1 0
v -6 -1 0
v -7 -2 0
v -8 -2 0
v -8 -1 0
v -7 -1 0
v -8 -2 0
v -9 -2 0
v -9 -1 0
v -8 -1 0
v -9 -2 0
v -10 -2 0
v -10 -1 0
v -9 -1 0
v -10 -2 0
v -11 -2 0
v -11 -1 0
v -10 -1 0
v -11 -2 0
v -12 -2 0
v -12 -1 0
v -11 -1 0
v -12 -2 0
v -13 -2 0
v -13 -1 0
v -12 -1 0
v -13 -2 0
v -14 -2 0
v -14 -1 0
v -13 -1 0
v -14 -2 0
v -15 -2 0
v -15 -1 0
v -14 -1 0
v -15 -2 0
v -16 -2 0
v -16 -1 0
v -15 -1 0
v 0 -3 0
v -1 -3 0
v -1 -2 0
v 0 -2 0
v -1 -3 0
v -2 -3 0
v -2 -2 0
v -1 -2 0
v -2 -3 0
v -3 -3 0
v -3 -2 0
v -2 -2 0
v -3 -3 0
v -4 -3 0
v -4 -2 0
v -3 -2 0
v -4 -3 0
v -5 -3 0
v -5 -2 0
v -4 -2 0
v -5 -3 0
v -6 -3 0
v -6 -2 0
v -5 -2 0
v -6 -3 0
v -7 -3 0
v -7 -2 0
v -6 -2 0
v -7 -3 0
v -8 -3 0
v -8 -2 0
v -7 -2 0
v -8 -3 0
v -9 -3 0
v -9 -2 0
v -8 -2 0
v -9 -3 0
v -10 -3 0
v -10 -2 0
v -9 -2 0
v -10 -3 0
v -11 -3 0
v -11 -2 0
v -10 -2 0
v -11 -3 0
v -12 -3 0
v -12 -2 0
v -11 -2 0
v -12 -3 0
v -13 -3 0
v -13 -2 0
v -12 -2 0
v -13 -3 0
v -14 -3 0
v -14 -2 0
v -13 -2 0
v -14 -3 0
v -15 -3 0
v -15 -2 0
v -14 -2 0
v -15 -3 0
v -16 -3 0
v -16 -2 0
v -15 -2 0
v 0 -4 0
v -1 -4 0
v -1 -3 0
v 0 -3 0
v -1 -4 0
v -2 -4 0
v -2 -3 0
v -1 -3 0
v -2 -4 0
v -3 -4 0
v -3 -3 0
v -2 -3 0
v -3 -4 0
v -4 -4 0
v -4 -3 0
v -3 -3 0
v -4 -4 0
v -5 -4 0
v -5 -3 0
v -4 -3 0
v -5 -4 0
v -6 -4 0
v -6 -3 0
v -5 -3 0
v -6 -4 0
v -7 -4 0
v -7 -3 0
v -6 -3 0
v -7 -4 0
v -8 -4 0
v -8 -3 0
v -7 -3 0
v -8 -4 0
v -9 -4 0
v -9 -3 0
v -8 -3 0
v -9 -4 0
v -10 -4 0
v -10 -3 0
v -9 -3 0
v -10 -4 0
v -11 -4 0
v -11 -3 0
v -10 -3 0
v -11 -4 0
v -12 -4 0
v -12 -3 0
v -11 -3 0
v -12 -4 0
v -13 -4 0
v -13 -3 0
v -12 -3 0
v -13 -4 0
v -14 -4 0
v -14 -3 0
v -13 -3 0
v -14 -4 0
v -15 -4 0
v -15 -3 0
v -14 -3 0
v -15 -4 0
v -16 -4 0
v -16 -3 0
v -15 -3 0
v 0 -5 0
v -1 -5 0
v -1 -4 0
v 0 -4 0
v -1 -5 0
v -2 -5 0
v -2 -4 0
v -1 -4 0
v -2 -5 0
v -3 -5 0
v -3 -4 0
v -2 -4 0
v -3 -5 0
v -4 -5 0
v -4 -4 0
v -3 -4 0
v -4 -5 0
v -5 -5 0
v -5 -4 0
v -4 -4 0
v -5 -5 0
v -6 -5 0
v -6 -4 0
v -5 -4 0
v -6 -5 0
v -7 -5 0
v -7 -4 0
v -6 -4 0
v -7 -5 0
v -8 -5 0
v -8 -4 0
v -7 -4 0
v -8 -5 0
v -9 -5 0
v -9 -4 0
v -8 -4 0
v -9 -5 0
v -10 -5 0
v -10 -4 0
v -9 -4 0
v -10 -5 0
v -11 -5 0
v -11 -4 0
v -10 -4 0
v -11 -5 0
v -12 -5 0
v -12 -4 0
v -11 -4 0
v -12 -5 0
v -13 -5 0
v -13 -4 0
v -12 -4 0
v -13 -5 0
v -14 -5 0
v -14 -4 0
v -13 -4 0
v -14 -5 0
v -15 -5 0
v -15 -4 0
v -14 -4 0
v -15 -5 0
v -16 -5 0
v -16 -4 0
v -15 -4 0
v 0 -6 0
v -1 -6 0
v -1 -5 0
v 0 -5 0
v -1 -6 0
v -2 -6 0
v -2 -5 0
v -1 -5 0
v -2 -6 0
v -3 -6 0
v -3 -5 0
v -2 -5 0
v -3 -6 0
v -4 -6 0
v -4 -5 0
v -3 -5 0
v -4 -6 0
v -5 -6 0
v -5 -5 0
v -4 -5 0
v -5 -6 0
v -6 -6 0
v -6 -5 0
v -5 -5 0
v -6 -6 0
v -7 -6 0
v -7 -5 0
v -6 -5 0
v -7 -6 0
v -8 -6 0
v -8 -5 0
v -7 -5 0
v -8 -6 0
v -9 -6 0
v -9 -5 0
v -8 -5 0
v -9 -6 0
v -10 -6 0
v -10 -5 0
v -9 -5 0
v -10 -6 0
v -11 -6 0
v -11 -5 0
v -10 -5 0
v -11 -6 0
v -12 -6 0
v -12 -5 0
v -11 -5 0
v -12 -6 0
v -13 -6 0
v -13 -5 0
v -12 -5 0
v -13 -6 0
v -14 -6 0
v -14 -5 0
v -13 -5 0
v -14 -6 0
v -15 -6 0
v -15 -5 0
v -14 -5 0
v -15 -6 0
v -16 -6 0
v -16 -5 0
v -15 -5 0
v 0 -7 0
v -1 -7 0
v -1 -6 0
v 0 -6 0
v -1 -7 0
v -2 -7 0
v -2 -6 0
v -1 -6 0
v -2 -7 0
v -3 -7 0
v -3 -6 0
v -2 -6 0
v -3 -7 0
v -4 -7 0
v -4 -6 0
v -3 -6 0
v -4 -7 0
v -5 -7 0
v -5 -6 0
v -4 -6 0
v -5 -7 0
v -6 -7 0
v -6 -6 0
v -5 -6 0
v -6 -7 0
v -7 -7 0
v -7 -6 0
v -6 -6 0
v -7 -7 0
v -8 -7 0
v -8 -6 0
v -7 -6 0
v -8 -7 0
v -9 -7 0
v -9 -6 0
v -8 -6 0
v -9 -7 0
v -10 -7 0
v -10 -6 0
v -9 -6 0
v -10 -7 0
v -11 -7 0
v -11 -6 0
v -10 -6 0
v -11 -7 0
v -12 -7 0
v -12 -6 0
v -11 -6 0
v -12 -7 0
v -13 -7 0
v -13 -6 0
v -12 -6 0
v -13 -7 0
v -14 -7 0
v -14 -6 0
v -13 -6 0
v -14 -7 0
v -15 -7 0
v -15 -6 0
v -14 -6 0
v -15 -7 0
v -16 -7 0
v -16 -6 0
v -15 -6 0
v 0 -8 0
v -1 -8 0
v -1 -7 0
v 0 -7 0
v -1 -8 0
v -2 -8 0
v -2 -7 0
v -1 -7 0
v -2 -8 0
v -3 -8 0
v -3 -7 0
v -2 -7 0
v -3 -8 0
v -4 -8 0
v -4 -7 0
v -3 -7 0
v -4 -8 0
v -5 -8 0
v -5 -7 0
v -4 -7 0
v -5 -8 0
v -6 -8 0
v -6 -7 0
v -5 -7 0
v -6 -8 0
v -7 -8 0
v -7 -7 0
v -6 -7 0
v -7 -8 0
v -8 -8 0
v -8 -7 0
v -7 -7 0
v -8 -8 0
v -9 -8 0
v -9 -7 0
v -8 -7 0
v -9 -8 0
v -10 -8 0
v -10 -7 0
v -9 -7 0
v -10 -8 0
v -11 -8 0
v -11 -7 0
v -10 -7 0
v -11 -8 0
v -12 -8 0
v -12 -7 0
v -11 -7 0
v -12 -8 0
v -13 -8 0
v -13 -7 0
v -12 -7 0
v -13 -8 0
v -14 -8 0
v -14 -7 0
v -13 -7 0
v -14 -8 0
v -15 -8 0
v -15 -7 0
v -14 -7 0
v -15 -8 0
v -16 -8 0
v -16 -7 0
v -15 -7 0

# Texture cooridinates (Count = 16)
vt 0.05 0.96
vt 0.075 0.96
vt 0.075 1
vt 0.05 1
vt 0.1 0.96
vt 0.1 1
vt 0 0.96
vt 0.025 0.96
vt 0.025 1
vt 0 1
vt 0.05 0.92
vt 0.075 0.92
vt 0.1 0.92
vt 0.025 0.92
vt 0.05 0.88
vt 0.075 0.88

# Normal
vn 0 0 -1

# Mesh description
g House_mesh_0008

# Faces
f 1/1/1 2/2/1 3/3/1 4/4/1
f 5/1/1 6/2/1 7/3/1 8/4/1
f 9/1/1 10/2/1 11/3/1 12/4/1
f 13/1/1 14/2/1 15/3/1 16/4/1
f 17/1/1 18/2/1 19/3/1 20/4/1
f 21/1/1 22/2/1 23/3/1 24/4/1
f 25/2/1 26/5/1 27/6/1 28/3/1
f 29/7/1 30/8/1 31/9/1 32/10/1
f 33/7/1 34/8/1 35/9/1 36/10/1
f 37/8/1 38/1/1 39/4/1 40/9/1
f 41/1/1 42/2/1 43/3/1 44/4/1
f 45/1/1 46/2/1 47/3/1 48/4/1
f 49/1/1 50/2/1 51/3/1 52/4/1
f 53/1/1 54/2/1 55/3/1 56/4/1
f 57/1/1 58/2/1 59/3/1 60/4/1
f 61/1/1 62/2/1 63/3/1 64/4/1
f 65/11/1 66/12/1 67/2/1 68/1/1
f 69/11/1 70/12/1 71/2/1 72/1/1
f 73/11/1 74/12/1 75/2/1 76/1/1
f 77/11/1 78/12/1 79/2/1 80/1/1
f 81/11/1 82/12/1 83/2/1 84/1/1
f 85/11/1 86/12/1 87/2/1 88/1/1
f 89/12/1 90/13/1 91/5/1 92/2/1
f 93/7/1 94/8/1 95/9/1 96/10/1
f 97/7/1 98/8/1 99/9/1 100/10/1
f 101/14/1 102/11/1 103/1/1 104/8/1
f 105/11/1 106/12/1 107/2/1 108/1/1
f 109/11/1 110/12/1 111/2/1 112/1/1
f 113/11/1 114/12/1 115/2/1 116/1/1
f 117/11/1 118/12/1 119/2/1 120/1/1
f 121/11/1 122/12/1 123/2/1 124/1/1
f 125/11/1 126/12/1 127/2/1 128/1/1
f 129/11/1 130/12/1 131/2/1 132/1/1
f 133/11/1 134/12/1 135/2/1 136/1/1
f 137/11/1 138/12/1 139/2/1 140/1/1
f 141/11/1 142/12/1 143/2/1 144/1/1
f 145/11/1 146/12/1 147/2/1 148/1/1
f 149/11/1 150/12/1 151/2/1 152/1/1
f 153/11/1 154/12/1 155/2/1 156/1/1
f 157/11/1 158/12/1 159/2/1 160/1/1
f 161/11/1 162/12/1 163/2/1 164/1/1
f 165/11/1 166/12/1 167/2/1 168/1/1
f 169/11/1 170/12/1 171/2/1 172/1/1
f 173/11/1 174/12/1 175/2/1 176/1/1
f 177/11/1 178/12/1 179/2/1 180/1/1
f 181/11/1 182/12/1 183/2/1 184/1/1
f 185/11/1 186/12/1 187/2/1 188/1/1
f 189/11/1 190/12/1 191/2/1 192/1/1
f 193/11/1 194/12/1 195/2/1 196/1/1
f 197/11/1 198/12/1 199/2/1 200/1/1
f 201/11/1 202/12/1 203/2/1 204/1/1
f 205/11/1 206/12/1 207/2/1 208/1/1
f 209/11/1 210/12/1 211/2/1 212/1/1
f 213/11/1 214/12/1 215/2/1 216/1/1
f 217/11/1 218/12/1 219/2/1 220/1/1
f 221/11/1 222/12/1 223/2/1 224/1/1
f 225/11/1 226/12/1 227/2/1 228/1/1
f 229/11/1 230/12/1 231/2/1 232/1/1
f 233/11/1 234/12/1 235/2/1 236/1/1
f 237/11/1 238/12/1 239/2/1 240/1/1
f 241/11/1 242/12/1 243/2/1 244/1/1
f 245/11/1 246/12/1 247/2/1 248/1/1
f 249/11/1 250/12/1 251/2/1 252/1/1
f 253/11/1 254/12/1 255/2/1 256/1/1
f 257/15/1 258/16/1 259/12/1 260/11/1
f 261/15/1 262/16/1 263/12/1 264/11/1
f 265/15/1 266/16/1 267/12/1 268/11/1
f 269/15/1 270/16/1 271/12/1 272/11/1
f 273/15/1 274/16/1 275/12/1 276/11/1
f 277/15/1 278/16/1 279/12/1 280/11/1
f 281/15/1 282/16/1 283/12/1 284/11/1
f 285/15/1 286/16/1 287/12/1 288/11/1
f 289/15/1 290/16/1 291/12/1 292/11/1
f 293/15/1 294/16/1 295/12/1 296/11/1
f 297/15/1 298/16/1 299/12/1 300/11/1
f 301/15/1 302/16/1 303/12/1 304/11/1
f 305/15/1 306/16/1 307/12/1 308/11/1
f 309/15/1 310/16/1 311/12/1 312/11/1
f 313/15/1 314/16/1 315/12/1 316/11/1
f 317/15/1 318/16/1 319/12/1 320/11/1
f 321/11/1 322/12/1 323/2/1 324/1/1
f 325/11/1 326/12/1 327/2/1 328/1/1
f 329/11/1 330/12/1 331/2/1 332/1/1
f 333/11/1 334/12/1 335/2/1 336/1/1
f 337/11/1 338/12/1 339/2/1 340/1/1
f 341/11/1 342/12/1 343/2/1 344/1/1
f 345/11/1 346/12/1 347/2/1 348/1/1
f 349/11/1 350/12/1 351/2/1 352/1/1
f 353/11/1 354/12/1 355/2/1 356/1/1
f 357/11/1 358/12/1 359/2/1 360/1/1
f 361/11/1 362/12/1 363/2/1 364/1/1
f 365/11/1 366/12/1 367/2/1 368/1/1
f 369/11/1 370/12/1 371/2/1 372/1/1
f 373/11/1 374/12/1 375/2/1 376/1/1
f 377/11/1 378/12/1 379/2/1 380/1/1
f 381/11/1 382/12/1 383/2/1 384/1/1
f 385/11/1 386/12/1 387/2/1 388/1/1
f 389/11/1 390/12/1 391/2/1 392/1/1
f 393/11/1 394/12/1 395/2/1 396/1/1
f 397/11/1 398/12/1 399/2/1 400/1/1
f 401/11/1 402/12/1 403/2/1 404/1/1
f 405/11/1 406/12/1 407/2/1 408/1/1
f 409/11/1 410/12/1 411/2/1 412/1/1
f 413/11/1 414/12/1 415/2/1 416/1/1
f 417/11/1 418/12/1 419/2/1 420/1/1
f 421/11/1 422/12/1 423/2/1 424/1/1
f 425/11/1 426/12/1 427/2/1 428/1/1
f 429/11/1 430/12/1 431/2/1 432/1/1
f 433/11/1 434/12/1 435/2/1 436/1/1
f 437/11/1 438/12/1 439/2/1 440/1/1
f 441/11/1 442/12/1 443/2/1 444/1/1
f 445/11/1 446/12/1 447/2/1 448/1/1
f 449/11/1 450/12/1 451/2/1 452/1/1
f 453/11/1 454/12/1 455/2/1 456/1/1
f 457/11/1 458/12/1 459/2/1 460/1/1
f 461/11/1 462/12/1 463/2/1 464/1/1
f 465/11/1 466/12/1 467/2/1 468/1/1
f 469/11/1 470/12/1 471/2/1 472/1/1
f 473/11/1 474/12/1 475/2/1 476/1/1
f 477/11/1 478/12/1 479/2/1 480/1/1
f 481/11/1 482/12/1 483/2/1 484/1/1
f 485/11/1 486/12/1 487/2/1 488/1/1
f 489/11/1 490/12/1 491/2/1 492/1/1
f 493/11/1 494/12/1 495/2/1 496/1/1
f 497/11/1 498/12/1 499/2/1 500/1/1
f 501/11/1 502/12/1 503/2/1 504/1/1
f 505/11/1 506/12/1 507/2/1 508/1/1
f 509/11/1 510/12/1 511/2/1 512/1/1

