# Tiled2Unity generated file. Do not modify by hand.
# Wavefront file for 'House_mesh_0011.obj'

# Vertices (Count = 52)
v -1 -16 0
v -2 -16 0
v -2 -15 0
v -1 -15 0
v -2 -16 0
v -3 -16 0
v -3 -15 0
v -2 -15 0
v -3 -16 0
v -4 -16 0
v -4 -15 0
v -3 -15 0
v -4 -16 0
v -5 -16 0
v -5 -15 0
v -4 -15 0
v -5 -16 0
v -6 -16 0
v -6 -15 0
v -5 -15 0
v -6 -16 0
v -7 -16 0
v -7 -15 0
v -6 -15 0
v -8 -16 0
v -9 -16 0
v -9 -15 0
v -8 -15 0
v -9 -16 0
v -10 -16 0
v -10 -15 0
v -9 -15 0
v -10 -16 0
v -11 -16 0
v -11 -15 0
v -10 -15 0
v -11 -16 0
v -12 -16 0
v -12 -15 0
v -11 -15 0
v -12 -16 0
v -13 -16 0
v -13 -15 0
v -12 -15 0
v -13 -16 0
v -14 -16 0
v -14 -15 0
v -13 -15 0
v -14 -16 0
v -15 -16 0
v -15 -15 0
v -14 -15 0

# Texture cooridinates (Count = 34)
vt 0.05 0.36
vt 0.075 0.36
vt 0.075 0.4
vt 0.05 0.4
vt 0.1 0.36
vt 0.1 0.4
vt 0.225 0.8
vt 0.25 0.8
vt 0.25 0.84
vt 0.225 0.84
vt 0.275 0.8
vt 0.275 0.84
vt 0.4 0.96
vt 0.425 0.96
vt 0.425 1
vt 0.4 1
vt 0.45 0.96
vt 0.45 1
vt 0.3 0.96
vt 0.325 0.96
vt 0.325 1
vt 0.3 1
vt 0.35 0.96
vt 0.35 1
vt 0.225 0.96
vt 0.25 0.96
vt 0.25 1
vt 0.225 1
vt 0.3 0.56
vt 0.325 0.56
vt 0.325 0.6
vt 0.3 0.6
vt 0.35 0.56
vt 0.35 0.6

# Normal
vn 0 0 -1

# Mesh description
g House_mesh_0011

# Faces
f 1/1/1 2/2/1 3/3/1 4/4/1
f 5/2/1 6/5/1 7/6/1 8/3/1
f 9/7/1 10/8/1 11/9/1 12/10/1
f 13/8/1 14/11/1 15/12/1 16/9/1
f 17/13/1 18/14/1 19/15/1 20/16/1
f 21/14/1 22/17/1 23/18/1 24/15/1
f 25/19/1 26/20/1 27/21/1 28/22/1
f 29/20/1 30/23/1 31/24/1 32/21/1
f 33/25/1 34/26/1 35/27/1 36/28/1
f 37/7/1 38/8/1 39/9/1 40/10/1
f 41/8/1 42/11/1 43/12/1 44/9/1
f 45/29/1 46/30/1 47/31/1 48/32/1
f 49/30/1 50/33/1 51/34/1 52/31/1

