# Tiled2Unity generated file. Do not modify by hand.
# Wavefront file for 'Cave2-3_mesh_0010.obj'

# Vertices (Count = 12)
v 0 -11 0
v -1 -11 0
v -1 -10 0
v 0 -10 0
v -1 -11 0
v -2 -11 0
v -2 -10 0
v -1 -10 0
v -2 -11 0
v -3 -11 0
v -3 -10 0
v -2 -10 0

# Texture cooridinates (Count = 8)
vt 0.5625 0.6875
vt 0.625 0.6875
vt 0.625 0.75
vt 0.5625 0.75
vt 0.6875 0.6875
vt 0.6875 0.75
vt 0.75 0.6875
vt 0.75 0.75

# Normal
vn 0 0 -1

# Mesh description
g Cave2-3_mesh_0010

# Faces
f 1/1/1 2/2/1 3/3/1 4/4/1
f 5/2/1 6/5/1 7/6/1 8/3/1
f 9/5/1 10/7/1 11/8/1 12/6/1

