# Tiled2Unity generated file. Do not modify by hand.
# Wavefront file for 'House_mesh_0012.obj'

# Vertices (Count = 152)
v -1 -1 0
v -2 -1 0
v -2 0 0
v -1 0 0
v -2 -1 0
v -3 -1 0
v -3 0 0
v -2 0 0
v -3 -1 0
v -4 -1 0
v -4 0 0
v -3 0 0
v -4 -1 0
v -5 -1 0
v -5 0 0
v -4 0 0
v -7 -1 0
v -8 -1 0
v -8 0 0
v -7 0 0
v -8 -1 0
v -9 -1 0
v -9 0 0
v -8 0 0
v -10 -1 0
v -11 -1 0
v -11 0 0
v -10 0 0
v -11 -1 0
v -12 -1 0
v -12 0 0
v -11 0 0
v -12 -1 0
v -13 -1 0
v -13 0 0
v -12 0 0
v -13 -1 0
v -14 -1 0
v -14 0 0
v -13 0 0
v -14 -1 0
v -15 -1 0
v -15 0 0
v -14 0 0
v -1 -2 0
v -2 -2 0
v -2 -1 0
v -1 -1 0
v -2 -2 0
v -3 -2 0
v -3 -1 0
v -2 -1 0
v -13 -2 0
v -14 -2 0
v -14 -1 0
v -13 -1 0
v -14 -2 0
v -15 -2 0
v -15 -1 0
v -14 -1 0
v -5 -7 0
v -6 -7 0
v -6 -6 0
v -5 -6 0
v -6 -7 0
v -7 -7 0
v -7 -6 0
v -6 -6 0
v -7 -7 0
v -8 -7 0
v -8 -6 0
v -7 -6 0
v -8 -7 0
v -9 -7 0
v -9 -6 0
v -8 -6 0
v -9 -7 0
v -10 -7 0
v -10 -6 0
v -9 -6 0
v -10 -7 0
v -11 -7 0
v -11 -6 0
v -10 -6 0
v -5 -8 0
v -6 -8 0
v -6 -7 0
v -5 -7 0
v -6 -8 0
v -7 -8 0
v -7 -7 0
v -6 -7 0
v -7 -8 0
v -8 -8 0
v -8 -7 0
v -7 -7 0
v -8 -8 0
v -9 -8 0
v -9 -7 0
v -8 -7 0
v -9 -8 0
v -10 -8 0
v -10 -7 0
v -9 -7 0
v -10 -8 0
v -11 -8 0
v -11 -7 0
v -10 -7 0
v -5 -9 0
v -6 -9 0
v -6 -8 0
v -5 -8 0
v -6 -9 0
v -7 -9 0
v -7 -8 0
v -6 -8 0
v -7 -9 0
v -8 -9 0
v -8 -8 0
v -7 -8 0
v -8 -9 0
v -9 -9 0
v -9 -8 0
v -8 -8 0
v -9 -9 0
v -10 -9 0
v -10 -8 0
v -9 -8 0
v -10 -9 0
v -11 -9 0
v -11 -8 0
v -10 -8 0
v -14 -12 0
v -15 -12 0
v -15 -11 0
v -14 -11 0
v -14 -13 0
v -15 -13 0
v -15 -12 0
v -14 -12 0
v -14 -14 0
v -15 -14 0
v -15 -13 0
v -14 -13 0
v -1 -15 0
v -2 -15 0
v -2 -14 0
v -1 -14 0
v -14 -15 0
v -15 -15 0
v -15 -14 0
v -14 -14 0

# Texture cooridinates (Count = 60)
vt 0.05 0.32
vt 0.075 0.32
vt 0.075 0.36
vt 0.05 0.36
vt 0.1 0.32
vt 0.1 0.36
vt 0.225 0.76
vt 0.25 0.76
vt 0.25 0.8
vt 0.225 0.8
vt 0.275 0.76
vt 0.275 0.8
vt 0.35 0.96
vt 0.375 0.96
vt 0.375 1
vt 0.35 1
vt 0.4 0.96
vt 0.4 1
vt 0.225 0.92
vt 0.25 0.92
vt 0.25 0.96
vt 0.225 0.96
vt 0.3 0.52
vt 0.325 0.52
vt 0.325 0.56
vt 0.3 0.56
vt 0.35 0.52
vt 0.35 0.56
vt 0.05 0.28
vt 0.075 0.28
vt 0.1 0.28
vt 0.25 0.48
vt 0.275 0.48
vt 0.275 0.52
vt 0.25 0.52
vt 0.3 0.48
vt 0.275 0.92
vt 0.275 0.96
vt 0.3 0.92
vt 0.3 0.96
vt 0.325 0.92
vt 0.325 0.96
vt 0.25 0.88
vt 0.275 0.88
vt 0.3 0.88
vt 0.325 0.88
vt 0.25 0.84
vt 0.275 0.84
vt 0.3 0.84
vt 0.325 0.84
vt 0.45 0.8
vt 0.475 0.8
vt 0.475 0.84
vt 0.45 0.84
vt 0.45 0.76
vt 0.475 0.76
vt 0.45 0.72
vt 0.475 0.72
vt 0.275 0.56
vt 0.25 0.56

# Normal
vn 0 0 -1

# Mesh description
g House_mesh_0012

# Faces
f 1/1/1 2/2/1 3/3/1 4/4/1
f 5/2/1 6/5/1 7/6/1 8/3/1
f 9/7/1 10/8/1 11/9/1 12/10/1
f 13/8/1 14/11/1 15/12/1 16/9/1
f 17/13/1 18/14/1 19/15/1 20/16/1
f 21/14/1 22/17/1 23/18/1 24/15/1
f 25/19/1 26/20/1 27/21/1 28/22/1
f 29/7/1 30/8/1 31/9/1 32/10/1
f 33/8/1 34/11/1 35/12/1 36/9/1
f 37/23/1 38/24/1 39/25/1 40/26/1
f 41/24/1 42/27/1 43/28/1 44/25/1
f 45/29/1 46/30/1 47/2/1 48/1/1
f 49/30/1 50/31/1 51/5/1 52/2/1
f 53/32/1 54/33/1 55/34/1 56/35/1
f 57/33/1 58/36/1 59/23/1 60/34/1
f 61/20/1 62/37/1 63/38/1 64/21/1
f 65/37/1 66/39/1 67/40/1 68/38/1
f 69/39/1 70/41/1 71/42/1 72/40/1
f 73/20/1 74/37/1 75/38/1 76/21/1
f 77/37/1 78/39/1 79/40/1 80/38/1
f 81/39/1 82/41/1 83/42/1 84/40/1
f 85/43/1 86/44/1 87/37/1 88/20/1
f 89/44/1 90/45/1 91/39/1 92/37/1
f 93/45/1 94/46/1 95/41/1 96/39/1
f 97/43/1 98/44/1 99/37/1 100/20/1
f 101/44/1 102/45/1 103/39/1 104/37/1
f 105/45/1 106/46/1 107/41/1 108/39/1
f 109/47/1 110/48/1 111/44/1 112/43/1
f 113/48/1 114/49/1 115/45/1 116/44/1
f 117/49/1 118/50/1 119/46/1 120/45/1
f 121/47/1 122/48/1 123/44/1 124/43/1
f 125/48/1 126/49/1 127/45/1 128/44/1
f 129/49/1 130/50/1 131/46/1 132/45/1
f 133/51/1 134/52/1 135/53/1 136/54/1
f 137/55/1 138/56/1 139/52/1 140/51/1
f 141/57/1 142/58/1 143/56/1 144/55/1
f 145/35/1 146/34/1 147/59/1 148/60/1
f 149/35/1 150/34/1 151/59/1 152/60/1

