# Tiled2Unity generated file. Do not modify by hand.
# Wavefront file for 'Map_mesh_0032.obj'

# Vertices (Count = 196)
v -15 -1 0
v -16 -1 0
v -16 0 0
v -15 0 0
v -13 -2 0
v -14 -2 0
v -14 -1 0
v -13 -1 0
v -14 -2 0
v -15 -2 0
v -15 -1 0
v -14 -1 0
v -15 -2 0
v -16 -2 0
v -16 -1 0
v -15 -1 0
v -12 -3 0
v -13 -3 0
v -13 -2 0
v -12 -2 0
v -13 -3 0
v -14 -3 0
v -14 -2 0
v -13 -2 0
v -14 -3 0
v -15 -3 0
v -15 -2 0
v -14 -2 0
v -15 -3 0
v -16 -3 0
v -16 -2 0
v -15 -2 0
v -12 -4 0
v -13 -4 0
v -13 -3 0
v -12 -3 0
v -13 -4 0
v -14 -4 0
v -14 -3 0
v -13 -3 0
v -14 -4 0
v -15 -4 0
v -15 -3 0
v -14 -3 0
v -15 -4 0
v -16 -4 0
v -16 -3 0
v -15 -3 0
v -10 -5 0
v -11 -5 0
v -11 -4 0
v -10 -4 0
v -11 -5 0
v -12 -5 0
v -12 -4 0
v -11 -4 0
v -12 -5 0
v -13 -5 0
v -13 -4 0
v -12 -4 0
v -13 -5 0
v -14 -5 0
v -14 -4 0
v -13 -4 0
v -14 -5 0
v -15 -5 0
v -15 -4 0
v -14 -4 0
v -15 -5 0
v -16 -5 0
v -16 -4 0
v -15 -4 0
v -10 -6 0
v -11 -6 0
v -11 -5 0
v -10 -5 0
v -12 -6 0
v -13 -6 0
v -13 -5 0
v -12 -5 0
v -13 -6 0
v -14 -6 0
v -14 -5 0
v -13 -5 0
v -14 -6 0
v -15 -6 0
v -15 -5 0
v -14 -5 0
v -15 -6 0
v -16 -6 0
v -16 -5 0
v -15 -5 0
v -9 -7 0
v -10 -7 0
v -10 -6 0
v -9 -6 0
v -10 -7 0
v -11 -7 0
v -11 -6 0
v -10 -6 0
v -12 -7 0
v -13 -7 0
v -13 -6 0
v -12 -6 0
v -13 -7 0
v -14 -7 0
v -14 -6 0
v -13 -6 0
v -14 -7 0
v -15 -7 0
v -15 -6 0
v -14 -6 0
v -15 -7 0
v -16 -7 0
v -16 -6 0
v -15 -6 0
v -12 -8 0
v -13 -8 0
v -13 -7 0
v -12 -7 0
v -13 -8 0
v -14 -8 0
v -14 -7 0
v -13 -7 0
v -14 -8 0
v -15 -8 0
v -15 -7 0
v -14 -7 0
v -15 -8 0
v -16 -8 0
v -16 -7 0
v -15 -7 0
v -12 -9 0
v -13 -9 0
v -13 -8 0
v -12 -8 0
v -13 -9 0
v -14 -9 0
v -14 -8 0
v -13 -8 0
v -14 -9 0
v -15 -9 0
v -15 -8 0
v -14 -8 0
v -15 -9 0
v -16 -9 0
v -16 -8 0
v -15 -8 0
v -12 -10 0
v -13 -10 0
v -13 -9 0
v -12 -9 0
v -13 -10 0
v -14 -10 0
v -14 -9 0
v -13 -9 0
v -14 -10 0
v -15 -10 0
v -15 -9 0
v -14 -9 0
v -15 -10 0
v -16 -10 0
v -16 -9 0
v -15 -9 0
v -12 -11 0
v -13 -11 0
v -13 -10 0
v -12 -10 0
v -13 -11 0
v -14 -11 0
v -14 -10 0
v -13 -10 0
v -14 -11 0
v -15 -11 0
v -15 -10 0
v -14 -10 0
v -15 -11 0
v -16 -11 0
v -16 -10 0
v -15 -10 0
v -12 -12 0
v -13 -12 0
v -13 -11 0
v -12 -11 0
v -13 -12 0
v -14 -12 0
v -14 -11 0
v -13 -11 0
v -14 -12 0
v -15 -12 0
v -15 -11 0
v -14 -11 0
v -15 -12 0
v -16 -12 0
v -16 -11 0
v -15 -11 0

# Texture cooridinates (Count = 39)
vt 0.175 0.6944444
vt 0.15 0.6944444
vt 0.15 0.6666666
vt 0.175 0.6666666
vt 0.125 0.6944444
vt 0.125 0.6666666
vt 0.15 0.7222222
vt 0.125 0.7222222
vt 0.1 0.6944444
vt 0.1 0.7222222
vt 0.275 0.5
vt 0.3 0.5
vt 0.3 0.5277778
vt 0.275 0.5277778
vt 0.325 0.5
vt 0.325 0.5277778
vt 0.275 0.4722222
vt 0.3 0.4722222
vt 0.3 0.3888889
vt 0.325 0.3888889
vt 0.325 0.4166667
vt 0.3 0.4166667
vt 0.15 0.75
vt 0.125 0.75
vt 0.1 0.6666666
vt 0.1 0.6388889
vt 0.125 0.6388889
vt 0.15 0.6388889
vt 0.1 0.6111111
vt 0.125 0.6111111
vt 0.15 0.6111111
vt 0.2 0.6666666
vt 0.225 0.6666666
vt 0.225 0.6944444
vt 0.2 0.6944444
vt 0.125 0.5833334
vt 0.15 0.5833334
vt 0.175 0.6388889
vt 0.2 0.6388889

# Normal
vn 0 0 -1

# Mesh description
g Map_mesh_0032

# Faces
f 1/1/1 2/2/1 3/3/1 4/4/1
f 5/1/1 6/2/1 7/3/1 8/4/1
f 9/2/1 10/5/1 11/6/1 12/3/1
f 13/5/1 14/2/1 15/7/1 16/8/1
f 17/1/1 18/2/1 19/3/1 20/4/1
f 21/5/1 22/2/1 23/7/1 24/8/1
f 25/5/1 26/2/1 27/7/1 28/8/1
f 29/5/1 30/2/1 31/7/1 32/8/1
f 33/9/1 34/5/1 35/8/1 36/10/1
f 37/5/1 38/2/1 39/7/1 40/8/1
f 41/5/1 42/2/1 43/7/1 44/8/1
f 45/5/1 46/2/1 47/7/1 48/8/1
f 49/11/1 50/12/1 51/13/1 52/14/1
f 53/12/1 54/15/1 55/16/1 56/13/1
f 57/9/1 58/5/1 59/8/1 60/10/1
f 61/5/1 62/2/1 63/7/1 64/8/1
f 65/5/1 66/2/1 67/7/1 68/8/1
f 69/5/1 70/2/1 71/7/1 72/8/1
f 73/17/1 74/18/1 75/12/1 76/11/1
f 77/9/1 78/5/1 79/8/1 80/10/1
f 81/5/1 82/2/1 83/7/1 84/8/1
f 85/5/1 86/2/1 87/7/1 88/8/1
f 89/5/1 90/2/1 91/7/1 92/8/1
f 93/11/1 94/12/1 95/13/1 96/14/1
f 97/19/1 98/20/1 99/21/1 100/22/1
f 101/9/1 102/5/1 103/8/1 104/10/1
f 105/5/1 106/2/1 107/7/1 108/8/1
f 109/8/1 110/7/1 111/23/1 112/24/1
f 113/8/1 114/7/1 115/23/1 116/24/1
f 117/9/1 118/5/1 119/8/1 120/10/1
f 121/5/1 122/2/1 123/7/1 124/8/1
f 125/5/1 126/2/1 127/7/1 128/8/1
f 129/5/1 130/2/1 131/7/1 132/8/1
f 133/25/1 134/6/1 135/5/1 136/9/1
f 137/6/1 138/3/1 139/2/1 140/5/1
f 141/6/1 142/3/1 143/2/1 144/5/1
f 145/6/1 146/3/1 147/2/1 148/5/1
f 149/26/1 150/27/1 151/6/1 152/25/1
f 153/27/1 154/28/1 155/3/1 156/6/1
f 157/27/1 158/28/1 159/3/1 160/6/1
f 161/27/1 162/28/1 163/3/1 164/6/1
f 165/29/1 166/30/1 167/27/1 168/26/1
f 169/30/1 170/31/1 171/28/1 172/27/1
f 173/30/1 174/31/1 175/28/1 176/27/1
f 177/30/1 178/31/1 179/28/1 180/27/1
f 181/32/1 182/33/1 183/34/1 184/35/1
f 185/36/1 186/37/1 187/31/1 188/30/1
f 189/38/1 190/39/1 191/32/1 192/4/1
f 193/36/1 194/37/1 195/31/1 196/30/1

