# Tiled2Unity generated file. Do not modify by hand.
# Wavefront file for 'Map_mesh_0049.obj'

# Vertices (Count = 120)
v -1 -1 0
v -2 -1 0
v -2 0 0
v -1 0 0
v -2 -1 0
v -3 -1 0
v -3 0 0
v -2 0 0
v -3 -1 0
v -4 -1 0
v -4 0 0
v -3 0 0
v -4 -1 0
v -5 -1 0
v -5 0 0
v -4 0 0
v -5 -1 0
v -6 -1 0
v -6 0 0
v -5 0 0
v -6 -1 0
v -7 -1 0
v -7 0 0
v -6 0 0
v -7 -1 0
v -8 -1 0
v -8 0 0
v -7 0 0
v -6 -5 0
v -7 -5 0
v -7 -4 0
v -6 -4 0
v -6 -6 0
v -7 -6 0
v -7 -5 0
v -6 -5 0
v -6 -7 0
v -7 -7 0
v -7 -6 0
v -6 -6 0
v -6 -8 0
v -7 -8 0
v -7 -7 0
v -6 -7 0
v -6 -9 0
v -7 -9 0
v -7 -8 0
v -6 -8 0
v -6 -10 0
v -7 -10 0
v -7 -9 0
v -6 -9 0
v 0 -11 0
v -1 -11 0
v -1 -10 0
v 0 -10 0
v -1 -11 0
v -2 -11 0
v -2 -10 0
v -1 -10 0
v -2 -11 0
v -3 -11 0
v -3 -10 0
v -2 -10 0
v -6 -11 0
v -7 -11 0
v -7 -10 0
v -6 -10 0
v 0 -12 0
v -1 -12 0
v -1 -11 0
v 0 -11 0
v -1 -12 0
v -2 -12 0
v -2 -11 0
v -1 -11 0
v -2 -12 0
v -3 -12 0
v -3 -11 0
v -2 -11 0
v -6 -12 0
v -7 -12 0
v -7 -11 0
v -6 -11 0
v 0 -13 0
v -1 -13 0
v -1 -12 0
v 0 -12 0
v -1 -13 0
v -2 -13 0
v -2 -12 0
v -1 -12 0
v -2 -13 0
v -3 -13 0
v -3 -12 0
v -2 -12 0
v -6 -13 0
v -7 -13 0
v -7 -12 0
v -6 -12 0
v -2 -14 0
v -3 -14 0
v -3 -13 0
v -2 -13 0
v -6 -14 0
v -7 -14 0
v -7 -13 0
v -6 -13 0
v -6 -15 0
v -7 -15 0
v -7 -14 0
v -6 -14 0
v -5 -16 0
v -6 -16 0
v -6 -15 0
v -5 -15 0
v -6 -16 0
v -7 -16 0
v -7 -15 0
v -6 -15 0

# Texture cooridinates (Count = 43)
vt 0.275 0.4444444
vt 0.3 0.4444444
vt 0.3 0.4722222
vt 0.275 0.4722222
vt 0.325 0.4444444
vt 0.325 0.4722222
vt 0.35 0.4444444
vt 0.35 0.4722222
vt 0 0.5
vt 0.025 0.5
vt 0.025 0.5277778
vt 0 0.5277778
vt 0.1 0.4722222
vt 0.125 0.4722222
vt 0.125 0.5
vt 0.1 0.5
vt 0.9 0.6944444
vt 0.925 0.6944444
vt 0.925 0.7222222
vt 0.9 0.7222222
vt 0.95 0.6944444
vt 0.95 0.7222222
vt 0.675 0.8611111
vt 0.7 0.8611111
vt 0.7 0.8888889
vt 0.675 0.8888889
vt 0.9 0.6666666
vt 0.925 0.6666666
vt 0.95 0.6666666
vt 0.675 0.8333333
vt 0.7 0.8333333
vt 0.9 0.6388889
vt 0.925 0.6388889
vt 0.95 0.6388889
vt 0.675 0.8055556
vt 0.7 0.8055556
vt 0.675 0.7777778
vt 0.7 0.7777778
vt 0.05 0.5
vt 0.075 0.5
vt 0.075 0.5277778
vt 0.05 0.5277778
vt 0.075 0.4722222

# Normal
vn 0 0 -1

# Mesh description
g Map_mesh_0049

# Faces
f 1/1/1 2/2/1 3/3/1 4/4/1
f 5/2/1 6/5/1 7/6/1 8/3/1
f 9/2/1 10/5/1 11/6/1 12/3/1
f 13/2/1 14/5/1 15/6/1 16/3/1
f 17/2/1 18/5/1 19/6/1 20/3/1
f 21/2/1 22/5/1 23/6/1 24/3/1
f 25/5/1 26/7/1 27/8/1 28/6/1
f 29/9/1 30/10/1 31/11/1 32/12/1
f 33/13/1 34/14/1 35/15/1 36/16/1
f 37/13/1 38/14/1 39/15/1 40/16/1
f 41/13/1 42/14/1 43/15/1 44/16/1
f 45/13/1 46/14/1 47/15/1 48/16/1
f 49/13/1 50/14/1 51/15/1 52/16/1
f 53/17/1 54/18/1 55/19/1 56/20/1
f 57/18/1 58/21/1 59/22/1 60/19/1
f 61/23/1 62/24/1 63/25/1 64/26/1
f 65/13/1 66/14/1 67/15/1 68/16/1
f 69/27/1 70/28/1 71/18/1 72/17/1
f 73/28/1 74/29/1 75/21/1 76/18/1
f 77/30/1 78/31/1 79/24/1 80/23/1
f 81/13/1 82/14/1 83/15/1 84/16/1
f 85/32/1 86/33/1 87/28/1 88/27/1
f 89/33/1 90/34/1 91/29/1 92/28/1
f 93/35/1 94/36/1 95/31/1 96/30/1
f 97/13/1 98/14/1 99/15/1 100/16/1
f 101/37/1 102/38/1 103/36/1 104/35/1
f 105/13/1 106/14/1 107/15/1 108/16/1
f 109/13/1 110/14/1 111/15/1 112/16/1
f 113/39/1 114/40/1 115/41/1 116/42/1
f 117/43/1 118/13/1 119/16/1 120/40/1

