# Tiled2Unity generated file. Do not modify by hand.
# Wavefront file for 'Map_mesh_0029.obj'

# Vertices (Count = 176)
v -15 -1 0
v -16 -1 0
v -16 0 0
v -15 0 0
v -13 -2 0
v -14 -2 0
v -14 -1 0
v -13 -1 0
v -14 -2 0
v -15 -2 0
v -15 -1 0
v -14 -1 0
v -15 -2 0
v -16 -2 0
v -16 -1 0
v -15 -1 0
v -12 -3 0
v -13 -3 0
v -13 -2 0
v -12 -2 0
v -13 -3 0
v -14 -3 0
v -14 -2 0
v -13 -2 0
v -14 -3 0
v -15 -3 0
v -15 -2 0
v -14 -2 0
v -15 -3 0
v -16 -3 0
v -16 -2 0
v -15 -2 0
v -12 -4 0
v -13 -4 0
v -13 -3 0
v -12 -3 0
v -13 -4 0
v -14 -4 0
v -14 -3 0
v -13 -3 0
v -14 -4 0
v -15 -4 0
v -15 -3 0
v -14 -3 0
v -15 -4 0
v -16 -4 0
v -16 -3 0
v -15 -3 0
v -12 -5 0
v -13 -5 0
v -13 -4 0
v -12 -4 0
v -13 -5 0
v -14 -5 0
v -14 -4 0
v -13 -4 0
v -14 -5 0
v -15 -5 0
v -15 -4 0
v -14 -4 0
v -15 -5 0
v -16 -5 0
v -16 -4 0
v -15 -4 0
v -12 -6 0
v -13 -6 0
v -13 -5 0
v -12 -5 0
v -13 -6 0
v -14 -6 0
v -14 -5 0
v -13 -5 0
v -14 -6 0
v -15 -6 0
v -15 -5 0
v -14 -5 0
v -15 -6 0
v -16 -6 0
v -16 -5 0
v -15 -5 0
v -12 -7 0
v -13 -7 0
v -13 -6 0
v -12 -6 0
v -13 -7 0
v -14 -7 0
v -14 -6 0
v -13 -6 0
v -14 -7 0
v -15 -7 0
v -15 -6 0
v -14 -6 0
v -15 -7 0
v -16 -7 0
v -16 -6 0
v -15 -6 0
v -12 -8 0
v -13 -8 0
v -13 -7 0
v -12 -7 0
v -13 -8 0
v -14 -8 0
v -14 -7 0
v -13 -7 0
v -14 -8 0
v -15 -8 0
v -15 -7 0
v -14 -7 0
v -15 -8 0
v -16 -8 0
v -16 -7 0
v -15 -7 0
v -12 -9 0
v -13 -9 0
v -13 -8 0
v -12 -8 0
v -13 -9 0
v -14 -9 0
v -14 -8 0
v -13 -8 0
v -14 -9 0
v -15 -9 0
v -15 -8 0
v -14 -8 0
v -15 -9 0
v -16 -9 0
v -16 -8 0
v -15 -8 0
v -12 -10 0
v -13 -10 0
v -13 -9 0
v -12 -9 0
v -13 -10 0
v -14 -10 0
v -14 -9 0
v -13 -9 0
v -14 -10 0
v -15 -10 0
v -15 -9 0
v -14 -9 0
v -15 -10 0
v -16 -10 0
v -16 -9 0
v -15 -9 0
v -12 -11 0
v -13 -11 0
v -13 -10 0
v -12 -10 0
v -13 -11 0
v -14 -11 0
v -14 -10 0
v -13 -10 0
v -14 -11 0
v -15 -11 0
v -15 -10 0
v -14 -10 0
v -15 -11 0
v -16 -11 0
v -16 -10 0
v -15 -10 0
v -12 -12 0
v -13 -12 0
v -13 -11 0
v -12 -11 0
v -13 -12 0
v -14 -12 0
v -14 -11 0
v -13 -11 0
v -14 -12 0
v -15 -12 0
v -15 -11 0
v -14 -11 0
v -15 -12 0
v -16 -12 0
v -16 -11 0
v -15 -11 0

# Texture cooridinates (Count = 27)
vt 0.175 0.6944444
vt 0.15 0.6944444
vt 0.15 0.6666666
vt 0.175 0.6666666
vt 0.125 0.6944444
vt 0.125 0.6666666
vt 0.15 0.7222222
vt 0.125 0.7222222
vt 0.1 0.6944444
vt 0.1 0.7222222
vt 0.15 0.75
vt 0.125 0.75
vt 0.1 0.6666666
vt 0.1 0.6388889
vt 0.125 0.6388889
vt 0.15 0.6388889
vt 0.1 0.6111111
vt 0.125 0.6111111
vt 0.15 0.6111111
vt 0.2 0.6666666
vt 0.225 0.6666666
vt 0.225 0.6944444
vt 0.2 0.6944444
vt 0.125 0.5833334
vt 0.15 0.5833334
vt 0.175 0.6388889
vt 0.2 0.6388889

# Normal
vn 0 0 -1

# Mesh description
g Map_mesh_0029

# Faces
f 1/1/1 2/2/1 3/3/1 4/4/1
f 5/1/1 6/2/1 7/3/1 8/4/1
f 9/2/1 10/5/1 11/6/1 12/3/1
f 13/5/1 14/2/1 15/7/1 16/8/1
f 17/1/1 18/2/1 19/3/1 20/4/1
f 21/5/1 22/2/1 23/7/1 24/8/1
f 25/5/1 26/2/1 27/7/1 28/8/1
f 29/5/1 30/2/1 31/7/1 32/8/1
f 33/9/1 34/5/1 35/8/1 36/10/1
f 37/5/1 38/2/1 39/7/1 40/8/1
f 41/5/1 42/2/1 43/7/1 44/8/1
f 45/5/1 46/2/1 47/7/1 48/8/1
f 49/9/1 50/5/1 51/8/1 52/10/1
f 53/5/1 54/2/1 55/7/1 56/8/1
f 57/5/1 58/2/1 59/7/1 60/8/1
f 61/5/1 62/2/1 63/7/1 64/8/1
f 65/9/1 66/5/1 67/8/1 68/10/1
f 69/5/1 70/2/1 71/7/1 72/8/1
f 73/5/1 74/2/1 75/7/1 76/8/1
f 77/5/1 78/2/1 79/7/1 80/8/1
f 81/9/1 82/5/1 83/8/1 84/10/1
f 85/5/1 86/2/1 87/7/1 88/8/1
f 89/8/1 90/7/1 91/11/1 92/12/1
f 93/8/1 94/7/1 95/11/1 96/12/1
f 97/9/1 98/5/1 99/8/1 100/10/1
f 101/5/1 102/2/1 103/7/1 104/8/1
f 105/5/1 106/2/1 107/7/1 108/8/1
f 109/5/1 110/2/1 111/7/1 112/8/1
f 113/13/1 114/6/1 115/5/1 116/9/1
f 117/6/1 118/3/1 119/2/1 120/5/1
f 121/6/1 122/3/1 123/2/1 124/5/1
f 125/6/1 126/3/1 127/2/1 128/5/1
f 129/14/1 130/15/1 131/6/1 132/13/1
f 133/15/1 134/16/1 135/3/1 136/6/1
f 137/15/1 138/16/1 139/3/1 140/6/1
f 141/15/1 142/16/1 143/3/1 144/6/1
f 145/17/1 146/18/1 147/15/1 148/14/1
f 149/18/1 150/19/1 151/16/1 152/15/1
f 153/18/1 154/19/1 155/16/1 156/15/1
f 157/18/1 158/19/1 159/16/1 160/15/1
f 161/20/1 162/21/1 163/22/1 164/23/1
f 165/24/1 166/25/1 167/19/1 168/18/1
f 169/26/1 170/27/1 171/20/1 172/4/1
f 173/24/1 174/25/1 175/19/1 176/18/1

