# Tiled2Unity generated file. Do not modify by hand.
# Wavefront file for 'Map_mesh_0048.obj'

# Vertices (Count = 36)
v -2 -5 0
v -3 -5 0
v -3 -4 0
v -2 -4 0
v -2 -6 0
v -3 -6 0
v -3 -5 0
v -2 -5 0
v -2 -7 0
v -3 -7 0
v -3 -6 0
v -2 -6 0
v -2 -8 0
v -3 -8 0
v -3 -7 0
v -2 -7 0
v -2 -9 0
v -3 -9 0
v -3 -8 0
v -2 -8 0
v 0 -10 0
v -1 -10 0
v -1 -9 0
v 0 -9 0
v -1 -10 0
v -2 -10 0
v -2 -9 0
v -1 -9 0
v 0 -11 0
v -1 -11 0
v -1 -10 0
v 0 -10 0
v -1 -11 0
v -2 -11 0
v -2 -10 0
v -1 -10 0

# Texture cooridinates (Count = 19)
vt 0 0.5
vt 0.025 0.5
vt 0.025 0.5277778
vt 0 0.5277778
vt 0.1 0.4722222
vt 0.125 0.4722222
vt 0.125 0.5
vt 0.1 0.5
vt 0 0.4722222
vt 0.025 0.4722222
vt 0.725 0.8611111
vt 0.75 0.8611111
vt 0.75 0.8888889
vt 0.725 0.8888889
vt 0.775 0.8611111
vt 0.775 0.8888889
vt 0.725 0.8333333
vt 0.75 0.8333333
vt 0.775 0.8333333

# Normal
vn 0 0 -1

# Mesh description
g Map_mesh_0048

# Faces
f 1/1/1 2/2/1 3/3/1 4/4/1
f 5/5/1 6/6/1 7/7/1 8/8/1
f 9/5/1 10/6/1 11/7/1 12/8/1
f 13/5/1 14/6/1 15/7/1 16/8/1
f 17/9/1 18/10/1 19/2/1 20/1/1
f 21/11/1 22/12/1 23/13/1 24/14/1
f 25/12/1 26/15/1 27/16/1 28/13/1
f 29/17/1 30/18/1 31/12/1 32/11/1
f 33/18/1 34/19/1 35/15/1 36/12/1

