# Tiled2Unity generated file. Do not modify by hand.
# Wavefront file for 'Map_mesh_0044.obj'

# Vertices (Count = 688)
v 0 -1 0
v -1 -1 0
v -1 0 0
v 0 0 0
v -1 -1 0
v -2 -1 0
v -2 0 0
v -1 0 0
v -2 -1 0
v -3 -1 0
v -3 0 0
v -2 0 0
v -3 -1 0
v -4 -1 0
v -4 0 0
v -3 0 0
v -4 -1 0
v -5 -1 0
v -5 0 0
v -4 0 0
v -5 -1 0
v -6 -1 0
v -6 0 0
v -5 0 0
v -6 -1 0
v -7 -1 0
v -7 0 0
v -6 0 0
v -7 -1 0
v -8 -1 0
v -8 0 0
v -7 0 0
v -8 -1 0
v -9 -1 0
v -9 0 0
v -8 0 0
v -9 -1 0
v -10 -1 0
v -10 0 0
v -9 0 0
v -10 -1 0
v -11 -1 0
v -11 0 0
v -10 0 0
v -11 -1 0
v -12 -1 0
v -12 0 0
v -11 0 0
v -12 -1 0
v -13 -1 0
v -13 0 0
v -12 0 0
v -13 -1 0
v -14 -1 0
v -14 0 0
v -13 0 0
v -14 -1 0
v -15 -1 0
v -15 0 0
v -14 0 0
v -15 -1 0
v -16 -1 0
v -16 0 0
v -15 0 0
v 0 -2 0
v -1 -2 0
v -1 -1 0
v 0 -1 0
v -1 -2 0
v -2 -2 0
v -2 -1 0
v -1 -1 0
v -2 -2 0
v -3 -2 0
v -3 -1 0
v -2 -1 0
v -3 -2 0
v -4 -2 0
v -4 -1 0
v -3 -1 0
v -4 -2 0
v -5 -2 0
v -5 -1 0
v -4 -1 0
v -5 -2 0
v -6 -2 0
v -6 -1 0
v -5 -1 0
v -6 -2 0
v -7 -2 0
v -7 -1 0
v -6 -1 0
v -7 -2 0
v -8 -2 0
v -8 -1 0
v -7 -1 0
v -8 -2 0
v -9 -2 0
v -9 -1 0
v -8 -1 0
v -9 -2 0
v -10 -2 0
v -10 -1 0
v -9 -1 0
v -10 -2 0
v -11 -2 0
v -11 -1 0
v -10 -1 0
v -11 -2 0
v -12 -2 0
v -12 -1 0
v -11 -1 0
v -12 -2 0
v -13 -2 0
v -13 -1 0
v -12 -1 0
v -13 -2 0
v -14 -2 0
v -14 -1 0
v -13 -1 0
v -14 -2 0
v -15 -2 0
v -15 -1 0
v -14 -1 0
v -15 -2 0
v -16 -2 0
v -16 -1 0
v -15 -1 0
v 0 -3 0
v -1 -3 0
v -1 -2 0
v 0 -2 0
v -1 -3 0
v -2 -3 0
v -2 -2 0
v -1 -2 0
v -2 -3 0
v -3 -3 0
v -3 -2 0
v -2 -2 0
v -3 -3 0
v -4 -3 0
v -4 -2 0
v -3 -2 0
v -4 -3 0
v -5 -3 0
v -5 -2 0
v -4 -2 0
v -5 -3 0
v -6 -3 0
v -6 -2 0
v -5 -2 0
v -6 -3 0
v -7 -3 0
v -7 -2 0
v -6 -2 0
v -7 -3 0
v -8 -3 0
v -8 -2 0
v -7 -2 0
v -8 -3 0
v -9 -3 0
v -9 -2 0
v -8 -2 0
v -9 -3 0
v -10 -3 0
v -10 -2 0
v -9 -2 0
v -10 -3 0
v -11 -3 0
v -11 -2 0
v -10 -2 0
v -11 -3 0
v -12 -3 0
v -12 -2 0
v -11 -2 0
v -12 -3 0
v -13 -3 0
v -13 -2 0
v -12 -2 0
v -13 -3 0
v -14 -3 0
v -14 -2 0
v -13 -2 0
v -14 -3 0
v -15 -3 0
v -15 -2 0
v -14 -2 0
v -15 -3 0
v -16 -3 0
v -16 -2 0
v -15 -2 0
v 0 -4 0
v -1 -4 0
v -1 -3 0
v 0 -3 0
v -1 -4 0
v -2 -4 0
v -2 -3 0
v -1 -3 0
v -2 -4 0
v -3 -4 0
v -3 -3 0
v -2 -3 0
v -3 -4 0
v -4 -4 0
v -4 -3 0
v -3 -3 0
v -4 -4 0
v -5 -4 0
v -5 -3 0
v -4 -3 0
v -5 -4 0
v -6 -4 0
v -6 -3 0
v -5 -3 0
v -6 -4 0
v -7 -4 0
v -7 -3 0
v -6 -3 0
v -7 -4 0
v -8 -4 0
v -8 -3 0
v -7 -3 0
v -8 -4 0
v -9 -4 0
v -9 -3 0
v -8 -3 0
v -9 -4 0
v -10 -4 0
v -10 -3 0
v -9 -3 0
v -10 -4 0
v -11 -4 0
v -11 -3 0
v -10 -3 0
v -11 -4 0
v -12 -4 0
v -12 -3 0
v -11 -3 0
v -12 -4 0
v -13 -4 0
v -13 -3 0
v -12 -3 0
v -13 -4 0
v -14 -4 0
v -14 -3 0
v -13 -3 0
v -14 -4 0
v -15 -4 0
v -15 -3 0
v -14 -3 0
v -15 -4 0
v -16 -4 0
v -16 -3 0
v -15 -3 0
v 0 -5 0
v -1 -5 0
v -1 -4 0
v 0 -4 0
v -1 -5 0
v -2 -5 0
v -2 -4 0
v -1 -4 0
v -2 -5 0
v -3 -5 0
v -3 -4 0
v -2 -4 0
v -3 -5 0
v -4 -5 0
v -4 -4 0
v -3 -4 0
v -4 -5 0
v -5 -5 0
v -5 -4 0
v -4 -4 0
v -5 -5 0
v -6 -5 0
v -6 -4 0
v -5 -4 0
v -6 -5 0
v -7 -5 0
v -7 -4 0
v -6 -4 0
v -7 -5 0
v -8 -5 0
v -8 -4 0
v -7 -4 0
v -8 -5 0
v -9 -5 0
v -9 -4 0
v -8 -4 0
v -9 -5 0
v -10 -5 0
v -10 -4 0
v -9 -4 0
v -10 -5 0
v -11 -5 0
v -11 -4 0
v -10 -4 0
v -11 -5 0
v -12 -5 0
v -12 -4 0
v -11 -4 0
v -12 -5 0
v -13 -5 0
v -13 -4 0
v -12 -4 0
v -13 -5 0
v -14 -5 0
v -14 -4 0
v -13 -4 0
v -14 -5 0
v -15 -5 0
v -15 -4 0
v -14 -4 0
v -15 -5 0
v -16 -5 0
v -16 -4 0
v -15 -4 0
v 0 -6 0
v -1 -6 0
v -1 -5 0
v 0 -5 0
v -1 -6 0
v -2 -6 0
v -2 -5 0
v -1 -5 0
v -2 -6 0
v -3 -6 0
v -3 -5 0
v -2 -5 0
v -3 -6 0
v -4 -6 0
v -4 -5 0
v -3 -5 0
v -4 -6 0
v -5 -6 0
v -5 -5 0
v -4 -5 0
v -5 -6 0
v -6 -6 0
v -6 -5 0
v -5 -5 0
v -6 -6 0
v -7 -6 0
v -7 -5 0
v -6 -5 0
v -7 -6 0
v -8 -6 0
v -8 -5 0
v -7 -5 0
v -8 -6 0
v -9 -6 0
v -9 -5 0
v -8 -5 0
v -9 -6 0
v -10 -6 0
v -10 -5 0
v -9 -5 0
v -10 -6 0
v -11 -6 0
v -11 -5 0
v -10 -5 0
v -11 -6 0
v -12 -6 0
v -12 -5 0
v -11 -5 0
v -12 -6 0
v -13 -6 0
v -13 -5 0
v -12 -5 0
v -13 -6 0
v -14 -6 0
v -14 -5 0
v -13 -5 0
v -14 -6 0
v -15 -6 0
v -15 -5 0
v -14 -5 0
v -15 -6 0
v -16 -6 0
v -16 -5 0
v -15 -5 0
v 0 -7 0
v -1 -7 0
v -1 -6 0
v 0 -6 0
v -1 -7 0
v -2 -7 0
v -2 -6 0
v -1 -6 0
v -2 -7 0
v -3 -7 0
v -3 -6 0
v -2 -6 0
v -3 -7 0
v -4 -7 0
v -4 -6 0
v -3 -6 0
v -4 -7 0
v -5 -7 0
v -5 -6 0
v -4 -6 0
v -5 -7 0
v -6 -7 0
v -6 -6 0
v -5 -6 0
v -6 -7 0
v -7 -7 0
v -7 -6 0
v -6 -6 0
v -7 -7 0
v -8 -7 0
v -8 -6 0
v -7 -6 0
v -8 -7 0
v -9 -7 0
v -9 -6 0
v -8 -6 0
v -9 -7 0
v -10 -7 0
v -10 -6 0
v -9 -6 0
v -10 -7 0
v -11 -7 0
v -11 -6 0
v -10 -6 0
v -11 -7 0
v -12 -7 0
v -12 -6 0
v -11 -6 0
v -12 -7 0
v -13 -7 0
v -13 -6 0
v -12 -6 0
v -13 -7 0
v -14 -7 0
v -14 -6 0
v -13 -6 0
v -14 -7 0
v -15 -7 0
v -15 -6 0
v -14 -6 0
v -15 -7 0
v -16 -7 0
v -16 -6 0
v -15 -6 0
v 0 -8 0
v -1 -8 0
v -1 -7 0
v 0 -7 0
v -1 -8 0
v -2 -8 0
v -2 -7 0
v -1 -7 0
v -2 -8 0
v -3 -8 0
v -3 -7 0
v -2 -7 0
v -3 -8 0
v -4 -8 0
v -4 -7 0
v -3 -7 0
v -4 -8 0
v -5 -8 0
v -5 -7 0
v -4 -7 0
v -5 -8 0
v -6 -8 0
v -6 -7 0
v -5 -7 0
v -6 -8 0
v -7 -8 0
v -7 -7 0
v -6 -7 0
v -7 -8 0
v -8 -8 0
v -8 -7 0
v -7 -7 0
v -8 -8 0
v -9 -8 0
v -9 -7 0
v -8 -7 0
v -9 -8 0
v -10 -8 0
v -10 -7 0
v -9 -7 0
v -10 -8 0
v -11 -8 0
v -11 -7 0
v -10 -7 0
v -11 -8 0
v -12 -8 0
v -12 -7 0
v -11 -7 0
v -12 -8 0
v -13 -8 0
v -13 -7 0
v -12 -7 0
v -13 -8 0
v -14 -8 0
v -14 -7 0
v -13 -7 0
v -14 -8 0
v -15 -8 0
v -15 -7 0
v -14 -7 0
v -15 -8 0
v -16 -8 0
v -16 -7 0
v -15 -7 0
v 0 -9 0
v -1 -9 0
v -1 -8 0
v 0 -8 0
v -1 -9 0
v -2 -9 0
v -2 -8 0
v -1 -8 0
v -2 -9 0
v -3 -9 0
v -3 -8 0
v -2 -8 0
v -3 -9 0
v -4 -9 0
v -4 -8 0
v -3 -8 0
v -4 -9 0
v -5 -9 0
v -5 -8 0
v -4 -8 0
v -5 -9 0
v -6 -9 0
v -6 -8 0
v -5 -8 0
v -6 -9 0
v -7 -9 0
v -7 -8 0
v -6 -8 0
v -7 -9 0
v -8 -9 0
v -8 -8 0
v -7 -8 0
v -8 -9 0
v -9 -9 0
v -9 -8 0
v -8 -8 0
v -9 -9 0
v -10 -9 0
v -10 -8 0
v -9 -8 0
v -10 -9 0
v -11 -9 0
v -11 -8 0
v -10 -8 0
v 0 -10 0
v -1 -10 0
v -1 -9 0
v 0 -9 0
v -1 -10 0
v -2 -10 0
v -2 -9 0
v -1 -9 0
v -2 -10 0
v -3 -10 0
v -3 -9 0
v -2 -9 0
v -3 -10 0
v -4 -10 0
v -4 -9 0
v -3 -9 0
v -4 -10 0
v -5 -10 0
v -5 -9 0
v -4 -9 0
v -5 -10 0
v -6 -10 0
v -6 -9 0
v -5 -9 0
v -6 -10 0
v -7 -10 0
v -7 -9 0
v -6 -9 0
v -7 -10 0
v -8 -10 0
v -8 -9 0
v -7 -9 0
v -8 -10 0
v -9 -10 0
v -9 -9 0
v -8 -9 0
v -9 -10 0
v -10 -10 0
v -10 -9 0
v -9 -9 0
v -10 -10 0
v -11 -10 0
v -11 -9 0
v -10 -9 0
v 0 -11 0
v -1 -11 0
v -1 -10 0
v 0 -10 0
v -1 -11 0
v -2 -11 0
v -2 -10 0
v -1 -10 0
v -2 -11 0
v -3 -11 0
v -3 -10 0
v -2 -10 0
v -3 -11 0
v -4 -11 0
v -4 -10 0
v -3 -10 0
v -4 -11 0
v -5 -11 0
v -5 -10 0
v -4 -10 0
v -5 -11 0
v -6 -11 0
v -6 -10 0
v -5 -10 0
v -6 -11 0
v -7 -11 0
v -7 -10 0
v -6 -10 0
v -7 -11 0
v -8 -11 0
v -8 -10 0
v -7 -10 0
v -8 -11 0
v -9 -11 0
v -9 -10 0
v -8 -10 0
v -9 -11 0
v -10 -11 0
v -10 -10 0
v -9 -10 0
v -10 -11 0
v -11 -11 0
v -11 -10 0
v -10 -10 0
v 0 -12 0
v -1 -12 0
v -1 -11 0
v 0 -11 0
v -1 -12 0
v -2 -12 0
v -2 -11 0
v -1 -11 0
v -2 -12 0
v -3 -12 0
v -3 -11 0
v -2 -11 0
v -3 -12 0
v -4 -12 0
v -4 -11 0
v -3 -11 0
v -4 -12 0
v -5 -12 0
v -5 -11 0
v -4 -11 0
v -5 -12 0
v -6 -12 0
v -6 -11 0
v -5 -11 0
v -6 -12 0
v -7 -12 0
v -7 -11 0
v -6 -11 0
v -7 -12 0
v -8 -12 0
v -8 -11 0
v -7 -11 0
v -8 -12 0
v -9 -12 0
v -9 -11 0
v -8 -11 0
v -9 -12 0
v -10 -12 0
v -10 -11 0
v -9 -11 0
v -10 -12 0
v -11 -12 0
v -11 -11 0
v -10 -11 0

# Texture cooridinates (Count = 33)
vt 0.15 0.6944444
vt 0.125 0.6944444
vt 0.125 0.6666666
vt 0.15 0.6666666
vt 0.175 0.6666666
vt 0.175 0.6944444
vt 0.15 0.7222222
vt 0.125 0.7222222
vt 0.175 0.7222222
vt 0.15 0.75
vt 0.125 0.75
vt 0.175 0.75
vt 0.1 0.7222222
vt 0.1 0.75
vt 0.1 0.6666666
vt 0.1 0.6944444
vt 0.1 0.6388889
vt 0.125 0.6388889
vt 0.15 0.6388889
vt 0.1 0.6111111
vt 0.125 0.6111111
vt 0.15 0.6111111
vt 0.1 0.5833334
vt 0.125 0.5833334
vt 0.175 0.6388889
vt 0.2 0.6388889
vt 0.2 0.6666666
vt 0.225 0.6666666
vt 0.225 0.6944444
vt 0.2 0.6944444
vt 0.15 0.5833334
vt 0.175 0.6111111
vt 0.175 0.5833334

# Normal
vn 0 0 -1

# Mesh description
g Map_mesh_0044

# Faces
f 1/1/1 2/2/1 3/3/1 4/4/1
f 5/1/1 6/2/1 7/3/1 8/4/1
f 9/1/1 10/2/1 11/3/1 12/4/1
f 13/1/1 14/2/1 15/3/1 16/4/1
f 17/1/1 18/2/1 19/3/1 20/4/1
f 21/1/1 22/2/1 23/3/1 24/4/1
f 25/1/1 26/2/1 27/3/1 28/4/1
f 29/1/1 30/2/1 31/3/1 32/4/1
f 33/1/1 34/2/1 35/3/1 36/4/1
f 37/1/1 38/2/1 39/3/1 40/4/1
f 41/1/1 42/2/1 43/3/1 44/4/1
f 45/1/1 46/2/1 47/3/1 48/4/1
f 49/1/1 50/2/1 51/3/1 52/4/1
f 53/1/1 54/2/1 55/3/1 56/4/1
f 57/1/1 58/2/1 59/3/1 60/4/1
f 61/1/1 62/4/1 63/5/1 64/6/1
f 65/2/1 66/1/1 67/7/1 68/8/1
f 69/2/1 70/1/1 71/7/1 72/8/1
f 73/2/1 74/1/1 75/7/1 76/8/1
f 77/2/1 78/1/1 79/7/1 80/8/1
f 81/2/1 82/1/1 83/7/1 84/8/1
f 85/2/1 86/1/1 87/7/1 88/8/1
f 89/2/1 90/1/1 91/7/1 92/8/1
f 93/2/1 94/1/1 95/7/1 96/8/1
f 97/2/1 98/1/1 99/7/1 100/8/1
f 101/2/1 102/1/1 103/7/1 104/8/1
f 105/2/1 106/1/1 107/7/1 108/8/1
f 109/2/1 110/1/1 111/7/1 112/8/1
f 113/2/1 114/1/1 115/7/1 116/8/1
f 117/2/1 118/1/1 119/7/1 120/8/1
f 121/2/1 122/1/1 123/7/1 124/8/1
f 125/1/1 126/6/1 127/9/1 128/7/1
f 129/2/1 130/1/1 131/7/1 132/8/1
f 133/2/1 134/1/1 135/7/1 136/8/1
f 137/2/1 138/1/1 139/7/1 140/8/1
f 141/2/1 142/1/1 143/7/1 144/8/1
f 145/8/1 146/7/1 147/10/1 148/11/1
f 149/8/1 150/7/1 151/10/1 152/11/1
f 153/8/1 154/7/1 155/10/1 156/11/1
f 157/8/1 158/7/1 159/10/1 160/11/1
f 161/8/1 162/7/1 163/10/1 164/11/1
f 165/2/1 166/1/1 167/7/1 168/8/1
f 169/2/1 170/1/1 171/7/1 172/8/1
f 173/2/1 174/1/1 175/7/1 176/8/1
f 177/2/1 178/1/1 179/7/1 180/8/1
f 181/2/1 182/1/1 183/7/1 184/8/1
f 185/2/1 186/1/1 187/7/1 188/8/1
f 189/2/1 190/1/1 191/7/1 192/8/1
f 193/8/1 194/7/1 195/10/1 196/11/1
f 197/8/1 198/7/1 199/10/1 200/11/1
f 201/8/1 202/7/1 203/10/1 204/11/1
f 205/2/1 206/1/1 207/7/1 208/8/1
f 209/2/1 210/1/1 211/7/1 212/8/1
f 213/2/1 214/1/1 215/7/1 216/8/1
f 217/8/1 218/7/1 219/10/1 220/11/1
f 221/8/1 222/7/1 223/10/1 224/11/1
f 225/8/1 226/7/1 227/10/1 228/11/1
f 229/2/1 230/1/1 231/7/1 232/8/1
f 233/7/1 234/9/1 235/12/1 236/10/1
f 237/13/1 238/8/1 239/11/1 240/14/1
f 241/2/1 242/1/1 243/7/1 244/8/1
f 245/2/1 246/1/1 247/7/1 248/8/1
f 249/2/1 250/1/1 251/7/1 252/8/1
f 253/2/1 254/1/1 255/7/1 256/8/1
f 257/2/1 258/1/1 259/7/1 260/8/1
f 261/2/1 262/1/1 263/7/1 264/8/1
f 265/2/1 266/1/1 267/7/1 268/8/1
f 269/2/1 270/1/1 271/7/1 272/8/1
f 273/2/1 274/1/1 275/7/1 276/8/1
f 277/2/1 278/1/1 279/7/1 280/8/1
f 281/2/1 282/1/1 283/7/1 284/8/1
f 285/2/1 286/1/1 287/7/1 288/8/1
f 289/2/1 290/1/1 291/7/1 292/8/1
f 293/2/1 294/1/1 295/7/1 296/8/1
f 297/1/1 298/6/1 299/9/1 300/7/1
f 301/15/1 302/3/1 303/2/1 304/16/1
f 305/3/1 306/4/1 307/1/1 308/2/1
f 309/3/1 310/4/1 311/1/1 312/2/1
f 313/3/1 314/4/1 315/1/1 316/2/1
f 317/3/1 318/4/1 319/1/1 320/2/1
f 321/2/1 322/1/1 323/7/1 324/8/1
f 325/2/1 326/1/1 327/7/1 328/8/1
f 329/2/1 330/1/1 331/7/1 332/8/1
f 333/2/1 334/1/1 335/7/1 336/8/1
f 337/8/1 338/7/1 339/10/1 340/11/1
f 341/8/1 342/7/1 343/10/1 344/11/1
f 345/8/1 346/7/1 347/10/1 348/11/1
f 349/8/1 350/7/1 351/10/1 352/11/1
f 353/2/1 354/1/1 355/7/1 356/8/1
f 357/2/1 358/1/1 359/7/1 360/8/1
f 361/1/1 362/6/1 363/9/1 364/7/1
f 365/17/1 366/18/1 367/3/1 368/15/1
f 369/18/1 370/19/1 371/4/1 372/3/1
f 373/18/1 374/19/1 375/4/1 376/3/1
f 377/18/1 378/19/1 379/4/1 380/3/1
f 381/18/1 382/19/1 383/4/1 384/3/1
f 385/8/1 386/7/1 387/10/1 388/11/1
f 389/8/1 390/7/1 391/10/1 392/11/1
f 393/2/1 394/1/1 395/7/1 396/8/1
f 397/2/1 398/1/1 399/7/1 400/8/1
f 401/2/1 402/1/1 403/7/1 404/8/1
f 405/2/1 406/1/1 407/7/1 408/8/1
f 409/2/1 410/1/1 411/7/1 412/8/1
f 413/2/1 414/1/1 415/7/1 416/8/1
f 417/2/1 418/1/1 419/7/1 420/8/1
f 421/2/1 422/1/1 423/7/1 424/8/1
f 425/1/1 426/6/1 427/9/1 428/7/1
f 429/20/1 430/21/1 431/18/1 432/17/1
f 433/21/1 434/22/1 435/19/1 436/18/1
f 437/21/1 438/22/1 439/19/1 440/18/1
f 441/21/1 442/22/1 443/19/1 444/18/1
f 445/21/1 446/22/1 447/19/1 448/18/1
f 449/2/1 450/1/1 451/7/1 452/8/1
f 453/2/1 454/1/1 455/7/1 456/8/1
f 457/2/1 458/1/1 459/7/1 460/8/1
f 461/2/1 462/1/1 463/7/1 464/8/1
f 465/2/1 466/1/1 467/7/1 468/8/1
f 469/2/1 470/1/1 471/7/1 472/8/1
f 473/2/1 474/1/1 475/7/1 476/8/1
f 477/2/1 478/1/1 479/7/1 480/8/1
f 481/2/1 482/1/1 483/7/1 484/8/1
f 485/2/1 486/1/1 487/7/1 488/8/1
f 489/1/1 490/6/1 491/9/1 492/7/1
f 493/23/1 494/24/1 495/21/1 496/20/1
f 497/25/1 498/26/1 499/27/1 500/5/1
f 501/27/1 502/28/1 503/29/1 504/30/1
f 505/24/1 506/31/1 507/22/1 508/21/1
f 509/24/1 510/31/1 511/22/1 512/21/1
f 513/3/1 514/4/1 515/1/1 516/2/1
f 517/3/1 518/4/1 519/1/1 520/2/1
f 521/3/1 522/4/1 523/1/1 524/2/1
f 525/3/1 526/4/1 527/1/1 528/2/1
f 529/3/1 530/4/1 531/1/1 532/2/1
f 533/3/1 534/4/1 535/1/1 536/2/1
f 537/3/1 538/4/1 539/1/1 540/2/1
f 541/3/1 542/4/1 543/1/1 544/2/1
f 545/3/1 546/4/1 547/1/1 548/2/1
f 549/3/1 550/4/1 551/1/1 552/2/1
f 553/4/1 554/5/1 555/6/1 556/1/1
f 557/18/1 558/19/1 559/4/1 560/3/1
f 561/18/1 562/19/1 563/4/1 564/3/1
f 565/18/1 566/19/1 567/4/1 568/3/1
f 569/18/1 570/19/1 571/4/1 572/3/1
f 573/18/1 574/19/1 575/4/1 576/3/1
f 577/18/1 578/19/1 579/4/1 580/3/1
f 581/18/1 582/19/1 583/4/1 584/3/1
f 585/18/1 586/19/1 587/4/1 588/3/1
f 589/18/1 590/19/1 591/4/1 592/3/1
f 593/18/1 594/19/1 595/4/1 596/3/1
f 597/19/1 598/25/1 599/5/1 600/4/1
f 601/21/1 602/22/1 603/19/1 604/18/1
f 605/21/1 606/22/1 607/19/1 608/18/1
f 609/21/1 610/22/1 611/19/1 612/18/1
f 613/21/1 614/22/1 615/19/1 616/18/1
f 617/21/1 618/22/1 619/19/1 620/18/1
f 621/21/1 622/22/1 623/19/1 624/18/1
f 625/21/1 626/22/1 627/19/1 628/18/1
f 629/21/1 630/22/1 631/19/1 632/18/1
f 633/21/1 634/22/1 635/19/1 636/18/1
f 637/21/1 638/22/1 639/19/1 640/18/1
f 641/22/1 642/32/1 643/25/1 644/19/1
f 645/24/1 646/31/1 647/22/1 648/21/1
f 649/24/1 650/31/1 651/22/1 652/21/1
f 653/24/1 654/31/1 655/22/1 656/21/1
f 657/24/1 658/31/1 659/22/1 660/21/1
f 661/24/1 662/31/1 663/22/1 664/21/1
f 665/24/1 666/31/1 667/22/1 668/21/1
f 669/24/1 670/31/1 671/22/1 672/21/1
f 673/24/1 674/31/1 675/22/1 676/21/1
f 677/24/1 678/31/1 679/22/1 680/21/1
f 681/27/1 682/28/1 683/29/1 684/30/1
f 685/31/1 686/33/1 687/32/1 688/22/1

