# Tiled2Unity generated file. Do not modify by hand.
# Wavefront file for 'Map_mesh_0019.obj'

# Vertices (Count = 1024)
v 0 -1 0
v -1 -1 0
v -1 0 0
v 0 0 0
v -1 -1 0
v -2 -1 0
v -2 0 0
v -1 0 0
v -2 -1 0
v -3 -1 0
v -3 0 0
v -2 0 0
v -3 -1 0
v -4 -1 0
v -4 0 0
v -3 0 0
v -4 -1 0
v -5 -1 0
v -5 0 0
v -4 0 0
v -5 -1 0
v -6 -1 0
v -6 0 0
v -5 0 0
v -6 -1 0
v -7 -1 0
v -7 0 0
v -6 0 0
v -7 -1 0
v -8 -1 0
v -8 0 0
v -7 0 0
v -8 -1 0
v -9 -1 0
v -9 0 0
v -8 0 0
v -9 -1 0
v -10 -1 0
v -10 0 0
v -9 0 0
v -10 -1 0
v -11 -1 0
v -11 0 0
v -10 0 0
v -11 -1 0
v -12 -1 0
v -12 0 0
v -11 0 0
v -12 -1 0
v -13 -1 0
v -13 0 0
v -12 0 0
v -13 -1 0
v -14 -1 0
v -14 0 0
v -13 0 0
v -14 -1 0
v -15 -1 0
v -15 0 0
v -14 0 0
v -15 -1 0
v -16 -1 0
v -16 0 0
v -15 0 0
v 0 -2 0
v -1 -2 0
v -1 -1 0
v 0 -1 0
v -1 -2 0
v -2 -2 0
v -2 -1 0
v -1 -1 0
v -2 -2 0
v -3 -2 0
v -3 -1 0
v -2 -1 0
v -3 -2 0
v -4 -2 0
v -4 -1 0
v -3 -1 0
v -4 -2 0
v -5 -2 0
v -5 -1 0
v -4 -1 0
v -5 -2 0
v -6 -2 0
v -6 -1 0
v -5 -1 0
v -6 -2 0
v -7 -2 0
v -7 -1 0
v -6 -1 0
v -7 -2 0
v -8 -2 0
v -8 -1 0
v -7 -1 0
v -8 -2 0
v -9 -2 0
v -9 -1 0
v -8 -1 0
v -9 -2 0
v -10 -2 0
v -10 -1 0
v -9 -1 0
v -10 -2 0
v -11 -2 0
v -11 -1 0
v -10 -1 0
v -11 -2 0
v -12 -2 0
v -12 -1 0
v -11 -1 0
v -12 -2 0
v -13 -2 0
v -13 -1 0
v -12 -1 0
v -13 -2 0
v -14 -2 0
v -14 -1 0
v -13 -1 0
v -14 -2 0
v -15 -2 0
v -15 -1 0
v -14 -1 0
v -15 -2 0
v -16 -2 0
v -16 -1 0
v -15 -1 0
v 0 -3 0
v -1 -3 0
v -1 -2 0
v 0 -2 0
v -1 -3 0
v -2 -3 0
v -2 -2 0
v -1 -2 0
v -2 -3 0
v -3 -3 0
v -3 -2 0
v -2 -2 0
v -3 -3 0
v -4 -3 0
v -4 -2 0
v -3 -2 0
v -4 -3 0
v -5 -3 0
v -5 -2 0
v -4 -2 0
v -5 -3 0
v -6 -3 0
v -6 -2 0
v -5 -2 0
v -6 -3 0
v -7 -3 0
v -7 -2 0
v -6 -2 0
v -7 -3 0
v -8 -3 0
v -8 -2 0
v -7 -2 0
v -8 -3 0
v -9 -3 0
v -9 -2 0
v -8 -2 0
v -9 -3 0
v -10 -3 0
v -10 -2 0
v -9 -2 0
v -10 -3 0
v -11 -3 0
v -11 -2 0
v -10 -2 0
v -11 -3 0
v -12 -3 0
v -12 -2 0
v -11 -2 0
v -12 -3 0
v -13 -3 0
v -13 -2 0
v -12 -2 0
v -13 -3 0
v -14 -3 0
v -14 -2 0
v -13 -2 0
v -14 -3 0
v -15 -3 0
v -15 -2 0
v -14 -2 0
v -15 -3 0
v -16 -3 0
v -16 -2 0
v -15 -2 0
v 0 -4 0
v -1 -4 0
v -1 -3 0
v 0 -3 0
v -1 -4 0
v -2 -4 0
v -2 -3 0
v -1 -3 0
v -2 -4 0
v -3 -4 0
v -3 -3 0
v -2 -3 0
v -3 -4 0
v -4 -4 0
v -4 -3 0
v -3 -3 0
v -4 -4 0
v -5 -4 0
v -5 -3 0
v -4 -3 0
v -5 -4 0
v -6 -4 0
v -6 -3 0
v -5 -3 0
v -6 -4 0
v -7 -4 0
v -7 -3 0
v -6 -3 0
v -7 -4 0
v -8 -4 0
v -8 -3 0
v -7 -3 0
v -8 -4 0
v -9 -4 0
v -9 -3 0
v -8 -3 0
v -9 -4 0
v -10 -4 0
v -10 -3 0
v -9 -3 0
v -10 -4 0
v -11 -4 0
v -11 -3 0
v -10 -3 0
v -11 -4 0
v -12 -4 0
v -12 -3 0
v -11 -3 0
v -12 -4 0
v -13 -4 0
v -13 -3 0
v -12 -3 0
v -13 -4 0
v -14 -4 0
v -14 -3 0
v -13 -3 0
v -14 -4 0
v -15 -4 0
v -15 -3 0
v -14 -3 0
v -15 -4 0
v -16 -4 0
v -16 -3 0
v -15 -3 0
v 0 -5 0
v -1 -5 0
v -1 -4 0
v 0 -4 0
v -1 -5 0
v -2 -5 0
v -2 -4 0
v -1 -4 0
v -2 -5 0
v -3 -5 0
v -3 -4 0
v -2 -4 0
v -3 -5 0
v -4 -5 0
v -4 -4 0
v -3 -4 0
v -4 -5 0
v -5 -5 0
v -5 -4 0
v -4 -4 0
v -5 -5 0
v -6 -5 0
v -6 -4 0
v -5 -4 0
v -6 -5 0
v -7 -5 0
v -7 -4 0
v -6 -4 0
v -7 -5 0
v -8 -5 0
v -8 -4 0
v -7 -4 0
v -8 -5 0
v -9 -5 0
v -9 -4 0
v -8 -4 0
v -9 -5 0
v -10 -5 0
v -10 -4 0
v -9 -4 0
v -10 -5 0
v -11 -5 0
v -11 -4 0
v -10 -4 0
v -11 -5 0
v -12 -5 0
v -12 -4 0
v -11 -4 0
v -12 -5 0
v -13 -5 0
v -13 -4 0
v -12 -4 0
v -13 -5 0
v -14 -5 0
v -14 -4 0
v -13 -4 0
v -14 -5 0
v -15 -5 0
v -15 -4 0
v -14 -4 0
v -15 -5 0
v -16 -5 0
v -16 -4 0
v -15 -4 0
v 0 -6 0
v -1 -6 0
v -1 -5 0
v 0 -5 0
v -1 -6 0
v -2 -6 0
v -2 -5 0
v -1 -5 0
v -2 -6 0
v -3 -6 0
v -3 -5 0
v -2 -5 0
v -3 -6 0
v -4 -6 0
v -4 -5 0
v -3 -5 0
v -4 -6 0
v -5 -6 0
v -5 -5 0
v -4 -5 0
v -5 -6 0
v -6 -6 0
v -6 -5 0
v -5 -5 0
v -6 -6 0
v -7 -6 0
v -7 -5 0
v -6 -5 0
v -7 -6 0
v -8 -6 0
v -8 -5 0
v -7 -5 0
v -8 -6 0
v -9 -6 0
v -9 -5 0
v -8 -5 0
v -9 -6 0
v -10 -6 0
v -10 -5 0
v -9 -5 0
v -10 -6 0
v -11 -6 0
v -11 -5 0
v -10 -5 0
v -11 -6 0
v -12 -6 0
v -12 -5 0
v -11 -5 0
v -12 -6 0
v -13 -6 0
v -13 -5 0
v -12 -5 0
v -13 -6 0
v -14 -6 0
v -14 -5 0
v -13 -5 0
v -14 -6 0
v -15 -6 0
v -15 -5 0
v -14 -5 0
v -15 -6 0
v -16 -6 0
v -16 -5 0
v -15 -5 0
v 0 -7 0
v -1 -7 0
v -1 -6 0
v 0 -6 0
v -1 -7 0
v -2 -7 0
v -2 -6 0
v -1 -6 0
v -2 -7 0
v -3 -7 0
v -3 -6 0
v -2 -6 0
v -3 -7 0
v -4 -7 0
v -4 -6 0
v -3 -6 0
v -4 -7 0
v -5 -7 0
v -5 -6 0
v -4 -6 0
v -5 -7 0
v -6 -7 0
v -6 -6 0
v -5 -6 0
v -6 -7 0
v -7 -7 0
v -7 -6 0
v -6 -6 0
v -7 -7 0
v -8 -7 0
v -8 -6 0
v -7 -6 0
v -8 -7 0
v -9 -7 0
v -9 -6 0
v -8 -6 0
v -9 -7 0
v -10 -7 0
v -10 -6 0
v -9 -6 0
v -10 -7 0
v -11 -7 0
v -11 -6 0
v -10 -6 0
v -11 -7 0
v -12 -7 0
v -12 -6 0
v -11 -6 0
v -12 -7 0
v -13 -7 0
v -13 -6 0
v -12 -6 0
v -13 -7 0
v -14 -7 0
v -14 -6 0
v -13 -6 0
v -14 -7 0
v -15 -7 0
v -15 -6 0
v -14 -6 0
v -15 -7 0
v -16 -7 0
v -16 -6 0
v -15 -6 0
v 0 -8 0
v -1 -8 0
v -1 -7 0
v 0 -7 0
v -1 -8 0
v -2 -8 0
v -2 -7 0
v -1 -7 0
v -2 -8 0
v -3 -8 0
v -3 -7 0
v -2 -7 0
v -3 -8 0
v -4 -8 0
v -4 -7 0
v -3 -7 0
v -4 -8 0
v -5 -8 0
v -5 -7 0
v -4 -7 0
v -5 -8 0
v -6 -8 0
v -6 -7 0
v -5 -7 0
v -6 -8 0
v -7 -8 0
v -7 -7 0
v -6 -7 0
v -7 -8 0
v -8 -8 0
v -8 -7 0
v -7 -7 0
v -8 -8 0
v -9 -8 0
v -9 -7 0
v -8 -7 0
v -9 -8 0
v -10 -8 0
v -10 -7 0
v -9 -7 0
v -10 -8 0
v -11 -8 0
v -11 -7 0
v -10 -7 0
v -11 -8 0
v -12 -8 0
v -12 -7 0
v -11 -7 0
v -12 -8 0
v -13 -8 0
v -13 -7 0
v -12 -7 0
v -13 -8 0
v -14 -8 0
v -14 -7 0
v -13 -7 0
v -14 -8 0
v -15 -8 0
v -15 -7 0
v -14 -7 0
v -15 -8 0
v -16 -8 0
v -16 -7 0
v -15 -7 0
v 0 -9 0
v -1 -9 0
v -1 -8 0
v 0 -8 0
v -1 -9 0
v -2 -9 0
v -2 -8 0
v -1 -8 0
v -2 -9 0
v -3 -9 0
v -3 -8 0
v -2 -8 0
v -3 -9 0
v -4 -9 0
v -4 -8 0
v -3 -8 0
v -4 -9 0
v -5 -9 0
v -5 -8 0
v -4 -8 0
v -5 -9 0
v -6 -9 0
v -6 -8 0
v -5 -8 0
v -6 -9 0
v -7 -9 0
v -7 -8 0
v -6 -8 0
v -7 -9 0
v -8 -9 0
v -8 -8 0
v -7 -8 0
v -8 -9 0
v -9 -9 0
v -9 -8 0
v -8 -8 0
v -9 -9 0
v -10 -9 0
v -10 -8 0
v -9 -8 0
v -10 -9 0
v -11 -9 0
v -11 -8 0
v -10 -8 0
v -11 -9 0
v -12 -9 0
v -12 -8 0
v -11 -8 0
v -12 -9 0
v -13 -9 0
v -13 -8 0
v -12 -8 0
v -13 -9 0
v -14 -9 0
v -14 -8 0
v -13 -8 0
v -14 -9 0
v -15 -9 0
v -15 -8 0
v -14 -8 0
v -15 -9 0
v -16 -9 0
v -16 -8 0
v -15 -8 0
v 0 -10 0
v -1 -10 0
v -1 -9 0
v 0 -9 0
v -1 -10 0
v -2 -10 0
v -2 -9 0
v -1 -9 0
v -2 -10 0
v -3 -10 0
v -3 -9 0
v -2 -9 0
v -3 -10 0
v -4 -10 0
v -4 -9 0
v -3 -9 0
v -4 -10 0
v -5 -10 0
v -5 -9 0
v -4 -9 0
v -5 -10 0
v -6 -10 0
v -6 -9 0
v -5 -9 0
v -6 -10 0
v -7 -10 0
v -7 -9 0
v -6 -9 0
v -7 -10 0
v -8 -10 0
v -8 -9 0
v -7 -9 0
v -8 -10 0
v -9 -10 0
v -9 -9 0
v -8 -9 0
v -9 -10 0
v -10 -10 0
v -10 -9 0
v -9 -9 0
v -10 -10 0
v -11 -10 0
v -11 -9 0
v -10 -9 0
v -11 -10 0
v -12 -10 0
v -12 -9 0
v -11 -9 0
v -12 -10 0
v -13 -10 0
v -13 -9 0
v -12 -9 0
v -13 -10 0
v -14 -10 0
v -14 -9 0
v -13 -9 0
v -14 -10 0
v -15 -10 0
v -15 -9 0
v -14 -9 0
v -15 -10 0
v -16 -10 0
v -16 -9 0
v -15 -9 0
v 0 -11 0
v -1 -11 0
v -1 -10 0
v 0 -10 0
v -1 -11 0
v -2 -11 0
v -2 -10 0
v -1 -10 0
v -2 -11 0
v -3 -11 0
v -3 -10 0
v -2 -10 0
v -3 -11 0
v -4 -11 0
v -4 -10 0
v -3 -10 0
v -4 -11 0
v -5 -11 0
v -5 -10 0
v -4 -10 0
v -5 -11 0
v -6 -11 0
v -6 -10 0
v -5 -10 0
v -6 -11 0
v -7 -11 0
v -7 -10 0
v -6 -10 0
v -7 -11 0
v -8 -11 0
v -8 -10 0
v -7 -10 0
v -8 -11 0
v -9 -11 0
v -9 -10 0
v -8 -10 0
v -9 -11 0
v -10 -11 0
v -10 -10 0
v -9 -10 0
v -10 -11 0
v -11 -11 0
v -11 -10 0
v -10 -10 0
v -11 -11 0
v -12 -11 0
v -12 -10 0
v -11 -10 0
v -12 -11 0
v -13 -11 0
v -13 -10 0
v -12 -10 0
v -13 -11 0
v -14 -11 0
v -14 -10 0
v -13 -10 0
v -14 -11 0
v -15 -11 0
v -15 -10 0
v -14 -10 0
v -15 -11 0
v -16 -11 0
v -16 -10 0
v -15 -10 0
v 0 -12 0
v -1 -12 0
v -1 -11 0
v 0 -11 0
v -1 -12 0
v -2 -12 0
v -2 -11 0
v -1 -11 0
v -2 -12 0
v -3 -12 0
v -3 -11 0
v -2 -11 0
v -3 -12 0
v -4 -12 0
v -4 -11 0
v -3 -11 0
v -4 -12 0
v -5 -12 0
v -5 -11 0
v -4 -11 0
v -5 -12 0
v -6 -12 0
v -6 -11 0
v -5 -11 0
v -6 -12 0
v -7 -12 0
v -7 -11 0
v -6 -11 0
v -7 -12 0
v -8 -12 0
v -8 -11 0
v -7 -11 0
v -8 -12 0
v -9 -12 0
v -9 -11 0
v -8 -11 0
v -9 -12 0
v -10 -12 0
v -10 -11 0
v -9 -11 0
v -10 -12 0
v -11 -12 0
v -11 -11 0
v -10 -11 0
v -11 -12 0
v -12 -12 0
v -12 -11 0
v -11 -11 0
v -12 -12 0
v -13 -12 0
v -13 -11 0
v -12 -11 0
v -13 -12 0
v -14 -12 0
v -14 -11 0
v -13 -11 0
v -14 -12 0
v -15 -12 0
v -15 -11 0
v -14 -11 0
v -15 -12 0
v -16 -12 0
v -16 -11 0
v -15 -11 0
v 0 -13 0
v -1 -13 0
v -1 -12 0
v 0 -12 0
v -1 -13 0
v -2 -13 0
v -2 -12 0
v -1 -12 0
v -2 -13 0
v -3 -13 0
v -3 -12 0
v -2 -12 0
v -3 -13 0
v -4 -13 0
v -4 -12 0
v -3 -12 0
v -4 -13 0
v -5 -13 0
v -5 -12 0
v -4 -12 0
v -5 -13 0
v -6 -13 0
v -6 -12 0
v -5 -12 0
v -6 -13 0
v -7 -13 0
v -7 -12 0
v -6 -12 0
v -7 -13 0
v -8 -13 0
v -8 -12 0
v -7 -12 0
v -8 -13 0
v -9 -13 0
v -9 -12 0
v -8 -12 0
v -9 -13 0
v -10 -13 0
v -10 -12 0
v -9 -12 0
v -10 -13 0
v -11 -13 0
v -11 -12 0
v -10 -12 0
v -11 -13 0
v -12 -13 0
v -12 -12 0
v -11 -12 0
v -12 -13 0
v -13 -13 0
v -13 -12 0
v -12 -12 0
v -13 -13 0
v -14 -13 0
v -14 -12 0
v -13 -12 0
v -14 -13 0
v -15 -13 0
v -15 -12 0
v -14 -12 0
v -15 -13 0
v -16 -13 0
v -16 -12 0
v -15 -12 0
v 0 -14 0
v -1 -14 0
v -1 -13 0
v 0 -13 0
v -1 -14 0
v -2 -14 0
v -2 -13 0
v -1 -13 0
v -2 -14 0
v -3 -14 0
v -3 -13 0
v -2 -13 0
v -3 -14 0
v -4 -14 0
v -4 -13 0
v -3 -13 0
v -4 -14 0
v -5 -14 0
v -5 -13 0
v -4 -13 0
v -5 -14 0
v -6 -14 0
v -6 -13 0
v -5 -13 0
v -6 -14 0
v -7 -14 0
v -7 -13 0
v -6 -13 0
v -7 -14 0
v -8 -14 0
v -8 -13 0
v -7 -13 0
v -8 -14 0
v -9 -14 0
v -9 -13 0
v -8 -13 0
v -9 -14 0
v -10 -14 0
v -10 -13 0
v -9 -13 0
v -10 -14 0
v -11 -14 0
v -11 -13 0
v -10 -13 0
v -11 -14 0
v -12 -14 0
v -12 -13 0
v -11 -13 0
v -12 -14 0
v -13 -14 0
v -13 -13 0
v -12 -13 0
v -13 -14 0
v -14 -14 0
v -14 -13 0
v -13 -13 0
v -14 -14 0
v -15 -14 0
v -15 -13 0
v -14 -13 0
v -15 -14 0
v -16 -14 0
v -16 -13 0
v -15 -13 0
v 0 -15 0
v -1 -15 0
v -1 -14 0
v 0 -14 0
v -1 -15 0
v -2 -15 0
v -2 -14 0
v -1 -14 0
v -2 -15 0
v -3 -15 0
v -3 -14 0
v -2 -14 0
v -3 -15 0
v -4 -15 0
v -4 -14 0
v -3 -14 0
v -4 -15 0
v -5 -15 0
v -5 -14 0
v -4 -14 0
v -5 -15 0
v -6 -15 0
v -6 -14 0
v -5 -14 0
v -6 -15 0
v -7 -15 0
v -7 -14 0
v -6 -14 0
v -7 -15 0
v -8 -15 0
v -8 -14 0
v -7 -14 0
v -8 -15 0
v -9 -15 0
v -9 -14 0
v -8 -14 0
v -9 -15 0
v -10 -15 0
v -10 -14 0
v -9 -14 0
v -10 -15 0
v -11 -15 0
v -11 -14 0
v -10 -14 0
v -11 -15 0
v -12 -15 0
v -12 -14 0
v -11 -14 0
v -12 -15 0
v -13 -15 0
v -13 -14 0
v -12 -14 0
v -13 -15 0
v -14 -15 0
v -14 -14 0
v -13 -14 0
v -14 -15 0
v -15 -15 0
v -15 -14 0
v -14 -14 0
v -15 -15 0
v -16 -15 0
v -16 -14 0
v -15 -14 0
v 0 -16 0
v -1 -16 0
v -1 -15 0
v 0 -15 0
v -1 -16 0
v -2 -16 0
v -2 -15 0
v -1 -15 0
v -2 -16 0
v -3 -16 0
v -3 -15 0
v -2 -15 0
v -3 -16 0
v -4 -16 0
v -4 -15 0
v -3 -15 0
v -4 -16 0
v -5 -16 0
v -5 -15 0
v -4 -15 0
v -5 -16 0
v -6 -16 0
v -6 -15 0
v -5 -15 0
v -6 -16 0
v -7 -16 0
v -7 -15 0
v -6 -15 0
v -7 -16 0
v -8 -16 0
v -8 -15 0
v -7 -15 0
v -8 -16 0
v -9 -16 0
v -9 -15 0
v -8 -15 0
v -9 -16 0
v -10 -16 0
v -10 -15 0
v -9 -15 0
v -10 -16 0
v -11 -16 0
v -11 -15 0
v -10 -15 0
v -11 -16 0
v -12 -16 0
v -12 -15 0
v -11 -15 0
v -12 -16 0
v -13 -16 0
v -13 -15 0
v -12 -15 0
v -13 -16 0
v -14 -16 0
v -14 -15 0
v -13 -15 0
v -14 -16 0
v -15 -16 0
v -15 -15 0
v -14 -15 0
v -15 -16 0
v -16 -16 0
v -16 -15 0
v -15 -15 0

# Texture cooridinates (Count = 15)
vt 0.025 0.1388889
vt 0.05 0.1388889
vt 0.05 0.1666667
vt 0.025 0.1666667
vt 0 0.08333331
vt 0.025 0.08333331
vt 0.025 0.1111111
vt 0 0.1111111
vt 0.05 0.1111111
vt 0.075 0.1111111
vt 0.075 0.1388889
vt 0 0.9722222
vt 0.025 0.9722222
vt 0.025 1
vt 0 1

# Normal
vn 0 0 -1

# Mesh description
g Map_mesh_0019

# Faces
f 1/1/1 2/2/1 3/3/1 4/4/1
f 5/1/1 6/2/1 7/3/1 8/4/1
f 9/1/1 10/2/1 11/3/1 12/4/1
f 13/5/1 14/6/1 15/7/1 16/8/1
f 17/7/1 18/9/1 19/2/1 20/1/1
f 21/9/1 22/10/1 23/11/1 24/2/1
f 25/12/1 26/13/1 27/14/1 28/15/1
f 29/12/1 30/13/1 31/14/1 32/15/1
f 33/12/1 34/13/1 35/14/1 36/15/1
f 37/12/1 38/13/1 39/14/1 40/15/1
f 41/12/1 42/13/1 43/14/1 44/15/1
f 45/12/1 46/13/1 47/14/1 48/15/1
f 49/12/1 50/13/1 51/14/1 52/15/1
f 53/12/1 54/13/1 55/14/1 56/15/1
f 57/12/1 58/13/1 59/14/1 60/15/1
f 61/12/1 62/13/1 63/14/1 64/15/1
f 65/7/1 66/9/1 67/2/1 68/1/1
f 69/7/1 70/9/1 71/2/1 72/1/1
f 73/7/1 74/9/1 75/2/1 76/1/1
f 77/9/1 78/10/1 79/11/1 80/2/1
f 81/12/1 82/13/1 83/14/1 84/15/1
f 85/12/1 86/13/1 87/14/1 88/15/1
f 89/12/1 90/13/1 91/14/1 92/15/1
f 93/12/1 94/13/1 95/14/1 96/15/1
f 97/12/1 98/13/1 99/14/1 100/15/1
f 101/12/1 102/13/1 103/14/1 104/15/1
f 105/12/1 106/13/1 107/14/1 108/15/1
f 109/12/1 110/13/1 111/14/1 112/15/1
f 113/12/1 114/13/1 115/14/1 116/15/1
f 117/12/1 118/13/1 119/14/1 120/15/1
f 121/12/1 122/13/1 123/14/1 124/15/1
f 125/12/1 126/13/1 127/14/1 128/15/1
f 129/12/1 130/13/1 131/14/1 132/15/1
f 133/12/1 134/13/1 135/14/1 136/15/1
f 137/12/1 138/13/1 139/14/1 140/15/1
f 141/12/1 142/13/1 143/14/1 144/15/1
f 145/12/1 146/13/1 147/14/1 148/15/1
f 149/12/1 150/13/1 151/14/1 152/15/1
f 153/12/1 154/13/1 155/14/1 156/15/1
f 157/12/1 158/13/1 159/14/1 160/15/1
f 161/12/1 162/13/1 163/14/1 164/15/1
f 165/12/1 166/13/1 167/14/1 168/15/1
f 169/12/1 170/13/1 171/14/1 172/15/1
f 173/12/1 174/13/1 175/14/1 176/15/1
f 177/12/1 178/13/1 179/14/1 180/15/1
f 181/12/1 182/13/1 183/14/1 184/15/1
f 185/12/1 186/13/1 187/14/1 188/15/1
f 189/12/1 190/13/1 191/14/1 192/15/1
f 193/12/1 194/13/1 195/14/1 196/15/1
f 197/12/1 198/13/1 199/14/1 200/15/1
f 201/12/1 202/13/1 203/14/1 204/15/1
f 205/12/1 206/13/1 207/14/1 208/15/1
f 209/12/1 210/13/1 211/14/1 212/15/1
f 213/12/1 214/13/1 215/14/1 216/15/1
f 217/12/1 218/13/1 219/14/1 220/15/1
f 221/12/1 222/13/1 223/14/1 224/15/1
f 225/12/1 226/13/1 227/14/1 228/15/1
f 229/12/1 230/13/1 231/14/1 232/15/1
f 233/12/1 234/13/1 235/14/1 236/15/1
f 237/12/1 238/13/1 239/14/1 240/15/1
f 241/12/1 242/13/1 243/14/1 244/15/1
f 245/12/1 246/13/1 247/14/1 248/15/1
f 249/12/1 250/13/1 251/14/1 252/15/1
f 253/12/1 254/13/1 255/14/1 256/15/1
f 257/12/1 258/13/1 259/14/1 260/15/1
f 261/12/1 262/13/1 263/14/1 264/15/1
f 265/12/1 266/13/1 267/14/1 268/15/1
f 269/12/1 270/13/1 271/14/1 272/15/1
f 273/12/1 274/13/1 275/14/1 276/15/1
f 277/12/1 278/13/1 279/14/1 280/15/1
f 281/12/1 282/13/1 283/14/1 284/15/1
f 285/12/1 286/13/1 287/14/1 288/15/1
f 289/12/1 290/13/1 291/14/1 292/15/1
f 293/12/1 294/13/1 295/14/1 296/15/1
f 297/12/1 298/13/1 299/14/1 300/15/1
f 301/12/1 302/13/1 303/14/1 304/15/1
f 305/12/1 306/13/1 307/14/1 308/15/1
f 309/12/1 310/13/1 311/14/1 312/15/1
f 313/12/1 314/13/1 315/14/1 316/15/1
f 317/12/1 318/13/1 319/14/1 320/15/1
f 321/12/1 322/13/1 323/14/1 324/15/1
f 325/12/1 326/13/1 327/14/1 328/15/1
f 329/12/1 330/13/1 331/14/1 332/15/1
f 333/12/1 334/13/1 335/14/1 336/15/1
f 337/12/1 338/13/1 339/14/1 340/15/1
f 341/12/1 342/13/1 343/14/1 344/15/1
f 345/12/1 346/13/1 347/14/1 348/15/1
f 349/12/1 350/13/1 351/14/1 352/15/1
f 353/12/1 354/13/1 355/14/1 356/15/1
f 357/12/1 358/13/1 359/14/1 360/15/1
f 361/12/1 362/13/1 363/14/1 364/15/1
f 365/12/1 366/13/1 367/14/1 368/15/1
f 369/12/1 370/13/1 371/14/1 372/15/1
f 373/12/1 374/13/1 375/14/1 376/15/1
f 377/12/1 378/13/1 379/14/1 380/15/1
f 381/12/1 382/13/1 383/14/1 384/15/1
f 385/12/1 386/13/1 387/14/1 388/15/1
f 389/12/1 390/13/1 391/14/1 392/15/1
f 393/12/1 394/13/1 395/14/1 396/15/1
f 397/12/1 398/13/1 399/14/1 400/15/1
f 401/12/1 402/13/1 403/14/1 404/15/1
f 405/12/1 406/13/1 407/14/1 408/15/1
f 409/12/1 410/13/1 411/14/1 412/15/1
f 413/12/1 414/13/1 415/14/1 416/15/1
f 417/12/1 418/13/1 419/14/1 420/15/1
f 421/12/1 422/13/1 423/14/1 424/15/1
f 425/12/1 426/13/1 427/14/1 428/15/1
f 429/12/1 430/13/1 431/14/1 432/15/1
f 433/12/1 434/13/1 435/14/1 436/15/1
f 437/12/1 438/13/1 439/14/1 440/15/1
f 441/12/1 442/13/1 443/14/1 444/15/1
f 445/12/1 446/13/1 447/14/1 448/15/1
f 449/12/1 450/13/1 451/14/1 452/15/1
f 453/12/1 454/13/1 455/14/1 456/15/1
f 457/12/1 458/13/1 459/14/1 460/15/1
f 461/12/1 462/13/1 463/14/1 464/15/1
f 465/12/1 466/13/1 467/14/1 468/15/1
f 469/12/1 470/13/1 471/14/1 472/15/1
f 473/12/1 474/13/1 475/14/1 476/15/1
f 477/12/1 478/13/1 479/14/1 480/15/1
f 481/12/1 482/13/1 483/14/1 484/15/1
f 485/12/1 486/13/1 487/14/1 488/15/1
f 489/12/1 490/13/1 491/14/1 492/15/1
f 493/12/1 494/13/1 495/14/1 496/15/1
f 497/12/1 498/13/1 499/14/1 500/15/1
f 501/12/1 502/13/1 503/14/1 504/15/1
f 505/12/1 506/13/1 507/14/1 508/15/1
f 509/12/1 510/13/1 511/14/1 512/15/1
f 513/12/1 514/13/1 515/14/1 516/15/1
f 517/12/1 518/13/1 519/14/1 520/15/1
f 521/12/1 522/13/1 523/14/1 524/15/1
f 525/12/1 526/13/1 527/14/1 528/15/1
f 529/12/1 530/13/1 531/14/1 532/15/1
f 533/12/1 534/13/1 535/14/1 536/15/1
f 537/12/1 538/13/1 539/14/1 540/15/1
f 541/12/1 542/13/1 543/14/1 544/15/1
f 545/12/1 546/13/1 547/14/1 548/15/1
f 549/12/1 550/13/1 551/14/1 552/15/1
f 553/12/1 554/13/1 555/14/1 556/15/1
f 557/12/1 558/13/1 559/14/1 560/15/1
f 561/12/1 562/13/1 563/14/1 564/15/1
f 565/12/1 566/13/1 567/14/1 568/15/1
f 569/12/1 570/13/1 571/14/1 572/15/1
f 573/12/1 574/13/1 575/14/1 576/15/1
f 577/12/1 578/13/1 579/14/1 580/15/1
f 581/12/1 582/13/1 583/14/1 584/15/1
f 585/12/1 586/13/1 587/14/1 588/15/1
f 589/12/1 590/13/1 591/14/1 592/15/1
f 593/12/1 594/13/1 595/14/1 596/15/1
f 597/12/1 598/13/1 599/14/1 600/15/1
f 601/12/1 602/13/1 603/14/1 604/15/1
f 605/12/1 606/13/1 607/14/1 608/15/1
f 609/12/1 610/13/1 611/14/1 612/15/1
f 613/12/1 614/13/1 615/14/1 616/15/1
f 617/12/1 618/13/1 619/14/1 620/15/1
f 621/12/1 622/13/1 623/14/1 624/15/1
f 625/12/1 626/13/1 627/14/1 628/15/1
f 629/12/1 630/13/1 631/14/1 632/15/1
f 633/12/1 634/13/1 635/14/1 636/15/1
f 637/12/1 638/13/1 639/14/1 640/15/1
f 641/12/1 642/13/1 643/14/1 644/15/1
f 645/12/1 646/13/1 647/14/1 648/15/1
f 649/12/1 650/13/1 651/14/1 652/15/1
f 653/12/1 654/13/1 655/14/1 656/15/1
f 657/12/1 658/13/1 659/14/1 660/15/1
f 661/12/1 662/13/1 663/14/1 664/15/1
f 665/12/1 666/13/1 667/14/1 668/15/1
f 669/12/1 670/13/1 671/14/1 672/15/1
f 673/12/1 674/13/1 675/14/1 676/15/1
f 677/12/1 678/13/1 679/14/1 680/15/1
f 681/12/1 682/13/1 683/14/1 684/15/1
f 685/12/1 686/13/1 687/14/1 688/15/1
f 689/12/1 690/13/1 691/14/1 692/15/1
f 693/12/1 694/13/1 695/14/1 696/15/1
f 697/12/1 698/13/1 699/14/1 700/15/1
f 701/12/1 702/13/1 703/14/1 704/15/1
f 705/12/1 706/13/1 707/14/1 708/15/1
f 709/12/1 710/13/1 711/14/1 712/15/1
f 713/12/1 714/13/1 715/14/1 716/15/1
f 717/12/1 718/13/1 719/14/1 720/15/1
f 721/12/1 722/13/1 723/14/1 724/15/1
f 725/12/1 726/13/1 727/14/1 728/15/1
f 729/12/1 730/13/1 731/14/1 732/15/1
f 733/12/1 734/13/1 735/14/1 736/15/1
f 737/12/1 738/13/1 739/14/1 740/15/1
f 741/12/1 742/13/1 743/14/1 744/15/1
f 745/12/1 746/13/1 747/14/1 748/15/1
f 749/12/1 750/13/1 751/14/1 752/15/1
f 753/12/1 754/13/1 755/14/1 756/15/1
f 757/12/1 758/13/1 759/14/1 760/15/1
f 761/12/1 762/13/1 763/14/1 764/15/1
f 765/12/1 766/13/1 767/14/1 768/15/1
f 769/12/1 770/13/1 771/14/1 772/15/1
f 773/12/1 774/13/1 775/14/1 776/15/1
f 777/12/1 778/13/1 779/14/1 780/15/1
f 781/12/1 782/13/1 783/14/1 784/15/1
f 785/12/1 786/13/1 787/14/1 788/15/1
f 789/12/1 790/13/1 791/14/1 792/15/1
f 793/12/1 794/13/1 795/14/1 796/15/1
f 797/12/1 798/13/1 799/14/1 800/15/1
f 801/12/1 802/13/1 803/14/1 804/15/1
f 805/12/1 806/13/1 807/14/1 808/15/1
f 809/12/1 810/13/1 811/14/1 812/15/1
f 813/12/1 814/13/1 815/14/1 816/15/1
f 817/12/1 818/13/1 819/14/1 820/15/1
f 821/12/1 822/13/1 823/14/1 824/15/1
f 825/12/1 826/13/1 827/14/1 828/15/1
f 829/12/1 830/13/1 831/14/1 832/15/1
f 833/12/1 834/13/1 835/14/1 836/15/1
f 837/12/1 838/13/1 839/14/1 840/15/1
f 841/12/1 842/13/1 843/14/1 844/15/1
f 845/12/1 846/13/1 847/14/1 848/15/1
f 849/12/1 850/13/1 851/14/1 852/15/1
f 853/12/1 854/13/1 855/14/1 856/15/1
f 857/12/1 858/13/1 859/14/1 860/15/1
f 861/12/1 862/13/1 863/14/1 864/15/1
f 865/12/1 866/13/1 867/14/1 868/15/1
f 869/12/1 870/13/1 871/14/1 872/15/1
f 873/12/1 874/13/1 875/14/1 876/15/1
f 877/12/1 878/13/1 879/14/1 880/15/1
f 881/12/1 882/13/1 883/14/1 884/15/1
f 885/12/1 886/13/1 887/14/1 888/15/1
f 889/12/1 890/13/1 891/14/1 892/15/1
f 893/12/1 894/13/1 895/14/1 896/15/1
f 897/12/1 898/13/1 899/14/1 900/15/1
f 901/12/1 902/13/1 903/14/1 904/15/1
f 905/12/1 906/13/1 907/14/1 908/15/1
f 909/12/1 910/13/1 911/14/1 912/15/1
f 913/12/1 914/13/1 915/14/1 916/15/1
f 917/12/1 918/13/1 919/14/1 920/15/1
f 921/12/1 922/13/1 923/14/1 924/15/1
f 925/12/1 926/13/1 927/14/1 928/15/1
f 929/12/1 930/13/1 931/14/1 932/15/1
f 933/12/1 934/13/1 935/14/1 936/15/1
f 937/12/1 938/13/1 939/14/1 940/15/1
f 941/12/1 942/13/1 943/14/1 944/15/1
f 945/12/1 946/13/1 947/14/1 948/15/1
f 949/12/1 950/13/1 951/14/1 952/15/1
f 953/12/1 954/13/1 955/14/1 956/15/1
f 957/12/1 958/13/1 959/14/1 960/15/1
f 961/12/1 962/13/1 963/14/1 964/15/1
f 965/12/1 966/13/1 967/14/1 968/15/1
f 969/12/1 970/13/1 971/14/1 972/15/1
f 973/12/1 974/13/1 975/14/1 976/15/1
f 977/12/1 978/13/1 979/14/1 980/15/1
f 981/12/1 982/13/1 983/14/1 984/15/1
f 985/12/1 986/13/1 987/14/1 988/15/1
f 989/12/1 990/13/1 991/14/1 992/15/1
f 993/12/1 994/13/1 995/14/1 996/15/1
f 997/12/1 998/13/1 999/14/1 1000/15/1
f 1001/12/1 1002/13/1 1003/14/1 1004/15/1
f 1005/12/1 1006/13/1 1007/14/1 1008/15/1
f 1009/12/1 1010/13/1 1011/14/1 1012/15/1
f 1013/12/1 1014/13/1 1015/14/1 1016/15/1
f 1017/12/1 1018/13/1 1019/14/1 1020/15/1
f 1021/12/1 1022/13/1 1023/14/1 1024/15/1

