# Tiled2Unity generated file. Do not modify by hand.
# Wavefront file for 'Map_mesh_0053.obj'

# Vertices (Count = 544)
v -4 -1 0
v -5 -1 0
v -5 0 0
v -4 0 0
v -5 -1 0
v -6 -1 0
v -6 0 0
v -5 0 0
v -6 -1 0
v -7 -1 0
v -7 0 0
v -6 0 0
v -7 -1 0
v -8 -1 0
v -8 0 0
v -7 0 0
v -8 -1 0
v -9 -1 0
v -9 0 0
v -8 0 0
v -9 -1 0
v -10 -1 0
v -10 0 0
v -9 0 0
v -10 -1 0
v -11 -1 0
v -11 0 0
v -10 0 0
v -11 -1 0
v -12 -1 0
v -12 0 0
v -11 0 0
v -14 -1 0
v -15 -1 0
v -15 0 0
v -14 0 0
v -15 -1 0
v -16 -1 0
v -16 0 0
v -15 0 0
v -4 -2 0
v -5 -2 0
v -5 -1 0
v -4 -1 0
v -5 -2 0
v -6 -2 0
v -6 -1 0
v -5 -1 0
v -6 -2 0
v -7 -2 0
v -7 -1 0
v -6 -1 0
v -7 -2 0
v -8 -2 0
v -8 -1 0
v -7 -1 0
v -8 -2 0
v -9 -2 0
v -9 -1 0
v -8 -1 0
v -9 -2 0
v -10 -2 0
v -10 -1 0
v -9 -1 0
v -10 -2 0
v -11 -2 0
v -11 -1 0
v -10 -1 0
v -11 -2 0
v -12 -2 0
v -12 -1 0
v -11 -1 0
v -14 -2 0
v -15 -2 0
v -15 -1 0
v -14 -1 0
v -15 -2 0
v -16 -2 0
v -16 -1 0
v -15 -1 0
v -4 -3 0
v -5 -3 0
v -5 -2 0
v -4 -2 0
v -5 -3 0
v -6 -3 0
v -6 -2 0
v -5 -2 0
v -6 -3 0
v -7 -3 0
v -7 -2 0
v -6 -2 0
v -7 -3 0
v -8 -3 0
v -8 -2 0
v -7 -2 0
v -8 -3 0
v -9 -3 0
v -9 -2 0
v -8 -2 0
v -9 -3 0
v -10 -3 0
v -10 -2 0
v -9 -2 0
v -10 -3 0
v -11 -3 0
v -11 -2 0
v -10 -2 0
v -11 -3 0
v -12 -3 0
v -12 -2 0
v -11 -2 0
v -14 -3 0
v -15 -3 0
v -15 -2 0
v -14 -2 0
v -15 -3 0
v -16 -3 0
v -16 -2 0
v -15 -2 0
v 0 -4 0
v -1 -4 0
v -1 -3 0
v 0 -3 0
v -1 -4 0
v -2 -4 0
v -2 -3 0
v -1 -3 0
v -2 -4 0
v -3 -4 0
v -3 -3 0
v -2 -3 0
v -3 -4 0
v -4 -4 0
v -4 -3 0
v -3 -3 0
v -4 -4 0
v -5 -4 0
v -5 -3 0
v -4 -3 0
v -5 -4 0
v -6 -4 0
v -6 -3 0
v -5 -3 0
v -6 -4 0
v -7 -4 0
v -7 -3 0
v -6 -3 0
v -7 -4 0
v -8 -4 0
v -8 -3 0
v -7 -3 0
v -8 -4 0
v -9 -4 0
v -9 -3 0
v -8 -3 0
v -9 -4 0
v -10 -4 0
v -10 -3 0
v -9 -3 0
v -10 -4 0
v -11 -4 0
v -11 -3 0
v -10 -3 0
v -11 -4 0
v -12 -4 0
v -12 -3 0
v -11 -3 0
v -14 -4 0
v -15 -4 0
v -15 -3 0
v -14 -3 0
v -15 -4 0
v -16 -4 0
v -16 -3 0
v -15 -3 0
v 0 -5 0
v -1 -5 0
v -1 -4 0
v 0 -4 0
v -1 -5 0
v -2 -5 0
v -2 -4 0
v -1 -4 0
v -2 -5 0
v -3 -5 0
v -3 -4 0
v -2 -4 0
v -3 -5 0
v -4 -5 0
v -4 -4 0
v -3 -4 0
v -4 -5 0
v -5 -5 0
v -5 -4 0
v -4 -4 0
v -5 -5 0
v -6 -5 0
v -6 -4 0
v -5 -4 0
v -6 -5 0
v -7 -5 0
v -7 -4 0
v -6 -4 0
v -7 -5 0
v -8 -5 0
v -8 -4 0
v -7 -4 0
v -8 -5 0
v -9 -5 0
v -9 -4 0
v -8 -4 0
v -9 -5 0
v -10 -5 0
v -10 -4 0
v -9 -4 0
v -10 -5 0
v -11 -5 0
v -11 -4 0
v -10 -4 0
v -11 -5 0
v -12 -5 0
v -12 -4 0
v -11 -4 0
v -14 -5 0
v -15 -5 0
v -15 -4 0
v -14 -4 0
v -15 -5 0
v -16 -5 0
v -16 -4 0
v -15 -4 0
v 0 -6 0
v -1 -6 0
v -1 -5 0
v 0 -5 0
v -1 -6 0
v -2 -6 0
v -2 -5 0
v -1 -5 0
v -2 -6 0
v -3 -6 0
v -3 -5 0
v -2 -5 0
v -3 -6 0
v -4 -6 0
v -4 -5 0
v -3 -5 0
v -4 -6 0
v -5 -6 0
v -5 -5 0
v -4 -5 0
v -5 -6 0
v -6 -6 0
v -6 -5 0
v -5 -5 0
v -6 -6 0
v -7 -6 0
v -7 -5 0
v -6 -5 0
v -7 -6 0
v -8 -6 0
v -8 -5 0
v -7 -5 0
v -8 -6 0
v -9 -6 0
v -9 -5 0
v -8 -5 0
v -9 -6 0
v -10 -6 0
v -10 -5 0
v -9 -5 0
v -10 -6 0
v -11 -6 0
v -11 -5 0
v -10 -5 0
v -11 -6 0
v -12 -6 0
v -12 -5 0
v -11 -5 0
v -14 -6 0
v -15 -6 0
v -15 -5 0
v -14 -5 0
v -15 -6 0
v -16 -6 0
v -16 -5 0
v -15 -5 0
v 0 -7 0
v -1 -7 0
v -1 -6 0
v 0 -6 0
v -1 -7 0
v -2 -7 0
v -2 -6 0
v -1 -6 0
v -2 -7 0
v -3 -7 0
v -3 -6 0
v -2 -6 0
v -3 -7 0
v -4 -7 0
v -4 -6 0
v -3 -6 0
v -4 -7 0
v -5 -7 0
v -5 -6 0
v -4 -6 0
v -5 -7 0
v -6 -7 0
v -6 -6 0
v -5 -6 0
v -6 -7 0
v -7 -7 0
v -7 -6 0
v -6 -6 0
v -7 -7 0
v -8 -7 0
v -8 -6 0
v -7 -6 0
v -8 -7 0
v -9 -7 0
v -9 -6 0
v -8 -6 0
v -9 -7 0
v -10 -7 0
v -10 -6 0
v -9 -6 0
v -10 -7 0
v -11 -7 0
v -11 -6 0
v -10 -6 0
v -11 -7 0
v -12 -7 0
v -12 -6 0
v -11 -6 0
v -14 -7 0
v -15 -7 0
v -15 -6 0
v -14 -6 0
v -15 -7 0
v -16 -7 0
v -16 -6 0
v -15 -6 0
v 0 -8 0
v -1 -8 0
v -1 -7 0
v 0 -7 0
v -1 -8 0
v -2 -8 0
v -2 -7 0
v -1 -7 0
v -2 -8 0
v -3 -8 0
v -3 -7 0
v -2 -7 0
v -3 -8 0
v -4 -8 0
v -4 -7 0
v -3 -7 0
v -4 -8 0
v -5 -8 0
v -5 -7 0
v -4 -7 0
v -5 -8 0
v -6 -8 0
v -6 -7 0
v -5 -7 0
v -6 -8 0
v -7 -8 0
v -7 -7 0
v -6 -7 0
v -7 -8 0
v -8 -8 0
v -8 -7 0
v -7 -7 0
v -8 -8 0
v -9 -8 0
v -9 -7 0
v -8 -7 0
v -9 -8 0
v -10 -8 0
v -10 -7 0
v -9 -7 0
v -10 -8 0
v -11 -8 0
v -11 -7 0
v -10 -7 0
v -11 -8 0
v -12 -8 0
v -12 -7 0
v -11 -7 0
v -14 -8 0
v -15 -8 0
v -15 -7 0
v -14 -7 0
v -15 -8 0
v -16 -8 0
v -16 -7 0
v -15 -7 0
v 0 -9 0
v -1 -9 0
v -1 -8 0
v 0 -8 0
v -1 -9 0
v -2 -9 0
v -2 -8 0
v -1 -8 0
v -2 -9 0
v -3 -9 0
v -3 -8 0
v -2 -8 0
v -3 -9 0
v -4 -9 0
v -4 -8 0
v -3 -8 0
v -4 -9 0
v -5 -9 0
v -5 -8 0
v -4 -8 0
v -5 -9 0
v -6 -9 0
v -6 -8 0
v -5 -8 0
v -6 -9 0
v -7 -9 0
v -7 -8 0
v -6 -8 0
v -7 -9 0
v -8 -9 0
v -8 -8 0
v -7 -8 0
v -8 -9 0
v -9 -9 0
v -9 -8 0
v -8 -8 0
v -9 -9 0
v -10 -9 0
v -10 -8 0
v -9 -8 0
v -10 -9 0
v -11 -9 0
v -11 -8 0
v -10 -8 0
v -11 -9 0
v -12 -9 0
v -12 -8 0
v -11 -8 0
v -14 -9 0
v -15 -9 0
v -15 -8 0
v -14 -8 0
v -15 -9 0
v -16 -9 0
v -16 -8 0
v -15 -8 0
v -11 -10 0
v -12 -10 0
v -12 -9 0
v -11 -9 0
v -15 -10 0
v -16 -10 0
v -16 -9 0
v -15 -9 0
v -11 -11 0
v -12 -11 0
v -12 -10 0
v -11 -10 0
v -15 -11 0
v -16 -11 0
v -16 -10 0
v -15 -10 0
v -11 -12 0
v -12 -12 0
v -12 -11 0
v -11 -11 0
v -12 -12 0
v -13 -12 0
v -13 -11 0
v -12 -11 0
v -13 -12 0
v -14 -12 0
v -14 -11 0
v -13 -11 0
v -14 -12 0
v -15 -12 0
v -15 -11 0
v -14 -11 0
v -15 -12 0
v -16 -12 0
v -16 -11 0
v -15 -11 0
v -11 -13 0
v -12 -13 0
v -12 -12 0
v -11 -12 0
v -12 -13 0
v -13 -13 0
v -13 -12 0
v -12 -12 0
v -13 -13 0
v -14 -13 0
v -14 -12 0
v -13 -12 0
v -14 -13 0
v -15 -13 0
v -15 -12 0
v -14 -12 0
v -11 -14 0
v -12 -14 0
v -12 -13 0
v -11 -13 0
v -12 -14 0
v -13 -14 0
v -13 -13 0
v -12 -13 0
v -13 -14 0
v -14 -14 0
v -14 -13 0
v -13 -13 0
v -14 -14 0
v -15 -14 0
v -15 -13 0
v -14 -13 0
v -15 -14 0
v -16 -14 0
v -16 -13 0
v -15 -13 0
v -11 -15 0
v -12 -15 0
v -12 -14 0
v -11 -14 0
v -15 -15 0
v -16 -15 0
v -16 -14 0
v -15 -14 0
v -11 -16 0
v -12 -16 0
v -12 -15 0
v -11 -15 0
v -15 -16 0
v -16 -16 0
v -16 -15 0
v -15 -15 0

# Texture cooridinates (Count = 38)
vt 0.125 0.5
vt 0.15 0.5
vt 0.15 0.5277778
vt 0.125 0.5277778
vt 0.175 0.5
vt 0.175 0.5277778
vt 0.15 0.5555556
vt 0.125 0.5555556
vt 0.175 0.5555556
vt 0.15 0.4722222
vt 0.175 0.4722222
vt 0.2 0.4722222
vt 0.2 0.5
vt 0.125 0.4722222
vt 0.125 0.4444444
vt 0.15 0.4444444
vt 0 0.5833334
vt 0.025 0.5833334
vt 0.025 0.6111111
vt 0 0.6111111
vt 0 0.5555556
vt 0.025 0.5555556
vt 0.2 0.8055556
vt 0.225 0.8055556
vt 0.225 0.8333333
vt 0.2 0.8333333
vt 0.25 0.8055556
vt 0.25 0.8333333
vt 0.275 0.8055556
vt 0.275 0.8333333
vt 0.2 0.7777778
vt 0.225 0.7777778
vt 0.25 0.7777778
vt 0.275 0.7777778
vt 0.2 0.75
vt 0.225 0.75
vt 0.25 0.75
vt 0.275 0.75

# Normal
vn 0 0 -1

# Mesh description
g Map_mesh_0053

# Faces
f 1/1/1 2/2/1 3/3/1 4/4/1
f 5/2/1 6/5/1 7/6/1 8/3/1
f 9/1/1 10/2/1 11/3/1 12/4/1
f 13/2/1 14/5/1 15/6/1 16/3/1
f 17/1/1 18/2/1 19/3/1 20/4/1
f 21/2/1 22/5/1 23/6/1 24/3/1
f 25/1/1 26/2/1 27/3/1 28/4/1
f 29/2/1 30/5/1 31/6/1 32/3/1
f 33/1/1 34/2/1 35/3/1 36/4/1
f 37/2/1 38/5/1 39/6/1 40/3/1
f 41/4/1 42/3/1 43/7/1 44/8/1
f 45/3/1 46/6/1 47/9/1 48/7/1
f 49/4/1 50/3/1 51/7/1 52/8/1
f 53/3/1 54/6/1 55/9/1 56/7/1
f 57/4/1 58/3/1 59/7/1 60/8/1
f 61/3/1 62/6/1 63/9/1 64/7/1
f 65/4/1 66/3/1 67/7/1 68/8/1
f 69/3/1 70/6/1 71/9/1 72/7/1
f 73/4/1 74/3/1 75/7/1 76/8/1
f 77/3/1 78/6/1 79/9/1 80/7/1
f 81/1/1 82/2/1 83/3/1 84/4/1
f 85/2/1 86/5/1 87/6/1 88/3/1
f 89/1/1 90/2/1 91/3/1 92/4/1
f 93/2/1 94/5/1 95/6/1 96/3/1
f 97/1/1 98/2/1 99/3/1 100/4/1
f 101/2/1 102/5/1 103/6/1 104/3/1
f 105/1/1 106/2/1 107/3/1 108/4/1
f 109/2/1 110/5/1 111/6/1 112/3/1
f 113/1/1 114/2/1 115/3/1 116/4/1
f 117/2/1 118/5/1 119/6/1 120/3/1
f 121/4/1 122/3/1 123/7/1 124/8/1
f 125/3/1 126/6/1 127/9/1 128/7/1
f 129/4/1 130/3/1 131/7/1 132/8/1
f 133/3/1 134/6/1 135/9/1 136/7/1
f 137/4/1 138/3/1 139/7/1 140/8/1
f 141/3/1 142/6/1 143/9/1 144/7/1
f 145/4/1 146/3/1 147/7/1 148/8/1
f 149/3/1 150/6/1 151/9/1 152/7/1
f 153/4/1 154/3/1 155/7/1 156/8/1
f 157/3/1 158/6/1 159/9/1 160/7/1
f 161/4/1 162/3/1 163/7/1 164/8/1
f 165/3/1 166/6/1 167/9/1 168/7/1
f 169/4/1 170/3/1 171/7/1 172/8/1
f 173/3/1 174/6/1 175/9/1 176/7/1
f 177/1/1 178/2/1 179/3/1 180/4/1
f 181/2/1 182/5/1 183/6/1 184/3/1
f 185/1/1 186/2/1 187/3/1 188/4/1
f 189/2/1 190/5/1 191/6/1 192/3/1
f 193/1/1 194/2/1 195/3/1 196/4/1
f 197/2/1 198/5/1 199/6/1 200/3/1
f 201/1/1 202/2/1 203/3/1 204/4/1
f 205/2/1 206/5/1 207/6/1 208/3/1
f 209/1/1 210/2/1 211/3/1 212/4/1
f 213/2/1 214/5/1 215/6/1 216/3/1
f 217/1/1 218/2/1 219/3/1 220/4/1
f 221/2/1 222/5/1 223/6/1 224/3/1
f 225/1/1 226/2/1 227/3/1 228/4/1
f 229/2/1 230/5/1 231/6/1 232/3/1
f 233/4/1 234/3/1 235/7/1 236/8/1
f 237/3/1 238/6/1 239/9/1 240/7/1
f 241/4/1 242/3/1 243/7/1 244/8/1
f 245/3/1 246/6/1 247/9/1 248/7/1
f 249/4/1 250/3/1 251/7/1 252/8/1
f 253/3/1 254/6/1 255/9/1 256/7/1
f 257/4/1 258/3/1 259/7/1 260/8/1
f 261/3/1 262/6/1 263/9/1 264/7/1
f 265/4/1 266/3/1 267/7/1 268/8/1
f 269/3/1 270/6/1 271/9/1 272/7/1
f 273/4/1 274/3/1 275/7/1 276/8/1
f 277/3/1 278/6/1 279/9/1 280/7/1
f 281/4/1 282/3/1 283/7/1 284/8/1
f 285/3/1 286/6/1 287/9/1 288/7/1
f 289/1/1 290/2/1 291/3/1 292/4/1
f 293/2/1 294/5/1 295/6/1 296/3/1
f 297/1/1 298/2/1 299/3/1 300/4/1
f 301/2/1 302/5/1 303/6/1 304/3/1
f 305/1/1 306/2/1 307/3/1 308/4/1
f 309/2/1 310/5/1 311/6/1 312/3/1
f 313/1/1 314/2/1 315/3/1 316/4/1
f 317/2/1 318/5/1 319/6/1 320/3/1
f 321/1/1 322/2/1 323/3/1 324/4/1
f 325/2/1 326/5/1 327/6/1 328/3/1
f 329/1/1 330/2/1 331/3/1 332/4/1
f 333/2/1 334/5/1 335/6/1 336/3/1
f 337/10/1 338/11/1 339/5/1 340/2/1
f 341/11/1 342/12/1 343/13/1 344/5/1
f 345/14/1 346/10/1 347/2/1 348/1/1
f 349/14/1 350/10/1 351/2/1 352/1/1
f 353/14/1 354/10/1 355/2/1 356/1/1
f 357/14/1 358/10/1 359/2/1 360/1/1
f 361/14/1 362/10/1 363/2/1 364/1/1
f 365/14/1 366/10/1 367/2/1 368/1/1
f 369/14/1 370/10/1 371/2/1 372/1/1
f 373/14/1 374/10/1 375/2/1 376/1/1
f 377/14/1 378/10/1 379/2/1 380/1/1
f 381/14/1 382/10/1 383/2/1 384/1/1
f 385/14/1 386/10/1 387/2/1 388/1/1
f 389/3/1 390/6/1 391/9/1 392/7/1
f 393/10/1 394/11/1 395/5/1 396/2/1
f 397/11/1 398/12/1 399/13/1 400/5/1
f 401/15/1 402/16/1 403/10/1 404/14/1
f 405/15/1 406/16/1 407/10/1 408/14/1
f 409/15/1 410/16/1 411/10/1 412/14/1
f 413/15/1 414/16/1 415/10/1 416/14/1
f 417/15/1 418/16/1 419/10/1 420/14/1
f 421/15/1 422/16/1 423/10/1 424/14/1
f 425/15/1 426/16/1 427/10/1 428/14/1
f 429/15/1 430/16/1 431/10/1 432/14/1
f 433/15/1 434/16/1 435/10/1 436/14/1
f 437/15/1 438/16/1 439/10/1 440/14/1
f 441/15/1 442/16/1 443/10/1 444/14/1
f 445/2/1 446/5/1 447/6/1 448/3/1
f 449/10/1 450/11/1 451/5/1 452/2/1
f 453/11/1 454/12/1 455/13/1 456/5/1
f 457/17/1 458/18/1 459/19/1 460/20/1
f 461/11/1 462/12/1 463/13/1 464/5/1
f 465/21/1 466/22/1 467/18/1 468/17/1
f 469/11/1 470/12/1 471/13/1 472/5/1
f 473/23/1 474/24/1 475/25/1 476/26/1
f 477/24/1 478/27/1 479/28/1 480/25/1
f 481/24/1 482/27/1 483/28/1 484/25/1
f 485/27/1 486/29/1 487/30/1 488/28/1
f 489/2/1 490/5/1 491/6/1 492/3/1
f 493/31/1 494/32/1 495/24/1 496/23/1
f 497/32/1 498/33/1 499/27/1 500/24/1
f 501/32/1 502/33/1 503/27/1 504/24/1
f 505/33/1 506/34/1 507/29/1 508/27/1
f 509/35/1 510/36/1 511/32/1 512/31/1
f 513/36/1 514/37/1 515/33/1 516/32/1
f 517/36/1 518/37/1 519/33/1 520/32/1
f 521/37/1 522/38/1 523/34/1 524/33/1
f 525/3/1 526/6/1 527/9/1 528/7/1
f 529/17/1 530/18/1 531/19/1 532/20/1
f 533/11/1 534/12/1 535/13/1 536/5/1
f 537/21/1 538/22/1 539/18/1 540/17/1
f 541/11/1 542/12/1 543/13/1 544/5/1

