# Tiled2Unity generated file. Do not modify by hand.
# Wavefront file for 'Map_mesh_0074.obj'

# Vertices (Count = 684)
v -7 -1 0
v -8 -1 0
v -8 0 0
v -7 0 0
v -8 -1 0
v -9 -1 0
v -9 0 0
v -8 0 0
v -9 -1 0
v -10 -1 0
v -10 0 0
v -9 0 0
v -10 -1 0
v -11 -1 0
v -11 0 0
v -10 0 0
v -11 -1 0
v -12 -1 0
v -12 0 0
v -11 0 0
v -12 -1 0
v -13 -1 0
v -13 0 0
v -12 0 0
v -13 -1 0
v -14 -1 0
v -14 0 0
v -13 0 0
v -14 -1 0
v -15 -1 0
v -15 0 0
v -14 0 0
v -15 -1 0
v -16 -1 0
v -16 0 0
v -15 0 0
v -7 -2 0
v -8 -2 0
v -8 -1 0
v -7 -1 0
v -8 -2 0
v -9 -2 0
v -9 -1 0
v -8 -1 0
v -9 -2 0
v -10 -2 0
v -10 -1 0
v -9 -1 0
v -10 -2 0
v -11 -2 0
v -11 -1 0
v -10 -1 0
v -11 -2 0
v -12 -2 0
v -12 -1 0
v -11 -1 0
v -12 -2 0
v -13 -2 0
v -13 -1 0
v -12 -1 0
v -13 -2 0
v -14 -2 0
v -14 -1 0
v -13 -1 0
v -14 -2 0
v -15 -2 0
v -15 -1 0
v -14 -1 0
v -15 -2 0
v -16 -2 0
v -16 -1 0
v -15 -1 0
v -7 -3 0
v -8 -3 0
v -8 -2 0
v -7 -2 0
v -8 -3 0
v -9 -3 0
v -9 -2 0
v -8 -2 0
v -9 -3 0
v -10 -3 0
v -10 -2 0
v -9 -2 0
v -10 -3 0
v -11 -3 0
v -11 -2 0
v -10 -2 0
v -11 -3 0
v -12 -3 0
v -12 -2 0
v -11 -2 0
v -12 -3 0
v -13 -3 0
v -13 -2 0
v -12 -2 0
v -13 -3 0
v -14 -3 0
v -14 -2 0
v -13 -2 0
v -14 -3 0
v -15 -3 0
v -15 -2 0
v -14 -2 0
v -15 -3 0
v -16 -3 0
v -16 -2 0
v -15 -2 0
v -12 -4 0
v -13 -4 0
v -13 -3 0
v -12 -3 0
v -13 -4 0
v -14 -4 0
v -14 -3 0
v -13 -3 0
v -14 -4 0
v -15 -4 0
v -15 -3 0
v -14 -3 0
v -15 -4 0
v -16 -4 0
v -16 -3 0
v -15 -3 0
v -12 -5 0
v -13 -5 0
v -13 -4 0
v -12 -4 0
v -13 -5 0
v -14 -5 0
v -14 -4 0
v -13 -4 0
v -14 -5 0
v -15 -5 0
v -15 -4 0
v -14 -4 0
v -15 -5 0
v -16 -5 0
v -16 -4 0
v -15 -4 0
v 0 -6 0
v -1 -6 0
v -1 -5 0
v 0 -5 0
v -1 -6 0
v -2 -6 0
v -2 -5 0
v -1 -5 0
v -2 -6 0
v -3 -6 0
v -3 -5 0
v -2 -5 0
v -3 -6 0
v -4 -6 0
v -4 -5 0
v -3 -5 0
v -4 -6 0
v -5 -6 0
v -5 -5 0
v -4 -5 0
v -5 -6 0
v -6 -6 0
v -6 -5 0
v -5 -5 0
v -6 -6 0
v -7 -6 0
v -7 -5 0
v -6 -5 0
v -7 -6 0
v -8 -6 0
v -8 -5 0
v -7 -5 0
v -8 -6 0
v -9 -6 0
v -9 -5 0
v -8 -5 0
v -9 -6 0
v -10 -6 0
v -10 -5 0
v -9 -5 0
v -12 -6 0
v -13 -6 0
v -13 -5 0
v -12 -5 0
v -13 -6 0
v -14 -6 0
v -14 -5 0
v -13 -5 0
v -14 -6 0
v -15 -6 0
v -15 -5 0
v -14 -5 0
v -15 -6 0
v -16 -6 0
v -16 -5 0
v -15 -5 0
v 0 -7 0
v -1 -7 0
v -1 -6 0
v 0 -6 0
v -1 -7 0
v -2 -7 0
v -2 -6 0
v -1 -6 0
v -2 -7 0
v -3 -7 0
v -3 -6 0
v -2 -6 0
v -3 -7 0
v -4 -7 0
v -4 -6 0
v -3 -6 0
v -4 -7 0
v -5 -7 0
v -5 -6 0
v -4 -6 0
v -5 -7 0
v -6 -7 0
v -6 -6 0
v -5 -6 0
v -6 -7 0
v -7 -7 0
v -7 -6 0
v -6 -6 0
v -7 -7 0
v -8 -7 0
v -8 -6 0
v -7 -6 0
v -8 -7 0
v -9 -7 0
v -9 -6 0
v -8 -6 0
v -9 -7 0
v -10 -7 0
v -10 -6 0
v -9 -6 0
v -12 -7 0
v -13 -7 0
v -13 -6 0
v -12 -6 0
v -13 -7 0
v -14 -7 0
v -14 -6 0
v -13 -6 0
v -14 -7 0
v -15 -7 0
v -15 -6 0
v -14 -6 0
v -15 -7 0
v -16 -7 0
v -16 -6 0
v -15 -6 0
v 0 -8 0
v -1 -8 0
v -1 -7 0
v 0 -7 0
v -1 -8 0
v -2 -8 0
v -2 -7 0
v -1 -7 0
v -2 -8 0
v -3 -8 0
v -3 -7 0
v -2 -7 0
v -3 -8 0
v -4 -8 0
v -4 -7 0
v -3 -7 0
v -4 -8 0
v -5 -8 0
v -5 -7 0
v -4 -7 0
v -5 -8 0
v -6 -8 0
v -6 -7 0
v -5 -7 0
v -6 -8 0
v -7 -8 0
v -7 -7 0
v -6 -7 0
v -7 -8 0
v -8 -8 0
v -8 -7 0
v -7 -7 0
v -12 -8 0
v -13 -8 0
v -13 -7 0
v -12 -7 0
v -13 -8 0
v -14 -8 0
v -14 -7 0
v -13 -7 0
v -14 -8 0
v -15 -8 0
v -15 -7 0
v -14 -7 0
v -15 -8 0
v -16 -8 0
v -16 -7 0
v -15 -7 0
v 0 -9 0
v -1 -9 0
v -1 -8 0
v 0 -8 0
v -1 -9 0
v -2 -9 0
v -2 -8 0
v -1 -8 0
v -2 -9 0
v -3 -9 0
v -3 -8 0
v -2 -8 0
v -3 -9 0
v -4 -9 0
v -4 -8 0
v -3 -8 0
v -4 -9 0
v -5 -9 0
v -5 -8 0
v -4 -8 0
v -5 -9 0
v -6 -9 0
v -6 -8 0
v -5 -8 0
v -6 -9 0
v -7 -9 0
v -7 -8 0
v -6 -8 0
v -7 -9 0
v -8 -9 0
v -8 -8 0
v -7 -8 0
v -12 -9 0
v -13 -9 0
v -13 -8 0
v -12 -8 0
v -13 -9 0
v -14 -9 0
v -14 -8 0
v -13 -8 0
v -14 -9 0
v -15 -9 0
v -15 -8 0
v -14 -8 0
v -15 -9 0
v -16 -9 0
v -16 -8 0
v -15 -8 0
v 0 -10 0
v -1 -10 0
v -1 -9 0
v 0 -9 0
v -1 -10 0
v -2 -10 0
v -2 -9 0
v -1 -9 0
v -2 -10 0
v -3 -10 0
v -3 -9 0
v -2 -9 0
v -3 -10 0
v -4 -10 0
v -4 -9 0
v -3 -9 0
v -4 -10 0
v -5 -10 0
v -5 -9 0
v -4 -9 0
v -5 -10 0
v -6 -10 0
v -6 -9 0
v -5 -9 0
v -6 -10 0
v -7 -10 0
v -7 -9 0
v -6 -9 0
v -7 -10 0
v -8 -10 0
v -8 -9 0
v -7 -9 0
v -10 -10 0
v -11 -10 0
v -11 -9 0
v -10 -9 0
v -11 -10 0
v -12 -10 0
v -12 -9 0
v -11 -9 0
v -12 -10 0
v -13 -10 0
v -13 -9 0
v -12 -9 0
v -13 -10 0
v -14 -10 0
v -14 -9 0
v -13 -9 0
v -14 -10 0
v -15 -10 0
v -15 -9 0
v -14 -9 0
v -15 -10 0
v -16 -10 0
v -16 -9 0
v -15 -9 0
v 0 -11 0
v -1 -11 0
v -1 -10 0
v 0 -10 0
v -1 -11 0
v -2 -11 0
v -2 -10 0
v -1 -10 0
v -2 -11 0
v -3 -11 0
v -3 -10 0
v -2 -10 0
v -3 -11 0
v -4 -11 0
v -4 -10 0
v -3 -10 0
v -4 -11 0
v -5 -11 0
v -5 -10 0
v -4 -10 0
v -5 -11 0
v -6 -11 0
v -6 -10 0
v -5 -10 0
v -6 -11 0
v -7 -11 0
v -7 -10 0
v -6 -10 0
v -7 -11 0
v -8 -11 0
v -8 -10 0
v -7 -10 0
v -10 -11 0
v -11 -11 0
v -11 -10 0
v -10 -10 0
v -11 -11 0
v -12 -11 0
v -12 -10 0
v -11 -10 0
v -12 -11 0
v -13 -11 0
v -13 -10 0
v -12 -10 0
v -13 -11 0
v -14 -11 0
v -14 -10 0
v -13 -10 0
v -14 -11 0
v -15 -11 0
v -15 -10 0
v -14 -10 0
v -15 -11 0
v -16 -11 0
v -16 -10 0
v -15 -10 0
v 0 -12 0
v -1 -12 0
v -1 -11 0
v 0 -11 0
v -1 -12 0
v -2 -12 0
v -2 -11 0
v -1 -11 0
v -2 -12 0
v -3 -12 0
v -3 -11 0
v -2 -11 0
v -3 -12 0
v -4 -12 0
v -4 -11 0
v -3 -11 0
v -4 -12 0
v -5 -12 0
v -5 -11 0
v -4 -11 0
v -5 -12 0
v -6 -12 0
v -6 -11 0
v -5 -11 0
v -6 -12 0
v -7 -12 0
v -7 -11 0
v -6 -11 0
v -7 -12 0
v -8 -12 0
v -8 -11 0
v -7 -11 0
v -8 -12 0
v -9 -12 0
v -9 -11 0
v -8 -11 0
v -9 -12 0
v -10 -12 0
v -10 -11 0
v -9 -11 0
v -10 -12 0
v -11 -12 0
v -11 -11 0
v -10 -11 0
v -11 -12 0
v -12 -12 0
v -12 -11 0
v -11 -11 0
v -12 -12 0
v -13 -12 0
v -13 -11 0
v -12 -11 0
v -13 -12 0
v -14 -12 0
v -14 -11 0
v -13 -11 0
v -14 -12 0
v -15 -12 0
v -15 -11 0
v -14 -11 0
v -15 -12 0
v -16 -12 0
v -16 -11 0
v -15 -11 0
v 0 -13 0
v -1 -13 0
v -1 -12 0
v 0 -12 0
v -1 -13 0
v -2 -13 0
v -2 -12 0
v -1 -12 0
v -2 -13 0
v -3 -13 0
v -3 -12 0
v -2 -12 0
v -3 -13 0
v -4 -13 0
v -4 -12 0
v -3 -12 0
v -4 -13 0
v -5 -13 0
v -5 -12 0
v -4 -12 0
v -5 -13 0
v -6 -13 0
v -6 -12 0
v -5 -12 0
v -6 -13 0
v -7 -13 0
v -7 -12 0
v -6 -12 0
v -7 -13 0
v -8 -13 0
v -8 -12 0
v -7 -12 0
v -8 -13 0
v -9 -13 0
v -9 -12 0
v -8 -12 0
v -9 -13 0
v -10 -13 0
v -10 -12 0
v -9 -12 0
v -10 -13 0
v -11 -13 0
v -11 -12 0
v -10 -12 0
v -11 -13 0
v -12 -13 0
v -12 -12 0
v -11 -12 0
v -12 -13 0
v -13 -13 0
v -13 -12 0
v -12 -12 0
v -13 -13 0
v -14 -13 0
v -14 -12 0
v -13 -12 0
v -14 -13 0
v -15 -13 0
v -15 -12 0
v -14 -12 0
v -15 -13 0
v -16 -13 0
v -16 -12 0
v -15 -12 0
v 0 -14 0
v -1 -14 0
v -1 -13 0
v 0 -13 0
v -1 -14 0
v -2 -14 0
v -2 -13 0
v -1 -13 0
v -2 -14 0
v -3 -14 0
v -3 -13 0
v -2 -13 0
v -3 -14 0
v -4 -14 0
v -4 -13 0
v -3 -13 0
v -4 -14 0
v -5 -14 0
v -5 -13 0
v -4 -13 0
v -5 -14 0
v -6 -14 0
v -6 -13 0
v -5 -13 0
v -6 -14 0
v -7 -14 0
v -7 -13 0
v -6 -13 0
v -7 -14 0
v -8 -14 0
v -8 -13 0
v -7 -13 0
v 0 -15 0
v -1 -15 0
v -1 -14 0
v 0 -14 0
v -1 -15 0
v -2 -15 0
v -2 -14 0
v -1 -14 0
v -2 -15 0
v -3 -15 0
v -3 -14 0
v -2 -14 0
v -3 -15 0
v -4 -15 0
v -4 -14 0
v -3 -14 0
v -4 -15 0
v -5 -15 0
v -5 -14 0
v -4 -14 0
v -5 -15 0
v -6 -15 0
v -6 -14 0
v -5 -14 0
v -6 -15 0
v -7 -15 0
v -7 -14 0
v -6 -14 0
v -7 -15 0
v -8 -15 0
v -8 -14 0
v -7 -14 0
v 0 -16 0
v -1 -16 0
v -1 -15 0
v 0 -15 0
v -1 -16 0
v -2 -16 0
v -2 -15 0
v -1 -15 0
v -2 -16 0
v -3 -16 0
v -3 -15 0
v -2 -15 0
v -3 -16 0
v -4 -16 0
v -4 -15 0
v -3 -15 0
v -4 -16 0
v -5 -16 0
v -5 -15 0
v -4 -15 0
v -5 -16 0
v -6 -16 0
v -6 -15 0
v -5 -15 0
v -6 -16 0
v -7 -16 0
v -7 -15 0
v -6 -15 0
v -7 -16 0
v -8 -16 0
v -8 -15 0
v -7 -15 0

# Texture cooridinates (Count = 24)
vt 0 0.9722222
vt 0.025 0.9722222
vt 0.025 1
vt 0 1
vt 0.125 0.5
vt 0.15 0.5
vt 0.15 0.5277778
vt 0.125 0.5277778
vt 0.175 0.5
vt 0.175 0.5277778
vt 0.15 0.5555556
vt 0.125 0.5555556
vt 0.175 0.5555556
vt 0.05 0.5833334
vt 0.075 0.5833334
vt 0.075 0.6111111
vt 0.05 0.6111111
vt 0.125 0.4722222
vt 0.15 0.4722222
vt 0.125 0.4444444
vt 0.15 0.4444444
vt 0.175 0.4722222
vt 0.2 0.4722222
vt 0.2 0.5

# Normal
vn 0 0 -1

# Mesh description
g Map_mesh_0074

# Faces
f 1/1/1 2/2/1 3/3/1 4/4/1
f 5/5/1 6/6/1 7/7/1 8/8/1
f 9/6/1 10/9/1 11/10/1 12/7/1
f 13/5/1 14/6/1 15/7/1 16/8/1
f 17/6/1 18/9/1 19/10/1 20/7/1
f 21/5/1 22/6/1 23/7/1 24/8/1
f 25/6/1 26/9/1 27/10/1 28/7/1
f 29/5/1 30/6/1 31/7/1 32/8/1
f 33/6/1 34/9/1 35/10/1 36/7/1
f 37/1/1 38/2/1 39/3/1 40/4/1
f 41/8/1 42/7/1 43/11/1 44/12/1
f 45/7/1 46/10/1 47/13/1 48/11/1
f 49/8/1 50/7/1 51/11/1 52/12/1
f 53/7/1 54/10/1 55/13/1 56/11/1
f 57/8/1 58/7/1 59/11/1 60/12/1
f 61/7/1 62/10/1 63/13/1 64/11/1
f 65/8/1 66/7/1 67/11/1 68/12/1
f 69/7/1 70/10/1 71/13/1 72/11/1
f 73/1/1 74/2/1 75/3/1 76/4/1
f 77/5/1 78/6/1 79/7/1 80/8/1
f 81/6/1 82/9/1 83/10/1 84/7/1
f 85/5/1 86/6/1 87/7/1 88/8/1
f 89/6/1 90/9/1 91/10/1 92/7/1
f 93/5/1 94/6/1 95/7/1 96/8/1
f 97/6/1 98/9/1 99/10/1 100/7/1
f 101/5/1 102/6/1 103/7/1 104/8/1
f 105/6/1 106/9/1 107/10/1 108/7/1
f 109/8/1 110/7/1 111/11/1 112/12/1
f 113/7/1 114/10/1 115/13/1 116/11/1
f 117/8/1 118/7/1 119/11/1 120/12/1
f 121/7/1 122/10/1 123/13/1 124/11/1
f 125/5/1 126/6/1 127/7/1 128/8/1
f 129/6/1 130/9/1 131/10/1 132/7/1
f 133/5/1 134/6/1 135/7/1 136/8/1
f 137/6/1 138/9/1 139/10/1 140/7/1
f 141/8/1 142/7/1 143/11/1 144/12/1
f 145/7/1 146/10/1 147/13/1 148/11/1
f 149/8/1 150/7/1 151/11/1 152/12/1
f 153/7/1 154/10/1 155/13/1 156/11/1
f 157/8/1 158/7/1 159/11/1 160/12/1
f 161/7/1 162/10/1 163/13/1 164/11/1
f 165/8/1 166/7/1 167/11/1 168/12/1
f 169/7/1 170/10/1 171/13/1 172/11/1
f 173/8/1 174/7/1 175/11/1 176/12/1
f 177/7/1 178/10/1 179/13/1 180/11/1
f 181/8/1 182/7/1 183/11/1 184/12/1
f 185/7/1 186/10/1 187/13/1 188/11/1
f 189/8/1 190/7/1 191/11/1 192/12/1
f 193/7/1 194/10/1 195/13/1 196/11/1
f 197/5/1 198/6/1 199/7/1 200/8/1
f 201/6/1 202/9/1 203/10/1 204/7/1
f 205/5/1 206/6/1 207/7/1 208/8/1
f 209/6/1 210/9/1 211/10/1 212/7/1
f 213/5/1 214/6/1 215/7/1 216/8/1
f 217/6/1 218/9/1 219/10/1 220/7/1
f 221/5/1 222/6/1 223/7/1 224/8/1
f 225/6/1 226/9/1 227/10/1 228/7/1
f 229/5/1 230/6/1 231/7/1 232/8/1
f 233/6/1 234/9/1 235/10/1 236/7/1
f 237/5/1 238/6/1 239/7/1 240/8/1
f 241/6/1 242/9/1 243/10/1 244/7/1
f 245/5/1 246/6/1 247/7/1 248/8/1
f 249/6/1 250/9/1 251/10/1 252/7/1
f 253/14/1 254/15/1 255/16/1 256/17/1
f 257/14/1 258/15/1 259/16/1 260/17/1
f 261/14/1 262/15/1 263/16/1 264/17/1
f 265/14/1 266/15/1 267/16/1 268/17/1
f 269/14/1 270/15/1 271/16/1 272/17/1
f 273/14/1 274/15/1 275/16/1 276/17/1
f 277/14/1 278/15/1 279/16/1 280/17/1
f 281/14/1 282/15/1 283/16/1 284/17/1
f 285/8/1 286/7/1 287/11/1 288/12/1
f 289/18/1 290/19/1 291/6/1 292/5/1
f 293/18/1 294/19/1 295/6/1 296/5/1
f 297/18/1 298/19/1 299/6/1 300/5/1
f 301/14/1 302/15/1 303/16/1 304/17/1
f 305/14/1 306/15/1 307/16/1 308/17/1
f 309/14/1 310/15/1 311/16/1 312/17/1
f 313/14/1 314/15/1 315/16/1 316/17/1
f 317/14/1 318/15/1 319/16/1 320/17/1
f 321/14/1 322/15/1 323/16/1 324/17/1
f 325/14/1 326/15/1 327/16/1 328/17/1
f 329/14/1 330/15/1 331/16/1 332/17/1
f 333/5/1 334/6/1 335/7/1 336/8/1
f 337/20/1 338/21/1 339/19/1 340/18/1
f 341/20/1 342/21/1 343/19/1 344/18/1
f 345/20/1 346/21/1 347/19/1 348/18/1
f 349/8/1 350/7/1 351/11/1 352/12/1
f 353/7/1 354/10/1 355/13/1 356/11/1
f 357/8/1 358/7/1 359/11/1 360/12/1
f 361/7/1 362/10/1 363/13/1 364/11/1
f 365/8/1 366/7/1 367/11/1 368/12/1
f 369/7/1 370/10/1 371/13/1 372/11/1
f 373/14/1 374/15/1 375/16/1 376/17/1
f 377/14/1 378/15/1 379/16/1 380/17/1
f 381/14/1 382/15/1 383/16/1 384/17/1
f 385/14/1 386/15/1 387/16/1 388/17/1
f 389/8/1 390/7/1 391/11/1 392/12/1
f 393/7/1 394/10/1 395/13/1 396/11/1
f 397/8/1 398/7/1 399/11/1 400/12/1
f 401/7/1 402/10/1 403/13/1 404/11/1
f 405/5/1 406/6/1 407/7/1 408/8/1
f 409/6/1 410/9/1 411/10/1 412/7/1
f 413/5/1 414/6/1 415/7/1 416/8/1
f 417/6/1 418/9/1 419/10/1 420/7/1
f 421/5/1 422/6/1 423/7/1 424/8/1
f 425/6/1 426/9/1 427/10/1 428/7/1
f 429/14/1 430/15/1 431/16/1 432/17/1
f 433/14/1 434/15/1 435/16/1 436/17/1
f 437/14/1 438/15/1 439/16/1 440/17/1
f 441/14/1 442/15/1 443/16/1 444/17/1
f 445/5/1 446/6/1 447/7/1 448/8/1
f 449/6/1 450/9/1 451/10/1 452/7/1
f 453/5/1 454/6/1 455/7/1 456/8/1
f 457/6/1 458/9/1 459/10/1 460/7/1
f 461/8/1 462/7/1 463/11/1 464/12/1
f 465/7/1 466/10/1 467/13/1 468/11/1
f 469/8/1 470/7/1 471/11/1 472/12/1
f 473/7/1 474/10/1 475/13/1 476/11/1
f 477/8/1 478/7/1 479/11/1 480/12/1
f 481/7/1 482/10/1 483/13/1 484/11/1
f 485/8/1 486/7/1 487/11/1 488/12/1
f 489/7/1 490/10/1 491/13/1 492/11/1
f 493/8/1 494/7/1 495/11/1 496/12/1
f 497/7/1 498/10/1 499/13/1 500/11/1
f 501/8/1 502/7/1 503/11/1 504/12/1
f 505/7/1 506/10/1 507/13/1 508/11/1
f 509/8/1 510/7/1 511/11/1 512/12/1
f 513/7/1 514/10/1 515/13/1 516/11/1
f 517/8/1 518/7/1 519/11/1 520/12/1
f 521/7/1 522/10/1 523/13/1 524/11/1
f 525/5/1 526/6/1 527/7/1 528/8/1
f 529/6/1 530/9/1 531/10/1 532/7/1
f 533/5/1 534/6/1 535/7/1 536/8/1
f 537/6/1 538/9/1 539/10/1 540/7/1
f 541/5/1 542/6/1 543/7/1 544/8/1
f 545/6/1 546/9/1 547/10/1 548/7/1
f 549/19/1 550/22/1 551/9/1 552/6/1
f 553/22/1 554/23/1 555/24/1 556/9/1
f 557/5/1 558/6/1 559/7/1 560/8/1
f 561/6/1 562/9/1 563/10/1 564/7/1
f 565/5/1 566/6/1 567/7/1 568/8/1
f 569/6/1 570/9/1 571/10/1 572/7/1
f 573/5/1 574/6/1 575/7/1 576/8/1
f 577/6/1 578/9/1 579/10/1 580/7/1
f 581/5/1 582/6/1 583/7/1 584/8/1
f 585/6/1 586/9/1 587/10/1 588/7/1
f 589/8/1 590/7/1 591/11/1 592/12/1
f 593/7/1 594/10/1 595/13/1 596/11/1
f 597/8/1 598/7/1 599/11/1 600/12/1
f 601/7/1 602/10/1 603/13/1 604/11/1
f 605/8/1 606/7/1 607/11/1 608/12/1
f 609/7/1 610/10/1 611/13/1 612/11/1
f 613/19/1 614/22/1 615/9/1 616/6/1
f 617/22/1 618/23/1 619/24/1 620/9/1
f 621/5/1 622/6/1 623/7/1 624/8/1
f 625/6/1 626/9/1 627/10/1 628/7/1
f 629/5/1 630/6/1 631/7/1 632/8/1
f 633/6/1 634/9/1 635/10/1 636/7/1
f 637/5/1 638/6/1 639/7/1 640/8/1
f 641/6/1 642/9/1 643/10/1 644/7/1
f 645/19/1 646/22/1 647/9/1 648/6/1
f 649/22/1 650/23/1 651/24/1 652/9/1
f 653/8/1 654/7/1 655/11/1 656/12/1
f 657/7/1 658/10/1 659/13/1 660/11/1
f 661/8/1 662/7/1 663/11/1 664/12/1
f 665/7/1 666/10/1 667/13/1 668/11/1
f 669/8/1 670/7/1 671/11/1 672/12/1
f 673/7/1 674/10/1 675/13/1 676/11/1
f 677/19/1 678/22/1 679/9/1 680/6/1
f 681/22/1 682/23/1 683/24/1 684/9/1

