# Tiled2Unity generated file. Do not modify by hand.
# Wavefront file for 'Map_mesh_0050.obj'

# Vertices (Count = 588)
v -7 -1 0
v -8 -1 0
v -8 0 0
v -7 0 0
v -8 -1 0
v -9 -1 0
v -9 0 0
v -8 0 0
v -9 -1 0
v -10 -1 0
v -10 0 0
v -9 0 0
v -10 -1 0
v -11 -1 0
v -11 0 0
v -10 0 0
v -11 -1 0
v -12 -1 0
v -12 0 0
v -11 0 0
v -14 -1 0
v -15 -1 0
v -15 0 0
v -14 0 0
v -15 -1 0
v -16 -1 0
v -16 0 0
v -15 0 0
v -12 -2 0
v -13 -2 0
v -13 -1 0
v -12 -1 0
v -13 -2 0
v -14 -2 0
v -14 -1 0
v -13 -1 0
v -14 -2 0
v -15 -2 0
v -15 -1 0
v -14 -1 0
v -15 -2 0
v -16 -2 0
v -16 -1 0
v -15 -1 0
v -12 -3 0
v -13 -3 0
v -13 -2 0
v -12 -2 0
v -13 -3 0
v -14 -3 0
v -14 -2 0
v -13 -2 0
v -14 -3 0
v -15 -3 0
v -15 -2 0
v -14 -2 0
v -15 -3 0
v -16 -3 0
v -16 -2 0
v -15 -2 0
v -12 -4 0
v -13 -4 0
v -13 -3 0
v -12 -3 0
v -13 -4 0
v -14 -4 0
v -14 -3 0
v -13 -3 0
v -14 -4 0
v -15 -4 0
v -15 -3 0
v -14 -3 0
v -15 -4 0
v -16 -4 0
v -16 -3 0
v -15 -3 0
v -12 -5 0
v -13 -5 0
v -13 -4 0
v -12 -4 0
v -13 -5 0
v -14 -5 0
v -14 -4 0
v -13 -4 0
v -14 -5 0
v -15 -5 0
v -15 -4 0
v -14 -4 0
v -15 -5 0
v -16 -5 0
v -16 -4 0
v -15 -4 0
v -12 -6 0
v -13 -6 0
v -13 -5 0
v -12 -5 0
v -13 -6 0
v -14 -6 0
v -14 -5 0
v -13 -5 0
v -14 -6 0
v -15 -6 0
v -15 -5 0
v -14 -5 0
v -15 -6 0
v -16 -6 0
v -16 -5 0
v -15 -5 0
v -12 -7 0
v -13 -7 0
v -13 -6 0
v -12 -6 0
v -13 -7 0
v -14 -7 0
v -14 -6 0
v -13 -6 0
v -14 -7 0
v -15 -7 0
v -15 -6 0
v -14 -6 0
v -15 -7 0
v -16 -7 0
v -16 -6 0
v -15 -6 0
v -12 -8 0
v -13 -8 0
v -13 -7 0
v -12 -7 0
v -13 -8 0
v -14 -8 0
v -14 -7 0
v -13 -7 0
v -14 -8 0
v -15 -8 0
v -15 -7 0
v -14 -7 0
v -15 -8 0
v -16 -8 0
v -16 -7 0
v -15 -7 0
v -2 -9 0
v -3 -9 0
v -3 -8 0
v -2 -8 0
v -3 -9 0
v -4 -9 0
v -4 -8 0
v -3 -8 0
v -4 -9 0
v -5 -9 0
v -5 -8 0
v -4 -8 0
v -5 -9 0
v -6 -9 0
v -6 -8 0
v -5 -8 0
v -6 -9 0
v -7 -9 0
v -7 -8 0
v -6 -8 0
v -7 -9 0
v -8 -9 0
v -8 -8 0
v -7 -8 0
v -8 -9 0
v -9 -9 0
v -9 -8 0
v -8 -8 0
v -9 -9 0
v -10 -9 0
v -10 -8 0
v -9 -8 0
v -10 -9 0
v -11 -9 0
v -11 -8 0
v -10 -8 0
v -11 -9 0
v -12 -9 0
v -12 -8 0
v -11 -8 0
v -12 -9 0
v -13 -9 0
v -13 -8 0
v -12 -8 0
v -13 -9 0
v -14 -9 0
v -14 -8 0
v -13 -8 0
v -14 -9 0
v -15 -9 0
v -15 -8 0
v -14 -8 0
v -15 -9 0
v -16 -9 0
v -16 -8 0
v -15 -8 0
v -2 -10 0
v -3 -10 0
v -3 -9 0
v -2 -9 0
v -3 -10 0
v -4 -10 0
v -4 -9 0
v -3 -9 0
v -4 -10 0
v -5 -10 0
v -5 -9 0
v -4 -9 0
v -5 -10 0
v -6 -10 0
v -6 -9 0
v -5 -9 0
v -6 -10 0
v -7 -10 0
v -7 -9 0
v -6 -9 0
v -7 -10 0
v -8 -10 0
v -8 -9 0
v -7 -9 0
v -8 -10 0
v -9 -10 0
v -9 -9 0
v -8 -9 0
v -9 -10 0
v -10 -10 0
v -10 -9 0
v -9 -9 0
v -10 -10 0
v -11 -10 0
v -11 -9 0
v -10 -9 0
v -11 -10 0
v -12 -10 0
v -12 -9 0
v -11 -9 0
v -12 -10 0
v -13 -10 0
v -13 -9 0
v -12 -9 0
v -13 -10 0
v -14 -10 0
v -14 -9 0
v -13 -9 0
v -14 -10 0
v -15 -10 0
v -15 -9 0
v -14 -9 0
v -15 -10 0
v -16 -10 0
v -16 -9 0
v -15 -9 0
v -2 -11 0
v -3 -11 0
v -3 -10 0
v -2 -10 0
v -3 -11 0
v -4 -11 0
v -4 -10 0
v -3 -10 0
v -4 -11 0
v -5 -11 0
v -5 -10 0
v -4 -10 0
v -5 -11 0
v -6 -11 0
v -6 -10 0
v -5 -10 0
v -6 -11 0
v -7 -11 0
v -7 -10 0
v -6 -10 0
v -7 -11 0
v -8 -11 0
v -8 -10 0
v -7 -10 0
v -8 -11 0
v -9 -11 0
v -9 -10 0
v -8 -10 0
v -9 -11 0
v -10 -11 0
v -10 -10 0
v -9 -10 0
v -10 -11 0
v -11 -11 0
v -11 -10 0
v -10 -10 0
v -11 -11 0
v -12 -11 0
v -12 -10 0
v -11 -10 0
v -12 -11 0
v -13 -11 0
v -13 -10 0
v -12 -10 0
v -13 -11 0
v -14 -11 0
v -14 -10 0
v -13 -10 0
v -14 -11 0
v -15 -11 0
v -15 -10 0
v -14 -10 0
v -15 -11 0
v -16 -11 0
v -16 -10 0
v -15 -10 0
v -2 -12 0
v -3 -12 0
v -3 -11 0
v -2 -11 0
v -3 -12 0
v -4 -12 0
v -4 -11 0
v -3 -11 0
v -4 -12 0
v -5 -12 0
v -5 -11 0
v -4 -11 0
v -5 -12 0
v -6 -12 0
v -6 -11 0
v -5 -11 0
v -6 -12 0
v -7 -12 0
v -7 -11 0
v -6 -11 0
v -7 -12 0
v -8 -12 0
v -8 -11 0
v -7 -11 0
v -8 -12 0
v -9 -12 0
v -9 -11 0
v -8 -11 0
v -9 -12 0
v -10 -12 0
v -10 -11 0
v -9 -11 0
v -10 -12 0
v -11 -12 0
v -11 -11 0
v -10 -11 0
v -11 -12 0
v -12 -12 0
v -12 -11 0
v -11 -11 0
v -12 -12 0
v -13 -12 0
v -13 -11 0
v -12 -11 0
v -13 -12 0
v -14 -12 0
v -14 -11 0
v -13 -11 0
v -14 -12 0
v -15 -12 0
v -15 -11 0
v -14 -11 0
v -15 -12 0
v -16 -12 0
v -16 -11 0
v -15 -11 0
v -2 -13 0
v -3 -13 0
v -3 -12 0
v -2 -12 0
v -3 -13 0
v -4 -13 0
v -4 -12 0
v -3 -12 0
v -4 -13 0
v -5 -13 0
v -5 -12 0
v -4 -12 0
v -5 -13 0
v -6 -13 0
v -6 -12 0
v -5 -12 0
v -6 -13 0
v -7 -13 0
v -7 -12 0
v -6 -12 0
v -7 -13 0
v -8 -13 0
v -8 -12 0
v -7 -12 0
v -8 -13 0
v -9 -13 0
v -9 -12 0
v -8 -12 0
v -9 -13 0
v -10 -13 0
v -10 -12 0
v -9 -12 0
v -10 -13 0
v -11 -13 0
v -11 -12 0
v -10 -12 0
v -11 -13 0
v -12 -13 0
v -12 -12 0
v -11 -12 0
v -12 -13 0
v -13 -13 0
v -13 -12 0
v -12 -12 0
v -13 -13 0
v -14 -13 0
v -14 -12 0
v -13 -12 0
v -14 -13 0
v -15 -13 0
v -15 -12 0
v -14 -12 0
v -15 -13 0
v -16 -13 0
v -16 -12 0
v -15 -12 0
v -2 -14 0
v -3 -14 0
v -3 -13 0
v -2 -13 0
v -3 -14 0
v -4 -14 0
v -4 -13 0
v -3 -13 0
v -4 -14 0
v -5 -14 0
v -5 -13 0
v -4 -13 0
v -5 -14 0
v -6 -14 0
v -6 -13 0
v -5 -13 0
v -6 -14 0
v -7 -14 0
v -7 -13 0
v -6 -13 0
v -7 -14 0
v -8 -14 0
v -8 -13 0
v -7 -13 0
v -8 -14 0
v -9 -14 0
v -9 -13 0
v -8 -13 0
v -9 -14 0
v -10 -14 0
v -10 -13 0
v -9 -13 0
v -10 -14 0
v -11 -14 0
v -11 -13 0
v -10 -13 0
v -11 -14 0
v -12 -14 0
v -12 -13 0
v -11 -13 0
v -12 -14 0
v -13 -14 0
v -13 -13 0
v -12 -13 0
v -13 -14 0
v -14 -14 0
v -14 -13 0
v -13 -13 0
v -14 -14 0
v -15 -14 0
v -15 -13 0
v -14 -13 0
v -15 -14 0
v -16 -14 0
v -16 -13 0
v -15 -13 0
v -2 -15 0
v -3 -15 0
v -3 -14 0
v -2 -14 0
v -3 -15 0
v -4 -15 0
v -4 -14 0
v -3 -14 0
v -4 -15 0
v -5 -15 0
v -5 -14 0
v -4 -14 0
v -5 -15 0
v -6 -15 0
v -6 -14 0
v -5 -14 0
v -6 -15 0
v -7 -15 0
v -7 -14 0
v -6 -14 0
v -7 -15 0
v -8 -15 0
v -8 -14 0
v -7 -14 0
v -8 -15 0
v -9 -15 0
v -9 -14 0
v -8 -14 0
v -9 -15 0
v -10 -15 0
v -10 -14 0
v -9 -14 0
v -10 -15 0
v -11 -15 0
v -11 -14 0
v -10 -14 0
v -11 -15 0
v -12 -15 0
v -12 -14 0
v -11 -14 0
v -12 -15 0
v -13 -15 0
v -13 -14 0
v -12 -14 0
v -13 -15 0
v -14 -15 0
v -14 -14 0
v -13 -14 0
v -14 -15 0
v -15 -15 0
v -15 -14 0
v -14 -14 0
v -15 -15 0
v -16 -15 0
v -16 -14 0
v -15 -14 0
v -2 -16 0
v -3 -16 0
v -3 -15 0
v -2 -15 0
v -3 -16 0
v -4 -16 0
v -4 -15 0
v -3 -15 0
v -4 -16 0
v -5 -16 0
v -5 -15 0
v -4 -15 0
v -5 -16 0
v -6 -16 0
v -6 -15 0
v -5 -15 0
v -6 -16 0
v -7 -16 0
v -7 -15 0
v -6 -15 0
v -7 -16 0
v -8 -16 0
v -8 -15 0
v -7 -15 0
v -8 -16 0
v -9 -16 0
v -9 -15 0
v -8 -15 0
v -9 -16 0
v -10 -16 0
v -10 -15 0
v -9 -15 0
v -10 -16 0
v -11 -16 0
v -11 -15 0
v -10 -15 0
v -11 -16 0
v -12 -16 0
v -12 -15 0
v -11 -15 0
v -12 -16 0
v -13 -16 0
v -13 -15 0
v -12 -15 0
v -13 -16 0
v -14 -16 0
v -14 -15 0
v -13 -15 0
v -14 -16 0
v -15 -16 0
v -15 -15 0
v -14 -15 0
v -15 -16 0
v -16 -16 0
v -16 -15 0
v -15 -15 0

# Texture cooridinates (Count = 30)
vt 0.025 0.5555556
vt 0.05 0.5555556
vt 0.05 0.5833334
vt 0.025 0.5833334
vt 0.075 0.5555556
vt 0.075 0.5833334
vt 0.1 0.5555556
vt 0.1 0.5833334
vt 0.125 0.5277778
vt 0.15 0.5277778
vt 0.15 0.5555556
vt 0.125 0.5555556
vt 0.175 0.5277778
vt 0.175 0.5555556
vt 0.125 0.5
vt 0.15 0.5
vt 0.175 0.5
vt 0.15 0.4722222
vt 0.175 0.4722222
vt 0.2 0.4722222
vt 0.2 0.5
vt 0.125 0.4722222
vt 0.2 0.5277778
vt 0.2 0.5555556
vt 0.1 0.4444444
vt 0.125 0.4444444
vt 0.1 0.4722222
vt 0.075 0.4444444
vt 0.075 0.4722222
vt 0.15 0.4444444

# Normal
vn 0 0 -1

# Mesh description
g Map_mesh_0050

# Faces
f 1/1/1 2/2/1 3/3/1 4/4/1
f 5/2/1 6/5/1 7/6/1 8/3/1
f 9/2/1 10/5/1 11/6/1 12/3/1
f 13/2/1 14/5/1 15/6/1 16/3/1
f 17/5/1 18/7/1 19/8/1 20/6/1
f 21/9/1 22/10/1 23/11/1 24/12/1
f 25/10/1 26/13/1 27/14/1 28/11/1
f 29/9/1 30/10/1 31/11/1 32/12/1
f 33/10/1 34/13/1 35/14/1 36/11/1
f 37/15/1 38/16/1 39/10/1 40/9/1
f 41/16/1 42/17/1 43/13/1 44/10/1
f 45/18/1 46/19/1 47/17/1 48/16/1
f 49/19/1 50/20/1 51/21/1 52/17/1
f 53/9/1 54/10/1 55/11/1 56/12/1
f 57/10/1 58/13/1 59/14/1 60/11/1
f 61/18/1 62/19/1 63/17/1 64/16/1
f 65/19/1 66/20/1 67/21/1 68/17/1
f 69/15/1 70/16/1 71/10/1 72/9/1
f 73/16/1 74/17/1 75/13/1 76/10/1
f 77/18/1 78/19/1 79/17/1 80/16/1
f 81/19/1 82/20/1 83/21/1 84/17/1
f 85/9/1 86/10/1 87/11/1 88/12/1
f 89/10/1 90/13/1 91/14/1 92/11/1
f 93/18/1 94/19/1 95/17/1 96/16/1
f 97/19/1 98/20/1 99/21/1 100/17/1
f 101/15/1 102/16/1 103/10/1 104/9/1
f 105/16/1 106/17/1 107/13/1 108/10/1
f 109/18/1 110/19/1 111/17/1 112/16/1
f 113/19/1 114/20/1 115/21/1 116/17/1
f 117/9/1 118/10/1 119/11/1 120/12/1
f 121/10/1 122/13/1 123/14/1 124/11/1
f 125/18/1 126/19/1 127/17/1 128/16/1
f 129/19/1 130/20/1 131/21/1 132/17/1
f 133/15/1 134/16/1 135/10/1 136/9/1
f 137/16/1 138/17/1 139/13/1 140/10/1
f 141/9/1 142/10/1 143/11/1 144/12/1
f 145/22/1 146/18/1 147/16/1 148/15/1
f 149/22/1 150/18/1 151/16/1 152/15/1
f 153/22/1 154/18/1 155/16/1 156/15/1
f 157/22/1 158/18/1 159/16/1 160/15/1
f 161/22/1 162/18/1 163/16/1 164/15/1
f 165/22/1 166/18/1 167/16/1 168/15/1
f 169/22/1 170/18/1 171/16/1 172/15/1
f 173/22/1 174/18/1 175/16/1 176/15/1
f 177/22/1 178/18/1 179/16/1 180/15/1
f 181/13/1 182/23/1 183/24/1 184/14/1
f 185/25/1 186/26/1 187/22/1 188/27/1
f 189/9/1 190/10/1 191/11/1 192/12/1
f 193/10/1 194/13/1 195/14/1 196/11/1
f 197/28/1 198/25/1 199/27/1 200/29/1
f 201/25/1 202/26/1 203/22/1 204/27/1
f 205/26/1 206/30/1 207/18/1 208/22/1
f 209/26/1 210/30/1 211/18/1 212/22/1
f 213/26/1 214/30/1 215/18/1 216/22/1
f 217/26/1 218/30/1 219/18/1 220/22/1
f 221/26/1 222/30/1 223/18/1 224/22/1
f 225/26/1 226/30/1 227/18/1 228/22/1
f 229/26/1 230/30/1 231/18/1 232/22/1
f 233/26/1 234/30/1 235/18/1 236/22/1
f 237/26/1 238/30/1 239/18/1 240/22/1
f 241/16/1 242/17/1 243/13/1 244/10/1
f 245/15/1 246/16/1 247/10/1 248/9/1
f 249/16/1 250/17/1 251/13/1 252/10/1
f 253/18/1 254/19/1 255/17/1 256/16/1
f 257/19/1 258/20/1 259/21/1 260/17/1
f 261/9/1 262/10/1 263/11/1 264/12/1
f 265/10/1 266/13/1 267/14/1 268/11/1
f 269/9/1 270/10/1 271/11/1 272/12/1
f 273/10/1 274/13/1 275/14/1 276/11/1
f 277/9/1 278/10/1 279/11/1 280/12/1
f 281/10/1 282/13/1 283/14/1 284/11/1
f 285/9/1 286/10/1 287/11/1 288/12/1
f 289/10/1 290/13/1 291/14/1 292/11/1
f 293/9/1 294/10/1 295/11/1 296/12/1
f 297/10/1 298/13/1 299/14/1 300/11/1
f 301/9/1 302/10/1 303/11/1 304/12/1
f 305/10/1 306/13/1 307/14/1 308/11/1
f 309/18/1 310/19/1 311/17/1 312/16/1
f 313/19/1 314/20/1 315/21/1 316/17/1
f 317/15/1 318/16/1 319/10/1 320/9/1
f 321/16/1 322/17/1 323/13/1 324/10/1
f 325/15/1 326/16/1 327/10/1 328/9/1
f 329/16/1 330/17/1 331/13/1 332/10/1
f 333/15/1 334/16/1 335/10/1 336/9/1
f 337/16/1 338/17/1 339/13/1 340/10/1
f 341/15/1 342/16/1 343/10/1 344/9/1
f 345/16/1 346/17/1 347/13/1 348/10/1
f 349/15/1 350/16/1 351/10/1 352/9/1
f 353/16/1 354/17/1 355/13/1 356/10/1
f 357/15/1 358/16/1 359/10/1 360/9/1
f 361/16/1 362/17/1 363/13/1 364/10/1
f 365/18/1 366/19/1 367/17/1 368/16/1
f 369/19/1 370/20/1 371/21/1 372/17/1
f 373/9/1 374/10/1 375/11/1 376/12/1
f 377/10/1 378/13/1 379/14/1 380/11/1
f 381/9/1 382/10/1 383/11/1 384/12/1
f 385/10/1 386/13/1 387/14/1 388/11/1
f 389/9/1 390/10/1 391/11/1 392/12/1
f 393/10/1 394/13/1 395/14/1 396/11/1
f 397/9/1 398/10/1 399/11/1 400/12/1
f 401/10/1 402/13/1 403/14/1 404/11/1
f 405/9/1 406/10/1 407/11/1 408/12/1
f 409/10/1 410/13/1 411/14/1 412/11/1
f 413/9/1 414/10/1 415/11/1 416/12/1
f 417/10/1 418/13/1 419/14/1 420/11/1
f 421/18/1 422/19/1 423/17/1 424/16/1
f 425/19/1 426/20/1 427/21/1 428/17/1
f 429/15/1 430/16/1 431/10/1 432/9/1
f 433/16/1 434/17/1 435/13/1 436/10/1
f 437/15/1 438/16/1 439/10/1 440/9/1
f 441/16/1 442/17/1 443/13/1 444/10/1
f 445/15/1 446/16/1 447/10/1 448/9/1
f 449/16/1 450/17/1 451/13/1 452/10/1
f 453/15/1 454/16/1 455/10/1 456/9/1
f 457/16/1 458/17/1 459/13/1 460/10/1
f 461/15/1 462/16/1 463/10/1 464/9/1
f 465/16/1 466/17/1 467/13/1 468/10/1
f 469/15/1 470/16/1 471/10/1 472/9/1
f 473/16/1 474/17/1 475/13/1 476/10/1
f 477/18/1 478/19/1 479/17/1 480/16/1
f 481/19/1 482/20/1 483/21/1 484/17/1
f 485/9/1 486/10/1 487/11/1 488/12/1
f 489/10/1 490/13/1 491/14/1 492/11/1
f 493/9/1 494/10/1 495/11/1 496/12/1
f 497/10/1 498/13/1 499/14/1 500/11/1
f 501/9/1 502/10/1 503/11/1 504/12/1
f 505/10/1 506/13/1 507/14/1 508/11/1
f 509/9/1 510/10/1 511/11/1 512/12/1
f 513/10/1 514/13/1 515/14/1 516/11/1
f 517/9/1 518/10/1 519/11/1 520/12/1
f 521/10/1 522/13/1 523/14/1 524/11/1
f 525/9/1 526/10/1 527/11/1 528/12/1
f 529/10/1 530/13/1 531/14/1 532/11/1
f 533/18/1 534/19/1 535/17/1 536/16/1
f 537/19/1 538/20/1 539/21/1 540/17/1
f 541/15/1 542/16/1 543/10/1 544/9/1
f 545/16/1 546/17/1 547/13/1 548/10/1
f 549/15/1 550/16/1 551/10/1 552/9/1
f 553/16/1 554/17/1 555/13/1 556/10/1
f 557/15/1 558/16/1 559/10/1 560/9/1
f 561/16/1 562/17/1 563/13/1 564/10/1
f 565/15/1 566/16/1 567/10/1 568/9/1
f 569/16/1 570/17/1 571/13/1 572/10/1
f 573/15/1 574/16/1 575/10/1 576/9/1
f 577/16/1 578/17/1 579/13/1 580/10/1
f 581/15/1 582/16/1 583/10/1 584/9/1
f 585/16/1 586/17/1 587/13/1 588/10/1

