# Tiled2Unity generated file. Do not modify by hand.
# Wavefront file for 'Map_mesh_0064.obj'

# Vertices (Count = 424)
v 0 -1 0
v -1 -1 0
v -1 0 0
v 0 0 0
v -1 -1 0
v -2 -1 0
v -2 0 0
v -1 0 0
v -4 -1 0
v -5 -1 0
v -5 0 0
v -4 0 0
v -5 -1 0
v -6 -1 0
v -6 0 0
v -5 0 0
v -6 -1 0
v -7 -1 0
v -7 0 0
v -6 0 0
v -7 -1 0
v -8 -1 0
v -8 0 0
v -7 0 0
v -8 -1 0
v -9 -1 0
v -9 0 0
v -8 0 0
v -9 -1 0
v -10 -1 0
v -10 0 0
v -9 0 0
v -10 -1 0
v -11 -1 0
v -11 0 0
v -10 0 0
v -11 -1 0
v -12 -1 0
v -12 0 0
v -11 0 0
v -12 -1 0
v -13 -1 0
v -13 0 0
v -12 0 0
v -13 -1 0
v -14 -1 0
v -14 0 0
v -13 0 0
v -14 -1 0
v -15 -1 0
v -15 0 0
v -14 0 0
v -15 -1 0
v -16 -1 0
v -16 0 0
v -15 0 0
v -1 -2 0
v -2 -2 0
v -2 -1 0
v -1 -1 0
v -2 -2 0
v -3 -2 0
v -3 -1 0
v -2 -1 0
v -4 -2 0
v -5 -2 0
v -5 -1 0
v -4 -1 0
v -5 -2 0
v -6 -2 0
v -6 -1 0
v -5 -1 0
v -6 -2 0
v -7 -2 0
v -7 -1 0
v -6 -1 0
v -7 -2 0
v -8 -2 0
v -8 -1 0
v -7 -1 0
v -8 -2 0
v -9 -2 0
v -9 -1 0
v -8 -1 0
v -9 -2 0
v -10 -2 0
v -10 -1 0
v -9 -1 0
v -10 -2 0
v -11 -2 0
v -11 -1 0
v -10 -1 0
v -11 -2 0
v -12 -2 0
v -12 -1 0
v -11 -1 0
v -12 -2 0
v -13 -2 0
v -13 -1 0
v -12 -1 0
v -13 -2 0
v -14 -2 0
v -14 -1 0
v -13 -1 0
v -14 -2 0
v -15 -2 0
v -15 -1 0
v -14 -1 0
v -15 -2 0
v -16 -2 0
v -16 -1 0
v -15 -1 0
v -2 -3 0
v -3 -3 0
v -3 -2 0
v -2 -2 0
v -14 -3 0
v -15 -3 0
v -15 -2 0
v -14 -2 0
v -15 -3 0
v -16 -3 0
v -16 -2 0
v -15 -2 0
v -2 -4 0
v -3 -4 0
v -3 -3 0
v -2 -3 0
v -14 -4 0
v -15 -4 0
v -15 -3 0
v -14 -3 0
v -15 -4 0
v -16 -4 0
v -16 -3 0
v -15 -3 0
v -2 -5 0
v -3 -5 0
v -3 -4 0
v -2 -4 0
v -8 -5 0
v -9 -5 0
v -9 -4 0
v -8 -4 0
v -9 -5 0
v -10 -5 0
v -10 -4 0
v -9 -4 0
v -10 -5 0
v -11 -5 0
v -11 -4 0
v -10 -4 0
v -11 -5 0
v -12 -5 0
v -12 -4 0
v -11 -4 0
v -14 -5 0
v -15 -5 0
v -15 -4 0
v -14 -4 0
v -15 -5 0
v -16 -5 0
v -16 -4 0
v -15 -4 0
v -2 -6 0
v -3 -6 0
v -3 -5 0
v -2 -5 0
v -7 -6 0
v -8 -6 0
v -8 -5 0
v -7 -5 0
v -8 -6 0
v -9 -6 0
v -9 -5 0
v -8 -5 0
v -9 -6 0
v -10 -6 0
v -10 -5 0
v -9 -5 0
v -11 -6 0
v -12 -6 0
v -12 -5 0
v -11 -5 0
v -12 -6 0
v -13 -6 0
v -13 -5 0
v -12 -5 0
v -14 -6 0
v -15 -6 0
v -15 -5 0
v -14 -5 0
v -15 -6 0
v -16 -6 0
v -16 -5 0
v -15 -5 0
v -2 -7 0
v -3 -7 0
v -3 -6 0
v -2 -6 0
v -7 -7 0
v -8 -7 0
v -8 -6 0
v -7 -6 0
v -8 -7 0
v -9 -7 0
v -9 -6 0
v -8 -6 0
v -12 -7 0
v -13 -7 0
v -13 -6 0
v -12 -6 0
v -14 -7 0
v -15 -7 0
v -15 -6 0
v -14 -6 0
v -15 -7 0
v -16 -7 0
v -16 -6 0
v -15 -6 0
v -2 -8 0
v -3 -8 0
v -3 -7 0
v -2 -7 0
v -6 -8 0
v -7 -8 0
v -7 -7 0
v -6 -7 0
v -7 -8 0
v -8 -8 0
v -8 -7 0
v -7 -7 0
v -12 -8 0
v -13 -8 0
v -13 -7 0
v -12 -7 0
v -13 -8 0
v -14 -8 0
v -14 -7 0
v -13 -7 0
v -14 -8 0
v -15 -8 0
v -15 -7 0
v -14 -7 0
v -15 -8 0
v -16 -8 0
v -16 -7 0
v -15 -7 0
v -1 -9 0
v -2 -9 0
v -2 -8 0
v -1 -8 0
v -2 -9 0
v -3 -9 0
v -3 -8 0
v -2 -8 0
v -6 -9 0
v -7 -9 0
v -7 -8 0
v -6 -8 0
v -13 -9 0
v -14 -9 0
v -14 -8 0
v -13 -8 0
v -14 -9 0
v -15 -9 0
v -15 -8 0
v -14 -8 0
v -15 -9 0
v -16 -9 0
v -16 -8 0
v -15 -8 0
v 0 -10 0
v -1 -10 0
v -1 -9 0
v 0 -9 0
v -1 -10 0
v -2 -10 0
v -2 -9 0
v -1 -9 0
v -5 -10 0
v -6 -10 0
v -6 -9 0
v -5 -9 0
v -6 -10 0
v -7 -10 0
v -7 -9 0
v -6 -9 0
v -13 -10 0
v -14 -10 0
v -14 -9 0
v -13 -9 0
v -14 -10 0
v -15 -10 0
v -15 -9 0
v -14 -9 0
v -15 -10 0
v -16 -10 0
v -16 -9 0
v -15 -9 0
v -5 -11 0
v -6 -11 0
v -6 -10 0
v -5 -10 0
v -6 -11 0
v -7 -11 0
v -7 -10 0
v -6 -10 0
v -13 -11 0
v -14 -11 0
v -14 -10 0
v -13 -10 0
v -14 -11 0
v -15 -11 0
v -15 -10 0
v -14 -10 0
v -15 -11 0
v -16 -11 0
v -16 -10 0
v -15 -10 0
v -5 -12 0
v -6 -12 0
v -6 -11 0
v -5 -11 0
v -13 -12 0
v -14 -12 0
v -14 -11 0
v -13 -11 0
v -14 -12 0
v -15 -12 0
v -15 -11 0
v -14 -11 0
v -15 -12 0
v -16 -12 0
v -16 -11 0
v -15 -11 0
v -5 -13 0
v -6 -13 0
v -6 -12 0
v -5 -12 0
v -13 -13 0
v -14 -13 0
v -14 -12 0
v -13 -12 0
v -14 -13 0
v -15 -13 0
v -15 -12 0
v -14 -12 0
v -15 -13 0
v -16 -13 0
v -16 -12 0
v -15 -12 0
v -5 -14 0
v -6 -14 0
v -6 -13 0
v -5 -13 0
v -6 -14 0
v -7 -14 0
v -7 -13 0
v -6 -13 0
v -7 -14 0
v -8 -14 0
v -8 -13 0
v -7 -13 0
v -13 -14 0
v -14 -14 0
v -14 -13 0
v -13 -13 0
v -14 -14 0
v -15 -14 0
v -15 -13 0
v -14 -13 0
v -15 -14 0
v -16 -14 0
v -16 -13 0
v -15 -13 0
v -6 -15 0
v -7 -15 0
v -7 -14 0
v -6 -14 0
v -8 -15 0
v -9 -15 0
v -9 -14 0
v -8 -14 0
v -12 -15 0
v -13 -15 0
v -13 -14 0
v -12 -14 0
v -13 -15 0
v -14 -15 0
v -14 -14 0
v -13 -14 0
v -14 -15 0
v -15 -15 0
v -15 -14 0
v -14 -14 0
v -15 -15 0
v -16 -15 0
v -16 -14 0
v -15 -14 0
v -6 -16 0
v -7 -16 0
v -7 -15 0
v -6 -15 0
v -7 -16 0
v -8 -16 0
v -8 -15 0
v -7 -15 0
v -11 -16 0
v -12 -16 0
v -12 -15 0
v -11 -15 0
v -12 -16 0
v -13 -16 0
v -13 -15 0
v -12 -15 0
v -14 -16 0
v -15 -16 0
v -15 -15 0
v -14 -15 0
v -15 -16 0
v -16 -16 0
v -16 -15 0
v -15 -15 0

# Texture cooridinates (Count = 54)
vt 0.3 0.5
vt 0.325 0.5
vt 0.325 0.5277778
vt 0.3 0.5277778
vt 0.35 0.5
vt 0.35 0.5277778
vt 0.125 0.5277778
vt 0.15 0.5277778
vt 0.15 0.5555556
vt 0.125 0.5555556
vt 0.175 0.5277778
vt 0.175 0.5555556
vt 0.275 0.3888889
vt 0.3 0.3888889
vt 0.3 0.4166667
vt 0.275 0.4166667
vt 0.125 0.5
vt 0.15 0.5
vt 0.175 0.5
vt 0.325 0.4722222
vt 0.35 0.4722222
vt 0.025 0.6111111
vt 0.05 0.6111111
vt 0.05 0.6388889
vt 0.025 0.6388889
vt 0.075 0.6111111
vt 0.075 0.6388889
vt 0.1 0.6111111
vt 0.1 0.6388889
vt 0.075 0.5555556
vt 0.1 0.5555556
vt 0.1 0.5833334
vt 0.075 0.5833334
vt 0.35 0.6944444
vt 0.375 0.6944444
vt 0.375 0.7222222
vt 0.35 0.7222222
vt 0.025 0.5555556
vt 0.05 0.5555556
vt 0.05 0.5833334
vt 0.025 0.5833334
vt 0.325 0.6944444
vt 0.325 0.7222222
vt 0.3 0.4444444
vt 0.275 0.4444444
vt 0.325 0.4444444
vt 0.35 0.4444444
vt 0.3 0.4722222
vt 0.125 0.9722222
vt 0.15 0.9722222
vt 0.15 1
vt 0.125 1
vt 0.1 0.9722222
vt 0.1 1

# Normal
vn 0 0 -1

# Mesh description
g Map_mesh_0064

# Faces
f 1/1/1 2/2/1 3/3/1 4/4/1
f 5/2/1 6/5/1 7/6/1 8/3/1
f 9/7/1 10/8/1 11/9/1 12/10/1
f 13/8/1 14/11/1 15/12/1 16/9/1
f 17/7/1 18/8/1 19/9/1 20/10/1
f 21/8/1 22/11/1 23/12/1 24/9/1
f 25/7/1 26/8/1 27/9/1 28/10/1
f 29/8/1 30/11/1 31/12/1 32/9/1
f 33/7/1 34/8/1 35/9/1 36/10/1
f 37/8/1 38/11/1 39/12/1 40/9/1
f 41/7/1 42/8/1 43/9/1 44/10/1
f 45/8/1 46/11/1 47/12/1 48/9/1
f 49/7/1 50/8/1 51/9/1 52/10/1
f 53/8/1 54/11/1 55/12/1 56/9/1
f 57/13/1 58/14/1 59/15/1 60/16/1
f 61/2/1 62/5/1 63/6/1 64/3/1
f 65/17/1 66/18/1 67/8/1 68/7/1
f 69/18/1 70/19/1 71/11/1 72/8/1
f 73/17/1 74/18/1 75/8/1 76/7/1
f 77/18/1 78/19/1 79/11/1 80/8/1
f 81/17/1 82/18/1 83/8/1 84/7/1
f 85/18/1 86/19/1 87/11/1 88/8/1
f 89/17/1 90/18/1 91/8/1 92/7/1
f 93/18/1 94/19/1 95/11/1 96/8/1
f 97/17/1 98/18/1 99/8/1 100/7/1
f 101/18/1 102/19/1 103/11/1 104/8/1
f 105/17/1 106/18/1 107/8/1 108/7/1
f 109/18/1 110/19/1 111/11/1 112/8/1
f 113/20/1 114/21/1 115/5/1 116/2/1
f 117/7/1 118/8/1 119/9/1 120/10/1
f 121/8/1 122/11/1 123/12/1 124/9/1
f 125/20/1 126/21/1 127/5/1 128/2/1
f 129/17/1 130/18/1 131/8/1 132/7/1
f 133/18/1 134/19/1 135/11/1 136/8/1
f 137/20/1 138/21/1 139/5/1 140/2/1
f 141/22/1 142/23/1 143/24/1 144/25/1
f 145/23/1 146/26/1 147/27/1 148/24/1
f 149/23/1 150/26/1 151/27/1 152/24/1
f 153/26/1 154/28/1 155/29/1 156/27/1
f 157/7/1 158/8/1 159/9/1 160/10/1
f 161/8/1 162/11/1 163/12/1 164/9/1
f 165/20/1 166/21/1 167/5/1 168/2/1
f 169/22/1 170/23/1 171/24/1 172/25/1
f 173/30/1 174/31/1 175/32/1 176/33/1
f 177/34/1 178/35/1 179/36/1 180/37/1
f 181/38/1 182/39/1 183/40/1 184/41/1
f 185/26/1 186/28/1 187/29/1 188/27/1
f 189/17/1 190/18/1 191/8/1 192/7/1
f 193/18/1 194/19/1 195/11/1 196/8/1
f 197/20/1 198/21/1 199/5/1 200/2/1
f 201/33/1 202/32/1 203/28/1 204/26/1
f 205/42/1 206/34/1 207/37/1 208/43/1
f 209/41/1 210/40/1 211/23/1 212/22/1
f 213/7/1 214/8/1 215/9/1 216/10/1
f 217/8/1 218/11/1 219/12/1 220/9/1
f 221/20/1 222/21/1 223/5/1 224/2/1
f 225/22/1 226/23/1 227/24/1 228/25/1
f 229/30/1 230/31/1 231/32/1 232/33/1
f 233/38/1 234/39/1 235/40/1 236/41/1
f 237/26/1 238/28/1 239/29/1 240/27/1
f 241/17/1 242/18/1 243/8/1 244/7/1
f 245/18/1 246/19/1 247/11/1 248/8/1
f 249/16/1 250/15/1 251/44/1 252/45/1
f 253/46/1 254/47/1 255/21/1 256/20/1
f 257/41/1 258/40/1 259/23/1 260/22/1
f 261/41/1 262/40/1 263/23/1 264/22/1
f 265/7/1 266/8/1 267/9/1 268/10/1
f 269/8/1 270/11/1 271/12/1 272/9/1
f 273/44/1 274/46/1 275/20/1 276/48/1
f 277/46/1 278/47/1 279/21/1 280/20/1
f 281/22/1 282/23/1 283/24/1 284/25/1
f 285/30/1 286/31/1 287/32/1 288/33/1
f 289/41/1 290/40/1 291/23/1 292/22/1
f 293/17/1 294/18/1 295/8/1 296/7/1
f 297/18/1 298/19/1 299/11/1 300/8/1
f 301/41/1 302/40/1 303/23/1 304/22/1
f 305/34/1 306/35/1 307/36/1 308/37/1
f 309/41/1 310/40/1 311/23/1 312/22/1
f 313/7/1 314/8/1 315/9/1 316/10/1
f 317/8/1 318/11/1 319/12/1 320/9/1
f 321/41/1 322/40/1 323/23/1 324/22/1
f 325/41/1 326/40/1 327/23/1 328/22/1
f 329/17/1 330/18/1 331/8/1 332/7/1
f 333/18/1 334/19/1 335/11/1 336/8/1
f 337/41/1 338/40/1 339/23/1 340/22/1
f 341/41/1 342/40/1 343/23/1 344/22/1
f 345/7/1 346/8/1 347/9/1 348/10/1
f 349/8/1 350/11/1 351/12/1 352/9/1
f 353/38/1 354/39/1 355/40/1 356/41/1
f 357/26/1 358/28/1 359/29/1 360/27/1
f 361/49/1 362/50/1 363/51/1 364/52/1
f 365/41/1 366/40/1 367/23/1 368/22/1
f 369/17/1 370/18/1 371/8/1 372/7/1
f 373/18/1 374/19/1 375/11/1 376/8/1
f 377/41/1 378/40/1 379/23/1 380/22/1
f 381/53/1 382/49/1 383/52/1 384/54/1
f 385/22/1 386/23/1 387/24/1 388/25/1
f 389/30/1 390/31/1 391/32/1 392/33/1
f 393/7/1 394/8/1 395/9/1 396/10/1
f 397/8/1 398/11/1 399/12/1 400/9/1
f 401/38/1 402/39/1 403/40/1 404/41/1
f 405/26/1 406/28/1 407/29/1 408/27/1
f 409/22/1 410/23/1 411/24/1 412/25/1
f 413/30/1 414/31/1 415/32/1 416/33/1
f 417/17/1 418/18/1 419/8/1 420/7/1
f 421/18/1 422/19/1 423/11/1 424/8/1

