# Tiled2Unity generated file. Do not modify by hand.
# Wavefront file for 'Map_mesh_0004.obj'

# Vertices (Count = 832)
v 0 -4 0
v -1 -4 0
v -1 -3 0
v 0 -3 0
v -1 -4 0
v -2 -4 0
v -2 -3 0
v -1 -3 0
v -2 -4 0
v -3 -4 0
v -3 -3 0
v -2 -3 0
v -3 -4 0
v -4 -4 0
v -4 -3 0
v -3 -3 0
v -4 -4 0
v -5 -4 0
v -5 -3 0
v -4 -3 0
v -5 -4 0
v -6 -4 0
v -6 -3 0
v -5 -3 0
v -6 -4 0
v -7 -4 0
v -7 -3 0
v -6 -3 0
v -7 -4 0
v -8 -4 0
v -8 -3 0
v -7 -3 0
v -8 -4 0
v -9 -4 0
v -9 -3 0
v -8 -3 0
v -9 -4 0
v -10 -4 0
v -10 -3 0
v -9 -3 0
v -10 -4 0
v -11 -4 0
v -11 -3 0
v -10 -3 0
v -11 -4 0
v -12 -4 0
v -12 -3 0
v -11 -3 0
v -12 -4 0
v -13 -4 0
v -13 -3 0
v -12 -3 0
v -13 -4 0
v -14 -4 0
v -14 -3 0
v -13 -3 0
v -14 -4 0
v -15 -4 0
v -15 -3 0
v -14 -3 0
v -15 -4 0
v -16 -4 0
v -16 -3 0
v -15 -3 0
v 0 -5 0
v -1 -5 0
v -1 -4 0
v 0 -4 0
v -1 -5 0
v -2 -5 0
v -2 -4 0
v -1 -4 0
v -2 -5 0
v -3 -5 0
v -3 -4 0
v -2 -4 0
v -3 -5 0
v -4 -5 0
v -4 -4 0
v -3 -4 0
v -4 -5 0
v -5 -5 0
v -5 -4 0
v -4 -4 0
v -5 -5 0
v -6 -5 0
v -6 -4 0
v -5 -4 0
v -6 -5 0
v -7 -5 0
v -7 -4 0
v -6 -4 0
v -7 -5 0
v -8 -5 0
v -8 -4 0
v -7 -4 0
v -8 -5 0
v -9 -5 0
v -9 -4 0
v -8 -4 0
v -9 -5 0
v -10 -5 0
v -10 -4 0
v -9 -4 0
v -10 -5 0
v -11 -5 0
v -11 -4 0
v -10 -4 0
v -11 -5 0
v -12 -5 0
v -12 -4 0
v -11 -4 0
v -12 -5 0
v -13 -5 0
v -13 -4 0
v -12 -4 0
v -13 -5 0
v -14 -5 0
v -14 -4 0
v -13 -4 0
v -14 -5 0
v -15 -5 0
v -15 -4 0
v -14 -4 0
v -15 -5 0
v -16 -5 0
v -16 -4 0
v -15 -4 0
v 0 -6 0
v -1 -6 0
v -1 -5 0
v 0 -5 0
v -1 -6 0
v -2 -6 0
v -2 -5 0
v -1 -5 0
v -2 -6 0
v -3 -6 0
v -3 -5 0
v -2 -5 0
v -3 -6 0
v -4 -6 0
v -4 -5 0
v -3 -5 0
v -4 -6 0
v -5 -6 0
v -5 -5 0
v -4 -5 0
v -5 -6 0
v -6 -6 0
v -6 -5 0
v -5 -5 0
v -6 -6 0
v -7 -6 0
v -7 -5 0
v -6 -5 0
v -7 -6 0
v -8 -6 0
v -8 -5 0
v -7 -5 0
v -8 -6 0
v -9 -6 0
v -9 -5 0
v -8 -5 0
v -9 -6 0
v -10 -6 0
v -10 -5 0
v -9 -5 0
v -10 -6 0
v -11 -6 0
v -11 -5 0
v -10 -5 0
v -11 -6 0
v -12 -6 0
v -12 -5 0
v -11 -5 0
v -12 -6 0
v -13 -6 0
v -13 -5 0
v -12 -5 0
v -13 -6 0
v -14 -6 0
v -14 -5 0
v -13 -5 0
v -14 -6 0
v -15 -6 0
v -15 -5 0
v -14 -5 0
v -15 -6 0
v -16 -6 0
v -16 -5 0
v -15 -5 0
v 0 -7 0
v -1 -7 0
v -1 -6 0
v 0 -6 0
v -1 -7 0
v -2 -7 0
v -2 -6 0
v -1 -6 0
v -2 -7 0
v -3 -7 0
v -3 -6 0
v -2 -6 0
v -3 -7 0
v -4 -7 0
v -4 -6 0
v -3 -6 0
v -4 -7 0
v -5 -7 0
v -5 -6 0
v -4 -6 0
v -5 -7 0
v -6 -7 0
v -6 -6 0
v -5 -6 0
v -6 -7 0
v -7 -7 0
v -7 -6 0
v -6 -6 0
v -7 -7 0
v -8 -7 0
v -8 -6 0
v -7 -6 0
v -8 -7 0
v -9 -7 0
v -9 -6 0
v -8 -6 0
v -9 -7 0
v -10 -7 0
v -10 -6 0
v -9 -6 0
v -10 -7 0
v -11 -7 0
v -11 -6 0
v -10 -6 0
v -11 -7 0
v -12 -7 0
v -12 -6 0
v -11 -6 0
v -12 -7 0
v -13 -7 0
v -13 -6 0
v -12 -6 0
v -13 -7 0
v -14 -7 0
v -14 -6 0
v -13 -6 0
v -14 -7 0
v -15 -7 0
v -15 -6 0
v -14 -6 0
v -15 -7 0
v -16 -7 0
v -16 -6 0
v -15 -6 0
v 0 -8 0
v -1 -8 0
v -1 -7 0
v 0 -7 0
v -1 -8 0
v -2 -8 0
v -2 -7 0
v -1 -7 0
v -2 -8 0
v -3 -8 0
v -3 -7 0
v -2 -7 0
v -3 -8 0
v -4 -8 0
v -4 -7 0
v -3 -7 0
v -4 -8 0
v -5 -8 0
v -5 -7 0
v -4 -7 0
v -5 -8 0
v -6 -8 0
v -6 -7 0
v -5 -7 0
v -6 -8 0
v -7 -8 0
v -7 -7 0
v -6 -7 0
v -7 -8 0
v -8 -8 0
v -8 -7 0
v -7 -7 0
v -8 -8 0
v -9 -8 0
v -9 -7 0
v -8 -7 0
v -9 -8 0
v -10 -8 0
v -10 -7 0
v -9 -7 0
v -10 -8 0
v -11 -8 0
v -11 -7 0
v -10 -7 0
v -11 -8 0
v -12 -8 0
v -12 -7 0
v -11 -7 0
v -12 -8 0
v -13 -8 0
v -13 -7 0
v -12 -7 0
v -13 -8 0
v -14 -8 0
v -14 -7 0
v -13 -7 0
v -14 -8 0
v -15 -8 0
v -15 -7 0
v -14 -7 0
v -15 -8 0
v -16 -8 0
v -16 -7 0
v -15 -7 0
v 0 -9 0
v -1 -9 0
v -1 -8 0
v 0 -8 0
v -1 -9 0
v -2 -9 0
v -2 -8 0
v -1 -8 0
v -2 -9 0
v -3 -9 0
v -3 -8 0
v -2 -8 0
v -3 -9 0
v -4 -9 0
v -4 -8 0
v -3 -8 0
v -4 -9 0
v -5 -9 0
v -5 -8 0
v -4 -8 0
v -5 -9 0
v -6 -9 0
v -6 -8 0
v -5 -8 0
v -6 -9 0
v -7 -9 0
v -7 -8 0
v -6 -8 0
v -7 -9 0
v -8 -9 0
v -8 -8 0
v -7 -8 0
v -8 -9 0
v -9 -9 0
v -9 -8 0
v -8 -8 0
v -9 -9 0
v -10 -9 0
v -10 -8 0
v -9 -8 0
v -10 -9 0
v -11 -9 0
v -11 -8 0
v -10 -8 0
v -11 -9 0
v -12 -9 0
v -12 -8 0
v -11 -8 0
v -12 -9 0
v -13 -9 0
v -13 -8 0
v -12 -8 0
v -13 -9 0
v -14 -9 0
v -14 -8 0
v -13 -8 0
v -14 -9 0
v -15 -9 0
v -15 -8 0
v -14 -8 0
v -15 -9 0
v -16 -9 0
v -16 -8 0
v -15 -8 0
v 0 -10 0
v -1 -10 0
v -1 -9 0
v 0 -9 0
v -1 -10 0
v -2 -10 0
v -2 -9 0
v -1 -9 0
v -2 -10 0
v -3 -10 0
v -3 -9 0
v -2 -9 0
v -3 -10 0
v -4 -10 0
v -4 -9 0
v -3 -9 0
v -4 -10 0
v -5 -10 0
v -5 -9 0
v -4 -9 0
v -5 -10 0
v -6 -10 0
v -6 -9 0
v -5 -9 0
v -6 -10 0
v -7 -10 0
v -7 -9 0
v -6 -9 0
v -7 -10 0
v -8 -10 0
v -8 -9 0
v -7 -9 0
v -8 -10 0
v -9 -10 0
v -9 -9 0
v -8 -9 0
v -9 -10 0
v -10 -10 0
v -10 -9 0
v -9 -9 0
v -10 -10 0
v -11 -10 0
v -11 -9 0
v -10 -9 0
v -11 -10 0
v -12 -10 0
v -12 -9 0
v -11 -9 0
v -12 -10 0
v -13 -10 0
v -13 -9 0
v -12 -9 0
v -13 -10 0
v -14 -10 0
v -14 -9 0
v -13 -9 0
v -14 -10 0
v -15 -10 0
v -15 -9 0
v -14 -9 0
v -15 -10 0
v -16 -10 0
v -16 -9 0
v -15 -9 0
v 0 -11 0
v -1 -11 0
v -1 -10 0
v 0 -10 0
v -1 -11 0
v -2 -11 0
v -2 -10 0
v -1 -10 0
v -2 -11 0
v -3 -11 0
v -3 -10 0
v -2 -10 0
v -3 -11 0
v -4 -11 0
v -4 -10 0
v -3 -10 0
v -4 -11 0
v -5 -11 0
v -5 -10 0
v -4 -10 0
v -5 -11 0
v -6 -11 0
v -6 -10 0
v -5 -10 0
v -6 -11 0
v -7 -11 0
v -7 -10 0
v -6 -10 0
v -7 -11 0
v -8 -11 0
v -8 -10 0
v -7 -10 0
v -8 -11 0
v -9 -11 0
v -9 -10 0
v -8 -10 0
v -9 -11 0
v -10 -11 0
v -10 -10 0
v -9 -10 0
v -10 -11 0
v -11 -11 0
v -11 -10 0
v -10 -10 0
v -11 -11 0
v -12 -11 0
v -12 -10 0
v -11 -10 0
v -12 -11 0
v -13 -11 0
v -13 -10 0
v -12 -10 0
v -13 -11 0
v -14 -11 0
v -14 -10 0
v -13 -10 0
v -14 -11 0
v -15 -11 0
v -15 -10 0
v -14 -10 0
v -15 -11 0
v -16 -11 0
v -16 -10 0
v -15 -10 0
v 0 -12 0
v -1 -12 0
v -1 -11 0
v 0 -11 0
v -1 -12 0
v -2 -12 0
v -2 -11 0
v -1 -11 0
v -2 -12 0
v -3 -12 0
v -3 -11 0
v -2 -11 0
v -3 -12 0
v -4 -12 0
v -4 -11 0
v -3 -11 0
v -4 -12 0
v -5 -12 0
v -5 -11 0
v -4 -11 0
v -5 -12 0
v -6 -12 0
v -6 -11 0
v -5 -11 0
v -6 -12 0
v -7 -12 0
v -7 -11 0
v -6 -11 0
v -7 -12 0
v -8 -12 0
v -8 -11 0
v -7 -11 0
v -8 -12 0
v -9 -12 0
v -9 -11 0
v -8 -11 0
v -9 -12 0
v -10 -12 0
v -10 -11 0
v -9 -11 0
v -10 -12 0
v -11 -12 0
v -11 -11 0
v -10 -11 0
v -11 -12 0
v -12 -12 0
v -12 -11 0
v -11 -11 0
v -12 -12 0
v -13 -12 0
v -13 -11 0
v -12 -11 0
v -13 -12 0
v -14 -12 0
v -14 -11 0
v -13 -11 0
v -14 -12 0
v -15 -12 0
v -15 -11 0
v -14 -11 0
v -15 -12 0
v -16 -12 0
v -16 -11 0
v -15 -11 0
v 0 -13 0
v -1 -13 0
v -1 -12 0
v 0 -12 0
v -1 -13 0
v -2 -13 0
v -2 -12 0
v -1 -12 0
v -2 -13 0
v -3 -13 0
v -3 -12 0
v -2 -12 0
v -3 -13 0
v -4 -13 0
v -4 -12 0
v -3 -12 0
v -4 -13 0
v -5 -13 0
v -5 -12 0
v -4 -12 0
v -5 -13 0
v -6 -13 0
v -6 -12 0
v -5 -12 0
v -6 -13 0
v -7 -13 0
v -7 -12 0
v -6 -12 0
v -7 -13 0
v -8 -13 0
v -8 -12 0
v -7 -12 0
v -8 -13 0
v -9 -13 0
v -9 -12 0
v -8 -12 0
v -9 -13 0
v -10 -13 0
v -10 -12 0
v -9 -12 0
v -10 -13 0
v -11 -13 0
v -11 -12 0
v -10 -12 0
v -11 -13 0
v -12 -13 0
v -12 -12 0
v -11 -12 0
v -12 -13 0
v -13 -13 0
v -13 -12 0
v -12 -12 0
v -13 -13 0
v -14 -13 0
v -14 -12 0
v -13 -12 0
v -14 -13 0
v -15 -13 0
v -15 -12 0
v -14 -12 0
v -15 -13 0
v -16 -13 0
v -16 -12 0
v -15 -12 0
v 0 -14 0
v -1 -14 0
v -1 -13 0
v 0 -13 0
v -1 -14 0
v -2 -14 0
v -2 -13 0
v -1 -13 0
v -2 -14 0
v -3 -14 0
v -3 -13 0
v -2 -13 0
v -3 -14 0
v -4 -14 0
v -4 -13 0
v -3 -13 0
v -4 -14 0
v -5 -14 0
v -5 -13 0
v -4 -13 0
v -5 -14 0
v -6 -14 0
v -6 -13 0
v -5 -13 0
v -6 -14 0
v -7 -14 0
v -7 -13 0
v -6 -13 0
v -7 -14 0
v -8 -14 0
v -8 -13 0
v -7 -13 0
v -8 -14 0
v -9 -14 0
v -9 -13 0
v -8 -13 0
v -9 -14 0
v -10 -14 0
v -10 -13 0
v -9 -13 0
v -10 -14 0
v -11 -14 0
v -11 -13 0
v -10 -13 0
v -11 -14 0
v -12 -14 0
v -12 -13 0
v -11 -13 0
v -12 -14 0
v -13 -14 0
v -13 -13 0
v -12 -13 0
v -13 -14 0
v -14 -14 0
v -14 -13 0
v -13 -13 0
v -14 -14 0
v -15 -14 0
v -15 -13 0
v -14 -13 0
v -15 -14 0
v -16 -14 0
v -16 -13 0
v -15 -13 0
v 0 -15 0
v -1 -15 0
v -1 -14 0
v 0 -14 0
v -1 -15 0
v -2 -15 0
v -2 -14 0
v -1 -14 0
v -2 -15 0
v -3 -15 0
v -3 -14 0
v -2 -14 0
v -3 -15 0
v -4 -15 0
v -4 -14 0
v -3 -14 0
v -4 -15 0
v -5 -15 0
v -5 -14 0
v -4 -14 0
v -5 -15 0
v -6 -15 0
v -6 -14 0
v -5 -14 0
v -6 -15 0
v -7 -15 0
v -7 -14 0
v -6 -14 0
v -7 -15 0
v -8 -15 0
v -8 -14 0
v -7 -14 0
v -8 -15 0
v -9 -15 0
v -9 -14 0
v -8 -14 0
v -9 -15 0
v -10 -15 0
v -10 -14 0
v -9 -14 0
v -10 -15 0
v -11 -15 0
v -11 -14 0
v -10 -14 0
v -11 -15 0
v -12 -15 0
v -12 -14 0
v -11 -14 0
v -12 -15 0
v -13 -15 0
v -13 -14 0
v -12 -14 0
v -13 -15 0
v -14 -15 0
v -14 -14 0
v -13 -14 0
v -14 -15 0
v -15 -15 0
v -15 -14 0
v -14 -14 0
v -15 -15 0
v -16 -15 0
v -16 -14 0
v -15 -14 0
v 0 -16 0
v -1 -16 0
v -1 -15 0
v 0 -15 0
v -1 -16 0
v -2 -16 0
v -2 -15 0
v -1 -15 0
v -2 -16 0
v -3 -16 0
v -3 -15 0
v -2 -15 0
v -3 -16 0
v -4 -16 0
v -4 -15 0
v -3 -15 0
v -4 -16 0
v -5 -16 0
v -5 -15 0
v -4 -15 0
v -5 -16 0
v -6 -16 0
v -6 -15 0
v -5 -15 0
v -6 -16 0
v -7 -16 0
v -7 -15 0
v -6 -15 0
v -7 -16 0
v -8 -16 0
v -8 -15 0
v -7 -15 0
v -8 -16 0
v -9 -16 0
v -9 -15 0
v -8 -15 0
v -9 -16 0
v -10 -16 0
v -10 -15 0
v -9 -15 0
v -10 -16 0
v -11 -16 0
v -11 -15 0
v -10 -15 0
v -11 -16 0
v -12 -16 0
v -12 -15 0
v -11 -15 0
v -12 -16 0
v -13 -16 0
v -13 -15 0
v -12 -15 0
v -13 -16 0
v -14 -16 0
v -14 -15 0
v -13 -15 0
v -14 -16 0
v -15 -16 0
v -15 -15 0
v -14 -15 0
v -15 -16 0
v -16 -16 0
v -16 -15 0
v -15 -15 0

# Texture cooridinates (Count = 16)
vt 0.125 0.7222222
vt 0.15 0.7222222
vt 0.15 0.75
vt 0.125 0.75
vt 0.15 0.6944444
vt 0.175 0.6944444
vt 0.175 0.7222222
vt 0 0.9722222
vt 0.025 0.9722222
vt 0.025 1
vt 0 1
vt 0.125 0.6666666
vt 0.15 0.6666666
vt 0.125 0.6944444
vt 0.175 0.6666666
vt 0.175 0.75

# Normal
vn 0 0 -1

# Mesh description
g Map_mesh_0004

# Faces
f 1/1/1 2/2/1 3/3/1 4/4/1
f 5/1/1 6/2/1 7/3/1 8/4/1
f 9/1/1 10/2/1 11/3/1 12/4/1
f 13/1/1 14/2/1 15/3/1 16/4/1
f 17/1/1 18/2/1 19/3/1 20/4/1
f 21/1/1 22/2/1 23/3/1 24/4/1
f 25/1/1 26/2/1 27/3/1 28/4/1
f 29/1/1 30/2/1 31/3/1 32/4/1
f 33/1/1 34/2/1 35/3/1 36/4/1
f 37/1/1 38/2/1 39/3/1 40/4/1
f 41/1/1 42/2/1 43/3/1 44/4/1
f 45/5/1 46/6/1 47/7/1 48/2/1
f 49/8/1 50/9/1 51/10/1 52/11/1
f 53/8/1 54/9/1 55/10/1 56/11/1
f 57/8/1 58/9/1 59/10/1 60/11/1
f 61/8/1 62/9/1 63/10/1 64/11/1
f 65/1/1 66/2/1 67/3/1 68/4/1
f 69/1/1 70/2/1 71/3/1 72/4/1
f 73/1/1 74/2/1 75/3/1 76/4/1
f 77/1/1 78/2/1 79/3/1 80/4/1
f 81/1/1 82/2/1 83/3/1 84/4/1
f 85/1/1 86/2/1 87/3/1 88/4/1
f 89/1/1 90/2/1 91/3/1 92/4/1
f 93/1/1 94/2/1 95/3/1 96/4/1
f 97/1/1 98/2/1 99/3/1 100/4/1
f 101/1/1 102/2/1 103/3/1 104/4/1
f 105/1/1 106/2/1 107/3/1 108/4/1
f 109/5/1 110/6/1 111/7/1 112/2/1
f 113/8/1 114/9/1 115/10/1 116/11/1
f 117/8/1 118/9/1 119/10/1 120/11/1
f 121/8/1 122/9/1 123/10/1 124/11/1
f 125/8/1 126/9/1 127/10/1 128/11/1
f 129/1/1 130/2/1 131/3/1 132/4/1
f 133/1/1 134/2/1 135/3/1 136/4/1
f 137/1/1 138/2/1 139/3/1 140/4/1
f 141/1/1 142/2/1 143/3/1 144/4/1
f 145/1/1 146/2/1 147/3/1 148/4/1
f 149/1/1 150/2/1 151/3/1 152/4/1
f 153/1/1 154/2/1 155/3/1 156/4/1
f 157/1/1 158/2/1 159/3/1 160/4/1
f 161/1/1 162/2/1 163/3/1 164/4/1
f 165/1/1 166/2/1 167/3/1 168/4/1
f 169/1/1 170/2/1 171/3/1 172/4/1
f 173/5/1 174/6/1 175/7/1 176/2/1
f 177/8/1 178/9/1 179/10/1 180/11/1
f 181/8/1 182/9/1 183/10/1 184/11/1
f 185/8/1 186/9/1 187/10/1 188/11/1
f 189/8/1 190/9/1 191/10/1 192/11/1
f 193/1/1 194/2/1 195/3/1 196/4/1
f 197/1/1 198/2/1 199/3/1 200/4/1
f 201/1/1 202/2/1 203/3/1 204/4/1
f 205/1/1 206/2/1 207/3/1 208/4/1
f 209/1/1 210/2/1 211/3/1 212/4/1
f 213/1/1 214/2/1 215/3/1 216/4/1
f 217/1/1 218/2/1 219/3/1 220/4/1
f 221/1/1 222/2/1 223/3/1 224/4/1
f 225/1/1 226/2/1 227/3/1 228/4/1
f 229/1/1 230/2/1 231/3/1 232/4/1
f 233/1/1 234/2/1 235/3/1 236/4/1
f 237/5/1 238/6/1 239/7/1 240/2/1
f 241/8/1 242/9/1 243/10/1 244/11/1
f 245/8/1 246/9/1 247/10/1 248/11/1
f 249/8/1 250/9/1 251/10/1 252/11/1
f 253/8/1 254/9/1 255/10/1 256/11/1
f 257/1/1 258/2/1 259/3/1 260/4/1
f 261/1/1 262/2/1 263/3/1 264/4/1
f 265/1/1 266/2/1 267/3/1 268/4/1
f 269/1/1 270/2/1 271/3/1 272/4/1
f 273/1/1 274/2/1 275/3/1 276/4/1
f 277/1/1 278/2/1 279/3/1 280/4/1
f 281/1/1 282/2/1 283/3/1 284/4/1
f 285/1/1 286/2/1 287/3/1 288/4/1
f 289/1/1 290/2/1 291/3/1 292/4/1
f 293/1/1 294/2/1 295/3/1 296/4/1
f 297/1/1 298/2/1 299/3/1 300/4/1
f 301/5/1 302/6/1 303/7/1 304/2/1
f 305/8/1 306/9/1 307/10/1 308/11/1
f 309/8/1 310/9/1 311/10/1 312/11/1
f 313/8/1 314/9/1 315/10/1 316/11/1
f 317/8/1 318/9/1 319/10/1 320/11/1
f 321/8/1 322/9/1 323/10/1 324/11/1
f 325/8/1 326/9/1 327/10/1 328/11/1
f 329/8/1 330/9/1 331/10/1 332/11/1
f 333/8/1 334/9/1 335/10/1 336/11/1
f 337/8/1 338/9/1 339/10/1 340/11/1
f 341/8/1 342/9/1 343/10/1 344/11/1
f 345/8/1 346/9/1 347/10/1 348/11/1
f 349/1/1 350/2/1 351/3/1 352/4/1
f 353/1/1 354/2/1 355/3/1 356/4/1
f 357/8/1 358/9/1 359/10/1 360/11/1
f 361/12/1 362/13/1 363/5/1 364/14/1
f 365/13/1 366/15/1 367/6/1 368/5/1
f 369/8/1 370/9/1 371/10/1 372/11/1
f 373/8/1 374/9/1 375/10/1 376/11/1
f 377/8/1 378/9/1 379/10/1 380/11/1
f 381/8/1 382/9/1 383/10/1 384/11/1
f 385/14/1 386/5/1 387/2/1 388/1/1
f 389/14/1 390/5/1 391/2/1 392/1/1
f 393/14/1 394/5/1 395/2/1 396/1/1
f 397/14/1 398/5/1 399/2/1 400/1/1
f 401/14/1 402/5/1 403/2/1 404/1/1
f 405/14/1 406/5/1 407/2/1 408/1/1
f 409/14/1 410/5/1 411/2/1 412/1/1
f 413/1/1 414/2/1 415/3/1 416/4/1
f 417/1/1 418/2/1 419/3/1 420/4/1
f 421/2/1 422/7/1 423/16/1 424/3/1
f 425/8/1 426/9/1 427/10/1 428/11/1
f 429/8/1 430/9/1 431/10/1 432/11/1
f 433/8/1 434/9/1 435/10/1 436/11/1
f 437/8/1 438/9/1 439/10/1 440/11/1
f 441/8/1 442/9/1 443/10/1 444/11/1
f 445/8/1 446/9/1 447/10/1 448/11/1
f 449/12/1 450/13/1 451/5/1 452/14/1
f 453/12/1 454/13/1 455/5/1 456/14/1
f 457/12/1 458/13/1 459/5/1 460/14/1
f 461/12/1 462/13/1 463/5/1 464/14/1
f 465/12/1 466/13/1 467/5/1 468/14/1
f 469/12/1 470/13/1 471/5/1 472/14/1
f 473/12/1 474/13/1 475/5/1 476/14/1
f 477/12/1 478/13/1 479/5/1 480/14/1
f 481/12/1 482/13/1 483/5/1 484/14/1
f 485/13/1 486/15/1 487/6/1 488/5/1
f 489/8/1 490/9/1 491/10/1 492/11/1
f 493/8/1 494/9/1 495/10/1 496/11/1
f 497/8/1 498/9/1 499/10/1 500/11/1
f 501/8/1 502/9/1 503/10/1 504/11/1
f 505/8/1 506/9/1 507/10/1 508/11/1
f 509/8/1 510/9/1 511/10/1 512/11/1
f 513/8/1 514/9/1 515/10/1 516/11/1
f 517/8/1 518/9/1 519/10/1 520/11/1
f 521/8/1 522/9/1 523/10/1 524/11/1
f 525/8/1 526/9/1 527/10/1 528/11/1
f 529/8/1 530/9/1 531/10/1 532/11/1
f 533/8/1 534/9/1 535/10/1 536/11/1
f 537/8/1 538/9/1 539/10/1 540/11/1
f 541/8/1 542/9/1 543/10/1 544/11/1
f 545/8/1 546/9/1 547/10/1 548/11/1
f 549/8/1 550/9/1 551/10/1 552/11/1
f 553/8/1 554/9/1 555/10/1 556/11/1
f 557/8/1 558/9/1 559/10/1 560/11/1
f 561/8/1 562/9/1 563/10/1 564/11/1
f 565/8/1 566/9/1 567/10/1 568/11/1
f 569/8/1 570/9/1 571/10/1 572/11/1
f 573/8/1 574/9/1 575/10/1 576/11/1
f 577/8/1 578/9/1 579/10/1 580/11/1
f 581/8/1 582/9/1 583/10/1 584/11/1
f 585/8/1 586/9/1 587/10/1 588/11/1
f 589/8/1 590/9/1 591/10/1 592/11/1
f 593/8/1 594/9/1 595/10/1 596/11/1
f 597/8/1 598/9/1 599/10/1 600/11/1
f 601/8/1 602/9/1 603/10/1 604/11/1
f 605/8/1 606/9/1 607/10/1 608/11/1
f 609/8/1 610/9/1 611/10/1 612/11/1
f 613/8/1 614/9/1 615/10/1 616/11/1
f 617/8/1 618/9/1 619/10/1 620/11/1
f 621/8/1 622/9/1 623/10/1 624/11/1
f 625/8/1 626/9/1 627/10/1 628/11/1
f 629/8/1 630/9/1 631/10/1 632/11/1
f 633/8/1 634/9/1 635/10/1 636/11/1
f 637/8/1 638/9/1 639/10/1 640/11/1
f 641/8/1 642/9/1 643/10/1 644/11/1
f 645/8/1 646/9/1 647/10/1 648/11/1
f 649/8/1 650/9/1 651/10/1 652/11/1
f 653/8/1 654/9/1 655/10/1 656/11/1
f 657/8/1 658/9/1 659/10/1 660/11/1
f 661/8/1 662/9/1 663/10/1 664/11/1
f 665/8/1 666/9/1 667/10/1 668/11/1
f 669/8/1 670/9/1 671/10/1 672/11/1
f 673/8/1 674/9/1 675/10/1 676/11/1
f 677/8/1 678/9/1 679/10/1 680/11/1
f 681/8/1 682/9/1 683/10/1 684/11/1
f 685/8/1 686/9/1 687/10/1 688/11/1
f 689/8/1 690/9/1 691/10/1 692/11/1
f 693/8/1 694/9/1 695/10/1 696/11/1
f 697/8/1 698/9/1 699/10/1 700/11/1
f 701/8/1 702/9/1 703/10/1 704/11/1
f 705/8/1 706/9/1 707/10/1 708/11/1
f 709/8/1 710/9/1 711/10/1 712/11/1
f 713/8/1 714/9/1 715/10/1 716/11/1
f 717/8/1 718/9/1 719/10/1 720/11/1
f 721/8/1 722/9/1 723/10/1 724/11/1
f 725/8/1 726/9/1 727/10/1 728/11/1
f 729/8/1 730/9/1 731/10/1 732/11/1
f 733/8/1 734/9/1 735/10/1 736/11/1
f 737/8/1 738/9/1 739/10/1 740/11/1
f 741/8/1 742/9/1 743/10/1 744/11/1
f 745/8/1 746/9/1 747/10/1 748/11/1
f 749/8/1 750/9/1 751/10/1 752/11/1
f 753/8/1 754/9/1 755/10/1 756/11/1
f 757/8/1 758/9/1 759/10/1 760/11/1
f 761/8/1 762/9/1 763/10/1 764/11/1
f 765/8/1 766/9/1 767/10/1 768/11/1
f 769/8/1 770/9/1 771/10/1 772/11/1
f 773/8/1 774/9/1 775/10/1 776/11/1
f 777/8/1 778/9/1 779/10/1 780/11/1
f 781/8/1 782/9/1 783/10/1 784/11/1
f 785/8/1 786/9/1 787/10/1 788/11/1
f 789/8/1 790/9/1 791/10/1 792/11/1
f 793/8/1 794/9/1 795/10/1 796/11/1
f 797/8/1 798/9/1 799/10/1 800/11/1
f 801/8/1 802/9/1 803/10/1 804/11/1
f 805/8/1 806/9/1 807/10/1 808/11/1
f 809/8/1 810/9/1 811/10/1 812/11/1
f 813/8/1 814/9/1 815/10/1 816/11/1
f 817/8/1 818/9/1 819/10/1 820/11/1
f 821/8/1 822/9/1 823/10/1 824/11/1
f 825/8/1 826/9/1 827/10/1 828/11/1
f 829/8/1 830/9/1 831/10/1 832/11/1

