# Tiled2Unity generated file. Do not modify by hand.
# Wavefront file for 'Map_mesh_0036.obj'

# Vertices (Count = 384)
v 0 -1 0
v -1 -1 0
v -1 0 0
v 0 0 0
v -1 -1 0
v -2 -1 0
v -2 0 0
v -1 0 0
v -2 -1 0
v -3 -1 0
v -3 0 0
v -2 0 0
v -3 -1 0
v -4 -1 0
v -4 0 0
v -3 0 0
v -4 -1 0
v -5 -1 0
v -5 0 0
v -4 0 0
v -5 -1 0
v -6 -1 0
v -6 0 0
v -5 0 0
v -6 -1 0
v -7 -1 0
v -7 0 0
v -6 0 0
v -7 -1 0
v -8 -1 0
v -8 0 0
v -7 0 0
v -8 -1 0
v -9 -1 0
v -9 0 0
v -8 0 0
v -9 -1 0
v -10 -1 0
v -10 0 0
v -9 0 0
v -10 -1 0
v -11 -1 0
v -11 0 0
v -10 0 0
v -11 -1 0
v -12 -1 0
v -12 0 0
v -11 0 0
v -12 -1 0
v -13 -1 0
v -13 0 0
v -12 0 0
v -13 -1 0
v -14 -1 0
v -14 0 0
v -13 0 0
v -14 -1 0
v -15 -1 0
v -15 0 0
v -14 0 0
v -15 -1 0
v -16 -1 0
v -16 0 0
v -15 0 0
v 0 -2 0
v -1 -2 0
v -1 -1 0
v 0 -1 0
v -1 -2 0
v -2 -2 0
v -2 -1 0
v -1 -1 0
v -2 -2 0
v -3 -2 0
v -3 -1 0
v -2 -1 0
v -3 -2 0
v -4 -2 0
v -4 -1 0
v -3 -1 0
v -4 -2 0
v -5 -2 0
v -5 -1 0
v -4 -1 0
v -5 -2 0
v -6 -2 0
v -6 -1 0
v -5 -1 0
v -6 -2 0
v -7 -2 0
v -7 -1 0
v -6 -1 0
v -7 -2 0
v -8 -2 0
v -8 -1 0
v -7 -1 0
v -8 -2 0
v -9 -2 0
v -9 -1 0
v -8 -1 0
v -9 -2 0
v -10 -2 0
v -10 -1 0
v -9 -1 0
v -10 -2 0
v -11 -2 0
v -11 -1 0
v -10 -1 0
v -11 -2 0
v -12 -2 0
v -12 -1 0
v -11 -1 0
v -12 -2 0
v -13 -2 0
v -13 -1 0
v -12 -1 0
v -13 -2 0
v -14 -2 0
v -14 -1 0
v -13 -1 0
v -14 -2 0
v -15 -2 0
v -15 -1 0
v -14 -1 0
v -15 -2 0
v -16 -2 0
v -16 -1 0
v -15 -1 0
v 0 -3 0
v -1 -3 0
v -1 -2 0
v 0 -2 0
v -1 -3 0
v -2 -3 0
v -2 -2 0
v -1 -2 0
v -2 -3 0
v -3 -3 0
v -3 -2 0
v -2 -2 0
v -3 -3 0
v -4 -3 0
v -4 -2 0
v -3 -2 0
v -4 -3 0
v -5 -3 0
v -5 -2 0
v -4 -2 0
v -5 -3 0
v -6 -3 0
v -6 -2 0
v -5 -2 0
v -6 -3 0
v -7 -3 0
v -7 -2 0
v -6 -2 0
v -7 -3 0
v -8 -3 0
v -8 -2 0
v -7 -2 0
v -8 -3 0
v -9 -3 0
v -9 -2 0
v -8 -2 0
v -9 -3 0
v -10 -3 0
v -10 -2 0
v -9 -2 0
v -10 -3 0
v -11 -3 0
v -11 -2 0
v -10 -2 0
v -11 -3 0
v -12 -3 0
v -12 -2 0
v -11 -2 0
v -12 -3 0
v -13 -3 0
v -13 -2 0
v -12 -2 0
v -13 -3 0
v -14 -3 0
v -14 -2 0
v -13 -2 0
v -14 -3 0
v -15 -3 0
v -15 -2 0
v -14 -2 0
v -15 -3 0
v -16 -3 0
v -16 -2 0
v -15 -2 0
v 0 -4 0
v -1 -4 0
v -1 -3 0
v 0 -3 0
v -1 -4 0
v -2 -4 0
v -2 -3 0
v -1 -3 0
v -2 -4 0
v -3 -4 0
v -3 -3 0
v -2 -3 0
v -3 -4 0
v -4 -4 0
v -4 -3 0
v -3 -3 0
v -4 -4 0
v -5 -4 0
v -5 -3 0
v -4 -3 0
v -5 -4 0
v -6 -4 0
v -6 -3 0
v -5 -3 0
v -6 -4 0
v -7 -4 0
v -7 -3 0
v -6 -3 0
v -7 -4 0
v -8 -4 0
v -8 -3 0
v -7 -3 0
v -8 -4 0
v -9 -4 0
v -9 -3 0
v -8 -3 0
v -9 -4 0
v -10 -4 0
v -10 -3 0
v -9 -3 0
v -10 -4 0
v -11 -4 0
v -11 -3 0
v -10 -3 0
v -11 -4 0
v -12 -4 0
v -12 -3 0
v -11 -3 0
v -12 -4 0
v -13 -4 0
v -13 -3 0
v -12 -3 0
v -13 -4 0
v -14 -4 0
v -14 -3 0
v -13 -3 0
v -14 -4 0
v -15 -4 0
v -15 -3 0
v -14 -3 0
v -15 -4 0
v -16 -4 0
v -16 -3 0
v -15 -3 0
v 0 -5 0
v -1 -5 0
v -1 -4 0
v 0 -4 0
v -1 -5 0
v -2 -5 0
v -2 -4 0
v -1 -4 0
v -2 -5 0
v -3 -5 0
v -3 -4 0
v -2 -4 0
v -3 -5 0
v -4 -5 0
v -4 -4 0
v -3 -4 0
v -4 -5 0
v -5 -5 0
v -5 -4 0
v -4 -4 0
v -5 -5 0
v -6 -5 0
v -6 -4 0
v -5 -4 0
v -6 -5 0
v -7 -5 0
v -7 -4 0
v -6 -4 0
v -7 -5 0
v -8 -5 0
v -8 -4 0
v -7 -4 0
v -8 -5 0
v -9 -5 0
v -9 -4 0
v -8 -4 0
v -9 -5 0
v -10 -5 0
v -10 -4 0
v -9 -4 0
v -10 -5 0
v -11 -5 0
v -11 -4 0
v -10 -4 0
v -11 -5 0
v -12 -5 0
v -12 -4 0
v -11 -4 0
v -12 -5 0
v -13 -5 0
v -13 -4 0
v -12 -4 0
v -13 -5 0
v -14 -5 0
v -14 -4 0
v -13 -4 0
v -14 -5 0
v -15 -5 0
v -15 -4 0
v -14 -4 0
v -15 -5 0
v -16 -5 0
v -16 -4 0
v -15 -4 0
v 0 -6 0
v -1 -6 0
v -1 -5 0
v 0 -5 0
v -1 -6 0
v -2 -6 0
v -2 -5 0
v -1 -5 0
v -2 -6 0
v -3 -6 0
v -3 -5 0
v -2 -5 0
v -3 -6 0
v -4 -6 0
v -4 -5 0
v -3 -5 0
v -4 -6 0
v -5 -6 0
v -5 -5 0
v -4 -5 0
v -5 -6 0
v -6 -6 0
v -6 -5 0
v -5 -5 0
v -6 -6 0
v -7 -6 0
v -7 -5 0
v -6 -5 0
v -7 -6 0
v -8 -6 0
v -8 -5 0
v -7 -5 0
v -8 -6 0
v -9 -6 0
v -9 -5 0
v -8 -5 0
v -9 -6 0
v -10 -6 0
v -10 -5 0
v -9 -5 0
v -10 -6 0
v -11 -6 0
v -11 -5 0
v -10 -5 0
v -11 -6 0
v -12 -6 0
v -12 -5 0
v -11 -5 0
v -12 -6 0
v -13 -6 0
v -13 -5 0
v -12 -5 0
v -13 -6 0
v -14 -6 0
v -14 -5 0
v -13 -5 0
v -14 -6 0
v -15 -6 0
v -15 -5 0
v -14 -5 0
v -15 -6 0
v -16 -6 0
v -16 -5 0
v -15 -5 0

# Texture cooridinates (Count = 65)
vt 0 0.9722222
vt 0.025 0.9722222
vt 0.025 1
vt 0 1
vt 0.05 0.8055556
vt 0.075 0.8055556
vt 0.075 0.8333333
vt 0.05 0.8333333
vt 0.075 0.6944444
vt 0.1 0.6944444
vt 0.1 0.7222222
vt 0.075 0.7222222
vt 0.425 0.6944444
vt 0.45 0.6944444
vt 0.45 0.7222222
vt 0.425 0.7222222
vt 0.45 0.75
vt 0.425 0.75
vt 0.475 0.7222222
vt 0.475 0.75
vt 0.5 0.7222222
vt 0.5 0.75
vt 0.4 0.9444444
vt 0.425 0.9444444
vt 0.425 0.9722222
vt 0.4 0.9722222
vt 0.475 0.8055556
vt 0.5 0.8055556
vt 0.5 0.8333333
vt 0.475 0.8333333
vt 0.05 0.7777778
vt 0.075 0.7777778
vt 0.5 0.8888889
vt 0.525 0.8888889
vt 0.525 0.9166667
vt 0.5 0.9166667
vt 0.4 0.8888889
vt 0.425 0.8888889
vt 0.425 0.9166667
vt 0.4 0.9166667
vt 0.475 0.6944444
vt 0.45 0.9444444
vt 0.45 0.9722222
vt 0.475 0.9444444
vt 0.475 0.9722222
vt 0.5 0.9444444
vt 0.5 0.9722222
vt 0.525 0.9444444
vt 0.525 0.9722222
vt 0.55 0.9444444
vt 0.55 0.9722222
vt 0.1 0.8611111
vt 0.125 0.8611111
vt 0.125 0.8888889
vt 0.1 0.8888889
vt 0.45 0.8888889
vt 0.45 0.9166667
vt 0.1 0.7777778
vt 0.1 0.8055556
vt 0.125 0.9166667
vt 0.1 0.9166667
vt 0.15 0.8888889
vt 0.15 0.9166667
vt 0.075 0.8611111
vt 0.075 0.8888889

# Normal
vn 0 0 -1

# Mesh description
g Map_mesh_0036

# Faces
f 1/1/1 2/2/1 3/3/1 4/4/1
f 5/1/1 6/2/1 7/3/1 8/4/1
f 9/1/1 10/2/1 11/3/1 12/4/1
f 13/1/1 14/2/1 15/3/1 16/4/1
f 17/1/1 18/2/1 19/3/1 20/4/1
f 21/1/1 22/2/1 23/3/1 24/4/1
f 25/1/1 26/2/1 27/3/1 28/4/1
f 29/5/1 30/6/1 31/7/1 32/8/1
f 33/9/1 34/10/1 35/11/1 36/12/1
f 37/13/1 38/14/1 39/15/1 40/16/1
f 41/16/1 42/15/1 43/17/1 44/18/1
f 45/15/1 46/19/1 47/20/1 48/17/1
f 49/19/1 50/21/1 51/22/1 52/20/1
f 53/23/1 54/24/1 55/25/1 56/26/1
f 57/15/1 58/19/1 59/20/1 60/17/1
f 61/27/1 62/28/1 63/29/1 64/30/1
f 65/1/1 66/2/1 67/3/1 68/4/1
f 69/1/1 70/2/1 71/3/1 72/4/1
f 73/1/1 74/2/1 75/3/1 76/4/1
f 77/1/1 78/2/1 79/3/1 80/4/1
f 81/1/1 82/2/1 83/3/1 84/4/1
f 85/1/1 86/2/1 87/3/1 88/4/1
f 89/1/1 90/2/1 91/3/1 92/4/1
f 93/31/1 94/32/1 95/6/1 96/5/1
f 97/33/1 98/34/1 99/35/1 100/36/1
f 101/37/1 102/38/1 103/39/1 104/40/1
f 105/14/1 106/41/1 107/19/1 108/15/1
f 109/15/1 110/19/1 111/20/1 112/17/1
f 113/15/1 114/19/1 115/20/1 116/17/1
f 117/15/1 118/19/1 119/20/1 120/17/1
f 121/14/1 122/41/1 123/19/1 124/15/1
f 125/15/1 126/19/1 127/20/1 128/17/1
f 129/1/1 130/2/1 131/3/1 132/4/1
f 133/1/1 134/2/1 135/3/1 136/4/1
f 137/1/1 138/2/1 139/3/1 140/4/1
f 141/1/1 142/2/1 143/3/1 144/4/1
f 145/1/1 146/2/1 147/3/1 148/4/1
f 149/1/1 150/2/1 151/3/1 152/4/1
f 153/5/1 154/6/1 155/7/1 156/8/1
f 157/9/1 158/10/1 159/11/1 160/12/1
f 161/23/1 162/24/1 163/25/1 164/26/1
f 165/24/1 166/42/1 167/43/1 168/25/1
f 169/42/1 170/44/1 171/45/1 172/43/1
f 173/44/1 174/46/1 175/47/1 176/45/1
f 177/46/1 178/48/1 179/49/1 180/47/1
f 181/48/1 182/50/1 183/51/1 184/49/1
f 185/23/1 186/24/1 187/25/1 188/26/1
f 189/24/1 190/42/1 191/43/1 192/25/1
f 193/1/1 194/2/1 195/3/1 196/4/1
f 197/1/1 198/2/1 199/3/1 200/4/1
f 201/1/1 202/2/1 203/3/1 204/4/1
f 205/1/1 206/2/1 207/3/1 208/4/1
f 209/1/1 210/2/1 211/3/1 212/4/1
f 213/1/1 214/2/1 215/3/1 216/4/1
f 217/31/1 218/32/1 219/6/1 220/5/1
f 221/52/1 222/53/1 223/54/1 224/55/1
f 225/37/1 226/38/1 227/39/1 228/40/1
f 229/38/1 230/56/1 231/57/1 232/39/1
f 233/32/1 234/58/1 235/59/1 236/6/1
f 237/32/1 238/58/1 239/59/1 240/6/1
f 241/32/1 242/58/1 243/59/1 244/6/1
f 245/32/1 246/58/1 247/59/1 248/6/1
f 249/32/1 250/58/1 251/59/1 252/6/1
f 253/32/1 254/58/1 255/59/1 256/6/1
f 257/1/1 258/2/1 259/3/1 260/4/1
f 261/1/1 262/2/1 263/3/1 264/4/1
f 265/1/1 266/2/1 267/3/1 268/4/1
f 269/1/1 270/2/1 271/3/1 272/4/1
f 273/1/1 274/2/1 275/3/1 276/4/1
f 277/1/1 278/2/1 279/3/1 280/4/1
f 281/31/1 282/32/1 283/6/1 284/5/1
f 285/32/1 286/58/1 287/59/1 288/6/1
f 289/55/1 290/54/1 291/60/1 292/61/1
f 293/32/1 294/58/1 295/59/1 296/6/1
f 297/42/1 298/44/1 299/45/1 300/43/1
f 301/44/1 302/46/1 303/47/1 304/45/1
f 305/32/1 306/58/1 307/59/1 308/6/1
f 309/32/1 310/58/1 311/59/1 312/6/1
f 313/54/1 314/62/1 315/63/1 316/60/1
f 317/32/1 318/58/1 319/59/1 320/6/1
f 321/1/1 322/2/1 323/3/1 324/4/1
f 325/1/1 326/2/1 327/3/1 328/4/1
f 329/1/1 330/2/1 331/3/1 332/4/1
f 333/1/1 334/2/1 335/3/1 336/4/1
f 337/1/1 338/2/1 339/3/1 340/4/1
f 341/1/1 342/2/1 343/3/1 344/4/1
f 345/31/1 346/32/1 347/6/1 348/5/1
f 349/64/1 350/52/1 351/55/1 352/65/1
f 353/32/1 354/58/1 355/59/1 356/6/1
f 357/32/1 358/58/1 359/59/1 360/6/1
f 361/64/1 362/52/1 363/55/1 364/65/1
f 365/32/1 366/58/1 367/59/1 368/6/1
f 369/32/1 370/58/1 371/59/1 372/6/1
f 373/52/1 374/53/1 375/54/1 376/55/1
f 377/32/1 378/58/1 379/59/1 380/6/1
f 381/32/1 382/58/1 383/59/1 384/6/1

