# Tiled2Unity generated file. Do not modify by hand.
# Wavefront file for 'Map_mesh_0077.obj'

# Vertices (Count = 288)
v -4 -1 0
v -5 -1 0
v -5 0 0
v -4 0 0
v -4 -2 0
v -5 -2 0
v -5 -1 0
v -4 -1 0
v -7 -2 0
v -8 -2 0
v -8 -1 0
v -7 -1 0
v -8 -2 0
v -9 -2 0
v -9 -1 0
v -8 -1 0
v -9 -2 0
v -10 -2 0
v -10 -1 0
v -9 -1 0
v -10 -2 0
v -11 -2 0
v -11 -1 0
v -10 -1 0
v -11 -2 0
v -12 -2 0
v -12 -1 0
v -11 -1 0
v -12 -2 0
v -13 -2 0
v -13 -1 0
v -12 -1 0
v -13 -2 0
v -14 -2 0
v -14 -1 0
v -13 -1 0
v -14 -2 0
v -15 -2 0
v -15 -1 0
v -14 -1 0
v -15 -2 0
v -16 -2 0
v -16 -1 0
v -15 -1 0
v -4 -3 0
v -5 -3 0
v -5 -2 0
v -4 -2 0
v -7 -3 0
v -8 -3 0
v -8 -2 0
v -7 -2 0
v -10 -3 0
v -11 -3 0
v -11 -2 0
v -10 -2 0
v -11 -3 0
v -12 -3 0
v -12 -2 0
v -11 -2 0
v -12 -3 0
v -13 -3 0
v -13 -2 0
v -12 -2 0
v -13 -3 0
v -14 -3 0
v -14 -2 0
v -13 -2 0
v -14 -3 0
v -15 -3 0
v -15 -2 0
v -14 -2 0
v -15 -3 0
v -16 -3 0
v -16 -2 0
v -15 -2 0
v 0 -4 0
v -1 -4 0
v -1 -3 0
v 0 -3 0
v -1 -4 0
v -2 -4 0
v -2 -3 0
v -1 -3 0
v -4 -4 0
v -5 -4 0
v -5 -3 0
v -4 -3 0
v -7 -4 0
v -8 -4 0
v -8 -3 0
v -7 -3 0
v -10 -4 0
v -11 -4 0
v -11 -3 0
v -10 -3 0
v -11 -4 0
v -12 -4 0
v -12 -3 0
v -11 -3 0
v -12 -4 0
v -13 -4 0
v -13 -3 0
v -12 -3 0
v -13 -4 0
v -14 -4 0
v -14 -3 0
v -13 -3 0
v -14 -4 0
v -15 -4 0
v -15 -3 0
v -14 -3 0
v -15 -4 0
v -16 -4 0
v -16 -3 0
v -15 -3 0
v 0 -5 0
v -1 -5 0
v -1 -4 0
v 0 -4 0
v -1 -5 0
v -2 -5 0
v -2 -4 0
v -1 -4 0
v -2 -5 0
v -3 -5 0
v -3 -4 0
v -2 -4 0
v -3 -5 0
v -4 -5 0
v -4 -4 0
v -3 -4 0
v -4 -5 0
v -5 -5 0
v -5 -4 0
v -4 -4 0
v -7 -5 0
v -8 -5 0
v -8 -4 0
v -7 -4 0
v -12 -5 0
v -13 -5 0
v -13 -4 0
v -12 -4 0
v -13 -5 0
v -14 -5 0
v -14 -4 0
v -13 -4 0
v -14 -5 0
v -15 -5 0
v -15 -4 0
v -14 -4 0
v -15 -5 0
v -16 -5 0
v -16 -4 0
v -15 -4 0
v 0 -6 0
v -1 -6 0
v -1 -5 0
v 0 -5 0
v -1 -6 0
v -2 -6 0
v -2 -5 0
v -1 -5 0
v -2 -6 0
v -3 -6 0
v -3 -5 0
v -2 -5 0
v -3 -6 0
v -4 -6 0
v -4 -5 0
v -3 -5 0
v -7 -6 0
v -8 -6 0
v -8 -5 0
v -7 -5 0
v -12 -6 0
v -13 -6 0
v -13 -5 0
v -12 -5 0
v -13 -6 0
v -14 -6 0
v -14 -5 0
v -13 -5 0
v -14 -6 0
v -15 -6 0
v -15 -5 0
v -14 -5 0
v -15 -6 0
v -16 -6 0
v -16 -5 0
v -15 -5 0
v -7 -7 0
v -8 -7 0
v -8 -6 0
v -7 -6 0
v -6 -8 0
v -7 -8 0
v -7 -7 0
v -6 -7 0
v -7 -8 0
v -8 -8 0
v -8 -7 0
v -7 -7 0
v 0 -9 0
v -1 -9 0
v -1 -8 0
v 0 -8 0
v -1 -9 0
v -2 -9 0
v -2 -8 0
v -1 -8 0
v -2 -9 0
v -3 -9 0
v -3 -8 0
v -2 -8 0
v -3 -9 0
v -4 -9 0
v -4 -8 0
v -3 -8 0
v -4 -9 0
v -5 -9 0
v -5 -8 0
v -4 -8 0
v -5 -9 0
v -6 -9 0
v -6 -8 0
v -5 -8 0
v -6 -9 0
v -7 -9 0
v -7 -8 0
v -6 -8 0
v 0 -10 0
v -1 -10 0
v -1 -9 0
v 0 -9 0
v -1 -10 0
v -2 -10 0
v -2 -9 0
v -1 -9 0
v 0 -11 0
v -1 -11 0
v -1 -10 0
v 0 -10 0
v -1 -11 0
v -2 -11 0
v -2 -10 0
v -1 -10 0
v 0 -12 0
v -1 -12 0
v -1 -11 0
v 0 -11 0
v -1 -12 0
v -2 -12 0
v -2 -11 0
v -1 -11 0
v 0 -13 0
v -1 -13 0
v -1 -12 0
v 0 -12 0
v -1 -13 0
v -2 -13 0
v -2 -12 0
v -1 -12 0
v 0 -14 0
v -1 -14 0
v -1 -13 0
v 0 -13 0
v -1 -14 0
v -2 -14 0
v -2 -13 0
v -1 -13 0
v 0 -15 0
v -1 -15 0
v -1 -14 0
v 0 -14 0
v -1 -15 0
v -2 -15 0
v -2 -14 0
v -1 -14 0
v 0 -16 0
v -1 -16 0
v -1 -15 0
v 0 -15 0
v -1 -16 0
v -2 -16 0
v -2 -15 0
v -1 -15 0

# Texture cooridinates (Count = 76)
vt 0.1 0.4722222
vt 0.125 0.4722222
vt 0.125 0.5
vt 0.1 0.5
vt 0.05 0.5
vt 0.075 0.5
vt 0.075 0.5277778
vt 0.05 0.5277778
vt 0.125 0.5277778
vt 0.1 0.5277778
vt 0.025 0.4444444
vt 0.05 0.4444444
vt 0.05 0.4722222
vt 0.025 0.4722222
vt 0.275 0.9722222
vt 0.3 0.9722222
vt 0.3 1
vt 0.275 1
vt 0.325 0.9722222
vt 0.325 1
vt 0.35 0.9722222
vt 0.35 1
vt 0.375 0.9722222
vt 0.375 1
vt 0.775 0.8333333
vt 0.8 0.8333333
vt 0.8 0.8611111
vt 0.775 0.8611111
vt 0.825 0.8333333
vt 0.825 0.8611111
vt 0.275 0.9444444
vt 0.3 0.9444444
vt 0.325 0.9444444
vt 0.35 0.9444444
vt 0.375 0.9444444
vt 0.1 0.9444444
vt 0.125 0.9444444
vt 0.125 0.9722222
vt 0.1 0.9722222
vt 0.15 0.9444444
vt 0.15 0.9722222
vt 0.775 0.8055556
vt 0.8 0.8055556
vt 0.825 0.8055556
vt 0.275 0.9166667
vt 0.3 0.9166667
vt 0.325 0.9166667
vt 0.35 0.9166667
vt 0.375 0.9166667
vt 0.1 0.9166667
vt 0.125 0.9166667
vt 0.15 0.9166667
vt 0.175 0.8333333
vt 0.2 0.8333333
vt 0.2 0.8611111
vt 0.175 0.8611111
vt 0.075 0.4722222
vt 0.275 0.8888889
vt 0.3 0.8888889
vt 0.325 0.8888889
vt 0.35 0.8888889
vt 0.375 0.8888889
vt 0.275 0.8611111
vt 0.3 0.8611111
vt 0.325 0.8611111
vt 0.35 0.8611111
vt 0.375 0.8611111
vt 0 0.4444444
vt 0 0.4722222
vt 0.15 0.5277778
vt 0.15 0.5555556
vt 0.125 0.5555556
vt 0.175 0.5277778
vt 0.175 0.5555556
vt 0.15 0.5
vt 0.175 0.5

# Normal
vn 0 0 -1

# Mesh description
g Map_mesh_0077

# Faces
f 1/1/1 2/2/1 3/3/1 4/4/1
f 5/1/1 6/2/1 7/3/1 8/4/1
f 9/5/1 10/6/1 11/7/1 12/8/1
f 13/4/1 14/3/1 15/9/1 16/10/1
f 17/4/1 18/3/1 19/9/1 20/10/1
f 21/4/1 22/3/1 23/9/1 24/10/1
f 25/11/1 26/12/1 27/13/1 28/14/1
f 29/15/1 30/16/1 31/17/1 32/18/1
f 33/16/1 34/19/1 35/20/1 36/17/1
f 37/19/1 38/21/1 39/22/1 40/20/1
f 41/21/1 42/23/1 43/24/1 44/22/1
f 45/1/1 46/2/1 47/3/1 48/4/1
f 49/1/1 50/2/1 51/3/1 52/4/1
f 53/25/1 54/26/1 55/27/1 56/28/1
f 57/26/1 58/29/1 59/30/1 60/27/1
f 61/31/1 62/32/1 63/16/1 64/15/1
f 65/32/1 66/33/1 67/19/1 68/16/1
f 69/33/1 70/34/1 71/21/1 72/19/1
f 73/34/1 74/35/1 75/23/1 76/21/1
f 77/36/1 78/37/1 79/38/1 80/39/1
f 81/37/1 82/40/1 83/41/1 84/38/1
f 85/1/1 86/2/1 87/3/1 88/4/1
f 89/1/1 90/2/1 91/3/1 92/4/1
f 93/42/1 94/43/1 95/26/1 96/25/1
f 97/43/1 98/44/1 99/29/1 100/26/1
f 101/45/1 102/46/1 103/32/1 104/31/1
f 105/46/1 106/47/1 107/33/1 108/32/1
f 109/47/1 110/48/1 111/34/1 112/33/1
f 113/48/1 114/49/1 115/35/1 116/34/1
f 117/50/1 118/51/1 119/37/1 120/36/1
f 121/51/1 122/52/1 123/40/1 124/37/1
f 125/53/1 126/54/1 127/55/1 128/56/1
f 129/5/1 130/6/1 131/7/1 132/8/1
f 133/57/1 134/1/1 135/4/1 136/6/1
f 137/1/1 138/2/1 139/3/1 140/4/1
f 141/58/1 142/59/1 143/46/1 144/45/1
f 145/59/1 146/60/1 147/47/1 148/46/1
f 149/60/1 150/61/1 151/48/1 152/47/1
f 153/61/1 154/62/1 155/49/1 156/48/1
f 157/4/1 158/3/1 159/9/1 160/10/1
f 161/4/1 162/3/1 163/9/1 164/10/1
f 165/4/1 166/3/1 167/9/1 168/10/1
f 169/57/1 170/1/1 171/4/1 172/6/1
f 173/1/1 174/2/1 175/3/1 176/4/1
f 177/63/1 178/64/1 179/59/1 180/58/1
f 181/64/1 182/65/1 183/60/1 184/59/1
f 185/65/1 186/66/1 187/61/1 188/60/1
f 189/66/1 190/67/1 191/62/1 192/61/1
f 193/1/1 194/2/1 195/3/1 196/4/1
f 197/5/1 198/6/1 199/7/1 200/8/1
f 201/57/1 202/1/1 203/4/1 204/6/1
f 205/68/1 206/11/1 207/14/1 208/69/1
f 209/4/1 210/3/1 211/9/1 212/10/1
f 213/4/1 214/3/1 215/9/1 216/10/1
f 217/4/1 218/3/1 219/9/1 220/10/1
f 221/4/1 222/3/1 223/9/1 224/10/1
f 225/4/1 226/3/1 227/9/1 228/10/1
f 229/57/1 230/1/1 231/4/1 232/6/1
f 233/9/1 234/70/1 235/71/1 236/72/1
f 237/70/1 238/73/1 239/74/1 240/71/1
f 241/3/1 242/75/1 243/70/1 244/9/1
f 245/75/1 246/76/1 247/73/1 248/70/1
f 249/9/1 250/70/1 251/71/1 252/72/1
f 253/70/1 254/73/1 255/74/1 256/71/1
f 257/3/1 258/75/1 259/70/1 260/9/1
f 261/75/1 262/76/1 263/73/1 264/70/1
f 265/9/1 266/70/1 267/71/1 268/72/1
f 269/70/1 270/73/1 271/74/1 272/71/1
f 273/3/1 274/75/1 275/70/1 276/9/1
f 277/75/1 278/76/1 279/73/1 280/70/1
f 281/9/1 282/70/1 283/71/1 284/72/1
f 285/70/1 286/73/1 287/74/1 288/71/1

