# Tiled2Unity generated file. Do not modify by hand.
# Wavefront file for 'Map_mesh_0059.obj'

# Vertices (Count = 756)
v 0 -1 0
v -1 -1 0
v -1 0 0
v 0 0 0
v -1 -1 0
v -2 -1 0
v -2 0 0
v -1 0 0
v -2 -1 0
v -3 -1 0
v -3 0 0
v -2 0 0
v -3 -1 0
v -4 -1 0
v -4 0 0
v -3 0 0
v -4 -1 0
v -5 -1 0
v -5 0 0
v -4 0 0
v -5 -1 0
v -6 -1 0
v -6 0 0
v -5 0 0
v -6 -1 0
v -7 -1 0
v -7 0 0
v -6 0 0
v -7 -1 0
v -8 -1 0
v -8 0 0
v -7 0 0
v 0 -2 0
v -1 -2 0
v -1 -1 0
v 0 -1 0
v -1 -2 0
v -2 -2 0
v -2 -1 0
v -1 -1 0
v -2 -2 0
v -3 -2 0
v -3 -1 0
v -2 -1 0
v -3 -2 0
v -4 -2 0
v -4 -1 0
v -3 -1 0
v -4 -2 0
v -5 -2 0
v -5 -1 0
v -4 -1 0
v -5 -2 0
v -6 -2 0
v -6 -1 0
v -5 -1 0
v -6 -2 0
v -7 -2 0
v -7 -1 0
v -6 -1 0
v -7 -2 0
v -8 -2 0
v -8 -1 0
v -7 -1 0
v -8 -2 0
v -9 -2 0
v -9 -1 0
v -8 -1 0
v -9 -2 0
v -10 -2 0
v -10 -1 0
v -9 -1 0
v -10 -2 0
v -11 -2 0
v -11 -1 0
v -10 -1 0
v -11 -2 0
v -12 -2 0
v -12 -1 0
v -11 -1 0
v -12 -2 0
v -13 -2 0
v -13 -1 0
v -12 -1 0
v -13 -2 0
v -14 -2 0
v -14 -1 0
v -13 -1 0
v -14 -2 0
v -15 -2 0
v -15 -1 0
v -14 -1 0
v -15 -2 0
v -16 -2 0
v -16 -1 0
v -15 -1 0
v 0 -3 0
v -1 -3 0
v -1 -2 0
v 0 -2 0
v -1 -3 0
v -2 -3 0
v -2 -2 0
v -1 -2 0
v -2 -3 0
v -3 -3 0
v -3 -2 0
v -2 -2 0
v -3 -3 0
v -4 -3 0
v -4 -2 0
v -3 -2 0
v -4 -3 0
v -5 -3 0
v -5 -2 0
v -4 -2 0
v -5 -3 0
v -6 -3 0
v -6 -2 0
v -5 -2 0
v -6 -3 0
v -7 -3 0
v -7 -2 0
v -6 -2 0
v -7 -3 0
v -8 -3 0
v -8 -2 0
v -7 -2 0
v -8 -3 0
v -9 -3 0
v -9 -2 0
v -8 -2 0
v -9 -3 0
v -10 -3 0
v -10 -2 0
v -9 -2 0
v -10 -3 0
v -11 -3 0
v -11 -2 0
v -10 -2 0
v -11 -3 0
v -12 -3 0
v -12 -2 0
v -11 -2 0
v -12 -3 0
v -13 -3 0
v -13 -2 0
v -12 -2 0
v -13 -3 0
v -14 -3 0
v -14 -2 0
v -13 -2 0
v -14 -3 0
v -15 -3 0
v -15 -2 0
v -14 -2 0
v -15 -3 0
v -16 -3 0
v -16 -2 0
v -15 -2 0
v 0 -4 0
v -1 -4 0
v -1 -3 0
v 0 -3 0
v -1 -4 0
v -2 -4 0
v -2 -3 0
v -1 -3 0
v -2 -4 0
v -3 -4 0
v -3 -3 0
v -2 -3 0
v -3 -4 0
v -4 -4 0
v -4 -3 0
v -3 -3 0
v -4 -4 0
v -5 -4 0
v -5 -3 0
v -4 -3 0
v -5 -4 0
v -6 -4 0
v -6 -3 0
v -5 -3 0
v -6 -4 0
v -7 -4 0
v -7 -3 0
v -6 -3 0
v -7 -4 0
v -8 -4 0
v -8 -3 0
v -7 -3 0
v -8 -4 0
v -9 -4 0
v -9 -3 0
v -8 -3 0
v -9 -4 0
v -10 -4 0
v -10 -3 0
v -9 -3 0
v -10 -4 0
v -11 -4 0
v -11 -3 0
v -10 -3 0
v -12 -4 0
v -13 -4 0
v -13 -3 0
v -12 -3 0
v -13 -4 0
v -14 -4 0
v -14 -3 0
v -13 -3 0
v -14 -4 0
v -15 -4 0
v -15 -3 0
v -14 -3 0
v -15 -4 0
v -16 -4 0
v -16 -3 0
v -15 -3 0
v 0 -5 0
v -1 -5 0
v -1 -4 0
v 0 -4 0
v -1 -5 0
v -2 -5 0
v -2 -4 0
v -1 -4 0
v -2 -5 0
v -3 -5 0
v -3 -4 0
v -2 -4 0
v -3 -5 0
v -4 -5 0
v -4 -4 0
v -3 -4 0
v -4 -5 0
v -5 -5 0
v -5 -4 0
v -4 -4 0
v -5 -5 0
v -6 -5 0
v -6 -4 0
v -5 -4 0
v -6 -5 0
v -7 -5 0
v -7 -4 0
v -6 -4 0
v -7 -5 0
v -8 -5 0
v -8 -4 0
v -7 -4 0
v -8 -5 0
v -9 -5 0
v -9 -4 0
v -8 -4 0
v -9 -5 0
v -10 -5 0
v -10 -4 0
v -9 -4 0
v -10 -5 0
v -11 -5 0
v -11 -4 0
v -10 -4 0
v -12 -5 0
v -13 -5 0
v -13 -4 0
v -12 -4 0
v -13 -5 0
v -14 -5 0
v -14 -4 0
v -13 -4 0
v -14 -5 0
v -15 -5 0
v -15 -4 0
v -14 -4 0
v -15 -5 0
v -16 -5 0
v -16 -4 0
v -15 -4 0
v 0 -6 0
v -1 -6 0
v -1 -5 0
v 0 -5 0
v -1 -6 0
v -2 -6 0
v -2 -5 0
v -1 -5 0
v -2 -6 0
v -3 -6 0
v -3 -5 0
v -2 -5 0
v -3 -6 0
v -4 -6 0
v -4 -5 0
v -3 -5 0
v -4 -6 0
v -5 -6 0
v -5 -5 0
v -4 -5 0
v -5 -6 0
v -6 -6 0
v -6 -5 0
v -5 -5 0
v -6 -6 0
v -7 -6 0
v -7 -5 0
v -6 -5 0
v -7 -6 0
v -8 -6 0
v -8 -5 0
v -7 -5 0
v -8 -6 0
v -9 -6 0
v -9 -5 0
v -8 -5 0
v -9 -6 0
v -10 -6 0
v -10 -5 0
v -9 -5 0
v -10 -6 0
v -11 -6 0
v -11 -5 0
v -10 -5 0
v -11 -6 0
v -12 -6 0
v -12 -5 0
v -11 -5 0
v -12 -6 0
v -13 -6 0
v -13 -5 0
v -12 -5 0
v -13 -6 0
v -14 -6 0
v -14 -5 0
v -13 -5 0
v -14 -6 0
v -15 -6 0
v -15 -5 0
v -14 -5 0
v -15 -6 0
v -16 -6 0
v -16 -5 0
v -15 -5 0
v 0 -7 0
v -1 -7 0
v -1 -6 0
v 0 -6 0
v -1 -7 0
v -2 -7 0
v -2 -6 0
v -1 -6 0
v -2 -7 0
v -3 -7 0
v -3 -6 0
v -2 -6 0
v -3 -7 0
v -4 -7 0
v -4 -6 0
v -3 -6 0
v -4 -7 0
v -5 -7 0
v -5 -6 0
v -4 -6 0
v -5 -7 0
v -6 -7 0
v -6 -6 0
v -5 -6 0
v -6 -7 0
v -7 -7 0
v -7 -6 0
v -6 -6 0
v -7 -7 0
v -8 -7 0
v -8 -6 0
v -7 -6 0
v -8 -7 0
v -9 -7 0
v -9 -6 0
v -8 -6 0
v -9 -7 0
v -10 -7 0
v -10 -6 0
v -9 -6 0
v -10 -7 0
v -11 -7 0
v -11 -6 0
v -10 -6 0
v -11 -7 0
v -12 -7 0
v -12 -6 0
v -11 -6 0
v -12 -7 0
v -13 -7 0
v -13 -6 0
v -12 -6 0
v -13 -7 0
v -14 -7 0
v -14 -6 0
v -13 -6 0
v -14 -7 0
v -15 -7 0
v -15 -6 0
v -14 -6 0
v -15 -7 0
v -16 -7 0
v -16 -6 0
v -15 -6 0
v 0 -8 0
v -1 -8 0
v -1 -7 0
v 0 -7 0
v -1 -8 0
v -2 -8 0
v -2 -7 0
v -1 -7 0
v -2 -8 0
v -3 -8 0
v -3 -7 0
v -2 -7 0
v -3 -8 0
v -4 -8 0
v -4 -7 0
v -3 -7 0
v -4 -8 0
v -5 -8 0
v -5 -7 0
v -4 -7 0
v -5 -8 0
v -6 -8 0
v -6 -7 0
v -5 -7 0
v -6 -8 0
v -7 -8 0
v -7 -7 0
v -6 -7 0
v -7 -8 0
v -8 -8 0
v -8 -7 0
v -7 -7 0
v -8 -8 0
v -9 -8 0
v -9 -7 0
v -8 -7 0
v -9 -8 0
v -10 -8 0
v -10 -7 0
v -9 -7 0
v -10 -8 0
v -11 -8 0
v -11 -7 0
v -10 -7 0
v 0 -9 0
v -1 -9 0
v -1 -8 0
v 0 -8 0
v -1 -9 0
v -2 -9 0
v -2 -8 0
v -1 -8 0
v -2 -9 0
v -3 -9 0
v -3 -8 0
v -2 -8 0
v -3 -9 0
v -4 -9 0
v -4 -8 0
v -3 -8 0
v -4 -9 0
v -5 -9 0
v -5 -8 0
v -4 -8 0
v -5 -9 0
v -6 -9 0
v -6 -8 0
v -5 -8 0
v -6 -9 0
v -7 -9 0
v -7 -8 0
v -6 -8 0
v -7 -9 0
v -8 -9 0
v -8 -8 0
v -7 -8 0
v -8 -9 0
v -9 -9 0
v -9 -8 0
v -8 -8 0
v -9 -9 0
v -10 -9 0
v -10 -8 0
v -9 -8 0
v -10 -9 0
v -11 -9 0
v -11 -8 0
v -10 -8 0
v -11 -9 0
v -12 -9 0
v -12 -8 0
v -11 -8 0
v -12 -9 0
v -13 -9 0
v -13 -8 0
v -12 -8 0
v -13 -9 0
v -14 -9 0
v -14 -8 0
v -13 -8 0
v -15 -9 0
v -16 -9 0
v -16 -8 0
v -15 -8 0
v 0 -10 0
v -1 -10 0
v -1 -9 0
v 0 -9 0
v -1 -10 0
v -2 -10 0
v -2 -9 0
v -1 -9 0
v -2 -10 0
v -3 -10 0
v -3 -9 0
v -2 -9 0
v -3 -10 0
v -4 -10 0
v -4 -9 0
v -3 -9 0
v -4 -10 0
v -5 -10 0
v -5 -9 0
v -4 -9 0
v -5 -10 0
v -6 -10 0
v -6 -9 0
v -5 -9 0
v -6 -10 0
v -7 -10 0
v -7 -9 0
v -6 -9 0
v -7 -10 0
v -8 -10 0
v -8 -9 0
v -7 -9 0
v -8 -10 0
v -9 -10 0
v -9 -9 0
v -8 -9 0
v -9 -10 0
v -10 -10 0
v -10 -9 0
v -9 -9 0
v 0 -11 0
v -1 -11 0
v -1 -10 0
v 0 -10 0
v -1 -11 0
v -2 -11 0
v -2 -10 0
v -1 -10 0
v -2 -11 0
v -3 -11 0
v -3 -10 0
v -2 -10 0
v -3 -11 0
v -4 -11 0
v -4 -10 0
v -3 -10 0
v -4 -11 0
v -5 -11 0
v -5 -10 0
v -4 -10 0
v -5 -11 0
v -6 -11 0
v -6 -10 0
v -5 -10 0
v -6 -11 0
v -7 -11 0
v -7 -10 0
v -6 -10 0
v -7 -11 0
v -8 -11 0
v -8 -10 0
v -7 -10 0
v 0 -12 0
v -1 -12 0
v -1 -11 0
v 0 -11 0
v -1 -12 0
v -2 -12 0
v -2 -11 0
v -1 -11 0
v -2 -12 0
v -3 -12 0
v -3 -11 0
v -2 -11 0
v -3 -12 0
v -4 -12 0
v -4 -11 0
v -3 -11 0
v -4 -12 0
v -5 -12 0
v -5 -11 0
v -4 -11 0
v -5 -12 0
v -6 -12 0
v -6 -11 0
v -5 -11 0
v -6 -12 0
v -7 -12 0
v -7 -11 0
v -6 -11 0
v -7 -12 0
v -8 -12 0
v -8 -11 0
v -7 -11 0
v 0 -13 0
v -1 -13 0
v -1 -12 0
v 0 -12 0
v -1 -13 0
v -2 -13 0
v -2 -12 0
v -1 -12 0
v -2 -13 0
v -3 -13 0
v -3 -12 0
v -2 -12 0
v -3 -13 0
v -4 -13 0
v -4 -12 0
v -3 -12 0
v -4 -13 0
v -5 -13 0
v -5 -12 0
v -4 -12 0
v -5 -13 0
v -6 -13 0
v -6 -12 0
v -5 -12 0
v -6 -13 0
v -7 -13 0
v -7 -12 0
v -6 -12 0
v -7 -13 0
v -8 -13 0
v -8 -12 0
v -7 -12 0
v 0 -14 0
v -1 -14 0
v -1 -13 0
v 0 -13 0
v -1 -14 0
v -2 -14 0
v -2 -13 0
v -1 -13 0
v -2 -14 0
v -3 -14 0
v -3 -13 0
v -2 -13 0
v -3 -14 0
v -4 -14 0
v -4 -13 0
v -3 -13 0
v -4 -14 0
v -5 -14 0
v -5 -13 0
v -4 -13 0
v -5 -14 0
v -6 -14 0
v -6 -13 0
v -5 -13 0
v -6 -14 0
v -7 -14 0
v -7 -13 0
v -6 -13 0
v -7 -14 0
v -8 -14 0
v -8 -13 0
v -7 -13 0
v -12 -14 0
v -13 -14 0
v -13 -13 0
v -12 -13 0
v -13 -14 0
v -14 -14 0
v -14 -13 0
v -13 -13 0
v 0 -15 0
v -1 -15 0
v -1 -14 0
v 0 -14 0
v -1 -15 0
v -2 -15 0
v -2 -14 0
v -1 -14 0
v -2 -15 0
v -3 -15 0
v -3 -14 0
v -2 -14 0
v -3 -15 0
v -4 -15 0
v -4 -14 0
v -3 -14 0
v -4 -15 0
v -5 -15 0
v -5 -14 0
v -4 -14 0
v -5 -15 0
v -6 -15 0
v -6 -14 0
v -5 -14 0
v -6 -15 0
v -7 -15 0
v -7 -14 0
v -6 -14 0
v -7 -15 0
v -8 -15 0
v -8 -14 0
v -7 -14 0
v -12 -15 0
v -13 -15 0
v -13 -14 0
v -12 -14 0
v 0 -16 0
v -1 -16 0
v -1 -15 0
v 0 -15 0
v -1 -16 0
v -2 -16 0
v -2 -15 0
v -1 -15 0
v -2 -16 0
v -3 -16 0
v -3 -15 0
v -2 -15 0
v -3 -16 0
v -4 -16 0
v -4 -15 0
v -3 -15 0
v -4 -16 0
v -5 -16 0
v -5 -15 0
v -4 -15 0
v -5 -16 0
v -6 -16 0
v -6 -15 0
v -5 -15 0
v -6 -16 0
v -7 -16 0
v -7 -15 0
v -6 -15 0
v -7 -16 0
v -8 -16 0
v -8 -15 0
v -7 -15 0

# Texture cooridinates (Count = 101)
vt 0.125 0.5
vt 0.15 0.5
vt 0.15 0.5277778
vt 0.125 0.5277778
vt 0.175 0.5
vt 0.175 0.5277778
vt 0.15 0.4722222
vt 0.175 0.4722222
vt 0.2 0.4722222
vt 0.2 0.5
vt 0.15 0.5555556
vt 0.125 0.5555556
vt 0.175 0.5555556
vt 0.05 0.5
vt 0.075 0.5
vt 0.075 0.5277778
vt 0.05 0.5277778
vt 0.1 0.5
vt 0.1 0.5277778
vt 0.1 0.4722222
vt 0.125 0.4722222
vt 0.325 0.8333333
vt 0.35 0.8333333
vt 0.35 0.8611111
vt 0.325 0.8611111
vt 0.375 0.8333333
vt 0.375 0.8611111
vt 0.25 0.8333333
vt 0.275 0.8333333
vt 0.275 0.8611111
vt 0.25 0.8611111
vt 0.15 0.9722222
vt 0.175 0.9722222
vt 0.175 1
vt 0.15 1
vt 0.2 0.9722222
vt 0.2 1
vt 0.325 0.9722222
vt 0.35 0.9722222
vt 0.35 1
vt 0.325 1
vt 0.375 0.9722222
vt 0.375 1
vt 0.325 0.8055556
vt 0.35 0.8055556
vt 0.375 0.8055556
vt 0.15 0.9444444
vt 0.175 0.9444444
vt 0.2 0.9444444
vt 0.325 0.9444444
vt 0.35 0.9444444
vt 0.375 0.9444444
vt 0.325 0.7777778
vt 0.35 0.7777778
vt 0.375 0.7777778
vt 0.15 0.9166667
vt 0.175 0.9166667
vt 0.2 0.9166667
vt 0.225 0.9166667
vt 0.225 0.9444444
vt 0.25 0.9166667
vt 0.25 0.9444444
vt 0 0.02777779
vt 0.025 0.02777779
vt 0.025 0.05555558
vt 0 0.05555558
vt 0.15 0.8888889
vt 0.175 0.8888889
vt 0.2 0.8888889
vt 0.225 0.8888889
vt 0.25 0.8888889
vt 0 0
vt 0.025 0
vt 0.15 0.8611111
vt 0.175 0.8611111
vt 0.2 0.8611111
vt 0.225 0.8611111
vt 0.05 0.4722222
vt 0.075 0.4722222
vt 0.775 0.8888889
vt 0.8 0.8888889
vt 0.8 0.9166667
vt 0.775 0.9166667
vt 0.825 0.8888889
vt 0.825 0.9166667
vt 0.025 0.4444444
vt 0.05 0.4444444
vt 0.025 0.4722222
vt 0 0.4444444
vt 0 0.4722222
vt 0.775 0.8611111
vt 0.8 0.8611111
vt 0.825 0.8611111
vt 0.175 0.8333333
vt 0.2 0.8333333
vt 0.075 0.6388889
vt 0.1 0.6388889
vt 0.1 0.6666666
vt 0.075 0.6666666
vt 0.05 0.6388889
vt 0.05 0.6666666

# Normal
vn 0 0 -1

# Mesh description
g Map_mesh_0059

# Faces
f 1/1/1 2/2/1 3/3/1 4/4/1
f 5/2/1 6/5/1 7/6/1 8/3/1
f 9/1/1 10/2/1 11/3/1 12/4/1
f 13/2/1 14/5/1 15/6/1 16/3/1
f 17/1/1 18/2/1 19/3/1 20/4/1
f 21/2/1 22/5/1 23/6/1 24/3/1
f 25/7/1 26/8/1 27/5/1 28/2/1
f 29/8/1 30/9/1 31/10/1 32/5/1
f 33/4/1 34/3/1 35/11/1 36/12/1
f 37/3/1 38/6/1 39/13/1 40/11/1
f 41/4/1 42/3/1 43/11/1 44/12/1
f 45/3/1 46/6/1 47/13/1 48/11/1
f 49/4/1 50/3/1 51/11/1 52/12/1
f 53/3/1 54/6/1 55/13/1 56/11/1
f 57/7/1 58/8/1 59/5/1 60/2/1
f 61/8/1 62/9/1 63/10/1 64/5/1
f 65/14/1 66/15/1 67/16/1 68/17/1
f 69/18/1 70/1/1 71/4/1 72/19/1
f 73/18/1 74/1/1 75/4/1 76/19/1
f 77/18/1 78/1/1 79/4/1 80/19/1
f 81/18/1 82/1/1 83/4/1 84/19/1
f 85/18/1 86/1/1 87/4/1 88/19/1
f 89/18/1 90/1/1 91/4/1 92/19/1
f 93/18/1 94/1/1 95/4/1 96/19/1
f 97/1/1 98/2/1 99/3/1 100/4/1
f 101/2/1 102/5/1 103/6/1 104/3/1
f 105/1/1 106/2/1 107/3/1 108/4/1
f 109/2/1 110/5/1 111/6/1 112/3/1
f 113/1/1 114/2/1 115/3/1 116/4/1
f 117/2/1 118/5/1 119/6/1 120/3/1
f 121/7/1 122/8/1 123/5/1 124/2/1
f 125/8/1 126/9/1 127/10/1 128/5/1
f 129/20/1 130/21/1 131/1/1 132/18/1
f 133/22/1 134/23/1 135/24/1 136/25/1
f 137/23/1 138/26/1 139/27/1 140/24/1
f 141/28/1 142/29/1 143/30/1 144/31/1
f 145/32/1 146/33/1 147/34/1 148/35/1
f 149/33/1 150/36/1 151/37/1 152/34/1
f 153/38/1 154/39/1 155/40/1 156/41/1
f 157/39/1 158/42/1 159/43/1 160/40/1
f 161/4/1 162/3/1 163/11/1 164/12/1
f 165/3/1 166/6/1 167/13/1 168/11/1
f 169/4/1 170/3/1 171/11/1 172/12/1
f 173/3/1 174/6/1 175/13/1 176/11/1
f 177/4/1 178/3/1 179/11/1 180/12/1
f 181/3/1 182/6/1 183/13/1 184/11/1
f 185/7/1 186/8/1 187/5/1 188/2/1
f 189/8/1 190/9/1 191/10/1 192/5/1
f 193/20/1 194/21/1 195/1/1 196/18/1
f 197/44/1 198/45/1 199/23/1 200/22/1
f 201/45/1 202/46/1 203/26/1 204/23/1
f 205/47/1 206/48/1 207/33/1 208/32/1
f 209/48/1 210/49/1 211/36/1 212/33/1
f 213/50/1 214/51/1 215/39/1 216/38/1
f 217/51/1 218/52/1 219/42/1 220/39/1
f 221/1/1 222/2/1 223/3/1 224/4/1
f 225/2/1 226/5/1 227/6/1 228/3/1
f 229/1/1 230/2/1 231/3/1 232/4/1
f 233/2/1 234/5/1 235/6/1 236/3/1
f 237/1/1 238/2/1 239/3/1 240/4/1
f 241/2/1 242/5/1 243/6/1 244/3/1
f 245/7/1 246/8/1 247/5/1 248/2/1
f 249/8/1 250/9/1 251/10/1 252/5/1
f 253/20/1 254/21/1 255/1/1 256/18/1
f 257/53/1 258/54/1 259/45/1 260/44/1
f 261/54/1 262/55/1 263/46/1 264/45/1
f 265/56/1 266/57/1 267/48/1 268/47/1
f 269/57/1 270/58/1 271/49/1 272/48/1
f 273/58/1 274/59/1 275/60/1 276/49/1
f 277/59/1 278/61/1 279/62/1 280/60/1
f 281/4/1 282/3/1 283/11/1 284/12/1
f 285/3/1 286/6/1 287/13/1 288/11/1
f 289/4/1 290/3/1 291/11/1 292/12/1
f 293/3/1 294/6/1 295/13/1 296/11/1
f 297/4/1 298/3/1 299/11/1 300/12/1
f 301/3/1 302/6/1 303/13/1 304/11/1
f 305/7/1 306/8/1 307/5/1 308/2/1
f 309/8/1 310/9/1 311/10/1 312/5/1
f 313/20/1 314/21/1 315/1/1 316/18/1
f 317/63/1 318/64/1 319/65/1 320/66/1
f 321/63/1 322/64/1 323/65/1 324/66/1
f 325/63/1 326/64/1 327/65/1 328/66/1
f 329/67/1 330/68/1 331/57/1 332/56/1
f 333/68/1 334/69/1 335/58/1 336/57/1
f 337/69/1 338/70/1 339/59/1 340/58/1
f 341/70/1 342/71/1 343/61/1 344/59/1
f 345/1/1 346/2/1 347/3/1 348/4/1
f 349/2/1 350/5/1 351/6/1 352/3/1
f 353/1/1 354/2/1 355/3/1 356/4/1
f 357/2/1 358/5/1 359/6/1 360/3/1
f 361/1/1 362/2/1 363/3/1 364/4/1
f 365/2/1 366/5/1 367/6/1 368/3/1
f 369/7/1 370/8/1 371/5/1 372/2/1
f 373/8/1 374/9/1 375/10/1 376/5/1
f 377/20/1 378/21/1 379/1/1 380/18/1
f 381/72/1 382/73/1 383/64/1 384/63/1
f 385/72/1 386/73/1 387/64/1 388/63/1
f 389/72/1 390/73/1 391/64/1 392/63/1
f 393/74/1 394/75/1 395/68/1 396/67/1
f 397/75/1 398/76/1 399/69/1 400/68/1
f 401/76/1 402/77/1 403/70/1 404/69/1
f 405/77/1 406/31/1 407/71/1 408/70/1
f 409/4/1 410/3/1 411/11/1 412/12/1
f 413/3/1 414/6/1 415/13/1 416/11/1
f 417/4/1 418/3/1 419/11/1 420/12/1
f 421/3/1 422/6/1 423/13/1 424/11/1
f 425/4/1 426/3/1 427/11/1 428/12/1
f 429/3/1 430/6/1 431/13/1 432/11/1
f 433/7/1 434/8/1 435/5/1 436/2/1
f 437/8/1 438/9/1 439/10/1 440/5/1
f 441/78/1 442/79/1 443/15/1 444/14/1
f 445/18/1 446/1/1 447/4/1 448/19/1
f 449/15/1 450/18/1 451/19/1 452/16/1
f 453/1/1 454/2/1 455/3/1 456/4/1
f 457/2/1 458/5/1 459/6/1 460/3/1
f 461/1/1 462/2/1 463/3/1 464/4/1
f 465/2/1 466/5/1 467/6/1 468/3/1
f 469/1/1 470/2/1 471/3/1 472/4/1
f 473/2/1 474/5/1 475/6/1 476/3/1
f 477/7/1 478/8/1 479/5/1 480/2/1
f 481/8/1 482/9/1 483/10/1 484/5/1
f 485/80/1 486/81/1 487/82/1 488/83/1
f 489/81/1 490/84/1 491/85/1 492/82/1
f 493/78/1 494/79/1 495/15/1 496/14/1
f 497/18/1 498/1/1 499/4/1 500/19/1
f 501/18/1 502/1/1 503/4/1 504/19/1
f 505/86/1 506/87/1 507/78/1 508/88/1
f 509/89/1 510/86/1 511/88/1 512/90/1
f 513/4/1 514/3/1 515/11/1 516/12/1
f 517/3/1 518/6/1 519/13/1 520/11/1
f 521/4/1 522/3/1 523/11/1 524/12/1
f 525/3/1 526/6/1 527/13/1 528/11/1
f 529/4/1 530/3/1 531/11/1 532/12/1
f 533/3/1 534/6/1 535/13/1 536/11/1
f 537/7/1 538/8/1 539/5/1 540/2/1
f 541/8/1 542/9/1 543/10/1 544/5/1
f 545/91/1 546/92/1 547/81/1 548/80/1
f 549/92/1 550/93/1 551/84/1 552/81/1
f 553/1/1 554/2/1 555/3/1 556/4/1
f 557/2/1 558/5/1 559/6/1 560/3/1
f 561/1/1 562/2/1 563/3/1 564/4/1
f 565/2/1 566/5/1 567/6/1 568/3/1
f 569/1/1 570/2/1 571/3/1 572/4/1
f 573/2/1 574/5/1 575/6/1 576/3/1
f 577/7/1 578/8/1 579/5/1 580/2/1
f 581/8/1 582/9/1 583/10/1 584/5/1
f 585/4/1 586/3/1 587/11/1 588/12/1
f 589/3/1 590/6/1 591/13/1 592/11/1
f 593/4/1 594/3/1 595/11/1 596/12/1
f 597/3/1 598/6/1 599/13/1 600/11/1
f 601/4/1 602/3/1 603/11/1 604/12/1
f 605/3/1 606/6/1 607/13/1 608/11/1
f 609/7/1 610/8/1 611/5/1 612/2/1
f 613/8/1 614/9/1 615/10/1 616/5/1
f 617/1/1 618/2/1 619/3/1 620/4/1
f 621/2/1 622/5/1 623/6/1 624/3/1
f 625/1/1 626/2/1 627/3/1 628/4/1
f 629/2/1 630/5/1 631/6/1 632/3/1
f 633/1/1 634/2/1 635/3/1 636/4/1
f 637/2/1 638/5/1 639/6/1 640/3/1
f 641/7/1 642/8/1 643/5/1 644/2/1
f 645/8/1 646/9/1 647/10/1 648/5/1
f 649/4/1 650/3/1 651/11/1 652/12/1
f 653/3/1 654/6/1 655/13/1 656/11/1
f 657/4/1 658/3/1 659/11/1 660/12/1
f 661/3/1 662/6/1 663/13/1 664/11/1
f 665/4/1 666/3/1 667/11/1 668/12/1
f 669/3/1 670/6/1 671/13/1 672/11/1
f 673/7/1 674/8/1 675/5/1 676/2/1
f 677/8/1 678/9/1 679/10/1 680/5/1
f 681/94/1 682/95/1 683/76/1 684/75/1
f 685/96/1 686/97/1 687/98/1 688/99/1
f 689/1/1 690/2/1 691/3/1 692/4/1
f 693/2/1 694/5/1 695/6/1 696/3/1
f 697/1/1 698/2/1 699/3/1 700/4/1
f 701/2/1 702/5/1 703/6/1 704/3/1
f 705/1/1 706/2/1 707/3/1 708/4/1
f 709/2/1 710/5/1 711/6/1 712/3/1
f 713/7/1 714/8/1 715/5/1 716/2/1
f 717/8/1 718/9/1 719/10/1 720/5/1
f 721/100/1 722/96/1 723/99/1 724/101/1
f 725/4/1 726/3/1 727/11/1 728/12/1
f 729/3/1 730/6/1 731/13/1 732/11/1
f 733/4/1 734/3/1 735/11/1 736/12/1
f 737/3/1 738/6/1 739/13/1 740/11/1
f 741/4/1 742/3/1 743/11/1 744/12/1
f 745/3/1 746/6/1 747/13/1 748/11/1
f 749/7/1 750/8/1 751/5/1 752/2/1
f 753/8/1 754/9/1 755/10/1 756/5/1

