# Tiled2Unity generated file. Do not modify by hand.
# Wavefront file for 'Map_mesh_0083.obj'

# Vertices (Count = 172)
v -7 -1 0
v -8 -1 0
v -8 0 0
v -7 0 0
v -8 -1 0
v -9 -1 0
v -9 0 0
v -8 0 0
v -15 -1 0
v -16 -1 0
v -16 0 0
v -15 0 0
v 0 -2 0
v -1 -2 0
v -1 -1 0
v 0 -1 0
v -1 -2 0
v -2 -2 0
v -2 -1 0
v -1 -1 0
v -2 -2 0
v -3 -2 0
v -3 -1 0
v -2 -1 0
v -7 -2 0
v -8 -2 0
v -8 -1 0
v -7 -1 0
v -8 -2 0
v -9 -2 0
v -9 -1 0
v -8 -1 0
v -15 -2 0
v -16 -2 0
v -16 -1 0
v -15 -1 0
v 0 -3 0
v -1 -3 0
v -1 -2 0
v 0 -2 0
v -2 -3 0
v -3 -3 0
v -3 -2 0
v -2 -2 0
v -13 -3 0
v -14 -3 0
v -14 -2 0
v -13 -2 0
v -15 -3 0
v -16 -3 0
v -16 -2 0
v -15 -2 0
v 0 -4 0
v -1 -4 0
v -1 -3 0
v 0 -3 0
v -2 -4 0
v -3 -4 0
v -3 -3 0
v -2 -3 0
v -15 -4 0
v -16 -4 0
v -16 -3 0
v -15 -3 0
v 0 -5 0
v -1 -5 0
v -1 -4 0
v 0 -4 0
v -2 -5 0
v -3 -5 0
v -3 -4 0
v -2 -4 0
v -15 -5 0
v -16 -5 0
v -16 -4 0
v -15 -4 0
v 0 -6 0
v -1 -6 0
v -1 -5 0
v 0 -5 0
v -2 -6 0
v -3 -6 0
v -3 -5 0
v -2 -5 0
v -15 -6 0
v -16 -6 0
v -16 -5 0
v -15 -5 0
v 0 -7 0
v -1 -7 0
v -1 -6 0
v 0 -6 0
v -2 -7 0
v -3 -7 0
v -3 -6 0
v -2 -6 0
v -15 -7 0
v -16 -7 0
v -16 -6 0
v -15 -6 0
v -2 -8 0
v -3 -8 0
v -3 -7 0
v -2 -7 0
v -15 -8 0
v -16 -8 0
v -16 -7 0
v -15 -7 0
v 0 -9 0
v -1 -9 0
v -1 -8 0
v 0 -8 0
v -1 -9 0
v -2 -9 0
v -2 -8 0
v -1 -8 0
v -2 -9 0
v -3 -9 0
v -3 -8 0
v -2 -8 0
v -15 -9 0
v -16 -9 0
v -16 -8 0
v -15 -8 0
v -15 -10 0
v -16 -10 0
v -16 -9 0
v -15 -9 0
v -15 -11 0
v -16 -11 0
v -16 -10 0
v -15 -10 0
v -9 -12 0
v -10 -12 0
v -10 -11 0
v -9 -11 0
v -10 -12 0
v -11 -12 0
v -11 -11 0
v -10 -11 0
v -15 -12 0
v -16 -12 0
v -16 -11 0
v -15 -11 0
v -9 -13 0
v -10 -13 0
v -10 -12 0
v -9 -12 0
v -10 -13 0
v -11 -13 0
v -11 -12 0
v -10 -12 0
v -15 -13 0
v -16 -13 0
v -16 -12 0
v -15 -12 0
v -11 -14 0
v -12 -14 0
v -12 -13 0
v -11 -13 0
v -15 -14 0
v -16 -14 0
v -16 -13 0
v -15 -13 0
v -14 -15 0
v -15 -15 0
v -15 -14 0
v -14 -14 0
v -10 -16 0
v -11 -16 0
v -11 -15 0
v -10 -15 0

# Texture cooridinates (Count = 56)
vt 0.225 0.6666666
vt 0.25 0.6666666
vt 0.25 0.6944444
vt 0.225 0.6944444
vt 0.275 0.6666666
vt 0.275 0.6944444
vt 0.175 0.4722222
vt 0.2 0.4722222
vt 0.2 0.5
vt 0.175 0.5
vt 0.1 0.5
vt 0.125 0.5
vt 0.125 0.5277778
vt 0.1 0.5277778
vt 0.075 0.5
vt 0.075 0.5277778
vt 0.225 0.6388889
vt 0.25 0.6388889
vt 0.275 0.6388889
vt 0.375 0.9722222
vt 0.4 0.9722222
vt 0.4 1
vt 0.375 1
vt 0.1 0.4722222
vt 0.125 0.4722222
vt 0.35 0.6944444
vt 0.375 0.6944444
vt 0.375 0.7222222
vt 0.35 0.7222222
vt 0.375 0.9444444
vt 0.4 0.9444444
vt 0.25 0.9166667
vt 0.275 0.9166667
vt 0.275 0.9444444
vt 0.25 0.9444444
vt 0.25 0.8888889
vt 0.275 0.8888889
vt 0.25 0.8611111
vt 0.275 0.8611111
vt 0.075 0.4722222
vt 0.775 0.8888889
vt 0.8 0.8888889
vt 0.8 0.9166667
vt 0.775 0.9166667
vt 0.825 0.8888889
vt 0.825 0.9166667
vt 0.775 0.8611111
vt 0.8 0.8611111
vt 0.825 0.8611111
vt 0.325 0.6944444
vt 0.325 0.7222222
vt 0.15 0.5
vt 0.175 0.5277778
vt 0.15 0.5277778
vt 0.3 0.6944444
vt 0.3 0.7222222

# Normal
vn 0 0 -1

# Mesh description
g Map_mesh_0083

# Faces
f 1/1/1 2/2/1 3/3/1 4/4/1
f 5/2/1 6/5/1 7/6/1 8/3/1
f 9/7/1 10/8/1 11/9/1 12/10/1
f 13/11/1 14/12/1 15/13/1 16/14/1
f 17/11/1 18/12/1 19/13/1 20/14/1
f 21/15/1 22/11/1 23/14/1 24/16/1
f 25/17/1 26/18/1 27/2/1 28/1/1
f 29/18/1 30/19/1 31/5/1 32/2/1
f 33/7/1 34/8/1 35/9/1 36/10/1
f 37/20/1 38/21/1 39/22/1 40/23/1
f 41/24/1 42/25/1 43/12/1 44/11/1
f 45/26/1 46/27/1 47/28/1 48/29/1
f 49/7/1 50/8/1 51/9/1 52/10/1
f 53/30/1 54/31/1 55/21/1 56/20/1
f 57/24/1 58/25/1 59/12/1 60/11/1
f 61/7/1 62/8/1 63/9/1 64/10/1
f 65/32/1 66/33/1 67/34/1 68/35/1
f 69/24/1 70/25/1 71/12/1 72/11/1
f 73/7/1 74/8/1 75/9/1 76/10/1
f 77/36/1 78/37/1 79/33/1 80/32/1
f 81/24/1 82/25/1 83/12/1 84/11/1
f 85/7/1 86/8/1 87/9/1 88/10/1
f 89/38/1 90/39/1 91/37/1 92/36/1
f 93/24/1 94/25/1 95/12/1 96/11/1
f 97/7/1 98/8/1 99/9/1 100/10/1
f 101/24/1 102/25/1 103/12/1 104/11/1
f 105/7/1 106/8/1 107/9/1 108/10/1
f 109/11/1 110/12/1 111/13/1 112/14/1
f 113/11/1 114/12/1 115/13/1 116/14/1
f 117/40/1 118/24/1 119/11/1 120/15/1
f 121/7/1 122/8/1 123/9/1 124/10/1
f 125/7/1 126/8/1 127/9/1 128/10/1
f 129/7/1 130/8/1 131/9/1 132/10/1
f 133/41/1 134/42/1 135/43/1 136/44/1
f 137/42/1 138/45/1 139/46/1 140/43/1
f 141/7/1 142/8/1 143/9/1 144/10/1
f 145/47/1 146/48/1 147/42/1 148/41/1
f 149/48/1 150/49/1 151/45/1 152/42/1
f 153/7/1 154/8/1 155/9/1 156/10/1
f 157/50/1 158/26/1 159/29/1 160/51/1
f 161/52/1 162/10/1 163/53/1 164/54/1
f 165/55/1 166/50/1 167/51/1 168/56/1
f 169/26/1 170/27/1 171/28/1 172/29/1

