# Tiled2Unity generated file. Do not modify by hand.
# Wavefront file for 'Map_mesh_0062.obj'

# Vertices (Count = 532)
v 0 -1 0
v -1 -1 0
v -1 0 0
v 0 0 0
v -1 -1 0
v -2 -1 0
v -2 0 0
v -1 0 0
v -2 -1 0
v -3 -1 0
v -3 0 0
v -2 0 0
v -3 -1 0
v -4 -1 0
v -4 0 0
v -3 0 0
v -4 -1 0
v -5 -1 0
v -5 0 0
v -4 0 0
v -5 -1 0
v -6 -1 0
v -6 0 0
v -5 0 0
v -6 -1 0
v -7 -1 0
v -7 0 0
v -6 0 0
v -7 -1 0
v -8 -1 0
v -8 0 0
v -7 0 0
v -8 -1 0
v -9 -1 0
v -9 0 0
v -8 0 0
v -9 -1 0
v -10 -1 0
v -10 0 0
v -9 0 0
v -10 -1 0
v -11 -1 0
v -11 0 0
v -10 0 0
v 0 -2 0
v -1 -2 0
v -1 -1 0
v 0 -1 0
v -1 -2 0
v -2 -2 0
v -2 -1 0
v -1 -1 0
v -2 -2 0
v -3 -2 0
v -3 -1 0
v -2 -1 0
v -3 -2 0
v -4 -2 0
v -4 -1 0
v -3 -1 0
v -4 -2 0
v -5 -2 0
v -5 -1 0
v -4 -1 0
v -5 -2 0
v -6 -2 0
v -6 -1 0
v -5 -1 0
v -6 -2 0
v -7 -2 0
v -7 -1 0
v -6 -1 0
v -7 -2 0
v -8 -2 0
v -8 -1 0
v -7 -1 0
v -8 -2 0
v -9 -2 0
v -9 -1 0
v -8 -1 0
v -9 -2 0
v -10 -2 0
v -10 -1 0
v -9 -1 0
v 0 -3 0
v -1 -3 0
v -1 -2 0
v 0 -2 0
v -1 -3 0
v -2 -3 0
v -2 -2 0
v -1 -2 0
v -2 -3 0
v -3 -3 0
v -3 -2 0
v -2 -2 0
v -3 -3 0
v -4 -3 0
v -4 -2 0
v -3 -2 0
v -4 -3 0
v -5 -3 0
v -5 -2 0
v -4 -2 0
v -5 -3 0
v -6 -3 0
v -6 -2 0
v -5 -2 0
v -6 -3 0
v -7 -3 0
v -7 -2 0
v -6 -2 0
v -7 -3 0
v -8 -3 0
v -8 -2 0
v -7 -2 0
v -8 -3 0
v -9 -3 0
v -9 -2 0
v -8 -2 0
v -9 -3 0
v -10 -3 0
v -10 -2 0
v -9 -2 0
v 0 -4 0
v -1 -4 0
v -1 -3 0
v 0 -3 0
v -1 -4 0
v -2 -4 0
v -2 -3 0
v -1 -3 0
v -2 -4 0
v -3 -4 0
v -3 -3 0
v -2 -3 0
v -3 -4 0
v -4 -4 0
v -4 -3 0
v -3 -3 0
v -4 -4 0
v -5 -4 0
v -5 -3 0
v -4 -3 0
v -5 -4 0
v -6 -4 0
v -6 -3 0
v -5 -3 0
v -6 -4 0
v -7 -4 0
v -7 -3 0
v -6 -3 0
v -7 -4 0
v -8 -4 0
v -8 -3 0
v -7 -3 0
v -8 -4 0
v -9 -4 0
v -9 -3 0
v -8 -3 0
v 0 -5 0
v -1 -5 0
v -1 -4 0
v 0 -4 0
v -1 -5 0
v -2 -5 0
v -2 -4 0
v -1 -4 0
v -2 -5 0
v -3 -5 0
v -3 -4 0
v -2 -4 0
v -3 -5 0
v -4 -5 0
v -4 -4 0
v -3 -4 0
v -4 -5 0
v -5 -5 0
v -5 -4 0
v -4 -4 0
v -5 -5 0
v -6 -5 0
v -6 -4 0
v -5 -4 0
v -6 -5 0
v -7 -5 0
v -7 -4 0
v -6 -4 0
v -7 -5 0
v -8 -5 0
v -8 -4 0
v -7 -4 0
v 0 -6 0
v -1 -6 0
v -1 -5 0
v 0 -5 0
v -1 -6 0
v -2 -6 0
v -2 -5 0
v -1 -5 0
v -2 -6 0
v -3 -6 0
v -3 -5 0
v -2 -5 0
v -3 -6 0
v -4 -6 0
v -4 -5 0
v -3 -5 0
v -4 -6 0
v -5 -6 0
v -5 -5 0
v -4 -5 0
v -7 -6 0
v -8 -6 0
v -8 -5 0
v -7 -5 0
v -8 -6 0
v -9 -6 0
v -9 -5 0
v -8 -5 0
v -9 -6 0
v -10 -6 0
v -10 -5 0
v -9 -5 0
v -14 -6 0
v -15 -6 0
v -15 -5 0
v -14 -5 0
v -15 -6 0
v -16 -6 0
v -16 -5 0
v -15 -5 0
v 0 -7 0
v -1 -7 0
v -1 -6 0
v 0 -6 0
v -1 -7 0
v -2 -7 0
v -2 -6 0
v -1 -6 0
v -2 -7 0
v -3 -7 0
v -3 -6 0
v -2 -6 0
v -3 -7 0
v -4 -7 0
v -4 -6 0
v -3 -6 0
v -5 -7 0
v -6 -7 0
v -6 -6 0
v -5 -6 0
v -6 -7 0
v -7 -7 0
v -7 -6 0
v -6 -6 0
v -8 -7 0
v -9 -7 0
v -9 -6 0
v -8 -6 0
v -9 -7 0
v -10 -7 0
v -10 -6 0
v -9 -6 0
v -14 -7 0
v -15 -7 0
v -15 -6 0
v -14 -6 0
v 0 -8 0
v -1 -8 0
v -1 -7 0
v 0 -7 0
v -1 -8 0
v -2 -8 0
v -2 -7 0
v -1 -7 0
v -2 -8 0
v -3 -8 0
v -3 -7 0
v -2 -7 0
v -3 -8 0
v -4 -8 0
v -4 -7 0
v -3 -7 0
v -4 -8 0
v -5 -8 0
v -5 -7 0
v -4 -7 0
v -7 -8 0
v -8 -8 0
v -8 -7 0
v -7 -7 0
v -8 -8 0
v -9 -8 0
v -9 -7 0
v -8 -7 0
v -9 -8 0
v -10 -8 0
v -10 -7 0
v -9 -7 0
v -13 -8 0
v -14 -8 0
v -14 -7 0
v -13 -7 0
v -14 -8 0
v -15 -8 0
v -15 -7 0
v -14 -7 0
v -15 -8 0
v -16 -8 0
v -16 -7 0
v -15 -7 0
v 0 -9 0
v -1 -9 0
v -1 -8 0
v 0 -8 0
v -1 -9 0
v -2 -9 0
v -2 -8 0
v -1 -8 0
v -2 -9 0
v -3 -9 0
v -3 -8 0
v -2 -8 0
v -3 -9 0
v -4 -9 0
v -4 -8 0
v -3 -8 0
v -4 -9 0
v -5 -9 0
v -5 -8 0
v -4 -8 0
v -5 -9 0
v -6 -9 0
v -6 -8 0
v -5 -8 0
v -8 -9 0
v -9 -9 0
v -9 -8 0
v -8 -8 0
v 0 -10 0
v -1 -10 0
v -1 -9 0
v 0 -9 0
v -1 -10 0
v -2 -10 0
v -2 -9 0
v -1 -9 0
v -2 -10 0
v -3 -10 0
v -3 -9 0
v -2 -9 0
v -3 -10 0
v -4 -10 0
v -4 -9 0
v -3 -9 0
v -8 -10 0
v -9 -10 0
v -9 -9 0
v -8 -9 0
v 0 -11 0
v -1 -11 0
v -1 -10 0
v 0 -10 0
v -1 -11 0
v -2 -11 0
v -2 -10 0
v -1 -10 0
v -2 -11 0
v -3 -11 0
v -3 -10 0
v -2 -10 0
v -3 -11 0
v -4 -11 0
v -4 -10 0
v -3 -10 0
v -5 -11 0
v -6 -11 0
v -6 -10 0
v -5 -10 0
v -8 -11 0
v -9 -11 0
v -9 -10 0
v -8 -10 0
v -9 -11 0
v -10 -11 0
v -10 -10 0
v -9 -10 0
v 0 -12 0
v -1 -12 0
v -1 -11 0
v 0 -11 0
v -1 -12 0
v -2 -12 0
v -2 -11 0
v -1 -11 0
v -2 -12 0
v -3 -12 0
v -3 -11 0
v -2 -11 0
v -3 -12 0
v -4 -12 0
v -4 -11 0
v -3 -11 0
v -4 -12 0
v -5 -12 0
v -5 -11 0
v -4 -11 0
v -9 -12 0
v -10 -12 0
v -10 -11 0
v -9 -11 0
v -10 -12 0
v -11 -12 0
v -11 -11 0
v -10 -11 0
v 0 -13 0
v -1 -13 0
v -1 -12 0
v 0 -12 0
v -1 -13 0
v -2 -13 0
v -2 -12 0
v -1 -12 0
v -2 -13 0
v -3 -13 0
v -3 -12 0
v -2 -12 0
v -3 -13 0
v -4 -13 0
v -4 -12 0
v -3 -12 0
v -6 -13 0
v -7 -13 0
v -7 -12 0
v -6 -12 0
v -10 -13 0
v -11 -13 0
v -11 -12 0
v -10 -12 0
v -11 -13 0
v -12 -13 0
v -12 -12 0
v -11 -12 0
v 0 -14 0
v -1 -14 0
v -1 -13 0
v 0 -13 0
v -1 -14 0
v -2 -14 0
v -2 -13 0
v -1 -13 0
v -2 -14 0
v -3 -14 0
v -3 -13 0
v -2 -13 0
v -3 -14 0
v -4 -14 0
v -4 -13 0
v -3 -13 0
v -4 -14 0
v -5 -14 0
v -5 -13 0
v -4 -13 0
v -11 -14 0
v -12 -14 0
v -12 -13 0
v -11 -13 0
v -12 -14 0
v -13 -14 0
v -13 -13 0
v -12 -13 0
v 0 -15 0
v -1 -15 0
v -1 -14 0
v 0 -14 0
v -1 -15 0
v -2 -15 0
v -2 -14 0
v -1 -14 0
v -2 -15 0
v -3 -15 0
v -3 -14 0
v -2 -14 0
v -3 -15 0
v -4 -15 0
v -4 -14 0
v -3 -14 0
v -4 -15 0
v -5 -15 0
v -5 -14 0
v -4 -14 0
v -12 -15 0
v -13 -15 0
v -13 -14 0
v -12 -14 0
v -13 -15 0
v -14 -15 0
v -14 -14 0
v -13 -14 0
v -14 -15 0
v -15 -15 0
v -15 -14 0
v -14 -14 0
v 0 -16 0
v -1 -16 0
v -1 -15 0
v 0 -15 0
v -1 -16 0
v -2 -16 0
v -2 -15 0
v -1 -15 0
v -2 -16 0
v -3 -16 0
v -3 -15 0
v -2 -15 0
v -3 -16 0
v -4 -16 0
v -4 -15 0
v -3 -15 0
v -5 -16 0
v -6 -16 0
v -6 -15 0
v -5 -15 0
v -14 -16 0
v -15 -16 0
v -15 -15 0
v -14 -15 0
v -15 -16 0
v -16 -16 0
v -16 -15 0
v -15 -15 0

# Texture cooridinates (Count = 63)
vt 0.05 0.5555556
vt 0.075 0.5555556
vt 0.075 0.5833334
vt 0.05 0.5833334
vt 0.125 0.5277778
vt 0.15 0.5277778
vt 0.15 0.5555556
vt 0.125 0.5555556
vt 0.175 0.5277778
vt 0.175 0.5555556
vt 0.125 0.5
vt 0.15 0.5
vt 0.175 0.5
vt 0.025 0.75
vt 0.05 0.75
vt 0.05 0.7777778
vt 0.025 0.7777778
vt 0.075 0.6666666
vt 0.1 0.6666666
vt 0.1 0.6944444
vt 0.075 0.6944444
vt 0.075 0.6388889
vt 0.1 0.6388889
vt 0.225 0.6666666
vt 0.25 0.6666666
vt 0.25 0.6944444
vt 0.225 0.6944444
vt 0.275 0.6666666
vt 0.275 0.6944444
vt 0.275 0.1944444
vt 0.3 0.1944444
vt 0.3 0.2222222
vt 0.275 0.2222222
vt 0.325 0.1944444
vt 0.325 0.2222222
vt 0.225 0.6388889
vt 0.25 0.6388889
vt 0.275 0.6388889
vt 0 0.75
vt 0 0.7777778
vt 0.175 0.8333333
vt 0.2 0.8333333
vt 0.2 0.8611111
vt 0.175 0.8611111
vt 0.275 0.5
vt 0.3 0.5
vt 0.3 0.5277778
vt 0.275 0.5277778
vt 0.3 0.3888889
vt 0.325 0.3888889
vt 0.325 0.4166667
vt 0.3 0.4166667
vt 0 0.5277778
vt 0.025 0.5277778
vt 0.025 0.5555556
vt 0 0.5555556
vt 0.05 0.5277778
vt 0.275 0.4722222
vt 0.3 0.4722222
vt 0.275 0.4444444
vt 0.3 0.4444444
vt 0.325 0.4444444
vt 0.325 0.4722222

# Normal
vn 0 0 -1

# Mesh description
g Map_mesh_0062

# Faces
f 1/1/1 2/2/1 3/3/1 4/4/1
f 5/1/1 6/2/1 7/3/1 8/4/1
f 9/1/1 10/2/1 11/3/1 12/4/1
f 13/1/1 14/2/1 15/3/1 16/4/1
f 17/1/1 18/2/1 19/3/1 20/4/1
f 21/1/1 22/2/1 23/3/1 24/4/1
f 25/1/1 26/2/1 27/3/1 28/4/1
f 29/1/1 30/2/1 31/3/1 32/4/1
f 33/1/1 34/2/1 35/3/1 36/4/1
f 37/1/1 38/2/1 39/3/1 40/4/1
f 41/1/1 42/2/1 43/3/1 44/4/1
f 45/5/1 46/6/1 47/7/1 48/8/1
f 49/6/1 50/9/1 51/10/1 52/7/1
f 53/5/1 54/6/1 55/7/1 56/8/1
f 57/6/1 58/9/1 59/10/1 60/7/1
f 61/5/1 62/6/1 63/7/1 64/8/1
f 65/6/1 66/9/1 67/10/1 68/7/1
f 69/5/1 70/6/1 71/7/1 72/8/1
f 73/6/1 74/9/1 75/10/1 76/7/1
f 77/5/1 78/6/1 79/7/1 80/8/1
f 81/6/1 82/9/1 83/10/1 84/7/1
f 85/11/1 86/12/1 87/6/1 88/5/1
f 89/12/1 90/13/1 91/9/1 92/6/1
f 93/11/1 94/12/1 95/6/1 96/5/1
f 97/12/1 98/13/1 99/9/1 100/6/1
f 101/11/1 102/12/1 103/6/1 104/5/1
f 105/12/1 106/13/1 107/9/1 108/6/1
f 109/11/1 110/12/1 111/6/1 112/5/1
f 113/12/1 114/13/1 115/9/1 116/6/1
f 117/11/1 118/12/1 119/6/1 120/5/1
f 121/12/1 122/13/1 123/9/1 124/6/1
f 125/5/1 126/6/1 127/7/1 128/8/1
f 129/6/1 130/9/1 131/10/1 132/7/1
f 133/5/1 134/6/1 135/7/1 136/8/1
f 137/6/1 138/9/1 139/10/1 140/7/1
f 141/5/1 142/6/1 143/7/1 144/8/1
f 145/6/1 146/9/1 147/10/1 148/7/1
f 149/5/1 150/6/1 151/7/1 152/8/1
f 153/6/1 154/9/1 155/10/1 156/7/1
f 157/14/1 158/15/1 159/16/1 160/17/1
f 161/11/1 162/12/1 163/6/1 164/5/1
f 165/12/1 166/13/1 167/9/1 168/6/1
f 169/11/1 170/12/1 171/6/1 172/5/1
f 173/12/1 174/13/1 175/9/1 176/6/1
f 177/11/1 178/12/1 179/6/1 180/5/1
f 181/12/1 182/13/1 183/9/1 184/6/1
f 185/11/1 186/12/1 187/6/1 188/5/1
f 189/12/1 190/13/1 191/9/1 192/6/1
f 193/5/1 194/6/1 195/7/1 196/8/1
f 197/6/1 198/9/1 199/10/1 200/7/1
f 201/5/1 202/6/1 203/7/1 204/8/1
f 205/6/1 206/9/1 207/10/1 208/7/1
f 209/18/1 210/19/1 211/20/1 212/21/1
f 213/22/1 214/23/1 215/19/1 216/18/1
f 217/24/1 218/25/1 219/26/1 220/27/1
f 221/25/1 222/28/1 223/29/1 224/26/1
f 225/30/1 226/31/1 227/32/1 228/33/1
f 229/31/1 230/34/1 231/35/1 232/32/1
f 233/11/1 234/12/1 235/6/1 236/5/1
f 237/12/1 238/13/1 239/9/1 240/6/1
f 241/11/1 242/12/1 243/6/1 244/5/1
f 245/12/1 246/13/1 247/9/1 248/6/1
f 249/18/1 250/19/1 251/20/1 252/21/1
f 253/14/1 254/15/1 255/16/1 256/17/1
f 257/36/1 258/37/1 259/25/1 260/24/1
f 261/37/1 262/38/1 263/28/1 264/25/1
f 265/22/1 266/23/1 267/19/1 268/18/1
f 269/5/1 270/6/1 271/7/1 272/8/1
f 273/6/1 274/9/1 275/10/1 276/7/1
f 277/5/1 278/6/1 279/7/1 280/8/1
f 281/6/1 282/9/1 283/10/1 284/7/1
f 285/39/1 286/14/1 287/17/1 288/40/1
f 289/41/1 290/42/1 291/43/1 292/44/1
f 293/45/1 294/46/1 295/47/1 296/48/1
f 297/49/1 298/50/1 299/51/1 300/52/1
f 301/53/1 302/54/1 303/55/1 304/56/1
f 305/54/1 306/57/1 307/1/1 308/55/1
f 309/18/1 310/19/1 311/20/1 312/21/1
f 313/11/1 314/12/1 315/6/1 316/5/1
f 317/12/1 318/13/1 319/9/1 320/6/1
f 321/11/1 322/12/1 323/6/1 324/5/1
f 325/12/1 326/13/1 327/9/1 328/6/1
f 329/18/1 330/19/1 331/20/1 332/21/1
f 333/14/1 334/15/1 335/16/1 336/17/1
f 337/58/1 338/59/1 339/46/1 340/45/1
f 341/5/1 342/6/1 343/7/1 344/8/1
f 345/6/1 346/9/1 347/10/1 348/7/1
f 349/5/1 350/6/1 351/7/1 352/8/1
f 353/6/1 354/9/1 355/10/1 356/7/1
f 357/58/1 358/59/1 359/46/1 360/45/1
f 361/11/1 362/12/1 363/6/1 364/5/1
f 365/12/1 366/13/1 367/9/1 368/6/1
f 369/11/1 370/12/1 371/6/1 372/5/1
f 373/12/1 374/13/1 375/9/1 376/6/1
f 377/18/1 378/19/1 379/20/1 380/21/1
f 381/60/1 382/61/1 383/59/1 384/58/1
f 385/52/1 386/51/1 387/62/1 388/61/1
f 389/5/1 390/6/1 391/7/1 392/8/1
f 393/6/1 394/9/1 395/10/1 396/7/1
f 397/5/1 398/6/1 399/7/1 400/8/1
f 401/6/1 402/9/1 403/10/1 404/7/1
f 405/22/1 406/23/1 407/19/1 408/18/1
f 409/60/1 410/61/1 411/59/1 412/58/1
f 413/52/1 414/51/1 415/62/1 416/61/1
f 417/11/1 418/12/1 419/6/1 420/5/1
f 421/12/1 422/13/1 423/9/1 424/6/1
f 425/11/1 426/12/1 427/6/1 428/5/1
f 429/12/1 430/13/1 431/9/1 432/6/1
f 433/14/1 434/15/1 435/16/1 436/17/1
f 437/60/1 438/61/1 439/59/1 440/58/1
f 441/52/1 442/51/1 443/62/1 444/61/1
f 445/5/1 446/6/1 447/7/1 448/8/1
f 449/6/1 450/9/1 451/10/1 452/7/1
f 453/5/1 454/6/1 455/7/1 456/8/1
f 457/6/1 458/9/1 459/10/1 460/7/1
f 461/22/1 462/23/1 463/19/1 464/18/1
f 465/60/1 466/61/1 467/59/1 468/58/1
f 469/52/1 470/51/1 471/62/1 472/61/1
f 473/11/1 474/12/1 475/6/1 476/5/1
f 477/12/1 478/13/1 479/9/1 480/6/1
f 481/11/1 482/12/1 483/6/1 484/5/1
f 485/12/1 486/13/1 487/9/1 488/6/1
f 489/18/1 490/19/1 491/20/1 492/21/1
f 493/60/1 494/61/1 495/59/1 496/58/1
f 497/61/1 498/62/1 499/63/1 500/59/1
f 501/52/1 502/51/1 503/62/1 504/61/1
f 505/5/1 506/6/1 507/7/1 508/8/1
f 509/6/1 510/9/1 511/10/1 512/7/1
f 513/5/1 514/6/1 515/7/1 516/8/1
f 517/6/1 518/9/1 519/10/1 520/7/1
f 521/22/1 522/23/1 523/19/1 524/18/1
f 525/60/1 526/61/1 527/59/1 528/58/1
f 529/61/1 530/62/1 531/63/1 532/59/1

