# Tiled2Unity generated file. Do not modify by hand.
# Wavefront file for 'Map_mesh_0038.obj'

# Vertices (Count = 60)
v 0 -2 0
v -1 -2 0
v -1 -1 0
v 0 -1 0
v -1 -2 0
v -2 -2 0
v -2 -1 0
v -1 -1 0
v -2 -2 0
v -3 -2 0
v -3 -1 0
v -2 -1 0
v -3 -2 0
v -4 -2 0
v -4 -1 0
v -3 -1 0
v -14 -4 0
v -15 -4 0
v -15 -3 0
v -14 -3 0
v -15 -4 0
v -16 -4 0
v -16 -3 0
v -15 -3 0
v -1 -10 0
v -2 -10 0
v -2 -9 0
v -1 -9 0
v -2 -10 0
v -3 -10 0
v -3 -9 0
v -2 -9 0
v -3 -10 0
v -4 -10 0
v -4 -9 0
v -3 -9 0
v -1 -11 0
v -2 -11 0
v -2 -10 0
v -1 -10 0
v -2 -11 0
v -3 -11 0
v -3 -10 0
v -2 -10 0
v -3 -11 0
v -4 -11 0
v -4 -10 0
v -3 -10 0
v -1 -12 0
v -2 -12 0
v -2 -11 0
v -1 -11 0
v -2 -12 0
v -3 -12 0
v -3 -11 0
v -2 -11 0
v -3 -12 0
v -4 -12 0
v -4 -11 0
v -3 -11 0

# Texture cooridinates (Count = 26)
vt 0 0.5277778
vt 0.025 0.5277778
vt 0.025 0.5555556
vt 0 0.5555556
vt 0.05 0.6111111
vt 0.075 0.6111111
vt 0.075 0.6388889
vt 0.05 0.6388889
vt 0.05 0.5277778
vt 0.05 0.5555556
vt 0.35 0.25
vt 0.325 0.25
vt 0.325 0.2222222
vt 0.35 0.2222222
vt 0.3 0.25
vt 0.3 0.2222222
vt 0.275 0.25
vt 0.275 0.2222222
vt 0.35 0.2777778
vt 0.325 0.2777778
vt 0.3 0.2777778
vt 0.275 0.2777778
vt 0.35 0.3055556
vt 0.325 0.3055556
vt 0.3 0.3055556
vt 0.275 0.3055556

# Normal
vn 0 0 -1

# Mesh description
g Map_mesh_0038

# Faces
f 1/1/1 2/2/1 3/3/1 4/4/1
f 5/5/1 6/6/1 7/7/1 8/8/1
f 9/5/1 10/6/1 11/7/1 12/8/1
f 13/2/1 14/9/1 15/10/1 16/3/1
f 17/1/1 18/2/1 19/3/1 20/4/1
f 21/2/1 22/9/1 23/10/1 24/3/1
f 25/11/1 26/12/1 27/13/1 28/14/1
f 29/12/1 30/15/1 31/16/1 32/13/1
f 33/15/1 34/17/1 35/18/1 36/16/1
f 37/19/1 38/20/1 39/12/1 40/11/1
f 41/20/1 42/21/1 43/15/1 44/12/1
f 45/21/1 46/22/1 47/17/1 48/15/1
f 49/23/1 50/24/1 51/20/1 52/19/1
f 53/24/1 54/25/1 55/21/1 56/20/1
f 57/25/1 58/26/1 59/22/1 60/21/1

