# Tiled2Unity generated file. Do not modify by hand.
# Wavefront file for 'Map_mesh_0079.obj'

# Vertices (Count = 896)
v -2 -1 0
v -3 -1 0
v -3 0 0
v -2 0 0
v -3 -1 0
v -4 -1 0
v -4 0 0
v -3 0 0
v -4 -1 0
v -5 -1 0
v -5 0 0
v -4 0 0
v -5 -1 0
v -6 -1 0
v -6 0 0
v -5 0 0
v -6 -1 0
v -7 -1 0
v -7 0 0
v -6 0 0
v -7 -1 0
v -8 -1 0
v -8 0 0
v -7 0 0
v -8 -1 0
v -9 -1 0
v -9 0 0
v -8 0 0
v -9 -1 0
v -10 -1 0
v -10 0 0
v -9 0 0
v -10 -1 0
v -11 -1 0
v -11 0 0
v -10 0 0
v -11 -1 0
v -12 -1 0
v -12 0 0
v -11 0 0
v -12 -1 0
v -13 -1 0
v -13 0 0
v -12 0 0
v -13 -1 0
v -14 -1 0
v -14 0 0
v -13 0 0
v -14 -1 0
v -15 -1 0
v -15 0 0
v -14 0 0
v -15 -1 0
v -16 -1 0
v -16 0 0
v -15 0 0
v -2 -2 0
v -3 -2 0
v -3 -1 0
v -2 -1 0
v -3 -2 0
v -4 -2 0
v -4 -1 0
v -3 -1 0
v -4 -2 0
v -5 -2 0
v -5 -1 0
v -4 -1 0
v -5 -2 0
v -6 -2 0
v -6 -1 0
v -5 -1 0
v -6 -2 0
v -7 -2 0
v -7 -1 0
v -6 -1 0
v -7 -2 0
v -8 -2 0
v -8 -1 0
v -7 -1 0
v -8 -2 0
v -9 -2 0
v -9 -1 0
v -8 -1 0
v -9 -2 0
v -10 -2 0
v -10 -1 0
v -9 -1 0
v -10 -2 0
v -11 -2 0
v -11 -1 0
v -10 -1 0
v -11 -2 0
v -12 -2 0
v -12 -1 0
v -11 -1 0
v -12 -2 0
v -13 -2 0
v -13 -1 0
v -12 -1 0
v -13 -2 0
v -14 -2 0
v -14 -1 0
v -13 -1 0
v -14 -2 0
v -15 -2 0
v -15 -1 0
v -14 -1 0
v -15 -2 0
v -16 -2 0
v -16 -1 0
v -15 -1 0
v -2 -3 0
v -3 -3 0
v -3 -2 0
v -2 -2 0
v -3 -3 0
v -4 -3 0
v -4 -2 0
v -3 -2 0
v -4 -3 0
v -5 -3 0
v -5 -2 0
v -4 -2 0
v -5 -3 0
v -6 -3 0
v -6 -2 0
v -5 -2 0
v -6 -3 0
v -7 -3 0
v -7 -2 0
v -6 -2 0
v -7 -3 0
v -8 -3 0
v -8 -2 0
v -7 -2 0
v -8 -3 0
v -9 -3 0
v -9 -2 0
v -8 -2 0
v -9 -3 0
v -10 -3 0
v -10 -2 0
v -9 -2 0
v -10 -3 0
v -11 -3 0
v -11 -2 0
v -10 -2 0
v -11 -3 0
v -12 -3 0
v -12 -2 0
v -11 -2 0
v -12 -3 0
v -13 -3 0
v -13 -2 0
v -12 -2 0
v -13 -3 0
v -14 -3 0
v -14 -2 0
v -13 -2 0
v -14 -3 0
v -15 -3 0
v -15 -2 0
v -14 -2 0
v -15 -3 0
v -16 -3 0
v -16 -2 0
v -15 -2 0
v -2 -4 0
v -3 -4 0
v -3 -3 0
v -2 -3 0
v -3 -4 0
v -4 -4 0
v -4 -3 0
v -3 -3 0
v -4 -4 0
v -5 -4 0
v -5 -3 0
v -4 -3 0
v -5 -4 0
v -6 -4 0
v -6 -3 0
v -5 -3 0
v -6 -4 0
v -7 -4 0
v -7 -3 0
v -6 -3 0
v -7 -4 0
v -8 -4 0
v -8 -3 0
v -7 -3 0
v -8 -4 0
v -9 -4 0
v -9 -3 0
v -8 -3 0
v -9 -4 0
v -10 -4 0
v -10 -3 0
v -9 -3 0
v -10 -4 0
v -11 -4 0
v -11 -3 0
v -10 -3 0
v -11 -4 0
v -12 -4 0
v -12 -3 0
v -11 -3 0
v -12 -4 0
v -13 -4 0
v -13 -3 0
v -12 -3 0
v -13 -4 0
v -14 -4 0
v -14 -3 0
v -13 -3 0
v -14 -4 0
v -15 -4 0
v -15 -3 0
v -14 -3 0
v -15 -4 0
v -16 -4 0
v -16 -3 0
v -15 -3 0
v -2 -5 0
v -3 -5 0
v -3 -4 0
v -2 -4 0
v -3 -5 0
v -4 -5 0
v -4 -4 0
v -3 -4 0
v -4 -5 0
v -5 -5 0
v -5 -4 0
v -4 -4 0
v -5 -5 0
v -6 -5 0
v -6 -4 0
v -5 -4 0
v -6 -5 0
v -7 -5 0
v -7 -4 0
v -6 -4 0
v -7 -5 0
v -8 -5 0
v -8 -4 0
v -7 -4 0
v -8 -5 0
v -9 -5 0
v -9 -4 0
v -8 -4 0
v -9 -5 0
v -10 -5 0
v -10 -4 0
v -9 -4 0
v -10 -5 0
v -11 -5 0
v -11 -4 0
v -10 -4 0
v -11 -5 0
v -12 -5 0
v -12 -4 0
v -11 -4 0
v -12 -5 0
v -13 -5 0
v -13 -4 0
v -12 -4 0
v -13 -5 0
v -14 -5 0
v -14 -4 0
v -13 -4 0
v -14 -5 0
v -15 -5 0
v -15 -4 0
v -14 -4 0
v -15 -5 0
v -16 -5 0
v -16 -4 0
v -15 -4 0
v -2 -6 0
v -3 -6 0
v -3 -5 0
v -2 -5 0
v -3 -6 0
v -4 -6 0
v -4 -5 0
v -3 -5 0
v -4 -6 0
v -5 -6 0
v -5 -5 0
v -4 -5 0
v -5 -6 0
v -6 -6 0
v -6 -5 0
v -5 -5 0
v -6 -6 0
v -7 -6 0
v -7 -5 0
v -6 -5 0
v -7 -6 0
v -8 -6 0
v -8 -5 0
v -7 -5 0
v -8 -6 0
v -9 -6 0
v -9 -5 0
v -8 -5 0
v -9 -6 0
v -10 -6 0
v -10 -5 0
v -9 -5 0
v -10 -6 0
v -11 -6 0
v -11 -5 0
v -10 -5 0
v -11 -6 0
v -12 -6 0
v -12 -5 0
v -11 -5 0
v -12 -6 0
v -13 -6 0
v -13 -5 0
v -12 -5 0
v -13 -6 0
v -14 -6 0
v -14 -5 0
v -13 -5 0
v -14 -6 0
v -15 -6 0
v -15 -5 0
v -14 -5 0
v -15 -6 0
v -16 -6 0
v -16 -5 0
v -15 -5 0
v -2 -7 0
v -3 -7 0
v -3 -6 0
v -2 -6 0
v -3 -7 0
v -4 -7 0
v -4 -6 0
v -3 -6 0
v -4 -7 0
v -5 -7 0
v -5 -6 0
v -4 -6 0
v -5 -7 0
v -6 -7 0
v -6 -6 0
v -5 -6 0
v -6 -7 0
v -7 -7 0
v -7 -6 0
v -6 -6 0
v -7 -7 0
v -8 -7 0
v -8 -6 0
v -7 -6 0
v -8 -7 0
v -9 -7 0
v -9 -6 0
v -8 -6 0
v -9 -7 0
v -10 -7 0
v -10 -6 0
v -9 -6 0
v -10 -7 0
v -11 -7 0
v -11 -6 0
v -10 -6 0
v -11 -7 0
v -12 -7 0
v -12 -6 0
v -11 -6 0
v -12 -7 0
v -13 -7 0
v -13 -6 0
v -12 -6 0
v -13 -7 0
v -14 -7 0
v -14 -6 0
v -13 -6 0
v -14 -7 0
v -15 -7 0
v -15 -6 0
v -14 -6 0
v -15 -7 0
v -16 -7 0
v -16 -6 0
v -15 -6 0
v -2 -8 0
v -3 -8 0
v -3 -7 0
v -2 -7 0
v -3 -8 0
v -4 -8 0
v -4 -7 0
v -3 -7 0
v -4 -8 0
v -5 -8 0
v -5 -7 0
v -4 -7 0
v -5 -8 0
v -6 -8 0
v -6 -7 0
v -5 -7 0
v -6 -8 0
v -7 -8 0
v -7 -7 0
v -6 -7 0
v -7 -8 0
v -8 -8 0
v -8 -7 0
v -7 -7 0
v -8 -8 0
v -9 -8 0
v -9 -7 0
v -8 -7 0
v -9 -8 0
v -10 -8 0
v -10 -7 0
v -9 -7 0
v -10 -8 0
v -11 -8 0
v -11 -7 0
v -10 -7 0
v -11 -8 0
v -12 -8 0
v -12 -7 0
v -11 -7 0
v -12 -8 0
v -13 -8 0
v -13 -7 0
v -12 -7 0
v -13 -8 0
v -14 -8 0
v -14 -7 0
v -13 -7 0
v -14 -8 0
v -15 -8 0
v -15 -7 0
v -14 -7 0
v -15 -8 0
v -16 -8 0
v -16 -7 0
v -15 -7 0
v -2 -9 0
v -3 -9 0
v -3 -8 0
v -2 -8 0
v -3 -9 0
v -4 -9 0
v -4 -8 0
v -3 -8 0
v -4 -9 0
v -5 -9 0
v -5 -8 0
v -4 -8 0
v -5 -9 0
v -6 -9 0
v -6 -8 0
v -5 -8 0
v -6 -9 0
v -7 -9 0
v -7 -8 0
v -6 -8 0
v -7 -9 0
v -8 -9 0
v -8 -8 0
v -7 -8 0
v -8 -9 0
v -9 -9 0
v -9 -8 0
v -8 -8 0
v -9 -9 0
v -10 -9 0
v -10 -8 0
v -9 -8 0
v -10 -9 0
v -11 -9 0
v -11 -8 0
v -10 -8 0
v -11 -9 0
v -12 -9 0
v -12 -8 0
v -11 -8 0
v -12 -9 0
v -13 -9 0
v -13 -8 0
v -12 -8 0
v -13 -9 0
v -14 -9 0
v -14 -8 0
v -13 -8 0
v -14 -9 0
v -15 -9 0
v -15 -8 0
v -14 -8 0
v -15 -9 0
v -16 -9 0
v -16 -8 0
v -15 -8 0
v -2 -10 0
v -3 -10 0
v -3 -9 0
v -2 -9 0
v -3 -10 0
v -4 -10 0
v -4 -9 0
v -3 -9 0
v -4 -10 0
v -5 -10 0
v -5 -9 0
v -4 -9 0
v -5 -10 0
v -6 -10 0
v -6 -9 0
v -5 -9 0
v -6 -10 0
v -7 -10 0
v -7 -9 0
v -6 -9 0
v -7 -10 0
v -8 -10 0
v -8 -9 0
v -7 -9 0
v -8 -10 0
v -9 -10 0
v -9 -9 0
v -8 -9 0
v -9 -10 0
v -10 -10 0
v -10 -9 0
v -9 -9 0
v -10 -10 0
v -11 -10 0
v -11 -9 0
v -10 -9 0
v -11 -10 0
v -12 -10 0
v -12 -9 0
v -11 -9 0
v -12 -10 0
v -13 -10 0
v -13 -9 0
v -12 -9 0
v -13 -10 0
v -14 -10 0
v -14 -9 0
v -13 -9 0
v -14 -10 0
v -15 -10 0
v -15 -9 0
v -14 -9 0
v -15 -10 0
v -16 -10 0
v -16 -9 0
v -15 -9 0
v -2 -11 0
v -3 -11 0
v -3 -10 0
v -2 -10 0
v -3 -11 0
v -4 -11 0
v -4 -10 0
v -3 -10 0
v -4 -11 0
v -5 -11 0
v -5 -10 0
v -4 -10 0
v -5 -11 0
v -6 -11 0
v -6 -10 0
v -5 -10 0
v -6 -11 0
v -7 -11 0
v -7 -10 0
v -6 -10 0
v -7 -11 0
v -8 -11 0
v -8 -10 0
v -7 -10 0
v -8 -11 0
v -9 -11 0
v -9 -10 0
v -8 -10 0
v -9 -11 0
v -10 -11 0
v -10 -10 0
v -9 -10 0
v -10 -11 0
v -11 -11 0
v -11 -10 0
v -10 -10 0
v -11 -11 0
v -12 -11 0
v -12 -10 0
v -11 -10 0
v -12 -11 0
v -13 -11 0
v -13 -10 0
v -12 -10 0
v -13 -11 0
v -14 -11 0
v -14 -10 0
v -13 -10 0
v -14 -11 0
v -15 -11 0
v -15 -10 0
v -14 -10 0
v -15 -11 0
v -16 -11 0
v -16 -10 0
v -15 -10 0
v -2 -12 0
v -3 -12 0
v -3 -11 0
v -2 -11 0
v -3 -12 0
v -4 -12 0
v -4 -11 0
v -3 -11 0
v -4 -12 0
v -5 -12 0
v -5 -11 0
v -4 -11 0
v -5 -12 0
v -6 -12 0
v -6 -11 0
v -5 -11 0
v -6 -12 0
v -7 -12 0
v -7 -11 0
v -6 -11 0
v -7 -12 0
v -8 -12 0
v -8 -11 0
v -7 -11 0
v -8 -12 0
v -9 -12 0
v -9 -11 0
v -8 -11 0
v -9 -12 0
v -10 -12 0
v -10 -11 0
v -9 -11 0
v -10 -12 0
v -11 -12 0
v -11 -11 0
v -10 -11 0
v -11 -12 0
v -12 -12 0
v -12 -11 0
v -11 -11 0
v -12 -12 0
v -13 -12 0
v -13 -11 0
v -12 -11 0
v -13 -12 0
v -14 -12 0
v -14 -11 0
v -13 -11 0
v -14 -12 0
v -15 -12 0
v -15 -11 0
v -14 -11 0
v -15 -12 0
v -16 -12 0
v -16 -11 0
v -15 -11 0
v -2 -13 0
v -3 -13 0
v -3 -12 0
v -2 -12 0
v -3 -13 0
v -4 -13 0
v -4 -12 0
v -3 -12 0
v -4 -13 0
v -5 -13 0
v -5 -12 0
v -4 -12 0
v -5 -13 0
v -6 -13 0
v -6 -12 0
v -5 -12 0
v -6 -13 0
v -7 -13 0
v -7 -12 0
v -6 -12 0
v -7 -13 0
v -8 -13 0
v -8 -12 0
v -7 -12 0
v -8 -13 0
v -9 -13 0
v -9 -12 0
v -8 -12 0
v -9 -13 0
v -10 -13 0
v -10 -12 0
v -9 -12 0
v -10 -13 0
v -11 -13 0
v -11 -12 0
v -10 -12 0
v -11 -13 0
v -12 -13 0
v -12 -12 0
v -11 -12 0
v -12 -13 0
v -13 -13 0
v -13 -12 0
v -12 -12 0
v -13 -13 0
v -14 -13 0
v -14 -12 0
v -13 -12 0
v -14 -13 0
v -15 -13 0
v -15 -12 0
v -14 -12 0
v -15 -13 0
v -16 -13 0
v -16 -12 0
v -15 -12 0
v -2 -14 0
v -3 -14 0
v -3 -13 0
v -2 -13 0
v -3 -14 0
v -4 -14 0
v -4 -13 0
v -3 -13 0
v -4 -14 0
v -5 -14 0
v -5 -13 0
v -4 -13 0
v -5 -14 0
v -6 -14 0
v -6 -13 0
v -5 -13 0
v -6 -14 0
v -7 -14 0
v -7 -13 0
v -6 -13 0
v -7 -14 0
v -8 -14 0
v -8 -13 0
v -7 -13 0
v -8 -14 0
v -9 -14 0
v -9 -13 0
v -8 -13 0
v -9 -14 0
v -10 -14 0
v -10 -13 0
v -9 -13 0
v -10 -14 0
v -11 -14 0
v -11 -13 0
v -10 -13 0
v -11 -14 0
v -12 -14 0
v -12 -13 0
v -11 -13 0
v -12 -14 0
v -13 -14 0
v -13 -13 0
v -12 -13 0
v -13 -14 0
v -14 -14 0
v -14 -13 0
v -13 -13 0
v -14 -14 0
v -15 -14 0
v -15 -13 0
v -14 -13 0
v -15 -14 0
v -16 -14 0
v -16 -13 0
v -15 -13 0
v -2 -15 0
v -3 -15 0
v -3 -14 0
v -2 -14 0
v -3 -15 0
v -4 -15 0
v -4 -14 0
v -3 -14 0
v -4 -15 0
v -5 -15 0
v -5 -14 0
v -4 -14 0
v -5 -15 0
v -6 -15 0
v -6 -14 0
v -5 -14 0
v -6 -15 0
v -7 -15 0
v -7 -14 0
v -6 -14 0
v -7 -15 0
v -8 -15 0
v -8 -14 0
v -7 -14 0
v -8 -15 0
v -9 -15 0
v -9 -14 0
v -8 -14 0
v -9 -15 0
v -10 -15 0
v -10 -14 0
v -9 -14 0
v -10 -15 0
v -11 -15 0
v -11 -14 0
v -10 -14 0
v -11 -15 0
v -12 -15 0
v -12 -14 0
v -11 -14 0
v -12 -15 0
v -13 -15 0
v -13 -14 0
v -12 -14 0
v -13 -15 0
v -14 -15 0
v -14 -14 0
v -13 -14 0
v -14 -15 0
v -15 -15 0
v -15 -14 0
v -14 -14 0
v -15 -15 0
v -16 -15 0
v -16 -14 0
v -15 -14 0
v -2 -16 0
v -3 -16 0
v -3 -15 0
v -2 -15 0
v -3 -16 0
v -4 -16 0
v -4 -15 0
v -3 -15 0
v -4 -16 0
v -5 -16 0
v -5 -15 0
v -4 -15 0
v -5 -16 0
v -6 -16 0
v -6 -15 0
v -5 -15 0
v -6 -16 0
v -7 -16 0
v -7 -15 0
v -6 -15 0
v -7 -16 0
v -8 -16 0
v -8 -15 0
v -7 -15 0
v -8 -16 0
v -9 -16 0
v -9 -15 0
v -8 -15 0
v -9 -16 0
v -10 -16 0
v -10 -15 0
v -9 -15 0
v -10 -16 0
v -11 -16 0
v -11 -15 0
v -10 -15 0
v -11 -16 0
v -12 -16 0
v -12 -15 0
v -11 -15 0
v -12 -16 0
v -13 -16 0
v -13 -15 0
v -12 -15 0
v -13 -16 0
v -14 -16 0
v -14 -15 0
v -13 -15 0
v -14 -16 0
v -15 -16 0
v -15 -15 0
v -14 -15 0
v -15 -16 0
v -16 -16 0
v -16 -15 0
v -15 -15 0

# Texture cooridinates (Count = 13)
vt 0.15 0.4722222
vt 0.175 0.4722222
vt 0.175 0.5
vt 0.15 0.5
vt 0.2 0.4722222
vt 0.2 0.5
vt 0.125 0.5277778
vt 0.15 0.5277778
vt 0.15 0.5555556
vt 0.125 0.5555556
vt 0.175 0.5277778
vt 0.175 0.5555556
vt 0.125 0.5

# Normal
vn 0 0 -1

# Mesh description
g Map_mesh_0079

# Faces
f 1/1/1 2/2/1 3/3/1 4/4/1
f 5/2/1 6/5/1 7/6/1 8/3/1
f 9/7/1 10/8/1 11/9/1 12/10/1
f 13/8/1 14/11/1 15/12/1 16/9/1
f 17/7/1 18/8/1 19/9/1 20/10/1
f 21/8/1 22/11/1 23/12/1 24/9/1
f 25/7/1 26/8/1 27/9/1 28/10/1
f 29/8/1 30/11/1 31/12/1 32/9/1
f 33/7/1 34/8/1 35/9/1 36/10/1
f 37/8/1 38/11/1 39/12/1 40/9/1
f 41/7/1 42/8/1 43/9/1 44/10/1
f 45/8/1 46/11/1 47/12/1 48/9/1
f 49/7/1 50/8/1 51/9/1 52/10/1
f 53/8/1 54/11/1 55/12/1 56/9/1
f 57/1/1 58/2/1 59/3/1 60/4/1
f 61/2/1 62/5/1 63/6/1 64/3/1
f 65/13/1 66/4/1 67/8/1 68/7/1
f 69/4/1 70/3/1 71/11/1 72/8/1
f 73/13/1 74/4/1 75/8/1 76/7/1
f 77/4/1 78/3/1 79/11/1 80/8/1
f 81/13/1 82/4/1 83/8/1 84/7/1
f 85/4/1 86/3/1 87/11/1 88/8/1
f 89/13/1 90/4/1 91/8/1 92/7/1
f 93/4/1 94/3/1 95/11/1 96/8/1
f 97/13/1 98/4/1 99/8/1 100/7/1
f 101/4/1 102/3/1 103/11/1 104/8/1
f 105/13/1 106/4/1 107/8/1 108/7/1
f 109/4/1 110/3/1 111/11/1 112/8/1
f 113/1/1 114/2/1 115/3/1 116/4/1
f 117/2/1 118/5/1 119/6/1 120/3/1
f 121/7/1 122/8/1 123/9/1 124/10/1
f 125/8/1 126/11/1 127/12/1 128/9/1
f 129/7/1 130/8/1 131/9/1 132/10/1
f 133/8/1 134/11/1 135/12/1 136/9/1
f 137/7/1 138/8/1 139/9/1 140/10/1
f 141/8/1 142/11/1 143/12/1 144/9/1
f 145/7/1 146/8/1 147/9/1 148/10/1
f 149/8/1 150/11/1 151/12/1 152/9/1
f 153/7/1 154/8/1 155/9/1 156/10/1
f 157/8/1 158/11/1 159/12/1 160/9/1
f 161/7/1 162/8/1 163/9/1 164/10/1
f 165/8/1 166/11/1 167/12/1 168/9/1
f 169/1/1 170/2/1 171/3/1 172/4/1
f 173/2/1 174/5/1 175/6/1 176/3/1
f 177/13/1 178/4/1 179/8/1 180/7/1
f 181/4/1 182/3/1 183/11/1 184/8/1
f 185/13/1 186/4/1 187/8/1 188/7/1
f 189/4/1 190/3/1 191/11/1 192/8/1
f 193/13/1 194/4/1 195/8/1 196/7/1
f 197/4/1 198/3/1 199/11/1 200/8/1
f 201/13/1 202/4/1 203/8/1 204/7/1
f 205/4/1 206/3/1 207/11/1 208/8/1
f 209/13/1 210/4/1 211/8/1 212/7/1
f 213/4/1 214/3/1 215/11/1 216/8/1
f 217/13/1 218/4/1 219/8/1 220/7/1
f 221/4/1 222/3/1 223/11/1 224/8/1
f 225/1/1 226/2/1 227/3/1 228/4/1
f 229/2/1 230/5/1 231/6/1 232/3/1
f 233/7/1 234/8/1 235/9/1 236/10/1
f 237/8/1 238/11/1 239/12/1 240/9/1
f 241/7/1 242/8/1 243/9/1 244/10/1
f 245/8/1 246/11/1 247/12/1 248/9/1
f 249/7/1 250/8/1 251/9/1 252/10/1
f 253/8/1 254/11/1 255/12/1 256/9/1
f 257/7/1 258/8/1 259/9/1 260/10/1
f 261/8/1 262/11/1 263/12/1 264/9/1
f 265/7/1 266/8/1 267/9/1 268/10/1
f 269/8/1 270/11/1 271/12/1 272/9/1
f 273/7/1 274/8/1 275/9/1 276/10/1
f 277/8/1 278/11/1 279/12/1 280/9/1
f 281/1/1 282/2/1 283/3/1 284/4/1
f 285/2/1 286/5/1 287/6/1 288/3/1
f 289/13/1 290/4/1 291/8/1 292/7/1
f 293/4/1 294/3/1 295/11/1 296/8/1
f 297/13/1 298/4/1 299/8/1 300/7/1
f 301/4/1 302/3/1 303/11/1 304/8/1
f 305/13/1 306/4/1 307/8/1 308/7/1
f 309/4/1 310/3/1 311/11/1 312/8/1
f 313/13/1 314/4/1 315/8/1 316/7/1
f 317/4/1 318/3/1 319/11/1 320/8/1
f 321/13/1 322/4/1 323/8/1 324/7/1
f 325/4/1 326/3/1 327/11/1 328/8/1
f 329/13/1 330/4/1 331/8/1 332/7/1
f 333/4/1 334/3/1 335/11/1 336/8/1
f 337/1/1 338/2/1 339/3/1 340/4/1
f 341/2/1 342/5/1 343/6/1 344/3/1
f 345/7/1 346/8/1 347/9/1 348/10/1
f 349/8/1 350/11/1 351/12/1 352/9/1
f 353/7/1 354/8/1 355/9/1 356/10/1
f 357/8/1 358/11/1 359/12/1 360/9/1
f 361/7/1 362/8/1 363/9/1 364/10/1
f 365/8/1 366/11/1 367/12/1 368/9/1
f 369/7/1 370/8/1 371/9/1 372/10/1
f 373/8/1 374/11/1 375/12/1 376/9/1
f 377/7/1 378/8/1 379/9/1 380/10/1
f 381/8/1 382/11/1 383/12/1 384/9/1
f 385/7/1 386/8/1 387/9/1 388/10/1
f 389/8/1 390/11/1 391/12/1 392/9/1
f 393/1/1 394/2/1 395/3/1 396/4/1
f 397/2/1 398/5/1 399/6/1 400/3/1
f 401/13/1 402/4/1 403/8/1 404/7/1
f 405/4/1 406/3/1 407/11/1 408/8/1
f 409/13/1 410/4/1 411/8/1 412/7/1
f 413/4/1 414/3/1 415/11/1 416/8/1
f 417/13/1 418/4/1 419/8/1 420/7/1
f 421/4/1 422/3/1 423/11/1 424/8/1
f 425/13/1 426/4/1 427/8/1 428/7/1
f 429/4/1 430/3/1 431/11/1 432/8/1
f 433/13/1 434/4/1 435/8/1 436/7/1
f 437/4/1 438/3/1 439/11/1 440/8/1
f 441/13/1 442/4/1 443/8/1 444/7/1
f 445/4/1 446/3/1 447/11/1 448/8/1
f 449/1/1 450/2/1 451/3/1 452/4/1
f 453/2/1 454/5/1 455/6/1 456/3/1
f 457/7/1 458/8/1 459/9/1 460/10/1
f 461/8/1 462/11/1 463/12/1 464/9/1
f 465/7/1 466/8/1 467/9/1 468/10/1
f 469/8/1 470/11/1 471/12/1 472/9/1
f 473/7/1 474/8/1 475/9/1 476/10/1
f 477/8/1 478/11/1 479/12/1 480/9/1
f 481/7/1 482/8/1 483/9/1 484/10/1
f 485/8/1 486/11/1 487/12/1 488/9/1
f 489/7/1 490/8/1 491/9/1 492/10/1
f 493/8/1 494/11/1 495/12/1 496/9/1
f 497/7/1 498/8/1 499/9/1 500/10/1
f 501/8/1 502/11/1 503/12/1 504/9/1
f 505/1/1 506/2/1 507/3/1 508/4/1
f 509/2/1 510/5/1 511/6/1 512/3/1
f 513/13/1 514/4/1 515/8/1 516/7/1
f 517/4/1 518/3/1 519/11/1 520/8/1
f 521/13/1 522/4/1 523/8/1 524/7/1
f 525/4/1 526/3/1 527/11/1 528/8/1
f 529/13/1 530/4/1 531/8/1 532/7/1
f 533/4/1 534/3/1 535/11/1 536/8/1
f 537/13/1 538/4/1 539/8/1 540/7/1
f 541/4/1 542/3/1 543/11/1 544/8/1
f 545/13/1 546/4/1 547/8/1 548/7/1
f 549/4/1 550/3/1 551/11/1 552/8/1
f 553/13/1 554/4/1 555/8/1 556/7/1
f 557/4/1 558/3/1 559/11/1 560/8/1
f 561/1/1 562/2/1 563/3/1 564/4/1
f 565/2/1 566/5/1 567/6/1 568/3/1
f 569/7/1 570/8/1 571/9/1 572/10/1
f 573/8/1 574/11/1 575/12/1 576/9/1
f 577/7/1 578/8/1 579/9/1 580/10/1
f 581/8/1 582/11/1 583/12/1 584/9/1
f 585/7/1 586/8/1 587/9/1 588/10/1
f 589/8/1 590/11/1 591/12/1 592/9/1
f 593/7/1 594/8/1 595/9/1 596/10/1
f 597/8/1 598/11/1 599/12/1 600/9/1
f 601/7/1 602/8/1 603/9/1 604/10/1
f 605/8/1 606/11/1 607/12/1 608/9/1
f 609/7/1 610/8/1 611/9/1 612/10/1
f 613/8/1 614/11/1 615/12/1 616/9/1
f 617/1/1 618/2/1 619/3/1 620/4/1
f 621/2/1 622/5/1 623/6/1 624/3/1
f 625/13/1 626/4/1 627/8/1 628/7/1
f 629/4/1 630/3/1 631/11/1 632/8/1
f 633/13/1 634/4/1 635/8/1 636/7/1
f 637/4/1 638/3/1 639/11/1 640/8/1
f 641/13/1 642/4/1 643/8/1 644/7/1
f 645/4/1 646/3/1 647/11/1 648/8/1
f 649/13/1 650/4/1 651/8/1 652/7/1
f 653/4/1 654/3/1 655/11/1 656/8/1
f 657/13/1 658/4/1 659/8/1 660/7/1
f 661/4/1 662/3/1 663/11/1 664/8/1
f 665/13/1 666/4/1 667/8/1 668/7/1
f 669/4/1 670/3/1 671/11/1 672/8/1
f 673/1/1 674/2/1 675/3/1 676/4/1
f 677/2/1 678/5/1 679/6/1 680/3/1
f 681/7/1 682/8/1 683/9/1 684/10/1
f 685/8/1 686/11/1 687/12/1 688/9/1
f 689/7/1 690/8/1 691/9/1 692/10/1
f 693/8/1 694/11/1 695/12/1 696/9/1
f 697/7/1 698/8/1 699/9/1 700/10/1
f 701/8/1 702/11/1 703/12/1 704/9/1
f 705/7/1 706/8/1 707/9/1 708/10/1
f 709/8/1 710/11/1 711/12/1 712/9/1
f 713/7/1 714/8/1 715/9/1 716/10/1
f 717/8/1 718/11/1 719/12/1 720/9/1
f 721/7/1 722/8/1 723/9/1 724/10/1
f 725/8/1 726/11/1 727/12/1 728/9/1
f 729/1/1 730/2/1 731/3/1 732/4/1
f 733/2/1 734/5/1 735/6/1 736/3/1
f 737/13/1 738/4/1 739/8/1 740/7/1
f 741/4/1 742/3/1 743/11/1 744/8/1
f 745/13/1 746/4/1 747/8/1 748/7/1
f 749/4/1 750/3/1 751/11/1 752/8/1
f 753/13/1 754/4/1 755/8/1 756/7/1
f 757/4/1 758/3/1 759/11/1 760/8/1
f 761/13/1 762/4/1 763/8/1 764/7/1
f 765/4/1 766/3/1 767/11/1 768/8/1
f 769/13/1 770/4/1 771/8/1 772/7/1
f 773/4/1 774/3/1 775/11/1 776/8/1
f 777/13/1 778/4/1 779/8/1 780/7/1
f 781/4/1 782/3/1 783/11/1 784/8/1
f 785/1/1 786/2/1 787/3/1 788/4/1
f 789/2/1 790/5/1 791/6/1 792/3/1
f 793/7/1 794/8/1 795/9/1 796/10/1
f 797/8/1 798/11/1 799/12/1 800/9/1
f 801/7/1 802/8/1 803/9/1 804/10/1
f 805/8/1 806/11/1 807/12/1 808/9/1
f 809/7/1 810/8/1 811/9/1 812/10/1
f 813/8/1 814/11/1 815/12/1 816/9/1
f 817/7/1 818/8/1 819/9/1 820/10/1
f 821/8/1 822/11/1 823/12/1 824/9/1
f 825/7/1 826/8/1 827/9/1 828/10/1
f 829/8/1 830/11/1 831/12/1 832/9/1
f 833/7/1 834/8/1 835/9/1 836/10/1
f 837/8/1 838/11/1 839/12/1 840/9/1
f 841/1/1 842/2/1 843/3/1 844/4/1
f 845/2/1 846/5/1 847/6/1 848/3/1
f 849/13/1 850/4/1 851/8/1 852/7/1
f 853/4/1 854/3/1 855/11/1 856/8/1
f 857/13/1 858/4/1 859/8/1 860/7/1
f 861/4/1 862/3/1 863/11/1 864/8/1
f 865/13/1 866/4/1 867/8/1 868/7/1
f 869/4/1 870/3/1 871/11/1 872/8/1
f 873/13/1 874/4/1 875/8/1 876/7/1
f 877/4/1 878/3/1 879/11/1 880/8/1
f 881/13/1 882/4/1 883/8/1 884/7/1
f 885/4/1 886/3/1 887/11/1 888/8/1
f 889/13/1 890/4/1 891/8/1 892/7/1
f 893/4/1 894/3/1 895/11/1 896/8/1

