# Tiled2Unity generated file. Do not modify by hand.
# Wavefront file for 'Cave2-1_mesh_0005.obj'

# Vertices (Count = 1024)
v 0 -1 0
v -1 -1 0
v -1 0 0
v 0 0 0
v -1 -1 0
v -2 -1 0
v -2 0 0
v -1 0 0
v -2 -1 0
v -3 -1 0
v -3 0 0
v -2 0 0
v -3 -1 0
v -4 -1 0
v -4 0 0
v -3 0 0
v -4 -1 0
v -5 -1 0
v -5 0 0
v -4 0 0
v -5 -1 0
v -6 -1 0
v -6 0 0
v -5 0 0
v -6 -1 0
v -7 -1 0
v -7 0 0
v -6 0 0
v -7 -1 0
v -8 -1 0
v -8 0 0
v -7 0 0
v -8 -1 0
v -9 -1 0
v -9 0 0
v -8 0 0
v -9 -1 0
v -10 -1 0
v -10 0 0
v -9 0 0
v -10 -1 0
v -11 -1 0
v -11 0 0
v -10 0 0
v -11 -1 0
v -12 -1 0
v -12 0 0
v -11 0 0
v -12 -1 0
v -13 -1 0
v -13 0 0
v -12 0 0
v -13 -1 0
v -14 -1 0
v -14 0 0
v -13 0 0
v -14 -1 0
v -15 -1 0
v -15 0 0
v -14 0 0
v -15 -1 0
v -16 -1 0
v -16 0 0
v -15 0 0
v 0 -2 0
v -1 -2 0
v -1 -1 0
v 0 -1 0
v -1 -2 0
v -2 -2 0
v -2 -1 0
v -1 -1 0
v -2 -2 0
v -3 -2 0
v -3 -1 0
v -2 -1 0
v -3 -2 0
v -4 -2 0
v -4 -1 0
v -3 -1 0
v -4 -2 0
v -5 -2 0
v -5 -1 0
v -4 -1 0
v -5 -2 0
v -6 -2 0
v -6 -1 0
v -5 -1 0
v -6 -2 0
v -7 -2 0
v -7 -1 0
v -6 -1 0
v -7 -2 0
v -8 -2 0
v -8 -1 0
v -7 -1 0
v -8 -2 0
v -9 -2 0
v -9 -1 0
v -8 -1 0
v -9 -2 0
v -10 -2 0
v -10 -1 0
v -9 -1 0
v -10 -2 0
v -11 -2 0
v -11 -1 0
v -10 -1 0
v -11 -2 0
v -12 -2 0
v -12 -1 0
v -11 -1 0
v -12 -2 0
v -13 -2 0
v -13 -1 0
v -12 -1 0
v -13 -2 0
v -14 -2 0
v -14 -1 0
v -13 -1 0
v -14 -2 0
v -15 -2 0
v -15 -1 0
v -14 -1 0
v -15 -2 0
v -16 -2 0
v -16 -1 0
v -15 -1 0
v 0 -3 0
v -1 -3 0
v -1 -2 0
v 0 -2 0
v -1 -3 0
v -2 -3 0
v -2 -2 0
v -1 -2 0
v -2 -3 0
v -3 -3 0
v -3 -2 0
v -2 -2 0
v -3 -3 0
v -4 -3 0
v -4 -2 0
v -3 -2 0
v -4 -3 0
v -5 -3 0
v -5 -2 0
v -4 -2 0
v -5 -3 0
v -6 -3 0
v -6 -2 0
v -5 -2 0
v -6 -3 0
v -7 -3 0
v -7 -2 0
v -6 -2 0
v -7 -3 0
v -8 -3 0
v -8 -2 0
v -7 -2 0
v -8 -3 0
v -9 -3 0
v -9 -2 0
v -8 -2 0
v -9 -3 0
v -10 -3 0
v -10 -2 0
v -9 -2 0
v -10 -3 0
v -11 -3 0
v -11 -2 0
v -10 -2 0
v -11 -3 0
v -12 -3 0
v -12 -2 0
v -11 -2 0
v -12 -3 0
v -13 -3 0
v -13 -2 0
v -12 -2 0
v -13 -3 0
v -14 -3 0
v -14 -2 0
v -13 -2 0
v -14 -3 0
v -15 -3 0
v -15 -2 0
v -14 -2 0
v -15 -3 0
v -16 -3 0
v -16 -2 0
v -15 -2 0
v 0 -4 0
v -1 -4 0
v -1 -3 0
v 0 -3 0
v -1 -4 0
v -2 -4 0
v -2 -3 0
v -1 -3 0
v -2 -4 0
v -3 -4 0
v -3 -3 0
v -2 -3 0
v -3 -4 0
v -4 -4 0
v -4 -3 0
v -3 -3 0
v -4 -4 0
v -5 -4 0
v -5 -3 0
v -4 -3 0
v -5 -4 0
v -6 -4 0
v -6 -3 0
v -5 -3 0
v -6 -4 0
v -7 -4 0
v -7 -3 0
v -6 -3 0
v -7 -4 0
v -8 -4 0
v -8 -3 0
v -7 -3 0
v -8 -4 0
v -9 -4 0
v -9 -3 0
v -8 -3 0
v -9 -4 0
v -10 -4 0
v -10 -3 0
v -9 -3 0
v -10 -4 0
v -11 -4 0
v -11 -3 0
v -10 -3 0
v -11 -4 0
v -12 -4 0
v -12 -3 0
v -11 -3 0
v -12 -4 0
v -13 -4 0
v -13 -3 0
v -12 -3 0
v -13 -4 0
v -14 -4 0
v -14 -3 0
v -13 -3 0
v -14 -4 0
v -15 -4 0
v -15 -3 0
v -14 -3 0
v -15 -4 0
v -16 -4 0
v -16 -3 0
v -15 -3 0
v 0 -5 0
v -1 -5 0
v -1 -4 0
v 0 -4 0
v -1 -5 0
v -2 -5 0
v -2 -4 0
v -1 -4 0
v -2 -5 0
v -3 -5 0
v -3 -4 0
v -2 -4 0
v -3 -5 0
v -4 -5 0
v -4 -4 0
v -3 -4 0
v -4 -5 0
v -5 -5 0
v -5 -4 0
v -4 -4 0
v -5 -5 0
v -6 -5 0
v -6 -4 0
v -5 -4 0
v -6 -5 0
v -7 -5 0
v -7 -4 0
v -6 -4 0
v -7 -5 0
v -8 -5 0
v -8 -4 0
v -7 -4 0
v -8 -5 0
v -9 -5 0
v -9 -4 0
v -8 -4 0
v -9 -5 0
v -10 -5 0
v -10 -4 0
v -9 -4 0
v -10 -5 0
v -11 -5 0
v -11 -4 0
v -10 -4 0
v -11 -5 0
v -12 -5 0
v -12 -4 0
v -11 -4 0
v -12 -5 0
v -13 -5 0
v -13 -4 0
v -12 -4 0
v -13 -5 0
v -14 -5 0
v -14 -4 0
v -13 -4 0
v -14 -5 0
v -15 -5 0
v -15 -4 0
v -14 -4 0
v -15 -5 0
v -16 -5 0
v -16 -4 0
v -15 -4 0
v 0 -6 0
v -1 -6 0
v -1 -5 0
v 0 -5 0
v -1 -6 0
v -2 -6 0
v -2 -5 0
v -1 -5 0
v -2 -6 0
v -3 -6 0
v -3 -5 0
v -2 -5 0
v -3 -6 0
v -4 -6 0
v -4 -5 0
v -3 -5 0
v -4 -6 0
v -5 -6 0
v -5 -5 0
v -4 -5 0
v -5 -6 0
v -6 -6 0
v -6 -5 0
v -5 -5 0
v -6 -6 0
v -7 -6 0
v -7 -5 0
v -6 -5 0
v -7 -6 0
v -8 -6 0
v -8 -5 0
v -7 -5 0
v -8 -6 0
v -9 -6 0
v -9 -5 0
v -8 -5 0
v -9 -6 0
v -10 -6 0
v -10 -5 0
v -9 -5 0
v -10 -6 0
v -11 -6 0
v -11 -5 0
v -10 -5 0
v -11 -6 0
v -12 -6 0
v -12 -5 0
v -11 -5 0
v -12 -6 0
v -13 -6 0
v -13 -5 0
v -12 -5 0
v -13 -6 0
v -14 -6 0
v -14 -5 0
v -13 -5 0
v -14 -6 0
v -15 -6 0
v -15 -5 0
v -14 -5 0
v -15 -6 0
v -16 -6 0
v -16 -5 0
v -15 -5 0
v 0 -7 0
v -1 -7 0
v -1 -6 0
v 0 -6 0
v -1 -7 0
v -2 -7 0
v -2 -6 0
v -1 -6 0
v -2 -7 0
v -3 -7 0
v -3 -6 0
v -2 -6 0
v -3 -7 0
v -4 -7 0
v -4 -6 0
v -3 -6 0
v -4 -7 0
v -5 -7 0
v -5 -6 0
v -4 -6 0
v -5 -7 0
v -6 -7 0
v -6 -6 0
v -5 -6 0
v -6 -7 0
v -7 -7 0
v -7 -6 0
v -6 -6 0
v -7 -7 0
v -8 -7 0
v -8 -6 0
v -7 -6 0
v -8 -7 0
v -9 -7 0
v -9 -6 0
v -8 -6 0
v -9 -7 0
v -10 -7 0
v -10 -6 0
v -9 -6 0
v -10 -7 0
v -11 -7 0
v -11 -6 0
v -10 -6 0
v -11 -7 0
v -12 -7 0
v -12 -6 0
v -11 -6 0
v -12 -7 0
v -13 -7 0
v -13 -6 0
v -12 -6 0
v -13 -7 0
v -14 -7 0
v -14 -6 0
v -13 -6 0
v -14 -7 0
v -15 -7 0
v -15 -6 0
v -14 -6 0
v -15 -7 0
v -16 -7 0
v -16 -6 0
v -15 -6 0
v 0 -8 0
v -1 -8 0
v -1 -7 0
v 0 -7 0
v -1 -8 0
v -2 -8 0
v -2 -7 0
v -1 -7 0
v -2 -8 0
v -3 -8 0
v -3 -7 0
v -2 -7 0
v -3 -8 0
v -4 -8 0
v -4 -7 0
v -3 -7 0
v -4 -8 0
v -5 -8 0
v -5 -7 0
v -4 -7 0
v -5 -8 0
v -6 -8 0
v -6 -7 0
v -5 -7 0
v -6 -8 0
v -7 -8 0
v -7 -7 0
v -6 -7 0
v -7 -8 0
v -8 -8 0
v -8 -7 0
v -7 -7 0
v -8 -8 0
v -9 -8 0
v -9 -7 0
v -8 -7 0
v -9 -8 0
v -10 -8 0
v -10 -7 0
v -9 -7 0
v -10 -8 0
v -11 -8 0
v -11 -7 0
v -10 -7 0
v -11 -8 0
v -12 -8 0
v -12 -7 0
v -11 -7 0
v -12 -8 0
v -13 -8 0
v -13 -7 0
v -12 -7 0
v -13 -8 0
v -14 -8 0
v -14 -7 0
v -13 -7 0
v -14 -8 0
v -15 -8 0
v -15 -7 0
v -14 -7 0
v -15 -8 0
v -16 -8 0
v -16 -7 0
v -15 -7 0
v 0 -9 0
v -1 -9 0
v -1 -8 0
v 0 -8 0
v -1 -9 0
v -2 -9 0
v -2 -8 0
v -1 -8 0
v -2 -9 0
v -3 -9 0
v -3 -8 0
v -2 -8 0
v -3 -9 0
v -4 -9 0
v -4 -8 0
v -3 -8 0
v -4 -9 0
v -5 -9 0
v -5 -8 0
v -4 -8 0
v -5 -9 0
v -6 -9 0
v -6 -8 0
v -5 -8 0
v -6 -9 0
v -7 -9 0
v -7 -8 0
v -6 -8 0
v -7 -9 0
v -8 -9 0
v -8 -8 0
v -7 -8 0
v -8 -9 0
v -9 -9 0
v -9 -8 0
v -8 -8 0
v -9 -9 0
v -10 -9 0
v -10 -8 0
v -9 -8 0
v -10 -9 0
v -11 -9 0
v -11 -8 0
v -10 -8 0
v -11 -9 0
v -12 -9 0
v -12 -8 0
v -11 -8 0
v -12 -9 0
v -13 -9 0
v -13 -8 0
v -12 -8 0
v -13 -9 0
v -14 -9 0
v -14 -8 0
v -13 -8 0
v -14 -9 0
v -15 -9 0
v -15 -8 0
v -14 -8 0
v -15 -9 0
v -16 -9 0
v -16 -8 0
v -15 -8 0
v 0 -10 0
v -1 -10 0
v -1 -9 0
v 0 -9 0
v -1 -10 0
v -2 -10 0
v -2 -9 0
v -1 -9 0
v -2 -10 0
v -3 -10 0
v -3 -9 0
v -2 -9 0
v -3 -10 0
v -4 -10 0
v -4 -9 0
v -3 -9 0
v -4 -10 0
v -5 -10 0
v -5 -9 0
v -4 -9 0
v -5 -10 0
v -6 -10 0
v -6 -9 0
v -5 -9 0
v -6 -10 0
v -7 -10 0
v -7 -9 0
v -6 -9 0
v -7 -10 0
v -8 -10 0
v -8 -9 0
v -7 -9 0
v -8 -10 0
v -9 -10 0
v -9 -9 0
v -8 -9 0
v -9 -10 0
v -10 -10 0
v -10 -9 0
v -9 -9 0
v -10 -10 0
v -11 -10 0
v -11 -9 0
v -10 -9 0
v -11 -10 0
v -12 -10 0
v -12 -9 0
v -11 -9 0
v -12 -10 0
v -13 -10 0
v -13 -9 0
v -12 -9 0
v -13 -10 0
v -14 -10 0
v -14 -9 0
v -13 -9 0
v -14 -10 0
v -15 -10 0
v -15 -9 0
v -14 -9 0
v -15 -10 0
v -16 -10 0
v -16 -9 0
v -15 -9 0
v 0 -11 0
v -1 -11 0
v -1 -10 0
v 0 -10 0
v -1 -11 0
v -2 -11 0
v -2 -10 0
v -1 -10 0
v -2 -11 0
v -3 -11 0
v -3 -10 0
v -2 -10 0
v -3 -11 0
v -4 -11 0
v -4 -10 0
v -3 -10 0
v -4 -11 0
v -5 -11 0
v -5 -10 0
v -4 -10 0
v -5 -11 0
v -6 -11 0
v -6 -10 0
v -5 -10 0
v -6 -11 0
v -7 -11 0
v -7 -10 0
v -6 -10 0
v -7 -11 0
v -8 -11 0
v -8 -10 0
v -7 -10 0
v -8 -11 0
v -9 -11 0
v -9 -10 0
v -8 -10 0
v -9 -11 0
v -10 -11 0
v -10 -10 0
v -9 -10 0
v -10 -11 0
v -11 -11 0
v -11 -10 0
v -10 -10 0
v -11 -11 0
v -12 -11 0
v -12 -10 0
v -11 -10 0
v -12 -11 0
v -13 -11 0
v -13 -10 0
v -12 -10 0
v -13 -11 0
v -14 -11 0
v -14 -10 0
v -13 -10 0
v -14 -11 0
v -15 -11 0
v -15 -10 0
v -14 -10 0
v -15 -11 0
v -16 -11 0
v -16 -10 0
v -15 -10 0
v 0 -12 0
v -1 -12 0
v -1 -11 0
v 0 -11 0
v -1 -12 0
v -2 -12 0
v -2 -11 0
v -1 -11 0
v -2 -12 0
v -3 -12 0
v -3 -11 0
v -2 -11 0
v -3 -12 0
v -4 -12 0
v -4 -11 0
v -3 -11 0
v -4 -12 0
v -5 -12 0
v -5 -11 0
v -4 -11 0
v -5 -12 0
v -6 -12 0
v -6 -11 0
v -5 -11 0
v -6 -12 0
v -7 -12 0
v -7 -11 0
v -6 -11 0
v -7 -12 0
v -8 -12 0
v -8 -11 0
v -7 -11 0
v -8 -12 0
v -9 -12 0
v -9 -11 0
v -8 -11 0
v -9 -12 0
v -10 -12 0
v -10 -11 0
v -9 -11 0
v -10 -12 0
v -11 -12 0
v -11 -11 0
v -10 -11 0
v -11 -12 0
v -12 -12 0
v -12 -11 0
v -11 -11 0
v -12 -12 0
v -13 -12 0
v -13 -11 0
v -12 -11 0
v -13 -12 0
v -14 -12 0
v -14 -11 0
v -13 -11 0
v -14 -12 0
v -15 -12 0
v -15 -11 0
v -14 -11 0
v -15 -12 0
v -16 -12 0
v -16 -11 0
v -15 -11 0
v 0 -13 0
v -1 -13 0
v -1 -12 0
v 0 -12 0
v -1 -13 0
v -2 -13 0
v -2 -12 0
v -1 -12 0
v -2 -13 0
v -3 -13 0
v -3 -12 0
v -2 -12 0
v -3 -13 0
v -4 -13 0
v -4 -12 0
v -3 -12 0
v -4 -13 0
v -5 -13 0
v -5 -12 0
v -4 -12 0
v -5 -13 0
v -6 -13 0
v -6 -12 0
v -5 -12 0
v -6 -13 0
v -7 -13 0
v -7 -12 0
v -6 -12 0
v -7 -13 0
v -8 -13 0
v -8 -12 0
v -7 -12 0
v -8 -13 0
v -9 -13 0
v -9 -12 0
v -8 -12 0
v -9 -13 0
v -10 -13 0
v -10 -12 0
v -9 -12 0
v -10 -13 0
v -11 -13 0
v -11 -12 0
v -10 -12 0
v -11 -13 0
v -12 -13 0
v -12 -12 0
v -11 -12 0
v -12 -13 0
v -13 -13 0
v -13 -12 0
v -12 -12 0
v -13 -13 0
v -14 -13 0
v -14 -12 0
v -13 -12 0
v -14 -13 0
v -15 -13 0
v -15 -12 0
v -14 -12 0
v -15 -13 0
v -16 -13 0
v -16 -12 0
v -15 -12 0
v 0 -14 0
v -1 -14 0
v -1 -13 0
v 0 -13 0
v -1 -14 0
v -2 -14 0
v -2 -13 0
v -1 -13 0
v -2 -14 0
v -3 -14 0
v -3 -13 0
v -2 -13 0
v -3 -14 0
v -4 -14 0
v -4 -13 0
v -3 -13 0
v -4 -14 0
v -5 -14 0
v -5 -13 0
v -4 -13 0
v -5 -14 0
v -6 -14 0
v -6 -13 0
v -5 -13 0
v -6 -14 0
v -7 -14 0
v -7 -13 0
v -6 -13 0
v -7 -14 0
v -8 -14 0
v -8 -13 0
v -7 -13 0
v -8 -14 0
v -9 -14 0
v -9 -13 0
v -8 -13 0
v -9 -14 0
v -10 -14 0
v -10 -13 0
v -9 -13 0
v -10 -14 0
v -11 -14 0
v -11 -13 0
v -10 -13 0
v -11 -14 0
v -12 -14 0
v -12 -13 0
v -11 -13 0
v -12 -14 0
v -13 -14 0
v -13 -13 0
v -12 -13 0
v -13 -14 0
v -14 -14 0
v -14 -13 0
v -13 -13 0
v -14 -14 0
v -15 -14 0
v -15 -13 0
v -14 -13 0
v -15 -14 0
v -16 -14 0
v -16 -13 0
v -15 -13 0
v 0 -15 0
v -1 -15 0
v -1 -14 0
v 0 -14 0
v -1 -15 0
v -2 -15 0
v -2 -14 0
v -1 -14 0
v -2 -15 0
v -3 -15 0
v -3 -14 0
v -2 -14 0
v -3 -15 0
v -4 -15 0
v -4 -14 0
v -3 -14 0
v -4 -15 0
v -5 -15 0
v -5 -14 0
v -4 -14 0
v -5 -15 0
v -6 -15 0
v -6 -14 0
v -5 -14 0
v -6 -15 0
v -7 -15 0
v -7 -14 0
v -6 -14 0
v -7 -15 0
v -8 -15 0
v -8 -14 0
v -7 -14 0
v -8 -15 0
v -9 -15 0
v -9 -14 0
v -8 -14 0
v -9 -15 0
v -10 -15 0
v -10 -14 0
v -9 -14 0
v -10 -15 0
v -11 -15 0
v -11 -14 0
v -10 -14 0
v -11 -15 0
v -12 -15 0
v -12 -14 0
v -11 -14 0
v -12 -15 0
v -13 -15 0
v -13 -14 0
v -12 -14 0
v -13 -15 0
v -14 -15 0
v -14 -14 0
v -13 -14 0
v -14 -15 0
v -15 -15 0
v -15 -14 0
v -14 -14 0
v -15 -15 0
v -16 -15 0
v -16 -14 0
v -15 -14 0
v 0 -16 0
v -1 -16 0
v -1 -15 0
v 0 -15 0
v -1 -16 0
v -2 -16 0
v -2 -15 0
v -1 -15 0
v -2 -16 0
v -3 -16 0
v -3 -15 0
v -2 -15 0
v -3 -16 0
v -4 -16 0
v -4 -15 0
v -3 -15 0
v -4 -16 0
v -5 -16 0
v -5 -15 0
v -4 -15 0
v -5 -16 0
v -6 -16 0
v -6 -15 0
v -5 -15 0
v -6 -16 0
v -7 -16 0
v -7 -15 0
v -6 -15 0
v -7 -16 0
v -8 -16 0
v -8 -15 0
v -7 -15 0
v -8 -16 0
v -9 -16 0
v -9 -15 0
v -8 -15 0
v -9 -16 0
v -10 -16 0
v -10 -15 0
v -9 -15 0
v -10 -16 0
v -11 -16 0
v -11 -15 0
v -10 -15 0
v -11 -16 0
v -12 -16 0
v -12 -15 0
v -11 -15 0
v -12 -16 0
v -13 -16 0
v -13 -15 0
v -12 -15 0
v -13 -16 0
v -14 -16 0
v -14 -15 0
v -13 -15 0
v -14 -16 0
v -15 -16 0
v -15 -15 0
v -14 -15 0
v -15 -16 0
v -16 -16 0
v -16 -15 0
v -15 -15 0

# Texture cooridinates (Count = 48)
vt 0.5625 0.625
vt 0.625 0.625
vt 0.625 0.6875
vt 0.5625 0.6875
vt 0.5 0.8125
vt 0.5625 0.8125
vt 0.5625 0.875
vt 0.5 0.875
vt 0.5625 0.5625
vt 0.625 0.5625
vt 0.8125 0.875
vt 0.875 0.875
vt 0.875 0.9375
vt 0.8125 0.9375
vt 0.6875 0.8125
vt 0.75 0.8125
vt 0.75 0.875
vt 0.6875 0.875
vt 0.875 1
vt 0.8125 1
vt 0.9375 0.9375
vt 0.9375 1
vt 0.9375 0.875
vt 0.5 0.75
vt 0.5625 0.75
vt 0.625 0.8125
vt 0.625 0.875
vt 0.625 0.9375
vt 0.6875 0.9375
vt 0.6875 1
vt 0.625 1
vt 0.8125 0.8125
vt 0.875 0.8125
vt 0.75 0.9375
vt 0.75 1
vt 1 0.9375
vt 1 1
vt 0.5 0.625
vt 0.5 0.6875
vt 0.6875 0.625
vt 0.6875 0.6875
vt 1 0.875
vt 0.625 0.75
vt 0.6875 0.75
vt 0.625 0.5
vt 0.6875 0.5
vt 0.6875 0.5625
vt 0.75 0.75

# Normal
vn 0 0 -1

# Mesh description
g Cave2-1_mesh_0005

# Faces
f 1/1/1 2/2/1 3/3/1 4/4/1
f 5/5/1 6/6/1 7/7/1 8/8/1
f 9/9/1 10/10/1 11/2/1 12/1/1
f 13/9/1 14/10/1 15/2/1 16/1/1
f 17/9/1 18/10/1 19/2/1 20/1/1
f 21/9/1 22/10/1 23/2/1 24/1/1
f 25/9/1 26/10/1 27/2/1 28/1/1
f 29/9/1 30/10/1 31/2/1 32/1/1
f 33/9/1 34/10/1 35/2/1 36/1/1
f 37/9/1 38/10/1 39/2/1 40/1/1
f 41/9/1 42/10/1 43/2/1 44/1/1
f 45/9/1 46/10/1 47/2/1 48/1/1
f 49/9/1 50/10/1 51/2/1 52/1/1
f 53/9/1 54/10/1 55/2/1 56/1/1
f 57/9/1 58/10/1 59/2/1 60/1/1
f 61/9/1 62/10/1 63/2/1 64/1/1
f 65/11/1 66/12/1 67/13/1 68/14/1
f 69/5/1 70/6/1 71/7/1 72/8/1
f 73/9/1 74/10/1 75/2/1 76/1/1
f 77/9/1 78/10/1 79/2/1 80/1/1
f 81/9/1 82/10/1 83/2/1 84/1/1
f 85/9/1 86/10/1 87/2/1 88/1/1
f 89/9/1 90/10/1 91/2/1 92/1/1
f 93/9/1 94/10/1 95/2/1 96/1/1
f 97/9/1 98/10/1 99/2/1 100/1/1
f 101/9/1 102/10/1 103/2/1 104/1/1
f 105/9/1 106/10/1 107/2/1 108/1/1
f 109/9/1 110/10/1 111/2/1 112/1/1
f 113/9/1 114/10/1 115/2/1 116/1/1
f 117/9/1 118/10/1 119/2/1 120/1/1
f 121/9/1 122/10/1 123/2/1 124/1/1
f 125/9/1 126/10/1 127/2/1 128/1/1
f 129/11/1 130/12/1 131/13/1 132/14/1
f 133/15/1 134/16/1 135/17/1 136/18/1
f 137/9/1 138/10/1 139/2/1 140/1/1
f 141/9/1 142/10/1 143/2/1 144/1/1
f 145/9/1 146/10/1 147/2/1 148/1/1
f 149/9/1 150/10/1 151/2/1 152/1/1
f 153/9/1 154/10/1 155/2/1 156/1/1
f 157/9/1 158/10/1 159/2/1 160/1/1
f 161/9/1 162/10/1 163/2/1 164/1/1
f 165/9/1 166/10/1 167/2/1 168/1/1
f 169/9/1 170/10/1 171/2/1 172/1/1
f 173/9/1 174/10/1 175/2/1 176/1/1
f 177/9/1 178/10/1 179/2/1 180/1/1
f 181/9/1 182/10/1 183/2/1 184/1/1
f 185/9/1 186/10/1 187/2/1 188/1/1
f 189/9/1 190/10/1 191/2/1 192/1/1
f 193/14/1 194/13/1 195/19/1 196/20/1
f 197/5/1 198/6/1 199/7/1 200/8/1
f 201/9/1 202/10/1 203/2/1 204/1/1
f 205/9/1 206/10/1 207/2/1 208/1/1
f 209/9/1 210/10/1 211/2/1 212/1/1
f 213/9/1 214/10/1 215/2/1 216/1/1
f 217/9/1 218/10/1 219/2/1 220/1/1
f 221/9/1 222/10/1 223/2/1 224/1/1
f 225/9/1 226/10/1 227/2/1 228/1/1
f 229/9/1 230/10/1 231/2/1 232/1/1
f 233/9/1 234/10/1 235/2/1 236/1/1
f 237/9/1 238/10/1 239/2/1 240/1/1
f 241/9/1 242/10/1 243/2/1 244/1/1
f 245/9/1 246/10/1 247/2/1 248/1/1
f 249/9/1 250/10/1 251/2/1 252/1/1
f 253/9/1 254/10/1 255/2/1 256/1/1
f 257/14/1 258/13/1 259/19/1 260/20/1
f 261/5/1 262/6/1 263/7/1 264/8/1
f 265/9/1 266/10/1 267/2/1 268/1/1
f 269/9/1 270/10/1 271/2/1 272/1/1
f 273/9/1 274/10/1 275/2/1 276/1/1
f 277/9/1 278/10/1 279/2/1 280/1/1
f 281/9/1 282/10/1 283/2/1 284/1/1
f 285/9/1 286/10/1 287/2/1 288/1/1
f 289/9/1 290/10/1 291/2/1 292/1/1
f 293/9/1 294/10/1 295/2/1 296/1/1
f 297/9/1 298/10/1 299/2/1 300/1/1
f 301/9/1 302/10/1 303/2/1 304/1/1
f 305/9/1 306/10/1 307/2/1 308/1/1
f 309/9/1 310/10/1 311/2/1 312/1/1
f 313/9/1 314/10/1 315/2/1 316/1/1
f 317/9/1 318/10/1 319/2/1 320/1/1
f 321/13/1 322/21/1 323/22/1 324/19/1
f 325/5/1 326/6/1 327/7/1 328/8/1
f 329/9/1 330/10/1 331/2/1 332/1/1
f 333/9/1 334/10/1 335/2/1 336/1/1
f 337/9/1 338/10/1 339/2/1 340/1/1
f 341/9/1 342/10/1 343/2/1 344/1/1
f 345/9/1 346/10/1 347/2/1 348/1/1
f 349/9/1 350/10/1 351/2/1 352/1/1
f 353/9/1 354/10/1 355/2/1 356/1/1
f 357/9/1 358/10/1 359/2/1 360/1/1
f 361/9/1 362/10/1 363/2/1 364/1/1
f 365/9/1 366/10/1 367/2/1 368/1/1
f 369/9/1 370/10/1 371/2/1 372/1/1
f 373/9/1 374/10/1 375/2/1 376/1/1
f 377/9/1 378/10/1 379/2/1 380/1/1
f 381/9/1 382/10/1 383/2/1 384/1/1
f 385/12/1 386/23/1 387/21/1 388/13/1
f 389/24/1 390/25/1 391/6/1 392/5/1
f 393/26/1 394/15/1 395/18/1 396/27/1
f 397/28/1 398/29/1 399/30/1 400/31/1
f 401/32/1 402/33/1 403/12/1 404/11/1
f 405/16/1 406/32/1 407/11/1 408/17/1
f 409/28/1 410/29/1 411/30/1 412/31/1
f 413/28/1 414/29/1 415/30/1 416/31/1
f 417/28/1 418/29/1 419/30/1 420/31/1
f 421/28/1 422/29/1 423/30/1 424/31/1
f 425/28/1 426/29/1 427/30/1 428/31/1
f 429/28/1 430/29/1 431/30/1 432/31/1
f 433/16/1 434/32/1 435/11/1 436/17/1
f 437/28/1 438/29/1 439/30/1 440/31/1
f 441/28/1 442/29/1 443/30/1 444/31/1
f 445/29/1 446/34/1 447/35/1 448/30/1
f 449/14/1 450/13/1 451/19/1 452/20/1
f 453/21/1 454/36/1 455/37/1 456/22/1
f 457/5/1 458/6/1 459/7/1 460/8/1
f 461/21/1 462/36/1 463/37/1 464/22/1
f 465/38/1 466/1/1 467/4/1 468/39/1
f 469/12/1 470/23/1 471/21/1 472/13/1
f 473/11/1 474/12/1 475/13/1 476/14/1
f 477/11/1 478/12/1 479/13/1 480/14/1
f 481/11/1 482/12/1 483/13/1 484/14/1
f 485/11/1 486/12/1 487/13/1 488/14/1
f 489/14/1 490/13/1 491/19/1 492/20/1
f 493/14/1 494/13/1 495/19/1 496/20/1
f 497/14/1 498/13/1 499/19/1 500/20/1
f 501/12/1 502/23/1 503/21/1 504/13/1
f 505/2/1 506/40/1 507/41/1 508/3/1
f 509/5/1 510/6/1 511/7/1 512/8/1
f 513/14/1 514/13/1 515/19/1 516/20/1
f 517/21/1 518/36/1 519/37/1 520/22/1
f 521/5/1 522/6/1 523/7/1 524/8/1
f 525/21/1 526/36/1 527/37/1 528/22/1
f 529/13/1 530/21/1 531/22/1 532/19/1
f 533/14/1 534/13/1 535/19/1 536/20/1
f 537/11/1 538/12/1 539/13/1 540/14/1
f 541/11/1 542/12/1 543/13/1 544/14/1
f 545/14/1 546/13/1 547/19/1 548/20/1
f 549/14/1 550/13/1 551/19/1 552/20/1
f 553/23/1 554/42/1 555/36/1 556/21/1
f 557/23/1 558/42/1 559/36/1 560/21/1
f 561/23/1 562/42/1 563/36/1 564/21/1
f 565/23/1 566/42/1 567/36/1 568/21/1
f 569/14/1 570/13/1 571/19/1 572/20/1
f 573/34/1 574/14/1 575/20/1 576/35/1
f 577/14/1 578/13/1 579/19/1 580/20/1
f 581/21/1 582/36/1 583/37/1 584/22/1
f 585/43/1 586/44/1 587/15/1 588/26/1
f 589/21/1 590/36/1 591/37/1 592/22/1
f 593/14/1 594/13/1 595/19/1 596/20/1
f 597/14/1 598/13/1 599/19/1 600/20/1
f 601/14/1 602/13/1 603/19/1 604/20/1
f 605/14/1 606/13/1 607/19/1 608/20/1
f 609/14/1 610/13/1 611/19/1 612/20/1
f 613/14/1 614/13/1 615/19/1 616/20/1
f 617/23/1 618/42/1 619/36/1 620/21/1
f 621/23/1 622/42/1 623/36/1 624/21/1
f 625/23/1 626/42/1 627/36/1 628/21/1
f 629/23/1 630/42/1 631/36/1 632/21/1
f 633/14/1 634/13/1 635/19/1 636/20/1
f 637/15/1 638/16/1 639/17/1 640/18/1
f 641/14/1 642/13/1 643/19/1 644/20/1
f 645/21/1 646/36/1 647/37/1 648/22/1
f 649/21/1 650/36/1 651/37/1 652/22/1
f 653/21/1 654/36/1 655/37/1 656/22/1
f 657/14/1 658/13/1 659/19/1 660/20/1
f 661/14/1 662/13/1 663/19/1 664/20/1
f 665/14/1 666/13/1 667/19/1 668/20/1
f 669/14/1 670/13/1 671/19/1 672/20/1
f 673/14/1 674/13/1 675/19/1 676/20/1
f 677/14/1 678/13/1 679/19/1 680/20/1
f 681/23/1 682/42/1 683/36/1 684/21/1
f 685/23/1 686/42/1 687/36/1 688/21/1
f 689/23/1 690/42/1 691/36/1 692/21/1
f 693/23/1 694/42/1 695/36/1 696/21/1
f 697/14/1 698/13/1 699/19/1 700/20/1
f 701/5/1 702/6/1 703/7/1 704/8/1
f 705/14/1 706/13/1 707/19/1 708/20/1
f 709/21/1 710/36/1 711/37/1 712/22/1
f 713/21/1 714/36/1 715/37/1 716/22/1
f 717/21/1 718/36/1 719/37/1 720/22/1
f 721/14/1 722/13/1 723/19/1 724/20/1
f 725/14/1 726/13/1 727/19/1 728/20/1
f 729/14/1 730/13/1 731/19/1 732/20/1
f 733/13/1 734/21/1 735/22/1 736/19/1
f 737/14/1 738/13/1 739/19/1 740/20/1
f 741/14/1 742/13/1 743/19/1 744/20/1
f 745/23/1 746/42/1 747/36/1 748/21/1
f 749/23/1 750/42/1 751/36/1 752/21/1
f 753/23/1 754/42/1 755/36/1 756/21/1
f 757/23/1 758/42/1 759/36/1 760/21/1
f 761/14/1 762/13/1 763/19/1 764/20/1
f 765/5/1 766/6/1 767/7/1 768/8/1
f 769/45/1 770/46/1 771/47/1 772/10/1
f 773/21/1 774/36/1 775/37/1 776/22/1
f 777/6/1 778/26/1 779/27/1 780/7/1
f 781/21/1 782/36/1 783/37/1 784/22/1
f 785/12/1 786/23/1 787/21/1 788/13/1
f 789/14/1 790/13/1 791/19/1 792/20/1
f 793/12/1 794/23/1 795/21/1 796/13/1
f 797/45/1 798/46/1 799/47/1 800/10/1
f 801/14/1 802/13/1 803/19/1 804/20/1
f 805/14/1 806/13/1 807/19/1 808/20/1
f 809/14/1 810/13/1 811/19/1 812/20/1
f 813/14/1 814/13/1 815/19/1 816/20/1
f 817/14/1 818/13/1 819/19/1 820/20/1
f 821/14/1 822/13/1 823/19/1 824/20/1
f 825/14/1 826/13/1 827/19/1 828/20/1
f 829/5/1 830/6/1 831/7/1 832/8/1
f 833/28/1 834/29/1 835/30/1 836/31/1
f 837/28/1 838/29/1 839/30/1 840/31/1
f 841/25/1 842/43/1 843/26/1 844/6/1
f 845/28/1 846/29/1 847/30/1 848/31/1
f 849/32/1 850/33/1 851/12/1 852/11/1
f 853/28/1 854/29/1 855/30/1 856/31/1
f 857/28/1 858/29/1 859/30/1 860/31/1
f 861/28/1 862/29/1 863/30/1 864/31/1
f 865/28/1 866/29/1 867/30/1 868/31/1
f 869/28/1 870/29/1 871/30/1 872/31/1
f 873/28/1 874/29/1 875/30/1 876/31/1
f 877/28/1 878/29/1 879/30/1 880/31/1
f 881/32/1 882/33/1 883/12/1 884/11/1
f 885/16/1 886/32/1 887/11/1 888/17/1
f 889/28/1 890/29/1 891/30/1 892/31/1
f 893/44/1 894/48/1 895/16/1 896/15/1
f 897/9/1 898/10/1 899/2/1 900/1/1
f 901/9/1 902/10/1 903/2/1 904/1/1
f 905/9/1 906/10/1 907/2/1 908/1/1
f 909/9/1 910/10/1 911/2/1 912/1/1
f 913/9/1 914/10/1 915/2/1 916/1/1
f 917/9/1 918/10/1 919/2/1 920/1/1
f 921/9/1 922/10/1 923/2/1 924/1/1
f 925/9/1 926/10/1 927/2/1 928/1/1
f 929/9/1 930/10/1 931/2/1 932/1/1
f 933/9/1 934/10/1 935/2/1 936/1/1
f 937/9/1 938/10/1 939/2/1 940/1/1
f 941/9/1 942/10/1 943/2/1 944/1/1
f 945/9/1 946/10/1 947/2/1 948/1/1
f 949/9/1 950/10/1 951/2/1 952/1/1
f 953/9/1 954/10/1 955/2/1 956/1/1
f 957/9/1 958/10/1 959/2/1 960/1/1
f 961/9/1 962/10/1 963/2/1 964/1/1
f 965/9/1 966/10/1 967/2/1 968/1/1
f 969/9/1 970/10/1 971/2/1 972/1/1
f 973/9/1 974/10/1 975/2/1 976/1/1
f 977/9/1 978/10/1 979/2/1 980/1/1
f 981/9/1 982/10/1 983/2/1 984/1/1
f 985/9/1 986/10/1 987/2/1 988/1/1
f 989/9/1 990/10/1 991/2/1 992/1/1
f 993/9/1 994/10/1 995/2/1 996/1/1
f 997/9/1 998/10/1 999/2/1 1000/1/1
f 1001/9/1 1002/10/1 1003/2/1 1004/1/1
f 1005/9/1 1006/10/1 1007/2/1 1008/1/1
f 1009/9/1 1010/10/1 1011/2/1 1012/1/1
f 1013/9/1 1014/10/1 1015/2/1 1016/1/1
f 1017/9/1 1018/10/1 1019/2/1 1020/1/1
f 1021/9/1 1022/10/1 1023/2/1 1024/1/1

