# Tiled2Unity generated file. Do not modify by hand.
# Wavefront file for 'Cave_mesh_0001.obj'

# Vertices (Count = 80)
v -11 -13 0
v -12 -13 0
v -12 -12 0
v -11 -12 0
v -12 -13 0
v -13 -13 0
v -13 -12 0
v -12 -12 0
v -13 -13 0
v -14 -13 0
v -14 -12 0
v -13 -12 0
v -14 -13 0
v -15 -13 0
v -15 -12 0
v -14 -12 0
v -15 -13 0
v -16 -13 0
v -16 -12 0
v -15 -12 0
v -11 -14 0
v -12 -14 0
v -12 -13 0
v -11 -13 0
v -12 -14 0
v -13 -14 0
v -13 -13 0
v -12 -13 0
v -13 -14 0
v -14 -14 0
v -14 -13 0
v -13 -13 0
v -14 -14 0
v -15 -14 0
v -15 -13 0
v -14 -13 0
v -15 -14 0
v -16 -14 0
v -16 -13 0
v -15 -13 0
v -11 -15 0
v -12 -15 0
v -12 -14 0
v -11 -14 0
v -12 -15 0
v -13 -15 0
v -13 -14 0
v -12 -14 0
v -13 -15 0
v -14 -15 0
v -14 -14 0
v -13 -14 0
v -14 -15 0
v -15 -15 0
v -15 -14 0
v -14 -14 0
v -15 -15 0
v -16 -15 0
v -16 -14 0
v -15 -14 0
v -11 -16 0
v -12 -16 0
v -12 -15 0
v -11 -15 0
v -12 -16 0
v -13 -16 0
v -13 -15 0
v -12 -15 0
v -13 -16 0
v -14 -16 0
v -14 -15 0
v -13 -15 0
v -14 -16 0
v -15 -16 0
v -15 -15 0
v -14 -15 0
v -15 -16 0
v -16 -16 0
v -16 -15 0
v -15 -15 0

# Texture cooridinates (Count = 16)
vt 0 0.9375
vt 0.0625 0.9375
vt 0.0625 1
vt 0 1
vt 0.125 0.9375
vt 0.1875 0.9375
vt 0.1875 1
vt 0.125 1
vt 0 0.8125
vt 0.0625 0.8125
vt 0.0625 0.875
vt 0 0.875
vt 0.0625 0.5625
vt 0.125 0.5625
vt 0.125 0.625
vt 0.0625 0.625

# Normal
vn 0 0 -1

# Mesh description
g Cave_mesh_0001

# Faces
f 1/1/1 2/2/1 3/3/1 4/4/1
f 5/5/1 6/6/1 7/7/1 8/8/1
f 9/5/1 10/6/1 11/7/1 12/8/1
f 13/5/1 14/6/1 15/7/1 16/8/1
f 17/5/1 18/6/1 19/7/1 20/8/1
f 21/9/1 22/10/1 23/11/1 24/12/1
f 25/13/1 26/14/1 27/15/1 28/16/1
f 29/13/1 30/14/1 31/15/1 32/16/1
f 33/13/1 34/14/1 35/15/1 36/16/1
f 37/13/1 38/14/1 39/15/1 40/16/1
f 41/9/1 42/10/1 43/11/1 44/12/1
f 45/13/1 46/14/1 47/15/1 48/16/1
f 49/13/1 50/14/1 51/15/1 52/16/1
f 53/13/1 54/14/1 55/15/1 56/16/1
f 57/13/1 58/14/1 59/15/1 60/16/1
f 61/9/1 62/10/1 63/11/1 64/12/1
f 65/13/1 66/14/1 67/15/1 68/16/1
f 69/13/1 70/14/1 71/15/1 72/16/1
f 73/13/1 74/14/1 75/15/1 76/16/1
f 77/13/1 78/14/1 79/15/1 80/16/1

