# Tiled2Unity generated file. Do not modify by hand.
# Wavefront file for 'Cave_mesh_0017.obj'

# Vertices (Count = 16)
v -12 -14 0
v -13 -14 0
v -13 -13 0
v -12 -13 0
v -13 -14 0
v -14 -14 0
v -14 -13 0
v -13 -13 0
v -12 -15 0
v -13 -15 0
v -13 -14 0
v -12 -14 0
v -13 -15 0
v -14 -15 0
v -14 -14 0
v -13 -14 0

# Texture cooridinates (Count = 10)
vt 0.675 0.8888889
vt 0.7 0.8888889
vt 0.7 0.9166667
vt 0.675 0.9166667
vt 0.725 0.8888889
vt 0.75 0.8888889
vt 0.75 0.9166667
vt 0.725 0.9166667
vt 0.75 0.9444444
vt 0.725 0.9444444

# Normal
vn 0 0 -1

# Mesh description
g Cave_mesh_0017

# Faces
f 1/1/1 2/2/1 3/3/1 4/4/1
f 5/5/1 6/6/1 7/7/1 8/8/1
f 9/8/1 10/7/1 11/9/1 12/10/1
f 13/2/1 14/5/1 15/8/1 16/3/1

