# Tiled2Unity generated file. Do not modify by hand.
# Wavefront file for 'Cave_mesh_0021.obj'

# Vertices (Count = 20)
v -11 -7 0
v -12 -7 0
v -12 -6 0
v -11 -6 0
v -15 -7 0
v -16 -7 0
v -16 -6 0
v -15 -6 0
v -15 -8 0
v -16 -8 0
v -16 -7 0
v -15 -7 0
v -11 -12 0
v -12 -12 0
v -12 -11 0
v -11 -11 0
v -11 -13 0
v -12 -13 0
v -12 -12 0
v -11 -12 0

# Texture cooridinates (Count = 18)
vt 0 0.875
vt 0.0625 0.875
vt 0.0625 0.9375
vt 0 0.9375
vt 0.375 0.0625
vt 0.4375 0.0625
vt 0.4375 0.125
vt 0.375 0.125
vt 0.375 0
vt 0.4375 0
vt 0.1875 0.8125
vt 0.25 0.8125
vt 0.25 0.875
vt 0.1875 0.875
vt 0.25 0.9375
vt 0.3125 0.9375
vt 0.3125 1
vt 0.25 1

# Normal
vn 0 0 -1

# Mesh description
g Cave_mesh_0021

# Faces
f 1/1/1 2/2/1 3/3/1 4/4/1
f 5/5/1 6/6/1 7/7/1 8/8/1
f 9/9/1 10/10/1 11/6/1 12/5/1
f 13/11/1 14/12/1 15/13/1 16/14/1
f 17/15/1 18/16/1 19/17/1 20/18/1

