# Tiled2Unity generated file. Do not modify by hand.
# Wavefront file for 'Cave_mesh_0032.obj'

# Vertices (Count = 36)
v -7 -1 0
v -8 -1 0
v -8 0 0
v -7 0 0
v -10 -1 0
v -11 -1 0
v -11 0 0
v -10 0 0
v -1 -5 0
v -2 -5 0
v -2 -4 0
v -1 -4 0
v -2 -5 0
v -3 -5 0
v -3 -4 0
v -2 -4 0
v -3 -5 0
v -4 -5 0
v -4 -4 0
v -3 -4 0
v -6 -5 0
v -7 -5 0
v -7 -4 0
v -6 -4 0
v -1 -6 0
v -2 -6 0
v -2 -5 0
v -1 -5 0
v -2 -6 0
v -3 -6 0
v -3 -5 0
v -2 -5 0
v -3 -6 0
v -4 -6 0
v -4 -5 0
v -3 -5 0

# Texture cooridinates (Count = 20)
vt 0 0.125
vt 0.0625 0.125
vt 0.0625 0.1875
vt 0 0.1875
vt 0.8125 0.6875
vt 0.875 0.6875
vt 0.875 0.75
vt 0.8125 0.75
vt 0.9375 0.6875
vt 0.9375 0.75
vt 1 0.6875
vt 1 0.75
vt 0.875 0.8125
vt 0.9375 0.8125
vt 0.9375 0.875
vt 0.875 0.875
vt 0.8125 0.625
vt 0.875 0.625
vt 0.9375 0.625
vt 1 0.625

# Normal
vn 0 0 -1

# Mesh description
g Cave_mesh_0032

# Faces
f 1/1/1 2/2/1 3/3/1 4/4/1
f 5/1/1 6/2/1 7/3/1 8/4/1
f 9/5/1 10/6/1 11/7/1 12/8/1
f 13/6/1 14/9/1 15/10/1 16/7/1
f 17/9/1 18/11/1 19/12/1 20/10/1
f 21/13/1 22/14/1 23/15/1 24/16/1
f 25/17/1 26/18/1 27/6/1 28/5/1
f 29/18/1 30/19/1 31/9/1 32/6/1
f 33/19/1 34/20/1 35/11/1 36/9/1

