# Tiled2Unity generated file. Do not modify by hand.
# Wavefront file for 'Cave_mesh_0028.obj'

# Vertices (Count = 88)
v -3 -1 0
v -4 -1 0
v -4 0 0
v -3 0 0
v -4 -1 0
v -5 -1 0
v -5 0 0
v -4 0 0
v -3 -8 0
v -4 -8 0
v -4 -7 0
v -3 -7 0
v -5 -8 0
v -6 -8 0
v -6 -7 0
v -5 -7 0
v -3 -9 0
v -4 -9 0
v -4 -8 0
v -3 -8 0
v -5 -9 0
v -6 -9 0
v -6 -8 0
v -5 -8 0
v -6 -9 0
v -7 -9 0
v -7 -8 0
v -6 -8 0
v -7 -9 0
v -8 -9 0
v -8 -8 0
v -7 -8 0
v -8 -9 0
v -9 -9 0
v -9 -8 0
v -8 -8 0
v -9 -9 0
v -10 -9 0
v -10 -8 0
v -9 -8 0
v -7 -10 0
v -8 -10 0
v -8 -9 0
v -7 -9 0
v -8 -10 0
v -9 -10 0
v -9 -9 0
v -8 -9 0
v -3 -13 0
v -4 -13 0
v -4 -12 0
v -3 -12 0
v -9 -13 0
v -10 -13 0
v -10 -12 0
v -9 -12 0
v -3 -14 0
v -4 -14 0
v -4 -13 0
v -3 -13 0
v -8 -14 0
v -9 -14 0
v -9 -13 0
v -8 -13 0
v -9 -14 0
v -10 -14 0
v -10 -13 0
v -9 -13 0
v -3 -15 0
v -4 -15 0
v -4 -14 0
v -3 -14 0
v -4 -15 0
v -5 -15 0
v -5 -14 0
v -4 -14 0
v -5 -15 0
v -6 -15 0
v -6 -14 0
v -5 -14 0
v -8 -15 0
v -9 -15 0
v -9 -14 0
v -8 -14 0
v -8 -16 0
v -9 -16 0
v -9 -15 0
v -8 -15 0

# Texture cooridinates (Count = 38)
vt 0.25 0.8125
vt 0.3125 0.8125
vt 0.3125 0.875
vt 0.25 0.875
vt 0.375 0.8125
vt 0.375 0.875
vt 0.375 0.0625
vt 0.4375 0.0625
vt 0.4375 0.125
vt 0.375 0.125
vt 0.375 0
vt 0.4375 0
vt 0.125 0.5625
vt 0.1875 0.5625
vt 0.1875 0.625
vt 0.125 0.625
vt 0 0.625
vt 0.0625 0.625
vt 0.0625 0.6875
vt 0 0.6875
vt 0.1875 0.6875
vt 0.125 0.6875
vt 0.25 0.625
vt 0.3125 0.625
vt 0.3125 0.6875
vt 0.25 0.6875
vt 0.0625 0.5
vt 0.125 0.5
vt 0.0625 0.5625
vt 0.25 0.5625
vt 0.1875 0.5
vt 0 0.5
vt 0 0.5625
vt 0.25 0.75
vt 0.3125 0.75
vt 0.375 0.75
vt 0.4375 0.75
vt 0.4375 0.8125

# Normal
vn 0 0 -1

# Mesh description
g Cave_mesh_0028

# Faces
f 1/1/1 2/2/1 3/3/1 4/4/1
f 5/2/1 6/5/1 7/6/1 8/3/1
f 9/7/1 10/8/1 11/9/1 12/10/1
f 13/7/1 14/8/1 15/9/1 16/10/1
f 17/11/1 18/12/1 19/8/1 20/7/1
f 21/11/1 22/12/1 23/8/1 24/7/1
f 25/13/1 26/14/1 27/15/1 28/16/1
f 29/17/1 30/18/1 31/19/1 32/20/1
f 33/16/1 34/15/1 35/21/1 36/22/1
f 37/17/1 38/18/1 39/19/1 40/20/1
f 41/23/1 42/24/1 43/25/1 44/26/1
f 45/27/1 46/28/1 47/13/1 48/29/1
f 49/14/1 50/30/1 51/23/1 52/15/1
f 53/28/1 54/31/1 55/14/1 56/13/1
f 57/32/1 58/27/1 59/29/1 60/33/1
f 61/14/1 62/30/1 63/23/1 64/15/1
f 65/15/1 66/23/1 67/26/1 68/21/1
f 69/34/1 70/35/1 71/2/1 72/1/1
f 73/35/1 74/36/1 75/5/1 76/2/1
f 77/36/1 78/37/1 79/38/1 80/5/1
f 81/7/1 82/8/1 83/9/1 84/10/1
f 85/11/1 86/12/1 87/8/1 88/7/1

